<?xml version="1.0" standalone="no"?>
<!DOCTYPE svg PUBLIC "-//W3C//DTD SVG 20010904//EN"
 "http://www.w3.org/TR/2001/REC-SVG-20010904/DTD/svg10.dtd">
<svg version="1.0" xmlns="http://www.w3.org/2000/svg"
 width="1024.000000pt" height="1024.000000pt" viewBox="0 0 1024.000000 1024.000000"
 preserveAspectRatio="xMidYMid meet">

<g transform="translate(0.000000,1024.000000) scale(0.100000,-0.100000)"
fill="#000000" stroke="none">
<path d="M3070 8906 l0 -176 -172 0 -173 0 -3 -345 -4 -345 346 0 346 0 0
-170 0 -170 170 0 170 0 0 -170 0 -170 -340 0 -340 0 0 -170 0 -170 340 0 340
0 0 170 0 170 1370 0 1370 -1 0 -176 0 -176 337 7 c247 5 339 10 345 19 4 7 8
83 8 170 l0 157 -345 0 -345 0 0 170 0 170 170 0 170 0 2 168 3 167 343 3 342
2 0 345 0 345 -175 0 -174 0 4 170 3 170 -344 0 -344 0 0 -345 0 -345 -170 0
-170 0 0 -340 0 -340 -1030 0 -1030 0 0 340 0 340 -67 1 c-38 1 -72 2 -78 4
-5 1 -52 3 -102 3 l-93 2 0 340 0 340 -294 0 c-161 0 -314 3 -340 6 l-46 7 0
-177z"/>
<path d="M2726 6868 c0 -84 -1 -161 -3 -170 -4 -16 -21 -18 -174 -18 l-169 0
0 -339 0 -338 -82 -6 c-46 -4 -120 -7 -165 -7 l-83 0 0 -202 c0 -112 -3 -418
-7 -680 l-6 -478 54 -2 c30 -1 108 -2 174 -3 l120 -1 3 -167 2 -167 165 0 165
0 0 -164 c0 -91 4 -167 9 -170 4 -3 83 -9 175 -12 l166 -7 0 -162 c0 -160 0
-163 23 -169 12 -3 88 -6 170 -6 l147 0 0 -165 0 -165 -170 0 -170 0 0 -175 0
-175 168 2 167 3 3 171 2 171 339 -5 338 -5 6 93 c4 51 7 128 7 172 l0 78
-175 0 -175 0 -2 173 -3 172 -338 0 -337 0 0 168 0 167 -155 1 c-85 1 -159 3
-165 4 -5 1 -14 3 -20 4 -7 1 -10 407 -10 1196 l0 1195 175 0 175 0 -2 168 -3
167 -170 3 -170 2 1 -152z"/>
<path d="M7170 6850 l0 -170 175 0 175 0 0 -1195 0 -1195 170 0 170 0 0 164 0
164 28 3 c15 3 89 4 164 4 l138 0 0 360 c0 198 3 505 7 683 l6 322 -171 0
-172 0 0 345 0 345 -169 0 -168 0 -7 31 c-3 17 -6 94 -6 170 l0 139 -170 0
-170 0 0 -170z"/>
<path d="M3420 6332 c-6 -2 -10 -68 -10 -168 l0 -164 -170 0 -170 0 -1 -287
c0 -159 -2 -390 -3 -515 l-2 -228 173 0 173 0 0 -170 0 -170 340 0 340 0 1 70
c1 39 3 75 4 80 1 6 3 50 4 99 l1 89 168 -2 167 -1 -4 510 c-2 281 -4 511 -6
512 -1 2 -74 6 -163 9 l-162 7 0 163 0 163 -335 3 c-184 2 -340 2 -345 0z
m330 -512 l0 -170 -170 0 -170 0 0 170 0 170 170 0 170 0 0 -170z"/>
<path d="M6150 6160 l0 -170 -172 0 -173 0 0 -173 c0 -94 2 -326 3 -514 l2
-343 170 0 170 0 1 -115 c1 -63 3 -119 4 -125 1 -5 3 -28 4 -50 l1 -40 335 0
335 0 0 165 0 165 170 0 170 0 1 233 c0 127 2 359 6 515 l5 282 -53 1 c-58 0
-226 5 -271 8 l-28 1 0 165 0 165 -340 0 -340 0 0 -170z m340 -340 l0 -170
-170 0 -170 0 0 170 0 170 170 0 170 0 0 -170z"/>
<path d="M4440 4460 l0 -170 168 -2 167 -3 3 -171 2 -170 345 -2 345 -2 0 170
0 170 28 1 c15 1 89 1 165 0 l137 -1 0 175 0 175 -165 0 -165 0 0 -144 c0 -79
-3 -157 -6 -173 l-6 -29 -86 2 c-48 1 -201 2 -339 3 l-253 1 0 170 0 170 -170
0 -170 0 0 -170z"/>
<path d="M7175 4115 l8 -165 -279 -2 c-154 0 -283 -2 -289 -3 -5 -2 -36 -3
-67 -4 l-58 -1 0 -165 0 -165 -164 0 -163 0 -7 -52 c-3 -29 -6 -106 -6 -170
l0 -118 339 0 c300 0 340 -2 345 -16 3 -9 6 -86 6 -173 l0 -157 138 -1 c75 0
228 -1 339 -2 l201 -1 4 -65 c1 -36 2 -112 0 -170 l-3 -105 -345 0 -344 0 0
170 0 170 -170 0 -170 0 0 -840 0 -840 -340 0 -340 0 0 223 c0 123 -3 272 -7
330 l-6 107 -509 0 -508 0 -1 -295 c-1 -162 -3 -299 -4 -305 -1 -5 -3 -23 -4
-40 l-1 -30 -335 0 -335 0 0 -170 0 -170 510 0 510 0 0 335 0 335 170 0 170 0
0 -330 0 -330 463 -1 c254 0 563 -1 687 -2 l225 -2 3 673 2 672 510 0 510 0 0
343 0 342 -170 -4 -170 -3 0 171 0 171 -187 0 c-104 0 -259 3 -345 7 l-158 6
0 164 0 163 175 0 175 0 0 175 0 175 170 0 170 0 0 165 0 165 -176 0 -176 0 7
-165z"/>
<path d="M2720 2580 l0 -340 169 0 169 0 7 -170 8 -170 338 0 339 0 0 -335 0
-335 173 2 172 3 -1 110 c0 61 -2 440 -2 843 l-2 732 -170 0 -170 0 0 -165 0
-165 -170 0 -170 0 0 -175 0 -175 -175 0 -175 0 0 340 0 340 -170 0 -170 0 0
-340z"/>
</g>
</svg>
