<?xml version="1.0" encoding="UTF-8"?>
<svg version="1.1" xmlns="http://www.w3.org/2000/svg" width="1024" height="1024">
<path d="M0 0 C19.47 0 38.94 0 59 0 C59 19.14 59 38.28 59 58 C76.82 58 94.64 58 113 58 C113 87.7 113 117.4 113 148 C161.84 148 210.68 148 261 148 C261 118.96 261 89.92 261 60 C241.86 60 222.72 60 203 60 C203 40.2 203 20.4 203 0 C223.46 0 243.92 0 265 0 C265 19.47 265 38.94 265 59 C282.49 59 299.98 59 318 59 C318 88.04 318 117.08 318 147 C333.84 147 349.68 147 366 147 C366 161.52 366 176.04 366 191 C380.85 191 395.7 191 411 191 C411 206.18 411 221.36 411 237 C425.85 237.33 440.7 237.66 456 238 C456 251.86 456 265.72 456 280 C468.21 280 480.42 280 493 280 C493 347.32 493 414.64 493 484 C481.12 484 469.24 484 457 484 C457 498.85 457 513.7 457 529 C442.48 529 427.96 529 413 529 C413 541.87 413 554.74 413 568 C391.22 568 369.44 568 347 568 C347 579.22 347 590.44 347 602 C358.88 602 370.76 602 383 602 C383.33 614.87 383.66 627.74 384 641 C397.53 641 411.06 641 425 641 C425 661.46 425 681.92 425 703 C410.81 703 396.62 703 382 703 C382 708.61 382 714.22 382 720 C370.78 720 359.56 720 348 720 C348 764.22 348 808.44 348 854 C302.79 854 257.58 854 211 854 C211 832.22 211 810.44 211 788 C203.74 788 196.48 788 189 788 C189 809.45 189 830.9 189 853 C145.11 853 101.22 853 56 853 C56 833.86 56 814.72 56 795 C62.93 795 69.86 795 77 795 C77 774.21 77 753.42 77 732 C52.91 732 28.82 732 4 732 C4 716.49 4 700.98 4 685 C20.17 685 36.34 685 53 685 C53 671.14 53 657.28 53 643 C61.25 643 69.5 643 78 643 C78 630.13 78 617.26 78 604 C60.51 604 43.02 604 25 604 C25 593.77 25 583.54 25 573 C17.74 573 10.48 573 3 573 C3 558.81 3 544.62 3 530 C-6.9 530 -16.8 530 -27 530 C-27 516.8 -27 503.6 -27 490 C-42.51 490 -58.02 490 -74 490 C-74 420.7 -74 351.4 -74 280 C-59.48 280 -44.96 280 -30 280 C-30 265.48 -30 250.96 -30 236 C-15.48 236 -0.96 236 14 236 C14 221.15 14 206.3 14 191 C28.19 191 42.38 191 57 191 C57 147.77 57 104.54 57 60 C38.19 60 19.38 60 0 60 C0 40.2 0 20.4 0 0 Z " fill="#FDFDFD" transform="translate(308,76)"/>
<path d="M0 0 C19.47 0 38.94 0 59 0 C59 19.14 59 38.28 59 58 C76.82 58 94.64 58 113 58 C113 87.7 113 117.4 113 148 C161.84 148 210.68 148 261 148 C261 118.96 261 89.92 261 60 C241.86 60 222.72 60 203 60 C203 40.2 203 20.4 203 0 C223.46 0 243.92 0 265 0 C265 19.47 265 38.94 265 59 C282.49 59 299.98 59 318 59 C318 88.04 318 117.08 318 147 C333.84 147 349.68 147 366 147 C366 161.52 366 176.04 366 191 C380.85 191 395.7 191 411 191 C411 206.18 411 221.36 411 237 C425.85 237.33 440.7 237.66 456 238 C456 251.86 456 265.72 456 280 C468.21 280 480.42 280 493 280 C493 347.32 493 414.64 493 484 C481.12 484 469.24 484 457 484 C457 498.85 457 513.7 457 529 C442.48 529 427.96 529 413 529 C413 541.87 413 554.74 413 568 C391.22 568 369.44 568 347 568 C347 579.22 347 590.44 347 602 C358.88 602 370.76 602 383 602 C383.33 614.87 383.66 627.74 384 641 C397.53 641 411.06 641 425 641 C425 661.46 425 681.92 425 703 C410.81 703 396.62 703 382 703 C382 708.61 382 714.22 382 720 C370.78 720 359.56 720 348 720 C348 764.22 348 808.44 348 854 C302.79 854 257.58 854 211 854 C211 832.22 211 810.44 211 788 C203.74 788 196.48 788 189 788 C189 809.45 189 830.9 189 853 C145.11 853 101.22 853 56 853 C56 833.86 56 814.72 56 795 C62.93 795 69.86 795 77 795 C77 774.21 77 753.42 77 732 C52.91 732 28.82 732 4 732 C4 716.49 4 700.98 4 685 C20.17 685 36.34 685 53 685 C53 671.14 53 657.28 53 643 C61.25 643 69.5 643 78 643 C78 630.13 78 617.26 78 604 C60.51 604 43.02 604 25 604 C25 593.77 25 583.54 25 573 C17.74 573 10.48 573 3 573 C3 558.81 3 544.62 3 530 C-6.9 530 -16.8 530 -27 530 C-27 516.8 -27 503.6 -27 490 C-42.51 490 -58.02 490 -74 490 C-74 420.7 -74 351.4 -74 280 C-59.48 280 -44.96 280 -30 280 C-30 265.48 -30 250.96 -30 236 C-15.48 236 -0.96 236 14 236 C14 221.15 14 206.3 14 191 C28.19 191 42.38 191 57 191 C57 147.77 57 104.54 57 60 C38.19 60 19.38 60 0 60 C0 40.2 0 20.4 0 0 Z M59 193 C59 207.85 59 222.7 59 238 C44.15 238 29.3 238 14 238 C14 252.19 14 266.38 14 281 C5.75 281 -2.5 281 -11 281 C-11 289.91 -11 298.82 -11 308 C-16.61 308 -22.22 308 -28 308 C-28 352.55 -28 397.1 -28 443 C-32.29 443 -36.58 443 -41 443 C-41 449.93 -41 456.86 -41 464 C8.5 464 58 464 109 464 C109 471.26 109 478.52 109 486 C116.59 486 124.18 486 132 486 C132 493.92 132 501.84 132 510 C138.6 510 145.2 510 152 510 C152 535.08 152 560.16 152 586 C145.4 586 138.8 586 132 586 C132 591.94 132 597.88 132 604 C121.11 604 110.22 604 99 604 C99 677.26 99 750.52 99 826 C114.84 826 130.68 826 147 826 C147 800.92 147 775.84 147 750 C169.11 750 191.22 750 214 750 C214 775.08 214 800.16 214 826 C243.04 826 272.08 826 302 826 C302 780.13 302 734.26 302 687 C290.78 687 279.56 687 268 687 C268 672.15 268 657.3 268 642 C280.87 642 293.74 642 307 642 C307 656.19 307 670.38 307 685 C331.09 685 355.18 685 380 685 C380 671.47 380 657.94 380 644 C368.45 643.67 356.9 643.34 345 643 C345 630.13 345 617.26 345 604 C319.92 604 294.84 604 269 604 C269 591.46 269 578.92 269 566 C287.81 566 306.62 566 326 566 C326.33 553.79 326.66 541.58 327 529 C345.15 528.67 363.3 528.34 382 528 C382 513.81 382 499.62 382 485 C394.21 484.67 406.42 484.34 419 484 C419 418 419 352 419 284 C415.7 284 412.4 284 409 284 C409 268.82 409 253.64 409 238 C394.48 238 379.96 238 365 238 C365 223.15 365 208.3 365 193 C264.02 193 163.04 193 59 193 Z " fill="#090909" transform="translate(308,76)"/>
<path d="M0 0 C32.34 0 64.68 0 98 0 C98 7.59 98 15.18 98 23 C106.25 23 114.5 23 123 23 C123 30.59 123 38.18 123 46 C131.25 46 139.5 46 148 46 C148 81.97 148 117.94 148 155 C139.75 155 131.5 155 123 155 C123 163.91 123 172.82 123 182 C115.74 182 108.48 182 101 182 C101 188.6 101 195.2 101 202 C67.67 202 34.34 202 0 202 C0 195.4 0 188.8 0 182 C-8.25 182 -16.5 182 -25 182 C-25 173.09 -25 164.18 -25 155 C-32.26 155 -39.52 155 -47 155 C-47 119.03 -47 83.06 -47 46 C-39.74 46 -32.48 46 -25 46 C-25 38.41 -25 30.82 -25 23 C-16.75 23 -8.5 23 0 23 C0 15.41 0 7.82 0 0 Z " fill="#080809" transform="translate(449,358)"/>
<path d="M0 0 C14.19 0 28.38 0 43 0 C42.67 14.19 42.34 28.38 42 43 C28.47 43 14.94 43 1 43 C0.09791877 40.2937563 -0.12227599 38.76149014 -0.11352539 35.98754883 C-0.11340454 35.175802 -0.11328369 34.36405518 -0.11315918 33.52770996 C-0.10804321 32.67938599 -0.10292725 31.83106201 -0.09765625 30.95703125 C-0.09664917 30.17372437 -0.09564209 29.39041748 -0.09460449 28.58337402 C-0.08937588 25.65973444 -0.07541461 22.73611574 -0.0625 19.8125 C-0.041875 13.274375 -0.02125 6.73625 0 0 Z " fill="#0A0A0A" transform="translate(323,269)"/>
<path d="M0 0 C1.56047444 0.00025108 3.12095443 0.00581199 4.68139648 0.01586914 C5.40774292 0.01687622 6.13408936 0.0178833 6.88244629 0.0189209 C9.60581024 0.02416823 12.32915176 0.03812939 15.05249023 0.05102539 C21.13686523 0.07165039 27.22124023 0.09227539 33.48999023 0.11352539 C33.48999023 12.98352539 33.48999023 25.85352539 33.48999023 39.11352539 C21.27999023 39.11352539 9.06999023 39.11352539 -3.51000977 39.11352539 C-3.67545162 33.72012085 -3.83783275 28.32681211 -3.9921875 22.93310547 C-4.04568511 21.09678789 -4.10102022 19.26052292 -4.15820312 17.42431641 C-4.2398984 14.79088692 -4.31506714 12.15734135 -4.38891602 9.52368164 C-4.41595108 8.69763931 -4.44298615 7.87159698 -4.47084045 7.02052307 C-4.52283987 5.05216729 -4.52188814 3.08253208 -4.51000977 1.11352539 C-3.51000977 0.11352539 -3.51000977 0.11352539 0 0 Z " fill="#FBFBFB" transform="translate(451.510009765625,405.886474609375)"/>
<path d="M0 0 C6.6 0 13.2 0 20 0 C20 13.86 20 27.72 20 42 C13.4 42 6.8 42 0 42 C0 28.14 0 14.28 0 0 Z " fill="#EEEEEE" transform="translate(366,763)"/>
<path d="M0 0 C1.93842773 0.07250977 1.93842773 0.07250977 3.91601562 0.14648438 C5.27083869 0.20299676 6.62565634 0.25963901 7.98046875 0.31640625 C9.35479682 0.36968231 10.72914578 0.42242226 12.10351562 0.47460938 C15.4585764 0.60410295 18.81332602 0.73906341 22.16796875 0.87890625 C22.16796875 1.20890625 22.16796875 1.53890625 22.16796875 1.87890625 C11.27796875 1.87890625 0.38796875 1.87890625 -10.83203125 1.87890625 C-10.83203125 16.72890625 -10.83203125 31.57890625 -10.83203125 46.87890625 C-25.35203125 46.87890625 -39.87203125 46.87890625 -54.83203125 46.87890625 C-54.83203125 59.74890625 -54.83203125 72.61890625 -54.83203125 85.87890625 C-76.61203125 85.87890625 -98.39203125 85.87890625 -120.83203125 85.87890625 C-120.83203125 97.09890625 -120.83203125 108.31890625 -120.83203125 119.87890625 C-118.52203125 119.87890625 -116.21203125 119.87890625 -113.83203125 119.87890625 C-114.16203125 120.53890625 -114.49203125 121.19890625 -114.83203125 121.87890625 C-116.81203125 121.87890625 -118.79203125 121.87890625 -120.83203125 121.87890625 C-120.83203125 134.41890625 -120.83203125 146.95890625 -120.83203125 159.87890625 C-109.61203125 159.87890625 -98.39203125 159.87890625 -86.83203125 159.87890625 C-86.83203125 160.20890625 -86.83203125 160.53890625 -86.83203125 160.87890625 C-91.63732997 161.04637399 -96.44279028 161.20694839 -101.24853516 161.36108398 C-102.88401518 161.41451724 -104.51943436 161.46984765 -106.15478516 161.52709961 C-108.50279619 161.60897386 -110.85094015 161.68406608 -113.19921875 161.7578125 C-114.29929764 161.7983651 -114.29929764 161.7983651 -115.42160034 161.83973694 C-120.60428784 161.99277796 -120.60428784 161.99277796 -122.83203125 160.87890625 C-122.83203125 148.00890625 -122.83203125 135.13890625 -122.83203125 121.87890625 C-147.91203125 121.87890625 -172.99203125 121.87890625 -198.83203125 121.87890625 C-198.83203125 109.33890625 -198.83203125 96.79890625 -198.83203125 83.87890625 C-179.69203125 83.87890625 -160.55203125 83.87890625 -140.83203125 83.87890625 C-140.83203125 84.20890625 -140.83203125 84.53890625 -140.83203125 84.87890625 C-159.93845289 86.15723315 -178.71627272 85.96348829 -197.83203125 84.87890625 C-197.83203125 96.75890625 -197.83203125 108.63890625 -197.83203125 120.87890625 C-189.91203125 120.38390625 -189.91203125 120.38390625 -181.83203125 119.87890625 C-177.59527913 119.79428935 -173.37619184 119.73779305 -169.140625 119.74609375 C-168.02567154 119.74513702 -166.91071808 119.7441803 -165.76197815 119.74319458 C-163.43889305 119.74252206 -161.11580596 119.74431049 -158.79272461 119.74853516 C-155.24523744 119.75394329 -151.6978742 119.74853493 -148.15039062 119.7421875 C-145.87630181 119.74284755 -143.60221306 119.7441272 -141.328125 119.74609375 C-139.75145302 119.7430574 -139.75145302 119.7430574 -138.14292908 119.73995972 C-132.93054789 119.75657428 -127.96769024 119.97104904 -122.83203125 120.87890625 C-122.83726807 119.79359619 -122.84250488 118.70828613 -122.84790039 117.59008789 C-122.86594961 113.57772643 -122.87746296 109.56536858 -122.88696289 105.55297852 C-122.89200329 103.81371457 -122.89883555 102.07445489 -122.9074707 100.33520508 C-122.91954917 97.84064688 -122.92526233 95.34614452 -122.9296875 92.8515625 C-122.93484879 92.06926773 -122.94001007 91.28697296 -122.94532776 90.48097229 C-122.94552351 88.61323511 -122.89402819 86.74561421 -122.83203125 84.87890625 C-121.83203125 83.87890625 -121.83203125 83.87890625 -119.24412537 83.75865173 C-118.09162796 83.76087234 -116.93913055 83.76309296 -115.75170898 83.76538086 C-113.79979897 83.76549416 -113.79979897 83.76549416 -111.80845642 83.76560974 C-110.37751223 83.77071716 -108.94656843 83.77593317 -107.515625 83.78125 C-106.05973865 83.78311422 -104.60385168 83.7845381 -103.14796448 83.78553772 C-99.30923746 83.7893626 -95.47054806 83.79919261 -91.63183594 83.8102417 C-87.71745309 83.82045647 -83.80306419 83.82503548 -79.88867188 83.83007812 C-72.20310782 83.84081491 -64.5175748 83.85789096 -56.83203125 83.87890625 C-56.83726807 82.76854004 -56.84250488 81.65817383 -56.84790039 80.51416016 C-56.8659711 76.40300296 -56.87747087 72.29184929 -56.88696289 68.18066406 C-56.89199836 66.39973358 -56.89882706 64.61880725 -56.9074707 62.83789062 C-56.91957067 60.2812396 -56.92526734 57.72464313 -56.9296875 55.16796875 C-56.93484879 54.36896149 -56.94001007 53.56995422 -56.94532776 52.74673462 C-56.94590296 47.10664966 -56.94590296 47.10664966 -55.83203125 44.87890625 C-41.31203125 44.87890625 -26.79203125 44.87890625 -11.83203125 44.87890625 C-11.83203125 30.35890625 -11.83203125 15.83890625 -11.83203125 0.87890625 C-7.51102288 0.01470458 -4.33913538 -0.1720362 0 0 Z M-140.83203125 47.87890625 C-140.50203125 47.87890625 -140.17203125 47.87890625 -139.83203125 47.87890625 C-139.83203125 59.75890625 -139.83203125 71.63890625 -139.83203125 83.87890625 C-140.16203125 83.87890625 -140.49203125 83.87890625 -140.83203125 83.87890625 C-140.83203125 71.99890625 -140.83203125 60.11890625 -140.83203125 47.87890625 Z " fill="#030303" transform="translate(775.83203125,558.12109375)"/>
<path d="M0 0 C0.33 0 0.66 0 1 0 C1 19.14 1 38.28 1 58 C19.48 58 37.96 58 57 58 C57 39.52 57 21.04 57 2 C55.35 2 53.7 2 52 2 C52 1.67 52 1.34 52 1 C54.31 1 56.62 1 59 1 C59 19.81 59 38.62 59 58 C76.82 58 94.64 58 113 58 C112.67 58.99 112.34 59.98 112 61 C94.51 60.67 77.02 60.34 59 60 C59 102.9 59 145.8 59 190 C58.34 190.33 57.68 190.66 57 191 C57 147.77 57 104.54 57 60 C38.19 60 19.38 60 0 60 C0 40.2 0 20.4 0 0 Z " fill="#131313" transform="translate(308,76)"/>
<path d="M0 0 C22.11 0 44.22 0 67 0 C67 2.97 67 5.94 67 9 C66.01 8.505 66.01 8.505 65 8 C65.33 6.02 65.66 4.04 66 2 C44.88 2 23.76 2 2 2 C2 26.75 2 51.5 2 77 C1.01 77.495 1.01 77.495 0 78 C0 52.26 0 26.52 0 0 Z " fill="#2C2B2C" transform="translate(455,826)"/>
<path d="M0 0 C4.14581887 -0.02886751 8.29161216 -0.04675327 12.4375 -0.0625 C14.21350586 -0.07506836 14.21350586 -0.07506836 16.02539062 -0.08789062 C17.15009766 -0.09111328 18.27480469 -0.09433594 19.43359375 -0.09765625 C20.47572021 -0.10289307 21.51784668 -0.10812988 22.59155273 -0.11352539 C25 0 25 0 26 1 C26 7.27 26 13.54 26 20 C58.01 20 90.02 20 123 20 C123 14.39 123 8.78 123 3 C123.33 3 123.66 3 124 3 C124.495 12.405 124.495 12.405 125 22 C91.67 22 58.34 22 24 22 C24 15.07 24 8.14 24 1 C16.08 1 8.16 1 0 1 C0 0.67 0 0.34 0 0 Z " fill="#000000" transform="translate(425,538)"/>
<path d="M0 0 C8.58 0 17.16 0 26 0 C26 0.66 26 1.32 26 2 C18.08 2 10.16 2 2 2 C2.05220703 6.29644531 2.05220703 6.29644531 2.10546875 10.6796875 C2.12884879 13.44644168 2.1470742 16.21318495 2.16479492 18.97998047 C2.17990395 20.90646267 2.20039214 22.83291035 2.22631836 24.75927734 C2.26260925 27.52450057 2.27970479 30.28927004 2.29296875 33.0546875 C2.30845261 33.9193161 2.32393646 34.7839447 2.33988953 35.67477417 C2.34057617 38.10107422 2.34057617 38.10107422 2 42 C-1.23006788 44.15337859 -1.9583826 44.23435972 -5.6550293 44.13525391 C-6.59577805 44.11508209 -7.53652679 44.09491028 -8.50578308 44.0741272 C-9.51836685 44.04193085 -10.53095062 44.0097345 -11.57421875 43.9765625 C-12.61318802 43.95153656 -13.65215729 43.92651062 -14.72261047 43.90072632 C-18.04457009 43.81848376 -21.36593901 43.72190985 -24.6875 43.625 C-26.93812683 43.56676485 -29.18877797 43.50946148 -31.43945312 43.453125 C-36.96010178 43.3146506 -42.4797197 43.1568141 -48 43 C-48 58.18 -48 73.36 -48 89 C-48.33 89 -48.66 89 -49 89 C-49 73.49 -49 57.98 -49 42 C-32.83 42 -16.66 42 0 42 C0 28.14 0 14.28 0 0 Z " fill="#1E1F1F" transform="translate(361,719)"/>
<path d="M0 0 C0.33 0 0.66 0 1 0 C1 14.52 1 29.04 1 44 C29.05 44 57.1 44 86 44 C83.44069538 46.55930462 81.78195224 46.23563634 78.29348755 46.24884033 C77.49651459 46.24164978 76.69954163 46.23445923 75.87841797 46.22705078 C75.03931885 46.22734283 74.20021973 46.22763489 73.33569336 46.22793579 C70.55442056 46.22653933 67.77341366 46.21096335 64.9921875 46.1953125 C63.06690619 46.19158349 61.14162299 46.18873599 59.21633911 46.18673706 C54.1429523 46.17909176 49.06967956 46.1594356 43.99633789 46.1373291 C38.82179304 46.11688995 33.64722981 46.10773948 28.47265625 46.09765625 C18.31505398 46.07619054 8.15753647 46.04204381 -2 46 C-2.04951099 40.25253551 -2.0857723 34.50519573 -2.10986328 28.75756836 C-2.11990853 26.80311927 -2.13354717 24.84868516 -2.15087891 22.89428711 C-2.17519203 20.08183083 -2.18649797 17.26957361 -2.1953125 14.45703125 C-2.20563507 13.58601273 -2.21595764 12.7149942 -2.22659302 11.81758118 C-2.22740224 7.42239652 -2.06916555 3.99871612 0 0 Z " fill="#010001" transform="translate(521,858)"/>
<path d="M0 0 C6.6 0 13.2 0 20 0 C20 24.75 20 49.5 20 75 C13.4 75 6.8 75 0 75 C0 78.63 0 82.26 0 86 C-0.33 86 -0.66 86 -1 86 C-1.02686553 84.02090602 -1.04633375 82.04171029 -1.0625 80.0625 C-1.07410156 78.96035156 -1.08570313 77.85820313 -1.09765625 76.72265625 C-1 74 -1 74 0 73 C5.94 73 11.88 73 18 73 C18 49.57 18 26.14 18 2 C12.06 1.67 6.12 1.34 0 1 C0 0.67 0 0.34 0 0 Z " fill="#000000" transform="translate(440,587)"/>
<path d="M0 0 C15.84 0 31.68 0 48 0 C48 14.52 48 29.04 48 44 C47.01 43.505 47.01 43.505 46 43 C46 29.47 46 15.94 46 2 C31.15 2 16.3 2 1 2 C0.67 1.34 0.34 0.68 0 0 Z " fill="#323232" transform="translate(626,223)"/>
<path d="M0 0 C0 15.51 0 31.02 0 47 C-6.6 47 -13.2 47 -20 47 C-19.67 46.01 -19.34 45.02 -19 44 C-13.06 44 -7.12 44 -1 44 C-1 30.14 -1 16.28 -1 2 C-7.6 2 -14.2 2 -21 2 C-21 15.86 -21 29.72 -21 44 C-21.33 44 -21.66 44 -22 44 C-22 29.81 -22 15.62 -22 1 C-15.03580586 -1.32139805 -7.34090518 0 0 0 Z " fill="#000000" transform="translate(387,761)"/>
<path d="M0 0 C10.89 0 21.78 0 33 0 C33 7.59 33 15.18 33 23 C30.93276286 19.89914429 30.75502577 19.27068319 30.8046875 15.76953125 C30.81113281 14.96708984 30.81757812 14.16464844 30.82421875 13.33789062 C30.84097656 12.50451172 30.85773437 11.67113281 30.875 10.8125 C30.88402344 9.96751953 30.89304687 9.12253906 30.90234375 8.25195312 C30.92589297 6.16784757 30.96176353 4.08388783 31 2 C29.69796631 2.01571045 29.69796631 2.01571045 28.36962891 2.03173828 C25.15300472 2.06579716 21.93647233 2.09088767 18.71972656 2.10986328 C17.32679219 2.11992877 15.93387898 2.13358234 14.54101562 2.15087891 C12.5404564 2.1751022 10.53974385 2.18540814 8.5390625 2.1953125 C7.33459473 2.20578613 6.13012695 2.21625977 4.88916016 2.22705078 C2 2 2 2 0 0 Z " fill="#020202" transform="translate(514,358)"/>
<path d="M0 0 C1.04212646 0.04713135 2.08425293 0.0942627 3.15795898 0.14282227 C4.28266602 0.19116211 5.40737305 0.23950195 6.56616211 0.28930664 C8.34216797 0.37341797 8.34216797 0.37341797 10.15405273 0.45922852 C11.34192383 0.51143555 12.52979492 0.56364258 13.75366211 0.61743164 C16.69986339 0.74758511 19.64576549 0.88256492 22.59155273 1.02172852 C22.59155273 1.35172852 22.59155273 1.68172852 22.59155273 2.02172852 C14.67155273 2.02172852 6.75155273 2.02172852 -1.40844727 2.02172852 C-1.40844727 10.93172852 -1.40844727 19.84172852 -1.40844727 29.02172852 C-4.70844727 28.69172852 -8.00844727 28.36172852 -11.40844727 28.02172852 C-11.40844727 27.69172852 -11.40844727 27.36172852 -11.40844727 27.02172852 C-8.76844727 27.02172852 -6.12844727 27.02172852 -3.40844727 27.02172852 C-3.41368408 26.23934814 -3.4189209 25.45696777 -3.42431641 24.65087891 C-3.44501832 21.12867018 -3.45808565 17.60647421 -3.47094727 14.08422852 C-3.47932617 12.8525293 -3.48770508 11.62083008 -3.49633789 10.35180664 C-3.49956055 9.18198242 -3.5027832 8.0121582 -3.50610352 6.80688477 C-3.51134033 5.72286377 -3.51657715 4.63884277 -3.52197266 3.52197266 C-3.37162857 0.21084623 -3.31608005 0.02991699 0 0 Z " fill="#1D1D1D" transform="translate(573.408447265625,510.978271484375)"/>
</svg>
