<?xml version="1.0" standalone="no"?>
<!DOCTYPE svg PUBLIC "-//W3C//DTD SVG 20010904//EN"
 "http://www.w3.org/TR/2001/REC-SVG-20010904/DTD/svg10.dtd">
<svg version="1.0" xmlns="http://www.w3.org/2000/svg"
 width="1024.000000pt" height="1024.000000pt" viewBox="0 0 1024.000000 1024.000000"
 preserveAspectRatio="xMidYMid meet">

<g transform="translate(0.000000,1024.000000) scale(0.100000,-0.100000)"
fill="#000000" stroke="none">
<path d="M3070 8880 l0 -181 -170 3 -170 3 0 -337 0 -338 345 0 345 0 0 -340
0 -340 -175 0 -175 0 0 -170 0 -170 -170 0 -170 0 0 -165 0 -165 -170 0 -170
0 0 -345 0 -345 -170 0 -170 0 0 -685 0 -685 170 0 170 0 0 -170 0 -170 168 2
167 3 3 1198 2 1197 170 0 170 0 0 165 0 165 175 0 175 0 0 170 0 170 1705 0
1705 0 0 -170 0 -170 170 0 170 0 0 -165 0 -165 170 0 170 0 0 -1200 0 -1200
-170 0 -170 0 0 -170 0 -170 -340 0 -340 0 0 -170 0 -170 -170 0 -170 0 0
-170 0 -170 340 0 340 0 0 -170 0 -170 -170 0 -170 0 0 -840 0 -840 -515 0
-515 0 0 330 0 330 -505 0 -505 0 0 -330 0 -330 -345 0 -345 0 0 840 0 840
-170 0 -170 0 0 170 0 170 -175 0 -175 0 0 -170 0 -170 -170 0 -170 0 0 -510
0 -510 345 0 345 0 0 -505 0 -505 685 0 685 0 0 330 0 330 165 0 165 0 0 -330
0 -330 855 0 855 0 0 505 0 505 340 0 340 0 0 510 0 510 -170 0 -170 0 0 170
0 170 -170 0 -170 0 0 170 0 170 170 0 170 0 0 170 0 170 170 0 170 0 0 170 0
170 170 0 170 0 0 170 0 170 170 0 170 0 0 685 0 685 -170 0 -170 0 0 345 0
345 -170 0 -170 0 0 165 0 165 -170 0 -170 0 0 170 0 170 -170 0 -170 0 0 340
0 340 340 0 340 0 0 335 0 335 -170 0 -170 0 0 180 0 180 -340 0 -340 0 0
-345 0 -345 -170 0 -170 0 0 -335 0 -335 -1030 0 -1030 0 0 335 0 335 -170 0
-170 0 0 345 0 345 -340 0 -340 0 0 -180z m340 -6299 l0 -338 -170 -2 -170 -2
0 340 0 341 170 0 170 0 0 -339z m3760 0 l0 -338 -170 -2 -170 -1 0 340 0 340
170 0 170 0 0 -339z"/>
<path d="M2729 4276 c-2 -2 -3 -79 -1 -170 l3 -166 169 0 170 0 0 -170 0 -170
170 0 170 0 0 -157 c0 -87 4 -164 8 -171 7 -9 48 -12 173 -10 l164 3 3 338 2
337 -345 0 -345 0 0 170 0 170 -168 0 c-93 0 -171 -2 -173 -4z"/>
</g>
</svg>
