<?xml version="1.0" standalone="no"?>
<!DOCTYPE svg PUBLIC "-//W3C//DTD SVG 20010904//EN"
 "http://www.w3.org/TR/2001/REC-SVG-20010904/DTD/svg10.dtd">
<svg version="1.0" xmlns="http://www.w3.org/2000/svg"
 width="1024.000000pt" height="1024.000000pt" viewBox="0 0 1024.000000 1024.000000"
 preserveAspectRatio="xMidYMid meet">

<g transform="translate(0.000000,1024.000000) scale(0.100000,-0.100000)"
fill="#000000" stroke="none">
<path d="M3070 8903 l0 -173 -173 0 -174 0 0 -345 -1 -345 344 0 344 0 0 -340
0 -340 1710 0 1710 0 0 340 0 340 345 0 345 0 0 343 0 342 -37 0 c-21 1 -98 2
-170 3 l-133 2 0 170 0 170 -345 0 -345 0 0 -345 0 -345 -170 0 -170 0 0 -340
0 -340 -1030 0 -1030 0 0 340 0 340 -170 0 -170 0 0 345 0 344 -340 3 -340 3
0 -172z"/>
<path d="M3070 7191 l0 -170 170 -3 170 -3 -2 170 -3 170 -167 3 -168 2 0
-169z"/>
<path d="M6837 7353 c-4 -3 -7 -82 -7 -175 l0 -168 175 0 174 0 3 171 c2 94 1
173 -1 175 -7 7 -337 4 -344 -3z"/>
<path d="M2722 6853 l3 -168 173 -3 172 -2 -2 167 -3 168 -173 3 -173 2 3
-167z"/>
<path d="M7188 7014 c-5 -4 -8 -81 -8 -171 l0 -163 170 0 170 0 0 -1195 0
-1195 170 0 170 0 0 170 0 170 165 0 165 0 0 680 0 680 -165 0 -165 0 0 345 0
345 -170 0 -170 0 0 165 0 165 -87 0 c-49 1 -122 3 -163 6 -41 3 -78 2 -82 -2z"/>
<path d="M2384 6681 c-2 -2 -4 -159 -4 -348 l0 -343 -165 0 -165 0 0 -680 0
-680 170 0 170 0 0 -170 0 -170 165 0 165 0 0 -164 c0 -91 3 -167 8 -169 4 -3
82 -8 175 -12 l167 -7 0 171 0 171 -142 1 c-79 1 -147 2 -153 4 -5 1 -20 3
-32 3 l-23 2 0 1195 0 1194 -166 3 c-91 2 -168 1 -170 -1z"/>
<path d="M4440 5169 l0 -166 -77 -7 c-42 -3 -273 -6 -515 -6 l-438 0 0 170 0
170 -176 0 c-157 0 -175 -2 -170 -16 3 -9 6 -85 6 -170 l0 -154 170 0 170 0 0
-175 0 -175 288 0 c159 0 391 3 515 7 l227 6 0 169 0 168 170 0 170 0 0 170 0
169 -170 3 -170 3 0 -166z"/>
<path d="M5465 5160 l0 -170 167 0 168 0 2 -167 3 -168 513 -3 512 -2 0 170 0
170 -515 0 -515 0 0 170 0 170 -167 0 -168 0 0 -170z"/>
<path d="M6840 5160 l0 -170 170 0 170 0 0 170 0 170 -170 0 -170 0 0 -170z"/>
<path d="M5466 4135 l0 -170 167 -3 167 -2 0 169 0 170 -167 3 -168 3 1 -170z"/>
<path d="M4440 4130 l0 -170 170 0 170 0 0 -170 0 -170 345 0 345 0 0 170 0
170 -345 0 -345 0 0 170 0 170 -170 0 -170 0 0 -170z"/>
<path d="M7180 4115 l0 -165 -238 0 c-132 0 -287 -3 -345 -7 l-107 -6 0 -168
0 -168 -142 0 c-79 0 -155 0 -170 -1 l-28 0 0 -165 0 -165 345 0 345 0 0 -170
0 -170 170 0 170 0 -2 171 -3 172 -167 -2 -168 -2 0 165 0 166 170 0 170 0 0
175 0 175 170 0 170 0 0 165 0 165 -170 0 -170 0 0 -165z"/>
<path d="M3083 3943 c-10 -3 -13 -48 -13 -174 0 -93 3 -168 8 -168 4 1 80 1
170 0 l162 -1 0 -165 0 -166 -170 3 -170 3 0 -175 0 -175 170 3 170 3 0 169 0
170 344 0 343 0 1 165 1 165 -175 0 -174 0 0 174 0 175 -327 0 c-181 -1 -334
-3 -340 -6z"/>
<path d="M3750 2583 l0 -343 -345 0 -345 0 0 340 0 340 -170 0 -170 0 0 -340
0 -340 169 0 169 0 7 -170 8 -170 338 0 339 0 0 -502 0 -503 685 0 685 0 0
335 0 335 168 -1 167 -2 3 -333 2 -334 685 3 685 2 0 500 0 500 345 0 345 0 0
516 c0 467 -2 516 -16 510 -9 -3 -85 -6 -170 -6 l-154 0 0 -337 0 -338 -108 2
c-59 1 -137 2 -174 2 l-68 1 0 335 0 334 -72 3 c-40 2 -117 2 -170 0 l-98 -3
0 -842 0 -842 -345 0 -345 0 0 333 0 332 -510 0 -510 0 0 -335 0 -335 -345 0
-345 0 0 845 0 845 -37 1 c-21 0 -98 1 -170 2 l-133 2 0 -342z"/>
</g>
</svg>
