<?xml version="1.0" standalone="no"?>
<!DOCTYPE svg PUBLIC "-//W3C//DTD SVG 20010904//EN"
 "http://www.w3.org/TR/2001/REC-SVG-20010904/DTD/svg10.dtd">
<svg version="1.0" xmlns="http://www.w3.org/2000/svg"
 width="1024.000000pt" height="1024.000000pt" viewBox="0 0 1024.000000 1024.000000"
 preserveAspectRatio="xMidYMid meet">

<g transform="translate(0.000000,1024.000000) scale(0.100000,-0.100000)"
fill="#000000" stroke="none">
<path d="M6100 9335 l0 -155 -235 0 -235 0 0 -147 0 -148 -155 3 -156 3 3
-148 3 -148 158 -3 157 -3 0 146 0 145 230 0 230 0 0 145 0 145 655 0 655 0 0
-140 0 -140 -105 -1 c-58 -1 -115 -2 -127 -3 l-23 -1 -3 -282 -2 -283 -125 0
-125 0 0 -150 0 -150 -150 0 -150 0 0 -140 0 -140 -482 0 -483 0 3 140 3 140
225 0 224 0 0 150 0 150 -225 0 -225 0 0 -150 0 -150 -160 0 -160 0 0 290 0
290 -130 0 -130 0 0 -145 0 -145 -140 0 -140 0 0 285 0 285 -135 0 -135 0 0
150 0 150 -285 0 -285 0 0 -295 0 -295 140 0 140 0 0 -140 0 -140 140 0 140 0
0 -285 0 -285 145 0 145 0 0 -145 0 -145 -715 0 -715 0 0 -140 0 -140 -270 0
-270 0 0 -145 0 -145 -137 0 -138 0 3 -140 3 -140 -140 0 -141 0 0 -145 0
-145 -130 0 -130 0 0 -280 0 -280 -145 0 -145 0 2 -282 3 -283 143 -3 142 -3
0 286 0 285 130 0 130 0 0 280 0 280 140 0 140 0 0 145 0 145 135 0 135 0 0
140 0 140 270 0 270 0 0 145 0 145 715 0 715 0 0 -145 0 -145 270 0 270 0 0
145 0 145 780 0 780 0 0 -145 0 -145 260 0 260 0 0 -140 0 -140 135 0 135 0 0
-145 0 -146 143 3 142 3 3 143 3 142 -146 0 -145 0 0 143 0 142 -135 -3 -135
-3 0 145 0 146 -260 0 -260 0 0 140 0 140 -145 0 -145 0 0 145 0 145 155 0
155 0 0 140 0 140 120 0 120 0 0 150 0 150 130 0 130 0 0 138 0 137 135 -3
135 -4 0 151 0 151 150 0 150 0 0 145 0 145 -150 0 -150 0 0 155 0 155 -790 0
-790 0 0 -155z"/>
<path d="M6100 8455 l0 -145 260 0 260 0 0 145 0 145 -260 0 -260 0 0 -145z"/>
<path d="M7967 6303 c-4 -3 -7 -129 -7 -280 l0 -273 145 0 145 0 0 -285 0
-286 143 3 142 3 3 283 2 282 -145 0 -145 0 0 280 0 280 -138 0 c-76 0 -142
-3 -145 -7z"/>
<path d="M1450 4335 l0 -845 135 0 135 0 0 -287 0 -288 139 3 139 3 6 31 c3
17 6 145 6 284 l0 254 -145 0 -145 0 0 845 0 845 -135 0 -135 0 0 -845z"/>
<path d="M8537 4888 c-4 -161 -7 -476 -7 -700 l0 -408 -140 0 -140 0 0 -285 0
-285 -146 0 -146 0 4 -280 3 -280 -142 0 -143 0 0 -140 0 -140 -135 0 -135 0
0 -145 0 -145 -392 0 -393 0 3 -145 3 -145 -1500 0 -1501 0 0 145 0 145 -405
0 -405 0 0 145 0 145 -135 0 -135 0 0 135 0 135 -135 0 -135 0 0 140 0 141
-138 -3 -137 -3 -3 -137 -3 -138 133 0 133 0 -3 -140 -3 -140 140 0 141 0 0
-140 0 -140 139 0 138 0 7 -37 c3 -21 6 -86 6 -145 l0 -108 400 0 400 0 -2
-277 -3 -278 -125 0 -125 0 -3 -142 -3 -143 426 0 425 0 0 275 0 275 920 2
920 3 0 -132 0 -133 -127 0 -128 0 2 -147 2 -148 411 -3 410 -2 0 420 0 420
390 0 390 0 0 150 0 150 135 0 135 0 0 145 0 145 150 0 150 0 0 135 0 135 135
0 135 0 0 140 0 140 143 0 142 0 -3 145 -3 145 130 0 131 0 0 985 0 985 -123
0 -124 0 -6 -292z"/>
<path d="M2830 4210 l0 -150 540 -2 540 -3 0 153 0 152 -540 0 -540 0 0 -150z"/>
<path d="M5840 4208 l0 -153 520 0 520 0 0 153 0 152 -520 0 -520 0 0 -152z"/>
<path d="M4200 3913 l0 -143 135 0 134 0 3 -137 3 -138 418 -3 417 -2 0 140 0
140 130 0 130 0 0 140 0 140 -130 0 -129 0 -3 -137 -3 -138 -418 -3 -418 -2 2
140 1 141 -136 2 -136 2 0 -142z"/>
</g>
</svg>
