<?xml version="1.0" encoding="UTF-8"?>
<svg version="1.1" xmlns="http://www.w3.org/2000/svg" width="1024" height="1024">
<path d="M0 0 C63.36 0 126.72 0 192 0 C195.13049517 6.26099034 192.36791183 14.00967519 192 21 C208.83 21 225.66 21 243 21 C244.27491216 23.54982433 244.02596616 25.16465424 243.87890625 28.0078125 C243.83056641 28.99394531 243.78222656 29.98007813 243.73242188 30.99609375 C243.67634766 32.02863281 243.62027344 33.06117188 243.5625 34.125 C243.51029297 35.16527344 243.45808594 36.20554687 243.40429688 37.27734375 C243.27439054 39.85185116 243.13941748 42.42599296 243 45 C243.87011719 44.83757812 244.74023438 44.67515625 245.63671875 44.5078125 C248.76058233 44.03614901 251.65820001 43.86655475 254.8125 43.875 C256.24529297 43.87113281 256.24529297 43.87113281 257.70703125 43.8671875 C261.81870623 44.03302018 265.91015072 44.5455723 270 45 C270 52.92 270 60.84 270 69 C278.58 69 287.16 69 296 69 C296.0309375 74.3521875 296.0309375 74.3521875 296.0625 79.8125 C296.071604 80.93374268 296.08070801 82.05498535 296.09008789 83.21020508 C296.09383423 84.53894653 296.09383423 84.53894653 296.09765625 85.89453125 C296.10551147 87.25348511 296.10551147 87.25348511 296.11352539 88.63989258 C296 91 296 91 295 94 C303.58 94 312.16 94 321 94 C321 102.58 321 111.16 321 120 C322.485 119.505 322.485 119.505 324 119 C325.68811426 118.90682144 327.37962994 118.86930729 329.0703125 118.8671875 C330.04871094 118.86589844 331.02710938 118.86460937 332.03515625 118.86328125 C333.05480469 118.86714844 334.07445312 118.87101562 335.125 118.875 C336.15238281 118.87113281 337.17976562 118.86726563 338.23828125 118.86328125 C339.21410156 118.86457031 340.18992187 118.86585938 341.1953125 118.8671875 C342.09266113 118.86831543 342.99000977 118.86944336 343.91455078 118.87060547 C346 119 346 119 347 120 C347.09311889 121.50418739 347.11746028 123.01271356 347.11352539 124.51977539 C347.11344986 125.48069595 347.11337433 126.44161652 347.11329651 127.43165588 C347.10813522 128.476436 347.10297394 129.52121613 347.09765625 130.59765625 C347.0962413 131.66165146 347.09482635 132.72564667 347.09336853 133.82188416 C347.08775064 137.23545083 347.07519511 140.648953 347.0625 144.0625 C347.05748731 146.37044176 347.052924 148.67838455 347.04882812 150.98632812 C347.03862433 156.65759721 347.01905243 162.32872601 347 168 C355.25 168 363.5 168 372 168 C372 241.59 372 315.18 372 391 C363.75 391 355.5 391 347 391 C347.0721875 393.124375 347.144375 395.24875 347.21875 397.4375 C347.28888091 399.55596945 347.35810316 401.67446685 347.42724609 403.79296875 C347.47480543 405.23570849 347.52326989 406.67841875 347.57275391 408.12109375 C347.8450916 416.08002386 348.05376454 424.03615371 348.09375 432 C348.1002356 432.68892334 348.10672119 433.37784668 348.11340332 434.08764648 C348.11497158 435.72553317 348.06286728 437.36331953 348 439 C347 440 347 440 344.49975586 440.11352539 C343.41573486 440.10828857 342.33171387 440.10305176 341.21484375 440.09765625 C339.46010742 440.09282227 339.46010742 440.09282227 337.66992188 440.08789062 C336.43822266 440.07951172 335.20652344 440.07113281 333.9375 440.0625 C332.08415039 440.05573242 332.08415039 440.05573242 330.19335938 440.04882812 C327.12888587 440.03699618 324.06443707 440.01906008 321 440 C321 448.25 321 456.5 321 465 C318.44276771 466.27861615 316.63262898 466.11336609 313.7734375 466.09765625 C312.3800415 466.09390991 312.3800415 466.09390991 310.95849609 466.09008789 C309.18466553 466.07643188 309.18466553 466.07643188 307.375 466.0625 C301.744375 466.0315625 301.744375 466.0315625 296 466 C296.33 473.92 296.66 481.84 297 490 C293.02782442 490.66202926 289.93829703 491.12297595 286.0390625 491.09765625 C285.24193848 491.09515869 284.44481445 491.09266113 283.62353516 491.09008789 C282.13926025 491.07643188 282.13926025 491.07643188 280.625 491.0625 C277.44875 491.041875 274.2725 491.02125 271 491 C270.67 498.92 270.34 506.84 270 515 C261.09 515 252.18 515 243 515 C243 522.59 243 530.18 243 538 C226.5 538 210 538 193 538 C193 544.93 193 551.86 193 559 C129.31 559 65.62 559 0 559 C0 552.07 0 545.14 0 538 C-16.17 538 -32.34 538 -49 538 C-49 530.41 -49 522.82 -49 515 C-57.91 515 -66.82 515 -76 515 C-76.495 513.515 -76.495 513.515 -77 512 C-77.66 511.67 -78.32 511.34 -79 511 C-78.34 510.67 -77.68 510.34 -77 510 C-76.88950845 505.21578534 -76.88950845 505.21578534 -77.5625 500.5 C-78.14277166 497.18416193 -77.52140241 494.30607753 -77 491 C-78.08269165 491.00785522 -78.08269165 491.00785522 -79.18725586 491.01586914 C-82.43732849 491.03657358 -85.68738728 491.04963918 -88.9375 491.0625 C-90.64196289 491.07506836 -90.64196289 491.07506836 -92.38085938 491.08789062 C-93.46044922 491.09111328 -94.54003906 491.09433594 -95.65234375 491.09765625 C-97.15269165 491.10551147 -97.15269165 491.10551147 -98.68334961 491.11352539 C-101 491 -101 491 -102 490 C-102.09934776 488.31614925 -102.1308005 486.62818403 -102.1328125 484.94140625 C-102.13410156 483.91595703 -102.13539063 482.89050781 -102.13671875 481.83398438 C-102.13285156 480.75439453 -102.12898438 479.67480469 -102.125 478.5625 C-102.12886719 477.48677734 -102.13273437 476.41105469 -102.13671875 475.30273438 C-102.13542969 474.27599609 -102.13414062 473.24925781 -102.1328125 472.19140625 C-102.13168457 471.24467041 -102.13055664 470.29793457 -102.12939453 469.32250977 C-102 467 -102 467 -101 465 C-101.88300781 465.0721875 -102.76601563 465.144375 -103.67578125 465.21875 C-119.4064655 466.43530131 -119.4064655 466.43530131 -126 466 C-127 465 -127 465 -127.11352539 462.59155273 C-127.10828857 461.54942627 -127.10305176 460.5072998 -127.09765625 459.43359375 C-127.09515869 458.42095459 -127.09266113 457.40831543 -127.09008789 456.36499023 C-127.08098389 455.06891846 -127.07187988 453.77284668 -127.0625 452.4375 C-127.041875 448.333125 -127.02125 444.22875 -127 440 C-135.25 440 -143.5 440 -152 440 C-152 423.83 -152 407.66 -152 391 C-160.58 391 -169.16 391 -178 391 C-178.04623994 362.08934264 -178.08195946 333.17869414 -178.10362434 304.26800728 C-178.1056774 301.59908165 -178.10774676 298.93015605 -178.10986328 296.26123047 C-178.1103879 295.59783861 -178.11091252 294.93444675 -178.11145304 294.25095211 C-178.1201642 283.49845842 -178.13593807 272.74598605 -178.15430559 261.99350502 C-178.1729849 250.96683543 -178.18396276 239.94017763 -178.18817699 228.91349304 C-178.19079095 222.7172924 -178.19696107 216.52114016 -178.21146011 210.32495499 C-178.22498289 204.49906381 -178.22923345 198.67324119 -178.22621536 192.84733582 C-178.22676791 190.7034709 -178.2307768 188.55960381 -178.23841095 186.41575241 C-178.24828926 183.49991178 -178.24599508 180.58433363 -178.24050903 177.66848755 C-178.24633472 176.81052271 -178.2521604 175.95255787 -178.25816262 175.0685941 C-178.22824242 169.22824242 -178.22824242 169.22824242 -176 167 C-175.01 167.33 -174.02 167.66 -173 168 C-170.60745424 168.22560676 -168.21071877 168.40848595 -165.8125 168.5625 C-164.54019531 168.64628906 -163.26789063 168.73007812 -161.95703125 168.81640625 C-160.98121094 168.87699219 -160.00539062 168.93757812 -159 169 C-159 168.34 -159 167.68 -159 167 C-157.02 167 -155.04 167 -153 167 C-152.505 167.99 -152.505 167.99 -152 169 C-152 152.5 -152 136 -152 119 C-144.08 119 -136.16 119 -128 119 C-127.67 111.08 -127.34 103.16 -127 95 C-118 93.875 -118 93.875 -114.28125 93.90234375 C-113.49492187 93.90556641 -112.70859375 93.90878906 -111.8984375 93.91210938 C-111.10695313 93.92048828 -110.31546875 93.92886719 -109.5 93.9375 C-108.26636719 93.94426758 -108.26636719 93.94426758 -107.0078125 93.95117188 C-105.00517604 93.96281511 -103.00257773 93.98074444 -101 94 C-101.16242188 93.02804687 -101.32484375 92.05609375 -101.4921875 91.0546875 C-102.10769497 86.73743542 -102.14752212 82.47927706 -102.125 78.125 C-102.12886719 77.35414063 -102.13273437 76.58328125 -102.13671875 75.7890625 C-102.12674989 70.12674989 -102.12674989 70.12674989 -101 69 C-99.14630389 68.91262355 -97.28932459 68.89301847 -95.43359375 68.90234375 C-94.30888672 68.90556641 -93.18417969 68.90878906 -92.02539062 68.91210938 C-90.84138672 68.92048828 -89.65738281 68.92886719 -88.4375 68.9375 C-87.24962891 68.94201172 -86.06175781 68.94652344 -84.83789062 68.95117188 C-81.89190588 68.96300314 -78.94594684 68.98093924 -76 69 C-76 61.08 -76 53.16 -76 45 C-73.39048764 43.69524382 -71.47298715 43.88698428 -68.5546875 43.90234375 C-67.47832031 43.90556641 -66.40195312 43.90878906 -65.29296875 43.91210938 C-64.16503906 43.92048828 -63.03710938 43.92886719 -61.875 43.9375 C-60.17150391 43.94426758 -60.17150391 43.94426758 -58.43359375 43.95117188 C-55.62237353 43.96298372 -52.81118028 43.98091959 -50 44 C-49.67 36.41 -49.34 28.82 -49 21 C-32.83 21 -16.66 21 0 21 C0 14.07 0 7.14 0 0 Z M28 47 C27.90695982 48.47354348 27.88253735 49.95150591 27.88647461 51.42797852 C27.88655014 52.36887833 27.88662567 53.30977814 27.88670349 54.27919006 C27.89186478 55.30209641 27.89702606 56.32500275 27.90234375 57.37890625 C27.9037587 58.42070541 27.90517365 59.46250458 27.90663147 60.53587341 C27.9122492 63.87811094 27.9248047 67.22028257 27.9375 70.5625 C27.94251272 72.82226466 27.94707602 75.08203037 27.95117188 77.34179688 C27.96222439 82.89455391 27.97897976 88.44727225 28 94 C39.7848001 95.40177485 51.62576045 95.14516943 63.47265625 95.1328125 C65.76411448 95.13348764 68.05557265 95.13445941 70.34703064 95.13571167 C75.13883143 95.13718085 79.93061351 95.13506063 84.72241211 95.13037109 C90.81173999 95.12469699 96.90102355 95.12794308 102.99034977 95.13394356 C107.72206443 95.13758971 112.45376893 95.13639176 117.18548393 95.13381577 C119.4277694 95.13315648 121.67005584 95.1339393 123.91234016 95.13629532 C137.31005277 95.14727897 150.62891799 94.86785443 164 94 C164.58790342 90.15839888 165.12595005 86.42236452 165.11352539 82.53344727 C165.11344986 81.7331459 165.11337433 80.93284454 165.11329651 80.10829163 C165.10813522 79.26946945 165.10297394 78.43064728 165.09765625 77.56640625 C165.0962413 76.68846909 165.09482635 75.81053192 165.09336853 74.9059906 C165.08780821 72.12479118 165.07526321 69.34367474 165.0625 66.5625 C165.05747987 64.66731888 165.05291786 62.77213648 165.04882812 60.87695312 C165.0378518 56.25127052 165.02061482 51.62564929 165 47 C161.41436187 46.18013383 158.10726001 45.87445949 154.43218994 45.87301636 C153.3245076 45.87019653 152.21682526 45.86737671 151.07557678 45.86447144 C149.87017746 45.86649567 148.66477814 45.8685199 147.42285156 45.87060547 C145.50758919 45.86797699 145.50758919 45.86797699 143.55363464 45.86529541 C140.06016365 45.86074485 136.56672226 45.86250037 133.07325077 45.8656745 C129.41819746 45.86820819 125.76314667 45.86585794 122.10809326 45.86428833 C115.97488958 45.86247051 109.84169795 45.86486375 103.70849609 45.86962891 C96.60964059 45.87508049 89.51081376 45.87330083 82.41195893 45.8678025 C76.31932143 45.86327189 70.22669259 45.86262027 64.13405395 45.86524117 C60.49388772 45.86680299 56.85373501 45.86700011 53.21356964 45.86370468 C49.16221908 45.86029285 45.11091844 45.86501477 41.05957031 45.87060547 C39.84607407 45.86858124 38.63257782 45.86655701 37.38230896 45.86447144 C36.28590591 45.86729126 35.18950287 45.87011108 34.05987549 45.87301636 C32.62194075 45.8735819 32.62194075 45.8735819 31.15495682 45.87415886 C29.01909535 45.75934394 29.01909535 45.75934394 28 47 Z M-47 70 C-47 78.58 -47 87.16 -47 96 C-55.58 96 -64.16 96 -73 96 C-73.72587534 99.62937669 -74.12079859 102.27621783 -74.09765625 105.86328125 C-74.09515869 106.66290283 -74.09266113 107.46252441 -74.09008789 108.28637695 C-74.08098389 109.28499756 -74.07187988 110.28361816 -74.0625 111.3125 C-74.041875 114.509375 -74.02125 117.70625 -74 121 C-82.25 121 -90.5 121 -99 121 C-99 129.25 -99 137.5 -99 146 C-111.375 146.495 -111.375 146.495 -124 147 C-124 162.18 -124 177.36 -124 193 C-111.1789585 194.153393 -111.1789585 194.153393 -99 194 C-98.67 201.92 -98.34 209.84 -98 218 C-90.52924943 218.85651965 -90.52924943 218.85651965 -83.125 219.125 C-81.76761719 219.12886719 -81.76761719 219.12886719 -80.3828125 219.1328125 C-77.85111102 219.09644935 -77.85111102 219.09644935 -75 218 C-75 202.16 -75 186.32 -75 170 C-62.625 169.505 -62.625 169.505 -50 169 C-50 160.75 -50 152.5 -50 144 C-41.75 144 -33.5 144 -25 144 C-25 135.75 -25 127.5 -25 119 C-20.5078125 119.390625 -20.5078125 119.390625 -16.015625 119.78125 C-10.68448959 120.07166205 -5.33903961 120 0 120 C0 112.08 0 104.16 0 96 C-8.25 96 -16.5 96 -25 96 C-24.9375 85.8125 -24.9375 85.8125 -24.90991211 82.62817383 C-24.90741455 81.78794678 -24.90491699 80.94771973 -24.90234375 80.08203125 C-24.89448853 78.80162964 -24.89448853 78.80162964 -24.88647461 77.49536133 C-24.9569752 74.55928053 -24.9569752 74.55928053 -26 70 C-32.93 70 -39.86 70 -47 70 Z M270 96 C270 104.58 270 113.16 270 122 C268.35 121.67 266.7 121.34 265 121 C263.23447202 120.92252803 261.46641544 120.89200927 259.69921875 120.90234375 C258.72275391 120.90556641 257.74628906 120.90878906 256.74023438 120.91210938 C255.22913086 120.92467773 255.22913086 120.92467773 253.6875 120.9375 C252.66076172 120.94201172 251.63402344 120.94652344 250.57617188 120.95117188 C248.05072118 120.96291816 245.52539095 120.97934435 243 121 C242.9904126 121.8149292 242.9808252 122.6298584 242.97094727 123.46948242 C242.94807943 125.4132487 242.92521159 127.35701497 242.90234375 129.30078125 C243.0320077 134.21245178 243.55516332 139.1067965 244 144 C252.58 144 261.16 144 270 144 C270 160.5 270 177 270 194 C274.00125 193.814375 278.0025 193.62875 282.125 193.4375 C294.47998214 192.92368507 306.66687562 193.18943065 319 194 C320.45478827 191.09042346 320.07412632 188.59583159 320.02172852 185.34716797 C320.01212097 184.66412598 320.00251343 183.98108398 319.99261475 183.27734375 C319.95958537 181.01552142 319.91926823 178.75388989 319.87890625 176.4921875 C319.85460897 174.92563554 319.83076522 173.35907649 319.80735779 171.79251099 C319.74447779 167.66603524 319.67542229 163.53968485 319.60510254 159.41333008 C319.53445441 155.20399695 319.46961639 150.99457484 319.40429688 146.78515625 C319.27523408 138.52333898 319.13965049 130.26164506 319 122 C315.93758173 121.83170223 312.87508013 121.66530338 309.8125 121.5 C308.51602539 121.42845703 308.51602539 121.42845703 307.19335938 121.35546875 C305.93168945 121.28779297 305.93168945 121.28779297 304.64453125 121.21875 C303.87471924 121.17685547 303.10490723 121.13496094 302.31176758 121.09179688 C299.87623902 120.99508563 297.43744793 121 295 121 C294.505 108.625 294.505 108.625 294 96 C286.08 96 278.16 96 270 96 Z M28 122 C28 129.92 28 137.84 28 146 C19.42 146.33 10.84 146.66 2 147 C1.67 154.59 1.34 162.18 1 170 C-6.92 170 -14.84 170 -23 170 C-23 178.58 -23 187.16 -23 196 C-30.92 196 -38.84 196 -47 196 C-47 212.5 -47 229 -47 246 C-55.91 246 -64.82 246 -74 246 C-74 276.69 -74 307.38 -74 339 C-73.01 339.33 -72.02 339.66 -71 340 C-71.99 340.33 -72.98 340.66 -74 341 C-65.09 341 -56.18 341 -47 341 C-47 357.17 -47 373.34 -47 390 C-39.08 390 -31.16 390 -23 390 C-23 397.92 -23 405.84 -23 414 C-14.75 414 -6.5 414 2 414 C2.495 425.88 2.495 425.88 3 438 C65.04 438 127.08 438 191 438 C191.77567023 434.89731909 192.12797188 432.83396324 192.1328125 429.7421875 C192.13474609 428.55689453 192.13474609 428.55689453 192.13671875 427.34765625 C192.13285156 426.53167969 192.12898438 425.71570313 192.125 424.875 C192.12886719 424.05128906 192.13273437 423.22757813 192.13671875 422.37890625 C192.25554581 418.05380837 192.25554581 418.05380837 191 414 C199.91 414 208.82 414 218 414 C218 406.41 218 398.82 218 391 C229.88 390.505 229.88 390.505 242 390 C242 373.83 242 357.66 242 341 C250.58 341 259.16 341 268 341 C268.185625 337.2875 268.37125 333.575 268.5625 329.75 C268.62381104 328.5856543 268.68512207 327.42130859 268.74829102 326.22167969 C268.79139404 325.29774414 268.83449707 324.37380859 268.87890625 323.421875 C268.94960327 322.00793457 268.94960327 322.00793457 269.02172852 320.56542969 C269.10366148 318.04375058 269.10366148 318.04375058 268.44506836 315.84863281 C268 314 268 314 269 311 C268.67329097 308.99890722 268.34022786 306.99883869 268 305 C268.33 304.34 268.66 303.68 269 303 C269.0903601 301.35108007 269.1175539 299.69850814 269.11352539 298.04711914 C269.11341209 296.50025169 269.11341209 296.50025169 269.11329651 294.9221344 C269.10813522 293.80443161 269.10297394 292.68672882 269.09765625 291.53515625 C269.0962413 290.39090683 269.09482635 289.24665741 269.09336853 288.06773376 C269.08775751 284.39929627 269.07521009 280.73091912 269.0625 277.0625 C269.05748581 274.59179776 269.05292276 272.12109456 269.04882812 269.65039062 C269.03897504 264.20738509 269.02474857 258.76441077 269.00672913 253.32142639 C269.0015874 251.54762363 269 249.77381022 269 248 C268.64022702 244.70148574 268.64022702 244.70148574 267 242 C267.32531708 241.42888489 267.65063416 240.85776978 267.98580933 240.26934814 C269.07096725 237.84120402 269.24294401 236.32870504 269.22705078 233.69042969 C269.22689972 232.84986023 269.22674866 232.00929077 269.22659302 231.14324951 C269.21627045 230.24519592 269.20594788 229.34714233 269.1953125 228.421875 C269.1924826 227.4953009 269.18965271 226.56872681 269.18673706 225.61407471 C269.17555611 222.65925091 269.15045527 219.70473195 269.125 216.75 C269.11496751 214.74479605 269.10584213 212.73958734 269.09765625 210.734375 C269.07732649 205.82270518 269.03817378 200.9116932 269 196 C255.14 195.505 255.14 195.505 241 195 C241 193.68 241 192.36 241 191 C241.66 190.67 242.32 190.34 243 190 C242.814375 189.236875 242.62875 188.47375 242.4375 187.6875 C242 185 242 185 243 182 C242.93941338 180.1218149 242.80758579 178.24527068 242.625 176.375 C242.53476562 175.39273438 242.44453125 174.41046875 242.3515625 173.3984375 C242.25149507 171.05246874 242.25149507 171.05246874 241 170 C239.29227642 169.91286169 237.58101351 169.89299993 235.87109375 169.90234375 C234.47395142 169.90609009 234.47395142 169.90609009 233.04858398 169.90991211 C231.85692627 169.91901611 230.66526855 169.92812012 229.4375 169.9375 C225.663125 169.958125 221.88875 169.97875 218 170 C217.67 162.41 217.34 154.82 217 147 C199.84 146.67 182.68 146.34 165 146 C165 138.08 165 130.16 165 122 C119.79 122 74.58 122 28 122 Z M-124 367 C-124 382.51 -124 398.02 -124 414 C-115.75 414 -107.5 414 -99 414 C-99 421.92 -99 429.84 -99 438 C-90.75 438 -82.5 438 -74 438 C-74.33 446.25 -74.66 454.5 -75 463 C-71.75556384 463.81110904 -69.57669405 464.12246345 -66.32324219 464.11352539 C-64.94226349 464.11341209 -64.94226349 464.11341209 -63.53338623 464.11329651 C-62.54783752 464.10813522 -61.56228882 464.10297394 -60.546875 464.09765625 C-59.02383759 464.09553383 -59.02383759 464.09553383 -57.47003174 464.09336853 C-54.22999108 464.08777516 -50.99001975 464.07522385 -47.75 464.0625 C-45.55208433 464.05748414 -43.35416758 464.05292139 -41.15625 464.04882812 C-35.77078519 464.0386592 -30.38547013 464.01908237 -25 464 C-25 456.08 -25 448.16 -25 440 C-33.58 440 -42.16 440 -51 440 C-50.505 438.02 -50.505 438.02 -50 436 C-49.91615615 434.47351214 -49.88218028 432.94382176 -49.88647461 431.41503906 C-49.88655014 430.51440735 -49.88662567 429.61377563 -49.88670349 428.68585205 C-49.89186478 427.72217712 -49.89702606 426.7585022 -49.90234375 425.765625 C-49.9037587 424.77246277 -49.90517365 423.77930054 -49.90663147 422.75604248 C-49.91222412 419.58733088 -49.9247753 416.41869021 -49.9375 413.25 C-49.94251595 411.10026144 -49.94707869 408.95052177 -49.95117188 406.80078125 C-49.96133978 401.53380492 -49.98091673 396.26698177 -50 391 C-62.87 390.505 -62.87 390.505 -76 390 C-76 382.41 -76 374.82 -76 367 C-91.84 367 -107.68 367 -124 367 Z M270 367 C270 383.17 270 399.34 270 416 C261.42 416 252.84 416 244 416 C243.979375 419.58875 243.95875 423.1775 243.9375 426.875 C243.928396 428.00534668 243.91929199 429.13569336 243.90991211 430.30029297 C243.90741455 431.18861816 243.90491699 432.07694336 243.90234375 432.9921875 C243.89710693 433.90339355 243.89187012 434.81459961 243.88647461 435.75341797 C243.85114435 438.03687509 243.85114435 438.03687509 245 440 C236.42 440 227.84 440 219 440 C218.67 447.59 218.34 455.18 218 463 C221.24443616 463.81110904 223.42330595 464.12246345 226.67675781 464.11352539 C228.05773651 464.11341209 228.05773651 464.11341209 229.46661377 464.11329651 C230.45216248 464.10813522 231.43771118 464.10297394 232.453125 464.09765625 C233.97616241 464.09553383 233.97616241 464.09553383 235.52996826 464.09336853 C238.77000892 464.08777516 242.00998025 464.07522385 245.25 464.0625 C247.44791567 464.05748414 249.64583242 464.05292139 251.84375 464.04882812 C257.22921481 464.0386592 262.61452987 464.01908237 268 464 C268.33 455.75 268.66 447.5 269 439 C281.375 438.505 281.375 438.505 294 438 C294.33 430.08 294.66 422.16 295 414 C302.92 414 310.84 414 319 414 C319.79954466 405.20500873 320.10875279 396.51514831 320.125 387.6875 C320.12951172 386.67429687 320.13402344 385.66109375 320.13867188 384.6171875 C320.13673828 383.63363281 320.13480469 382.65007812 320.1328125 381.63671875 C320.13112061 380.33287231 320.13112061 380.33287231 320.12939453 379.00268555 C319.95638321 374.98784369 319.44377659 370.99398928 319 367 C302.83 367 286.66 367 270 367 Z M63 467 C63 482.51 63 498.02 63 514 C96.33 514 129.66 514 164 514 C164.70331247 510.48343764 165.1237292 507.94419857 165.11352539 504.48510742 C165.11344986 503.62459274 165.11337433 502.76407806 165.11329651 501.87748718 C165.10813522 500.9627211 165.10297394 500.04795502 165.09765625 499.10546875 C165.0962413 498.15811356 165.09482635 497.21075836 165.09336853 496.23469543 C165.08778611 493.21893105 165.07523682 490.20324182 165.0625 487.1875 C165.05748273 485.13867295 165.05292022 483.08984473 165.04882812 481.04101562 C165.03782243 476.02731494 165.02056988 471.0136702 165 466 C152.90900017 465.1541206 140.88036825 464.83727253 128.76171875 464.83203125 C126.97955805 464.82880758 125.19739761 464.82544273 123.41523743 464.82194519 C119.72025944 464.81602084 116.02530465 464.81409893 112.33032227 464.81469727 C107.59714915 464.81479996 102.86412244 464.8010084 98.13098431 464.78392506 C94.46874808 464.77282804 90.80654797 464.77077714 87.14429665 464.77130699 C85.39758602 464.77012879 83.6508744 464.76571598 81.90418053 464.75797462 C79.47597028 464.74819631 77.04808838 464.75104118 74.61987305 464.75708008 C73.90355209 464.75146057 73.18723114 464.74584106 72.44920349 464.74005127 C68.4822403 464.76516817 66.67189558 465.16405221 63 467 Z " fill="#000000" transform="translate(415,225)"/>
<path d="M0 0 C0.33 0.66 0.66 1.32 1 2 C58.42 2 115.84 2 175 2 C175.90535014 5.62140056 176.11594269 8.26867861 176.09765625 11.95849609 C176.09270142 13.76089249 176.09270142 13.76089249 176.08764648 15.59970093 C176.07934814 16.894534 176.0710498 18.18936707 176.0625 19.5234375 C176.05809142 20.87098007 176.05427558 22.2185247 176.05102539 23.56607056 C176.03768195 28.55870993 176.01350869 33.55128622 175.98962402 38.54388428 C175.96984114 42.76371537 175.95422041 46.98352265 175.94406128 51.20338821 C175.93761284 53.17641192 175.92503772 55.14941254 175.91235352 57.12240601 C175.90739868 58.93425888 175.90739868 58.93425888 175.90234375 60.78271484 C175.89710693 61.8409848 175.89187012 62.89925476 175.88647461 63.98959351 C175.93642242 67.0537568 175.93642242 67.0537568 176.55297852 70.24795532 C177.06113592 73.37637738 176.81983317 74.45223356 175 77 C172 79 172 79 170.08300781 78.64477539 C169.39561523 78.43199951 168.70822266 78.21922363 168 78 C166.560265 77.85966422 165.11662851 77.75583143 163.671875 77.68359375 C162.87265625 77.64169922 162.0734375 77.59980469 161.25 77.55664062 C160.425 77.51732422 159.6 77.47800781 158.75 77.4375 C157.48929688 77.37272461 157.48929688 77.37272461 156.203125 77.30664062 C154.13559329 77.20091457 152.06781719 77.09998705 150 77 C150.00523682 77.69150146 150.01047363 78.38300293 150.01586914 79.09545898 C150.036575 82.20946352 150.04963963 85.32345361 150.0625 88.4375 C150.07087891 89.52611328 150.07925781 90.61472656 150.08789062 91.73632812 C150.09111328 92.77080078 150.09433594 93.80527344 150.09765625 94.87109375 C150.10289307 95.82943115 150.10812988 96.78776855 150.11352539 97.77514648 C150 100 150 100 149 101 C147.29227642 101.08713831 145.58101351 101.10700007 143.87109375 101.09765625 C142.31938477 101.09282227 142.31938477 101.09282227 140.73632812 101.08789062 C139.64771484 101.07951172 138.55910156 101.07113281 137.4375 101.0625 C135.7987793 101.05573242 135.7987793 101.05573242 134.12695312 101.04882812 C131.41791505 101.03699826 128.70898401 101.02051543 126 101 C125.97088679 104.0833134 125.95316318 107.16659125 125.9375 110.25 C125.92912109 111.12269531 125.92074219 111.99539063 125.91210938 112.89453125 C125.90888672 113.73886719 125.90566406 114.58320312 125.90234375 115.453125 C125.89710693 116.22817383 125.89187012 117.00322266 125.88647461 117.80175781 C125.99963002 119.99283598 126.39447552 121.89637861 127 124 C118.49535069 125.70092986 109.67307455 125 101 125 C101 149.75 101 174.5 101 200 C82.52 200 64.04 200 45 200 C45 175.58 45 151.16 45 126 C44.01 125.505 44.01 125.505 43 125 C48.06466068 123.34235556 52.30013849 122.7525799 57.6875 122.8125 C58.97011719 122.81894531 60.25273437 122.82539062 61.57421875 122.83203125 C65 123 65 123 69 124 C69 115.09 69 106.18 69 97 C76.92 96.67 84.84 96.34 93 96 C93 89.4 93 82.8 93 76 C93.99 76 94.98 76 96 76 C96.495 74.515 96.495 74.515 97 73 C97.33 73.66 97.66 74.32 98 75 C103.94 75 109.88 75 116 75 C116 68.4 116 61.8 116 55 C92.9 55 69.8 55 46 55 C46.495 65.395 46.495 65.395 47 76 C46.67 76.66 46.34 77.32 46 78 C36.2276329 79.6618995 26.23949162 78.88327419 16.375 78.5625 C14.58986127 78.50917599 12.80470497 78.45643663 11.01953125 78.40429688 C6.6794555 78.27627537 2.33969453 78.14032888 -2 78 C-2.20032983 68.56862304 -2.38403426 59.13711082 -2.54658794 49.7050066 C-2.62259123 45.32518358 -2.7042929 40.94562225 -2.79907227 36.56616211 C-2.89034867 32.33883202 -2.96658468 28.11147241 -3.03244972 23.88367271 C-3.06019674 22.27166332 -3.09333977 20.65973738 -3.13199425 19.04795265 C-3.18526137 16.78821963 -3.21923923 14.52894948 -3.2487793 12.26879883 C-3.27320602 10.98306473 -3.29763275 9.69733063 -3.32279968 8.37263489 C-2.97764657 4.76644968 -2.10646478 2.90288753 0 0 Z " fill="#000000" transform="translate(431,416)"/>
<path d="M0 0 C0.33 0 0.66 0 1 0 C1 1.98 1 3.96 1 6 C0.67 6 0.34 6 0 6 C0 4.02 0 2.04 0 0 Z " fill="#141312" transform="translate(788,497)"/>
<path d="M0 0 C1.65 0 3.3 0 5 0 C5 0.33 5 0.66 5 1 C3.35 1 1.7 1 0 1 C0 0.67 0 0.34 0 0 Z " fill="#0F0F10" transform="translate(584,494)"/>
<path d="M0 0 C4 1 4 1 4 1 Z " fill="#0D0D0C" transform="translate(375,422)"/>
<path d="M0 0 C0.66 0 1.32 0 2 0 C1.67 0.66 1.34 1.32 1 2 C0.67 1.34 0.34 0.68 0 0 Z " fill="#070808" transform="translate(479,736)"/>
<path d="" fill="#050606" transform="translate(0,0)"/>
<path d="" fill="#050607" transform="translate(0,0)"/>
<path d="" fill="#0C0D0C" transform="translate(0,0)"/>
<path d="" fill="#151514" transform="translate(0,0)"/>
<path d="" fill="#0D0D0E" transform="translate(0,0)"/>
<path d="" fill="#0E0E0D" transform="translate(0,0)"/>
<path d="" fill="#131213" transform="translate(0,0)"/>
<path d="" fill="#141413" transform="translate(0,0)"/>
<path d="" fill="#141213" transform="translate(0,0)"/>
<path d="M0 0 C0.66 0 1.32 0 2 0 C1.67 0.66 1.34 1.32 1 2 C0.67 1.34 0.34 0.68 0 0 Z " fill="#10100F" transform="translate(659,422)"/>
<path d="M0 0 C3 1 3 1 3 1 Z " fill="#0C0C0C" transform="translate(354,392)"/>
<path d="M0 0 C3 1 3 1 3 1 Z " fill="#0E0C0D" transform="translate(350,392)"/>
<path d="" fill="#10100F" transform="translate(0,0)"/>
<path d="" fill="#0E0D0C" transform="translate(0,0)"/>
<path d="" fill="#161616" transform="translate(0,0)"/>
<path d="M0 0 C2 1 2 1 2 1 Z " fill="#121312" transform="translate(660,564)"/>
<path d="" fill="#0E0F0D" transform="translate(0,0)"/>
<path d="" fill="#141413" transform="translate(0,0)"/>
<path d="" fill="#141415" transform="translate(0,0)"/>
<path d="" fill="#151614" transform="translate(0,0)"/>
<path d="" fill="#151313" transform="translate(0,0)"/>
<path d="" fill="#151514" transform="translate(0,0)"/>
<path d="M0 0 C2 1 2 1 2 1 Z " fill="#131111" transform="translate(595,494)"/>
<path d="M0 0 C2 1 2 1 2 1 Z " fill="#121012" transform="translate(478,492)"/>
<path d="" fill="#141314" transform="translate(0,0)"/>
<path d="" fill="#141414" transform="translate(0,0)"/>
<path d="" fill="#151614" transform="translate(0,0)"/>
<path d="" fill="#0B0C0B" transform="translate(0,0)"/>
<path d="" fill="#141514" transform="translate(0,0)"/>
<path d="" fill="#141413" transform="translate(0,0)"/>
<path d="" fill="#141615" transform="translate(0,0)"/>
<path d="" fill="#0F0F0D" transform="translate(0,0)"/>
<path d="M0 0 C2 1 2 1 2 1 Z " fill="#0D0D0D" transform="translate(664,422)"/>
<path d="M0 0 C2 1 2 1 2 1 Z " fill="#0F100F" transform="translate(384,422)"/>
<path d="M0 0 C2 1 2 1 2 1 Z " fill="#0E0E0E" transform="translate(371,422)"/>
<path d="M0 0 C2 1 2 1 2 1 Z " fill="#0A090A" transform="translate(294,416)"/>
<path d="M0 0 C2 1 2 1 2 1 Z " fill="#0E100E" transform="translate(774,392)"/>
<path d="M0 0 C2 1 2 1 2 1 Z " fill="#0D0B0B" transform="translate(361,392)"/>
<path d="M0 0 C2 1 2 1 2 1 Z " fill="#0E0B0D" transform="translate(604,373)"/>
<path d="M0 0 C2 1 2 1 2 1 Z " fill="#101010" transform="translate(313,373)"/>
<path d="M0 0 C2 1 2 1 2 1 Z " fill="#0C0C0C" transform="translate(292,373)"/>
<path d="" fill="#0B0C0C" transform="translate(0,0)"/>
<path d="M0 0 C2 1 2 1 2 1 Z " fill="#141313" transform="translate(329,292)"/>
<path d="" fill="#121413" transform="translate(0,0)"/>
<path d="" fill="#464746" transform="translate(0,0)"/>
<path d="" fill="#100F0E" transform="translate(0,0)"/>
<path d="" fill="#060706" transform="translate(0,0)"/>
<path d="" fill="#090A09" transform="translate(0,0)"/>
<path d="" fill="#0A0A0A" transform="translate(0,0)"/>
<path d="" fill="#080A08" transform="translate(0,0)"/>
<path d="" fill="#070909" transform="translate(0,0)"/>
<path d="" fill="#0A0A09" transform="translate(0,0)"/>
<path d="" fill="#090909" transform="translate(0,0)"/>
<path d="" fill="#151312" transform="translate(0,0)"/>
<path d="" fill="#111012" transform="translate(0,0)"/>
<path d="" fill="#070607" transform="translate(0,0)"/>
<path d="" fill="#030706" transform="translate(0,0)"/>
<path d="" fill="#050606" transform="translate(0,0)"/>
<path d="" fill="#0F0E0E" transform="translate(0,0)"/>
<path d="" fill="#060706" transform="translate(0,0)"/>
<path d="" fill="#171815" transform="translate(0,0)"/>
<path d="" fill="#080907" transform="translate(0,0)"/>
<path d="" fill="#080A07" transform="translate(0,0)"/>
<path d="" fill="#080707" transform="translate(0,0)"/>
<path d="" fill="#0D0E10" transform="translate(0,0)"/>
<path d="" fill="#080809" transform="translate(0,0)"/>
<path d="" fill="#090809" transform="translate(0,0)"/>
<path d="" fill="#070707" transform="translate(0,0)"/>
<path d="" fill="#0B0C09" transform="translate(0,0)"/>
<path d="" fill="#0D0D0B" transform="translate(0,0)"/>
<path d="" fill="#0D0D0E" transform="translate(0,0)"/>
<path d="" fill="#0D0A0A" transform="translate(0,0)"/>
<path d="" fill="#0F0D0D" transform="translate(0,0)"/>
<path d="" fill="#0D0D0D" transform="translate(0,0)"/>
<path d="" fill="#0D0D0C" transform="translate(0,0)"/>
<path d="" fill="#0F0D0E" transform="translate(0,0)"/>
<path d="" fill="#0F0C0C" transform="translate(0,0)"/>
<path d="" fill="#1A1C19" transform="translate(0,0)"/>
<path d="" fill="#131312" transform="translate(0,0)"/>
<path d="" fill="#121010" transform="translate(0,0)"/>
<path d="" fill="#0A0C09" transform="translate(0,0)"/>
<path d="" fill="#0C0B0B" transform="translate(0,0)"/>
<path d="" fill="#171816" transform="translate(0,0)"/>
<path d="" fill="#0B0B0A" transform="translate(0,0)"/>
<path d="" fill="#0A0809" transform="translate(0,0)"/>
<path d="" fill="#0C0B0C" transform="translate(0,0)"/>
<path d="" fill="#151414" transform="translate(0,0)"/>
<path d="" fill="#080A08" transform="translate(0,0)"/>
<path d="" fill="#141413" transform="translate(0,0)"/>
<path d="" fill="#151616" transform="translate(0,0)"/>
<path d="" fill="#151515" transform="translate(0,0)"/>
<path d="" fill="#151616" transform="translate(0,0)"/>
<path d="" fill="#161416" transform="translate(0,0)"/>
<path d="" fill="#0B0D0D" transform="translate(0,0)"/>
<path d="" fill="#0F0F0D" transform="translate(0,0)"/>
<path d="" fill="#0F1010" transform="translate(0,0)"/>
<path d="" fill="#111112" transform="translate(0,0)"/>
<path d="" fill="#121112" transform="translate(0,0)"/>
<path d="" fill="#0F0F11" transform="translate(0,0)"/>
<path d="" fill="#0F0E0E" transform="translate(0,0)"/>
<path d="" fill="#0B0D0D" transform="translate(0,0)"/>
<path d="" fill="#161515" transform="translate(0,0)"/>
<path d="" fill="#151413" transform="translate(0,0)"/>
<path d="" fill="#100D10" transform="translate(0,0)"/>
<path d="" fill="#0F0F11" transform="translate(0,0)"/>
<path d="" fill="#111011" transform="translate(0,0)"/>
<path d="" fill="#151413" transform="translate(0,0)"/>
<path d="" fill="#141215" transform="translate(0,0)"/>
<path d="" fill="#0E0C0E" transform="translate(0,0)"/>
<path d="" fill="#121214" transform="translate(0,0)"/>
<path d="" fill="#141214" transform="translate(0,0)"/>
<path d="" fill="#131213" transform="translate(0,0)"/>
<path d="" fill="#161415" transform="translate(0,0)"/>
<path d="" fill="#141313" transform="translate(0,0)"/>
<path d="" fill="#131412" transform="translate(0,0)"/>
<path d="" fill="#151715" transform="translate(0,0)"/>
<path d="" fill="#131212" transform="translate(0,0)"/>
<path d="" fill="#10110F" transform="translate(0,0)"/>
<path d="" fill="#141515" transform="translate(0,0)"/>
<path d="" fill="#131414" transform="translate(0,0)"/>
<path d="" fill="#0F0E0E" transform="translate(0,0)"/>
<path d="" fill="#141215" transform="translate(0,0)"/>
<path d="" fill="#141314" transform="translate(0,0)"/>
<path d="" fill="#0F0E0F" transform="translate(0,0)"/>
<path d="" fill="#151413" transform="translate(0,0)"/>
<path d="" fill="#0E0E0C" transform="translate(0,0)"/>
<path d="" fill="#141212" transform="translate(0,0)"/>
<path d="" fill="#0E0C0D" transform="translate(0,0)"/>
<path d="" fill="#121111" transform="translate(0,0)"/>
<path d="" fill="#0F100D" transform="translate(0,0)"/>
<path d="" fill="#131414" transform="translate(0,0)"/>
<path d="" fill="#111011" transform="translate(0,0)"/>
<path d="" fill="#141513" transform="translate(0,0)"/>
<path d="" fill="#151314" transform="translate(0,0)"/>
<path d="" fill="#0D0D0C" transform="translate(0,0)"/>
<path d="" fill="#0F0F0E" transform="translate(0,0)"/>
<path d="" fill="#121414" transform="translate(0,0)"/>
<path d="" fill="#0C0B0A" transform="translate(0,0)"/>
<path d="" fill="#0C0A0A" transform="translate(0,0)"/>
<path d="" fill="#0F100F" transform="translate(0,0)"/>
<path d="" fill="#0F110E" transform="translate(0,0)"/>
<path d="" fill="#121111" transform="translate(0,0)"/>
<path d="" fill="#101012" transform="translate(0,0)"/>
<path d="" fill="#0D0D0C" transform="translate(0,0)"/>
<path d="" fill="#161715" transform="translate(0,0)"/>
<path d="" fill="#0E0C0C" transform="translate(0,0)"/>
<path d="" fill="#171715" transform="translate(0,0)"/>
<path d="" fill="#0F0D0F" transform="translate(0,0)"/>
<path d="" fill="#101112" transform="translate(0,0)"/>
<path d="" fill="#0D1010" transform="translate(0,0)"/>
<path d="" fill="#0F0C0B" transform="translate(0,0)"/>
<path d="" fill="#0A0B0C" transform="translate(0,0)"/>
<path d="" fill="#0D0E0D" transform="translate(0,0)"/>
<path d="" fill="#0D0D0E" transform="translate(0,0)"/>
<path d="" fill="#0D0D0C" transform="translate(0,0)"/>
<path d="" fill="#161410" transform="translate(0,0)"/>
<path d="" fill="#0C0B0C" transform="translate(0,0)"/>
<path d="" fill="#0C0C0E" transform="translate(0,0)"/>
<path d="" fill="#0D0B0C" transform="translate(0,0)"/>
<path d="" fill="#0E0E0D" transform="translate(0,0)"/>
<path d="" fill="#0F0E0E" transform="translate(0,0)"/>
<path d="" fill="#0F0B0D" transform="translate(0,0)"/>
<path d="" fill="#111112" transform="translate(0,0)"/>
<path d="" fill="#0F0F0E" transform="translate(0,0)"/>
<path d="" fill="#0F0E0D" transform="translate(0,0)"/>
<path d="" fill="#0F0E0C" transform="translate(0,0)"/>
<path d="" fill="#0C0E0E" transform="translate(0,0)"/>
<path d="" fill="#0E0E0E" transform="translate(0,0)"/>
<path d="" fill="#0F100F" transform="translate(0,0)"/>
<path d="" fill="#0F0F0D" transform="translate(0,0)"/>
<path d="" fill="#131212" transform="translate(0,0)"/>
<path d="" fill="#0E0D0C" transform="translate(0,0)"/>
<path d="" fill="#0B0A0B" transform="translate(0,0)"/>
<path d="" fill="#0F0E0F" transform="translate(0,0)"/>
<path d="" fill="#111313" transform="translate(0,0)"/>
<path d="" fill="#0F0D0E" transform="translate(0,0)"/>
<path d="" fill="#0D0D0E" transform="translate(0,0)"/>
<path d="" fill="#0E0E0E" transform="translate(0,0)"/>
<path d="" fill="#100F10" transform="translate(0,0)"/>
<path d="" fill="#110F0D" transform="translate(0,0)"/>
<path d="" fill="#0D0D0B" transform="translate(0,0)"/>
<path d="" fill="#090A09" transform="translate(0,0)"/>
<path d="" fill="#191917" transform="translate(0,0)"/>
<path d="" fill="#131214" transform="translate(0,0)"/>
<path d="" fill="#121413" transform="translate(0,0)"/>
<path d="" fill="#101010" transform="translate(0,0)"/>
<path d="" fill="#141112" transform="translate(0,0)"/>
<path d="" fill="#171816" transform="translate(0,0)"/>
<path d="" fill="#181819" transform="translate(0,0)"/>
<path d="" fill="#0F0F10" transform="translate(0,0)"/>
<path d="" fill="#121311" transform="translate(0,0)"/>
<path d="" fill="#171614" transform="translate(0,0)"/>
<path d="" fill="#161613" transform="translate(0,0)"/>
<path d="" fill="#1A1B18" transform="translate(0,0)"/>
<path d="" fill="#12110F" transform="translate(0,0)"/>
<path d="" fill="#1A1919" transform="translate(0,0)"/>
<path d="" fill="#121110" transform="translate(0,0)"/>
</svg>
