<?xml version="1.0" encoding="UTF-8"?>
<svg version="1.1" xmlns="http://www.w3.org/2000/svg" width="1024" height="1024">
<path d="M0 0 C337.92 0 675.84 0 1024 0 C1024 337.92 1024 675.84 1024 1024 C686.08 1024 348.16 1024 0 1024 C0 686.08 0 348.16 0 0 Z " fill="#F0F0F0" transform="translate(0,0)"/>
<path d="M0 0 C56.76 0 113.52 0 172 0 C172 24.09 172 48.18 172 73 C161.11 73 150.22 73 139 73 C139 84.22 139 95.44 139 107 C127.45 107 115.9 107 104 107 C104 118.55 104 130.1 104 142 C92.45 142 80.9 142 69 142 C69 153.55 69 165.1 69 177 C23.79 177 -21.42 177 -68 177 C-68 198.78 -68 220.56 -68 243 C-22.79 243 22.42 243 69 243 C69 266.43 69 289.86 69 314 C57.78 314 46.56 314 35 314 C35 324.89 35 335.78 35 347 C23.78 347 12.56 347 1 347 C1 369.11 1 391.22 1 414 C-10.22 414 -21.44 414 -33 414 C-33 459.54 -33 505.08 -33 552 C-21.78 552 -10.56 552 1 552 C1 574.77 1 597.54 1 621 C12.22 621 23.44 621 35 621 C35 631.89 35 642.78 35 654 C46.22 654 57.44 654 69 654 C69 676.77 69 699.54 69 723 C57.45 723 45.9 723 34 723 C34 734.88 34 746.76 34 759 C-55.76 759 -145.52 759 -238 759 C-238 747.12 -238 735.24 -238 723 C-248.89 723 -259.78 723 -271 723 C-271 712.44 -271 701.88 -271 691 C-282.22 691 -293.44 691 -305 691 C-305 678.79 -305 666.58 -305 654 C-294.11 654 -283.22 654 -272 654 C-272 643.11 -272 632.22 -272 621 C-260.78 621 -249.56 621 -238 621 C-238 598.23 -238 575.46 -238 552 C-226.78 552 -215.56 552 -204 552 C-204 518.01 -204 484.02 -204 449 C-215.55 449 -227.1 449 -239 449 C-239 415.34 -239 381.68 -239 347 C-249.89 347 -260.78 347 -272 347 C-272 336.11 -272 325.22 -272 314 C-283.55 314 -295.1 314 -307 314 C-307 290.57 -307 267.14 -307 243 C-284.89 243 -262.78 243 -240 243 C-240 231.45 -240 219.9 -240 208 C-206.01 208 -172.02 208 -137 208 C-137 174.67 -137 141.34 -137 107 C-148.22 107 -159.44 107 -171 107 C-171 83.57 -171 60.14 -171 36 C-148.56 36 -126.12 36 -103 36 C-103 70.98 -103 105.96 -103 142 C-91.78 142 -80.56 142 -69 142 C-69 119.23 -69 96.46 -69 73 C-57.12 73 -45.24 73 -33 73 C-33 61.78 -33 50.56 -33 39 C-22.11 39 -11.22 39 0 39 C0 26.13 0 13.26 0 0 Z " fill="#010101" transform="translate(613,125)"/>
<path d="M0 0 C33 0 66 0 100 0 C100 11.22 100 22.44 100 34 C156.76 34 213.52 34 272 34 C272 45.22 272 56.44 272 68 C260.78 68 249.56 68 238 68 C238 78.89 238 89.78 238 101 C226.45 101 214.9 101 203 101 C203 157.76 203 214.52 203 273 C214.55 273 226.1 273 238 273 C238 296.1 238 319.2 238 343 C249.55 343 261.1 343 273 343 C273 353.89 273 364.78 273 376 C283.89 376 294.78 376 306 376 C306 387.22 306 398.44 306 410 C216.57 410 127.14 410 35 410 C35 387.89 35 365.78 35 343 C46.22 343 57.44 343 69 343 C69 330.46 69 317.92 69 305 C80.22 305 91.44 305 103 305 C103 260.45 103 215.9 103 170 C91.78 170 80.56 170 69 170 C69 136.34 69 102.68 69 68 C57.45 68 45.9 68 34 68 C34 56.78 34 45.56 34 34 C22.78 34 11.56 34 0 34 C0 22.78 0 11.56 0 0 Z " fill="#F0F0F0" transform="translate(341,404)"/>
<path d="M0 0 C11.55 0 23.1 0 35 0 C35 11.22 35 22.44 35 34 C23.78 34 12.56 34 1 34 C1 56.11 1 78.22 1 101 C-10.22 101 -21.44 101 -33 101 C-33 146.54 -33 192.08 -33 239 C-21.78 239 -10.56 239 1 239 C1 261.77 1 284.54 1 308 C12.22 308 23.44 308 35 308 C35 318.89 35 329.78 35 341 C46.22 341 57.44 341 69 341 C69 363.77 69 386.54 69 410 C57.45 410 45.9 410 34 410 C34 421.88 34 433.76 34 446 C-55.76 446 -145.52 446 -238 446 C-238 434.12 -238 422.24 -238 410 C-248.89 410 -259.78 410 -271 410 C-271 399.44 -271 388.88 -271 378 C-282.22 378 -293.44 378 -305 378 C-305 365.79 -305 353.58 -305 341 C-294.11 341 -283.22 341 -272 341 C-272 330.11 -272 319.22 -272 308 C-260.78 308 -249.56 308 -238 308 C-238 285.23 -238 262.46 -238 239 C-226.78 239 -215.56 239 -204 239 C-204.00523682 235.915354 -204.01047363 232.83070801 -204.01586914 229.65258789 C-204.03240302 219.48651757 -204.04347041 209.32044667 -204.05181217 199.15436649 C-204.05704158 192.9877508 -204.06414027 186.82114882 -204.07543945 180.65454102 C-204.08626629 174.70883994 -204.0922764 168.76315211 -204.09487724 162.81744194 C-204.09673186 160.54353057 -204.10035317 158.26961996 -204.10573006 155.99571419 C-204.11293778 152.8227288 -204.11399106 149.64979883 -204.11352539 146.47680664 C-204.11712067 145.52662659 -204.12071594 144.57644653 -204.12442017 143.59747314 C-204.11405216 137.11405216 -204.11405216 137.11405216 -203 136 C-191.78 136 -180.56 136 -169 136 C-169 180.55 -169 225.1 -169 271 C-180.22 271 -191.44 271 -203 271 C-203 283.54 -203 296.08 -203 309 C-214.22 309 -225.44 309 -237 309 C-237 331.11 -237 353.22 -237 376 C-147.57 376 -58.14 376 34 376 C34 364.78 34 353.56 34 342 C23.11 342 12.22 342 1 342 C1 331.11 1 320.22 1 309 C-10.55 309 -22.1 309 -34 309 C-34 285.9 -34 262.8 -34 239 C-45.55 239 -57.1 239 -69 239 C-69 182.24 -69 125.48 -69 67 C-57.45 67 -45.9 67 -34 67 C-34 56.11 -34 45.22 -34 34 C-22.78 34 -11.56 34 0 34 C0 22.78 0 11.56 0 0 Z " fill="#000000" transform="translate(613,438)"/>
<path d="M0 0 C22.11 0 44.22 0 67 0 C67 11.55 67 23.1 67 35 C56.11 35 45.22 35 34 35 C34 46.22 34 57.44 34 69 C22.45 69 10.9 69 -1 69 C-1 80.22 -1 91.44 -1 103 C-34 103 -67 103 -101 103 C-101 92.11 -101 81.22 -101 70 C-90.11 70 -79.22 70 -68 70 C-68 58.12 -68 46.24 -68 34 C-45.56 34 -23.12 34 0 34 C0 22.78 0 11.56 0 0 Z " fill="#F0F0F0" transform="translate(682,163)"/>
<path d="M0 0 C0.99 0.33 1.98 0.66 3 1 C2.88206288 6.39363237 2.75783819 11.78706847 2.62768555 17.18041992 C2.5842718 19.01664247 2.54260161 20.85290708 2.50268555 22.68920898 C2.44513831 25.32288311 2.38140002 27.95634421 2.31640625 30.58984375 C2.29133751 31.82890724 2.29133751 31.82890724 2.26576233 33.09300232 C2.11387171 38.88612829 2.11387171 38.88612829 1 40 C-1.44803767 40.0884283 -3.86844794 40.11535972 -6.31640625 40.09765625 C-6.96411987 40.09664917 -7.6118335 40.09564209 -8.2791748 40.09460449 C-10.70696779 40.08935843 -13.13473561 40.07539725 -15.5625 40.0625 C-23.6990625 40.0315625 -23.6990625 40.0315625 -32 40 C-32 60.46 -32 80.92 -32 102 C56.11 102 144.22 102 235 102 C235 92.43 235 82.86 235 73 C226.24926519 73.07905551 226.24926519 73.07905551 217.4987793 73.18017578 C216.40992432 73.1851709 215.32106934 73.19016602 214.19921875 73.1953125 C213.08377686 73.20578613 211.96833496 73.21625977 210.8190918 73.22705078 C208 73 208 73 205 71 C215.56 71 226.12 71 237 71 C237 82.22 237 93.44 237 105 C147.57 105 58.14 105 -34 105 C-34 82.89 -34 60.78 -34 38 C-22.78 38 -11.56 38 0 38 C0 25.46 0 12.92 0 0 Z " fill="#ECECEC" transform="translate(410,709)"/>
<path d="M0 0 C11.22 0 22.44 0 34 0 C34 11.22 34 22.44 34 34 C22.78 34 11.56 34 0 34 C0 22.78 0 11.56 0 0 Z " fill="#EFEFEF" transform="translate(613,404)"/>
<path d="M0 0 C8.8488239 -0.02312589 17.69763747 -0.04091634 26.54648495 -0.05181217 C30.65494285 -0.05704046 34.76338014 -0.06413713 38.87182617 -0.07543945 C42.83346828 -0.08627025 46.79509052 -0.09227724 50.75674629 -0.09487724 C52.27148311 -0.09673114 53.78621879 -0.1003511 55.30094719 -0.10573006 C57.41541813 -0.11294307 59.52980594 -0.11399083 61.64428711 -0.11352539 C62.85007919 -0.115746 64.05587128 -0.11796661 65.29820251 -0.12025452 C68 0 68 0 69 1 C69.09535213 2.36608326 69.1218867 3.73705455 69.12025452 5.10646057 C69.12231651 6.43375183 69.12231651 6.43375183 69.12442017 7.78785706 C69.11902725 9.25520546 69.11902725 9.25520546 69.11352539 10.75219727 C69.11367142 11.7764682 69.11381744 12.80073914 69.1139679 13.85604858 C69.11326828 17.25952229 69.10547363 20.66294204 69.09765625 24.06640625 C69.09579224 26.41910268 69.09436826 28.7717995 69.09336853 31.12449646 C69.08954199 37.33056705 69.07971055 43.5366144 69.06866455 49.74267578 C69.05845334 56.06998378 69.05387154 62.39729552 69.04882812 68.72460938 C69.0380884 81.14975146 69.02049051 93.57487017 69 106 C79.23 106 89.46 106 100 106 C99.91621094 103.68871094 99.83242188 101.37742187 99.74609375 98.99609375 C99.20231353 83.06624832 98.83448184 67.18441811 99.375 51.25 C99.39642059 50.57838837 99.41784119 49.90677673 99.43991089 49.21481323 C99.80585577 38.19414423 99.80585577 38.19414423 101 37 C103.44830426 36.91156207 105.86820599 36.88471248 108.31640625 36.90234375 C109.41298805 36.90446617 109.41298805 36.90446617 110.53172302 36.90663147 C112.87535632 36.91224592 115.21889539 36.92480078 117.5625 36.9375 C119.14778508 36.94251314 120.73307166 36.94707637 122.31835938 36.95117188 C126.21230543 36.96137079 130.10604677 36.98094313 134 37 C134.33 26.77 134.66 16.54 135 6 C135.33 6 135.66 6 136 6 C136 16.89 136 27.78 136 39 C124.45 39 112.9 39 101 39 C101 61.77 101 84.54 101 108 C89.78 108 78.56 108 67 108 C67 72.69 67 37.38 67 1 C44.89 1 22.78 1 0 1 C0 0.67 0 0.34 0 0 Z " fill="#FCFCFC" transform="translate(443,159)"/>
<path d="M0 0 C0.99 0.33 1.98 0.66 3 1 C2.88206288 6.39363237 2.75783819 11.78706847 2.62768555 17.18041992 C2.5842718 19.01664247 2.54260161 20.85290708 2.50268555 22.68920898 C2.44513831 25.32288311 2.38140002 27.95634421 2.31640625 30.58984375 C2.29133751 31.82890724 2.29133751 31.82890724 2.26576233 33.09300232 C2.11387171 38.88612829 2.11387171 38.88612829 1 40 C-1.44803767 40.0884283 -3.86844794 40.11535972 -6.31640625 40.09765625 C-6.96411987 40.09664917 -7.6118335 40.09564209 -8.2791748 40.09460449 C-10.70696779 40.08935843 -13.13473561 40.07539725 -15.5625 40.0625 C-23.6990625 40.0315625 -23.6990625 40.0315625 -32 40 C-32 60.46 -32 80.92 -32 102 C56.11 102 144.22 102 235 102 C235 92.43 235 82.86 235 73 C235.33 73 235.66 73 236 73 C236 82.9 236 92.8 236 103 C147.23 103 58.46 103 -33 103 C-33.33 81.55 -33.66 60.1 -34 38 C-22.78 38 -11.56 38 0 38 C0 25.46 0 12.92 0 0 Z " fill="#E0E0E0" transform="translate(410,709)"/>
<path d="M0 0 C56.43 0 112.86 0 171 0 C171 11.22 171 22.44 171 34 C159.78 34 148.56 34 137 34 C137 44.56 137 55.12 137 66 C136.67 66 136.34 66 136 66 C136 55.11 136 44.22 136 33 C140.7953125 32.7215625 140.7953125 32.7215625 145.6875 32.4375 C146.66549561 32.37618896 147.64349121 32.31487793 148.65112305 32.25170898 C156.00344139 31.865353 162.48686947 32.42206688 170 33 C169.67 23.1 169.34 13.2 169 3 C113.23 3 57.46 3 0 3 C0 2.01 0 1.02 0 0 Z " fill="#C3C3C4" transform="translate(442,438)"/>
<path d="M0 0 C33 0 66 0 100 0 C100.33 11.22 100.66 22.44 101 34 C156.11 34.33 211.22 34.66 268 35 C268 35.33 268 35.66 268 36 C212.23 36 156.46 36 99 36 C99 24.78 99 13.56 99 2 C66.99 2 34.98 2 2 2 C2 7.94 2 13.88 2 20 C1.67 20 1.34 20 1 20 C0.67 13.4 0.34 6.8 0 0 Z " fill="#FAFAFA" transform="translate(341,404)"/>
<path d="M0 0 C2.40705518 -0.00162059 4.81410097 -0.00517675 7.22115326 -0.00918579 C10.95449111 -0.01494175 14.6877879 -0.01534138 18.42112732 -0.01093674 C20.41741692 -0.00947052 22.41370822 -0.01239373 24.40999603 -0.01544189 C26.15829712 -0.01077408 26.15829712 -0.01077408 27.94191742 -0.00601196 C28.95569458 -0.00521637 29.96947174 -0.00442078 31.01396942 -0.00360107 C33.27736664 0.12338257 33.27736664 0.12338257 34.27736664 1.12338257 C34.37179999 3.42392092 34.39478792 5.7274043 34.39089203 8.02987671 C34.39103806 8.75178696 34.39118408 9.4736972 34.39133453 10.21748352 C34.39063532 12.61453204 34.38284259 15.0115038 34.37502289 17.40853882 C34.37315874 19.06620745 34.37173482 20.72387664 34.37073517 22.38154602 C34.36690976 26.75292471 34.35707929 31.12427038 34.34603119 35.49563599 C34.33581755 39.95292718 34.33123765 44.41022368 34.32619476 48.86752319 C34.31545704 57.6194915 34.29838035 66.37143293 34.27736664 75.12338257 C33.61736664 75.12338257 32.95736664 75.12338257 32.27736664 75.12338257 C32.27736664 51.03338257 32.27736664 26.94338257 32.27736664 2.12338257 C-24.48263336 2.12338257 -81.24263336 2.12338257 -139.72263336 2.12338257 C-139.72263336 1.79338257 -139.72263336 1.46338257 -139.72263336 1.12338257 C-44.94941155 0.01987273 -44.94941155 0.01987273 0 0 Z " fill="#F6F7F6" transform="translate(752.7226333618164,122.87661743164063)"/>
<path d="M0 0 C11.22 0 22.44 0 34 0 C34 0.33 34 0.66 34 1 C23.11 1 12.22 1 1 1 C1 12.55 1 24.1 1 36 C-32 36 -65 36 -99 36 C-99 25.11 -99 14.22 -99 3 C-88.11 3 -77.22 3 -66 3 C-66 3.33 -66 3.66 -66 4 C-76.23 4 -86.46 4 -97 4 C-97 14.23 -97 24.46 -97 35 C-94.25945313 34.9278125 -91.51890625 34.855625 -88.6953125 34.78125 C-59.45917037 34.04403249 -30.24442544 33.87976675 -1 34 C-1.00523682 33.07662842 -1.01047363 32.15325684 -1.01586914 31.2019043 C-1.03291585 27.77465186 -1.0454525 24.3474445 -1.05493164 20.92016602 C-1.05995903 19.43708587 -1.06678185 17.95401067 -1.07543945 16.47094727 C-1.08757482 14.33869199 -1.09324425 12.20650227 -1.09765625 10.07421875 C-1.10289307 8.79119873 -1.10812988 7.50817871 -1.11352539 6.1862793 C-1 3 -1 3 0 0 Z " fill="#FBFBFB" transform="translate(680,230)"/>
<path d="M0 0 C11.22 0 22.44 0 34 0 C34 33.66 34 67.32 34 102 C22.78 102 11.56 102 0 102 C0 101.67 0 101.34 0 101 C10.56 101 21.12 101 32 101 C32 68.33 32 35.66 32 2 C21.77 2 11.54 2 1 2 C0.67 1.34 0.34 0.68 0 0 Z " fill="#FCFDFC" transform="translate(375,574)"/>
<path d="M0 0 C22.11 0 44.22 0 67 0 C67 11.55 67 23.1 67 35 C56.11 35 45.22 35 34 35 C34 45.56 34 56.12 34 67 C33.67 67 33.34 67 33 67 C32.97534712 62.31860746 32.95716261 57.63725241 32.94506836 52.95581055 C32.94002843 51.36205386 32.9331965 49.76830181 32.92456055 48.17456055 C32.91248001 45.88849747 32.90676845 43.60249533 32.90234375 41.31640625 C32.89718246 40.59973282 32.89202118 39.88305939 32.88670349 39.14466858 C32.88650737 37.42936328 32.93807993 35.71418734 33 34 C34 33 34 33 36.95922852 32.88647461 C38.25272217 32.89171143 39.54621582 32.89694824 40.87890625 32.90234375 C42.13517822 32.90484131 43.3914502 32.90733887 44.68579102 32.90991211 C46.29510498 32.91901611 47.90441895 32.92812012 49.5625 32.9375 C54.656875 32.958125 59.75125 32.97875 65 33 C65 22.77 65 12.54 65 2 C44.21 1.67 23.42 1.34 2 1 C2 12.22 2 23.44 2 35 C1.34 35 0.68 35 0 35 C0 23.45 0 11.9 0 0 Z " fill="#FCFCFC" transform="translate(682,163)"/>
<path d="M0 0 C11.22 0 22.44 0 34 0 C34 11.22 34 22.44 34 34 C22.78 34 11.56 34 0 34 C0 22.78 0 11.56 0 0 Z M2 2 C2 11.9 2 21.8 2 32 C12.23 32 22.46 32 33 32 C33 22.1 33 12.2 33 2 C22.77 2 12.54 2 2 2 Z " fill="#D6D7D7" transform="translate(613,404)"/>
<path d="M0 0 C0.33 0 0.66 0 1 0 C1 16.17 1 32.34 1 49 C11.56 49 22.12 49 33 49 C33 49.66 33 50.32 33 51 C21.78 51 10.56 51 -1 51 C-1.02300847 44.86185044 -1.04290641 38.72385175 -1.05493164 32.58569336 C-1.0599471 30.49942517 -1.06676105 28.41316047 -1.07543945 26.3269043 C-1.08762736 23.32079199 -1.09325631 20.31472634 -1.09765625 17.30859375 C-1.10281754 16.38227646 -1.10797882 15.45595917 -1.11329651 14.50157166 C-1.11372084 9.55563335 -0.84322739 4.87554661 0 0 Z " fill="#EAEAEA" transform="translate(581,626)"/>
<path d="M0 0 C11.22 0 22.44 0 34 0 C34 10.56 34 21.12 34 32 C33.34 32 32.68 32 32 32 C32 22.1 32 12.2 32 2 C21.44 2 10.88 2 0 2 C0 1.34 0 0.68 0 0 Z " fill="#E1E1E2" transform="translate(308,816)"/>
<path d="M0 0 C0.33 0 0.66 0 1 0 C1 8.25 1 16.5 1 25 C-9.56 25 -20.12 25 -31 25 C-30.67 24.34 -30.34 23.68 -30 23 C-20.43 23 -10.86 23 -1 23 C-1.0395866 15.80477218 -1.0395866 15.80477218 -1.09008789 8.60961914 C-1.09258545 7.71879639 -1.09508301 6.82797363 -1.09765625 5.91015625 C-1.10551147 4.53549194 -1.10551147 4.53549194 -1.11352539 3.13305664 C-1 1 -1 1 0 0 Z " fill="#FAFBFB" transform="translate(374,721)"/>
<path d="M0 0 C0.33 0 0.66 0 1 0 C1 10.89 1 21.78 1 33 C11.89 33 22.78 33 34 33 C34 33.66 34 34.32 34 35 C22.78 35 11.56 35 0 35 C-1.51322577 31.97354845 -1.00453618 28.89228139 -0.87890625 25.5859375 C-0.85529526 24.85629791 -0.83168427 24.12665833 -0.80735779 23.37490845 C-0.73070246 21.04140861 -0.64668657 18.70823911 -0.5625 16.375 C-0.50928115 14.79428707 -0.45654074 13.21355795 -0.40429688 11.6328125 C-0.27508487 7.75499862 -0.13927041 3.87746514 0 0 Z " fill="#D8D8D8" transform="translate(340,439)"/>
<path d="M0 0 C0.33 0 0.66 0 1 0 C1.66 9.9 2.32 19.8 3 30 C13.23 30.33 23.46 30.66 34 31 C34 31.33 34 31.66 34 32 C22.78 32 11.56 32 0 32 C0 21.44 0 10.88 0 0 Z " fill="#CDCECE" transform="translate(341,406)"/>
</svg>
