<?xml version="1.0" encoding="UTF-8"?>
<svg version="1.1" xmlns="http://www.w3.org/2000/svg" width="1024" height="1024">
<path d="M0 0 C1.70209074 0.00138269 1.70209074 0.00138269 3.43856716 0.00279331 C5.38429874 0.00073132 5.38429874 0.00073132 7.36933804 -0.00137234 C8.820266 0.00216728 10.27119373 0.0058021 11.72212124 0.00952244 C13.23949081 0.0098043 14.75686051 0.0096466 16.27423 0.00907993 C20.40628225 0.00879192 24.53830573 0.01468925 28.67035127 0.02165389 C32.98386602 0.02788681 37.29738136 0.02849118 41.61089993 0.0296793 C49.78487827 0.0327928 57.95884331 0.04100644 66.13281578 0.05102879 C75.43616679 0.06218935 84.73951842 0.06770023 94.04287446 0.07272422 C113.18588442 0.08318904 132.32887614 0.10153475 151.4718771 0.12304783 C151.4718771 12.66304783 151.4718771 25.20304783 151.4718771 38.12304783 C155.4318771 37.79304783 159.3918771 37.46304783 163.4718771 37.12304783 C165.745682 37.04423568 168.0209269 36.99275111 170.29609585 36.99023533 C171.42595913 36.98894627 172.55582241 36.9876572 173.71992397 36.98632908 C174.8549435 36.99019627 175.98996304 36.99406345 177.1593771 36.99804783 C178.33693569 36.99418064 179.51449429 36.99031345 180.72773647 36.98632908 C181.84342007 36.98761814 182.95910366 36.9889072 184.10859585 36.99023533 C185.62006191 36.99192722 185.62006191 36.99192722 187.16206264 36.9936533 C189.4718771 37.12304783 189.4718771 37.12304783 190.4718771 38.12304783 C190.56052917 41.00738603 190.58709006 43.86766941 190.56953335 46.75195408 C190.5681184 47.61618488 190.56670345 48.48041569 190.56524563 49.3708353 C190.55962949 52.14244075 190.54707429 54.91396663 190.5343771 57.68554783 C190.52936418 59.55989562 190.52480091 61.43424468 190.52070522 63.3085947 C190.50965481 67.91344326 190.49237939 72.51823204 190.4718771 77.12304783 C188.4918771 77.12304783 186.5118771 77.12304783 184.4718771 77.12304783 C184.1418771 77.78304783 183.8118771 78.44304783 183.4718771 79.12304783 C183.4718771 78.46304783 183.4718771 77.80304783 183.4718771 77.12304783 C182.9150021 77.45304783 182.3581271 77.78304783 181.7843771 78.12304783 C179.13646171 79.26809232 177.33049179 79.26964345 174.4718771 79.12304783 C173.4818771 79.12304783 172.4918771 79.12304783 171.4718771 79.12304783 C169.80521043 79.12304783 168.13854376 79.12304783 166.4718771 79.12304783 C166.4718771 78.79304783 166.4718771 78.46304783 166.4718771 78.12304783 C161.5218771 77.79304783 156.5718771 77.46304783 151.4718771 77.12304783 C151.47711391 78.26894382 151.48235073 79.41483982 151.48774624 80.59545994 C151.50579427 84.83145465 151.51730838 89.06744594 151.52680874 93.30346775 C151.53184941 95.13973658 151.53868187 96.97600137 151.54731655 98.81225681 C151.55939382 101.44581184 151.56510791 104.07931399 151.56953335 106.71289158 C151.57469463 107.53893391 151.57985592 108.36497623 151.58517361 109.21605015 C151.58536914 111.1854115 151.53391861 113.15466396 151.4718771 115.12304783 C149.4149825 117.17994243 145.11631712 116.38051859 142.28047085 116.43945408 C141.46063213 116.46023518 140.64079342 116.48101627 139.79611111 116.5024271 C137.16728809 116.56801277 134.53836206 116.62684908 131.9093771 116.68554783 C130.13137149 116.7287245 128.35337644 116.7723385 126.57539272 116.8164072 C122.20765837 116.92452954 117.83985019 117.02353511 113.4718771 117.12304783 C113.4718771 128.67304783 113.4718771 140.22304783 113.4718771 152.12304783 C88.0618771 152.12304783 62.6518771 152.12304783 36.4718771 152.12304783 C36.4718771 164.33304783 36.4718771 176.54304783 36.4718771 189.12304783 C74.5868771 189.61804783 74.5868771 189.61804783 113.4718771 190.12304783 C113.8018771 202.33304783 114.1318771 214.54304783 114.4718771 227.12304783 C114.8018771 228.11304783 115.1318771 229.10304783 115.4718771 230.12304783 C116.4618771 229.79304783 117.4518771 229.46304783 118.4718771 229.12304783 C123.0655834 228.89503804 127.66155634 228.89480342 132.26020718 228.88281345 C134.5296988 228.87306792 136.79829952 228.8420144 139.06758022 228.81054783 C140.50572589 228.80402131 141.94387802 228.79876946 143.38203335 228.79492283 C144.69309048 228.78557713 146.00414761 228.77623142 147.35493374 228.76660252 C148.38352505 228.88422947 149.41211636 229.00185642 150.4718771 229.12304783 C152.88099312 232.73672186 152.74535294 235.35794112 152.70234585 239.52929783 C152.70165852 240.61096226 152.70165852 240.61096226 152.7009573 241.71447849 C152.69793922 243.23756654 152.69006617 244.76065162 152.67768764 246.28369236 C152.65944502 248.61437009 152.65717796 250.94464993 152.65742397 253.27539158 C152.65250789 254.75586376 152.64667918 256.23633325 152.63984585 257.71679783 C152.63873302 258.41373753 152.6376202 259.11067722 152.63647366 259.82873631 C152.60668807 262.86700758 152.44063186 265.21678356 151.4718771 268.12304783 C170.2818771 267.62804783 170.2818771 267.62804783 189.4718771 267.12304783 C191.65322167 271.48573696 191.68982346 273.48215903 191.607131 278.27832127 C191.59293873 279.3472134 191.59293873 279.3472134 191.57845974 280.43769932 C191.54486022 282.78620596 191.49672445 285.13417605 191.4484396 287.48242283 C191.42226436 289.11336979 191.396998 290.74433157 191.37260342 292.37530613 C191.3060318 296.66297283 191.22712195 300.95032699 191.14564419 305.23773289 C191.05039964 310.38463365 190.97047526 315.53179233 190.88798428 320.67891026 C190.7610202 328.49388333 190.61459506 336.30827503 190.4718771 344.12304783 C202.0218771 344.12304783 213.5718771 344.12304783 225.4718771 344.12304783 C227.02082836 349.54437726 227.75938939 353.502674 227.71911526 358.94345188 C227.72152967 359.70010092 227.72394409 360.45674997 227.72643167 361.23632777 C227.73203812 363.75513522 227.72342902 366.27368562 227.71479702 368.79248142 C227.71587061 370.60467694 227.71781044 372.41687213 227.72054958 374.2290659 C227.72538669 379.13768697 227.7177579 384.04621679 227.70759654 388.95482683 C227.69880422 394.08997046 227.70057367 399.22511134 227.7009573 404.36026096 C227.70002163 412.9766807 227.6913481 421.59306515 227.67768764 430.20947361 C227.66193326 440.18377453 227.65669062 450.15803691 227.6574232 460.13234937 C227.65803244 469.72132204 227.65293842 479.3102821 227.64463139 488.89925098 C227.64109306 492.98457659 227.63926737 497.06989774 227.63873768 501.1552248 C227.63773681 505.95687374 227.63166132 510.75849003 227.62157154 515.56012821 C227.61863919 517.32707488 227.61742265 519.0940253 227.61799908 520.86097431 C227.61848621 523.26220001 227.61286962 525.66333282 227.60558987 528.06454563 C227.60791277 529.12691584 227.60791277 529.12691584 227.6102826 530.21074808 C227.58605645 535.00886848 227.58605645 535.00886848 226.4718771 536.12304783 C214.5918771 536.12304783 202.7118771 536.12304783 190.4718771 536.12304783 C190.4718771 561.20304783 190.4718771 586.28304783 190.4718771 612.12304783 C177.9318771 612.45304783 165.3918771 612.78304783 152.4718771 613.12304783 C152.51142003 623.5191921 152.51142003 623.5191921 152.56196499 633.91528416 C152.56571133 635.85310764 152.56571133 635.85310764 152.56953335 637.83007908 C152.57464931 638.50566868 152.57976528 639.18125828 152.58503628 639.87732029 C152.58560148 642.91414809 152.44092153 645.21591452 151.4718771 648.12304783 C147.19757852 649.19795611 143.13352002 649.17180284 138.76484585 649.00195408 C137.79931789 648.97095615 137.79931789 648.97095615 136.81428432 648.93933201 C134.42909914 648.86106702 132.04425326 648.77272256 129.6593771 648.68554783 C124.3175021 648.49992283 118.9756271 648.31429783 113.4718771 648.12304783 C113.4718771 661.65304783 113.4718771 675.18304783 113.4718771 689.12304783 C100.9318771 689.12304783 88.3918771 689.12304783 75.4718771 689.12304783 C75.59060766 700.55172693 75.59060766 700.55172693 75.74214077 711.97998142 C75.75090083 713.41047592 75.7585459 714.84097788 75.76484585 716.27148533 C75.78019375 717.01696629 75.79554165 717.76244724 75.81135464 718.53051853 C75.81245327 720.68310642 75.81245327 720.68310642 75.4718771 724.12304783 C74.4818771 724.78304783 73.4918771 725.44304783 72.4718771 726.12304783 C72.4718771 725.46304783 72.4718771 724.80304783 72.4718771 724.12304783 C71.5437521 724.45304783 70.6156271 724.78304783 69.6593771 725.12304783 C66.40396813 726.1443526 64.00218826 726.12959488 60.62422085 726.08789158 C59.56332241 726.07886814 58.50242397 726.0698447 57.4093771 726.06054783 C56.34590054 726.04894627 55.28242397 726.0373447 54.18672085 726.02539158 C51.50440673 725.93396147 51.50440673 725.93396147 49.4718771 727.12304783 C48.8118771 726.79304783 48.1518771 726.46304783 47.4718771 726.12304783 C45.66145917 726.02671886 43.84734957 725.9932325 42.0343771 725.99804783 C41.06629116 725.9954697 40.09820522 725.99289158 39.10078335 725.99023533 C36.36169881 726.0109081 36.36169881 726.0109081 33.4718771 727.12304783 C32.90404507 726.98068699 32.33621304 726.83832615 31.75117397 726.69165134 C28.51437267 725.88418452 25.31667654 726.00055692 22.0031271 726.02539158 C21.2858041 726.02680653 20.5684811 726.02822147 19.82942104 726.0296793 C17.54352999 726.03525881 15.25773826 726.04779244 12.9718771 726.06054783 C11.43411812 726.06556684 9.89635758 726.07012904 8.35859585 726.0742197 C5.53630986 726.08237494 2.71406159 726.09310952 -0.10820103 726.10717869 C-10.5812164 726.15577563 -21.05498874 726.12304783 -31.5281229 726.12304783 C-32.80558384 726.13464939 -34.08304478 726.14625095 -35.39921665 726.15820408 C-36.92135101 726.16749348 -38.44348649 726.1766016 -39.9656229 726.18554783 C-40.72939243 726.19392673 -41.49316196 726.20230564 -42.28007603 726.21093845 C-43.02064243 726.21416111 -43.76120884 726.21738377 -44.52421665 726.22070408 C-45.19638218 726.2259409 -45.86854771 726.23117771 -46.56108189 726.23657322 C-48.65571287 726.11568413 -50.51271194 725.6919297 -52.5281229 725.12304783 C-52.5281229 725.78304783 -52.5281229 726.44304783 -52.5281229 727.12304783 C-54.1781229 727.12304783 -55.8281229 727.12304783 -57.5281229 727.12304783 C-57.5281229 726.79304783 -57.5281229 726.46304783 -57.5281229 726.12304783 C-61.15697615 725.97155485 -61.15697615 725.97155485 -64.5281229 727.12304783 C-64.5281229 726.46304783 -64.5281229 725.80304783 -64.5281229 725.12304783 C-66.8381229 725.12304783 -69.1481229 725.12304783 -71.5281229 725.12304783 C-71.8581229 725.78304783 -72.1881229 726.44304783 -72.5281229 727.12304783 C-72.5281229 726.46304783 -72.5281229 725.80304783 -72.5281229 725.12304783 C-73.39952915 725.19523533 -74.2709354 725.26742283 -75.1687479 725.34179783 C-96.73037009 727.02192423 -96.73037009 727.02192423 -100.5281229 725.12304783 C-100.5281229 725.78304783 -100.5281229 726.44304783 -100.5281229 727.12304783 C-101.8481229 727.12304783 -103.1681229 727.12304783 -104.5281229 727.12304783 C-104.5281229 726.46304783 -104.5281229 725.80304783 -104.5281229 725.12304783 C-105.4768729 725.45304783 -106.4256229 725.78304783 -107.4031229 726.12304783 C-110.5281229 727.12304783 -110.5281229 727.12304783 -112.5281229 727.12304783 C-112.5281229 726.46304783 -112.5281229 725.80304783 -112.5281229 725.12304783 C-119.1281229 725.12304783 -125.7281229 725.12304783 -132.5281229 725.12304783 C-132.5281229 725.78304783 -132.5281229 726.44304783 -132.5281229 727.12304783 C-137.8081229 726.46304783 -143.0881229 725.80304783 -148.5281229 725.12304783 C-148.5281229 725.78304783 -148.5281229 726.44304783 -148.5281229 727.12304783 C-149.0231229 726.93742283 -149.5181229 726.75179783 -150.0281229 726.56054783 C-153.67893979 725.92165487 -156.86777014 726.57399491 -160.5281229 727.12304783 C-160.5281229 726.46304783 -160.5281229 725.80304783 -160.5281229 725.12304783 C-161.7656229 725.30867283 -163.0031229 725.49429783 -164.2781229 725.68554783 C-167.29091867 726.07016005 -169.62823118 726.21050723 -172.5281229 725.12304783 C-172.5281229 725.78304783 -172.5281229 726.44304783 -172.5281229 727.12304783 C-173.8481229 727.12304783 -175.1681229 727.12304783 -176.5281229 727.12304783 C-176.5281229 726.46304783 -176.5281229 725.80304783 -176.5281229 725.12304783 C-177.8481229 725.12304783 -179.1681229 725.12304783 -180.5281229 725.12304783 C-180.5281229 725.78304783 -180.5281229 726.44304783 -180.5281229 727.12304783 C-181.8481229 727.12304783 -183.1681229 727.12304783 -184.5281229 727.12304783 C-184.5281229 726.46304783 -184.5281229 725.80304783 -184.5281229 725.12304783 C-185.11827183 725.1533408 -185.70842075 725.18363377 -186.31645298 725.2148447 C-188.99113679 725.35169756 -191.66587845 725.48738567 -194.3406229 725.62304783 C-195.26939243 725.67074314 -196.19816196 725.71843845 -197.15507603 725.76757908 C-198.04775181 725.81269627 -198.94042759 725.85781345 -199.86015415 725.90429783 C-200.68233433 725.94619236 -201.5045145 725.98808689 -202.35160923 726.03125095 C-204.0758522 726.10397281 -205.80234706 726.12304783 -207.5281229 726.12304783 C-208.75917759 726.13464939 -209.99023228 726.14625095 -211.25859165 726.15820408 C-212.74426763 726.16749785 -214.22994477 726.17660566 -215.7156229 726.18554783 C-216.44587681 726.19392673 -217.17613071 726.20230564 -217.92851353 726.21093845 C-222.88559172 726.23289186 -227.6282941 725.90244218 -232.5281229 725.12304783 C-233.5281229 724.12304783 -233.5281229 724.12304783 -233.64164829 720.79663181 C-233.6414892 719.32079226 -233.63579604 717.84494714 -233.62577915 716.36914158 C-233.62365673 715.20597164 -233.62365673 715.20597164 -233.62149143 714.01930332 C-233.61587636 711.53301289 -233.60332137 709.04681123 -233.5906229 706.56054783 C-233.58560984 704.8789085 -233.5810466 703.19726777 -233.57695103 701.51562595 C-233.56590203 697.38473217 -233.54862735 693.25390507 -233.5281229 689.12304783 C-234.61343296 689.12828465 -235.69874302 689.13352146 -236.81694126 689.13891697 C-240.82930272 689.15696619 -244.84166057 689.16847954 -248.85405064 689.17797947 C-250.59331458 689.18301987 -252.33257426 689.18985213 -254.07182407 689.19848728 C-256.56638227 689.21056575 -259.06088464 689.21627891 -261.55546665 689.22070408 C-262.33776142 689.22586536 -263.12005619 689.23102665 -263.92605686 689.23634434 C-265.79379405 689.23654009 -267.66141494 689.18504477 -269.5281229 689.12304783 C-270.5281229 688.12304783 -270.5281229 688.12304783 -270.64164829 684.42944431 C-270.64148914 682.7843349 -270.63579279 681.13922052 -270.62577915 679.49414158 C-270.6243642 678.62991077 -270.62294926 677.76567997 -270.62149143 676.87526035 C-270.61587529 674.10365491 -270.60332009 671.33212903 -270.5906229 668.56054783 C-270.58560998 666.68620003 -270.58104671 664.81185098 -270.57695103 662.93750095 C-270.56590062 658.33265239 -270.5486252 653.72786362 -270.5281229 649.12304783 C-271.6740189 649.12828465 -272.81991489 649.13352146 -274.00053501 649.13891697 C-278.23652972 649.156965 -282.47252102 649.16847911 -286.70854282 649.17797947 C-288.54481165 649.18302014 -290.38107644 649.1898526 -292.21733189 649.19848728 C-294.85088692 649.21056455 -297.48438907 649.21627864 -300.11796665 649.22070408 C-301.35703014 649.22844601 -301.35703014 649.22844601 -302.62112522 649.23634434 C-304.59048658 649.23653987 -306.55973904 649.18508935 -308.5281229 649.12304783 C-310.49900459 647.15216614 -309.80647972 643.35884766 -309.8796854 640.65820408 C-309.91441456 639.53544323 -309.91441456 639.53544323 -309.94984531 638.39000034 C-309.99754816 636.80377221 -310.04277441 635.21746799 -310.08574009 633.63110447 C-310.15274968 631.19909319 -310.23052713 628.76759141 -310.3093729 626.33593845 C-310.35429547 624.79754589 -310.39858728 623.25913475 -310.4421854 621.72070408 C-310.46608341 620.99045521 -310.48998142 620.26020634 -310.51460361 619.50782871 C-310.64298836 614.35277875 -310.64298836 614.35277875 -309.5281229 612.12304783 C-322.0681229 612.12304783 -334.6081229 612.12304783 -347.5281229 612.12304783 C-347.5281229 587.04304783 -347.5281229 561.96304783 -347.5281229 536.12304783 C-359.7381229 536.12304783 -371.9481229 536.12304783 -384.5281229 536.12304783 C-385.51621116 532.17069481 -385.67066925 528.66681658 -385.66183567 524.63890171 C-385.66410123 523.88214352 -385.66636678 523.12538533 -385.66870099 522.34569508 C-385.67503408 519.80849183 -385.67421208 517.27134209 -385.67338657 514.73413181 C-385.67637842 512.91577173 -385.679781 511.09741229 -385.68356419 509.27905369 C-385.69240388 504.33916063 -385.69474223 499.39928488 -385.69537997 494.45938468 C-385.69632894 490.33879064 -385.70000694 486.21820064 -385.70355207 482.09760815 C-385.71169582 472.38025588 -385.7141363 462.66291288 -385.71342564 452.94555759 C-385.71282423 442.91056567 -385.72338874 432.8756274 -385.7391693 422.84064907 C-385.75222657 414.23167302 -385.75761033 405.62271456 -385.75697023 397.01372868 C-385.75671479 391.86887416 -385.75959139 386.72406736 -385.77014828 381.57922268 C-385.77979928 376.74393978 -385.77992915 371.90875051 -385.77263165 367.07346439 C-385.77158219 365.29606903 -385.77396992 363.51866793 -385.7799921 361.74128246 C-385.78766403 359.32081348 -385.78309943 356.9006718 -385.77536106 354.4802103 C-385.78050462 353.77185187 -385.78564819 353.06349344 -385.79094762 352.3336696 C-385.76512752 348.69581844 -385.60747349 347.24207372 -383.5281229 344.12304783 C-371.9781229 344.12304783 -360.4281229 344.12304783 -348.5281229 344.12304783 C-348.1981229 319.04304783 -347.8681229 293.96304783 -347.5281229 268.12304783 C-343.11312673 267.24004859 -339.50817802 267.00758944 -335.03984165 267.02539158 C-333.10951084 267.02913792 -333.10951084 267.02913792 -331.14018345 267.03295994 C-329.51507847 267.04206394 -327.88997349 267.05116795 -326.2156229 267.06054783 C-318.4503104 267.09148533 -318.4503104 267.09148533 -310.5281229 267.12304783 C-310.1981229 254.91304783 -309.8681229 242.70304783 -309.5281229 230.12304783 C-305.76964116 228.87022058 -302.27321371 228.99922947 -298.36015415 229.02539158 C-297.56534138 229.02680653 -296.7705286 229.02822147 -295.95163059 229.0296793 C-293.41458965 229.03527405 -290.87763715 229.04782555 -288.3406229 229.06054783 C-286.61992105 229.06556351 -284.89921782 229.0701263 -283.17851353 229.0742197 C-278.96168261 229.08524176 -274.74491775 229.10250277 -270.5281229 229.12304783 C-270.53335972 228.01268162 -270.53859653 226.90231541 -270.54399204 225.75830173 C-270.56206275 221.64714454 -270.57356252 217.53599087 -270.58305454 213.42480564 C-270.58809001 211.64387516 -270.59491871 209.86294883 -270.60356236 208.0820322 C-270.61566232 205.52538118 -270.621359 202.96878471 -270.62577915 200.41211033 C-270.63094044 199.61310307 -270.63610172 198.8140958 -270.64141941 197.9908762 C-270.64199461 192.35079124 -270.64199461 192.35079124 -269.5281229 190.12304783 C-264.29556068 189.95561495 -259.06285063 189.79503683 -253.82988071 189.64087009 C-252.04889833 189.58742763 -250.26797159 189.53209654 -248.48710728 189.47485447 C-245.93058874 189.39300602 -243.37394845 189.31790253 -240.8171854 189.24414158 C-239.61867451 189.20358898 -239.61867451 189.20358898 -238.39595127 189.16221714 C-232.75586632 189.00917612 -232.75586632 189.00917612 -230.5281229 190.12304783 C-230.77151402 188.60578098 -230.77151402 188.60578098 -231.01982212 187.05786228 C-231.49587586 183.37267585 -231.65734317 179.87807029 -231.6609354 176.16601658 C-231.66222446 174.88920017 -231.66351353 173.61238377 -231.66484165 172.29687595 C-231.66097446 170.98138767 -231.65710728 169.66589939 -231.6531229 168.31054783 C-231.65668857 166.96223959 -231.66059193 165.61393221 -231.66484165 164.26562595 C-231.66290806 162.36006931 -231.66290806 162.36006931 -231.6609354 160.41601658 C-231.65980747 159.25610203 -231.65867954 158.09618748 -231.65751743 156.901124 C-231.5281229 154.12304783 -231.5281229 154.12304783 -230.5281229 152.12304783 C-194.2281229 151.79304783 -157.9281229 151.46304783 -120.5281229 151.12304783 C-120.1981229 149.47304783 -119.8681229 147.82304783 -119.5281229 146.12304783 C-120.1881229 145.79304783 -120.8481229 145.46304783 -121.5281229 145.12304783 C-121.1981229 144.46304783 -120.8681229 143.80304783 -120.5281229 143.12304783 C-120.84670564 141.7861133 -121.18184975 140.45307933 -121.5281229 139.12304783 C-121.3858483 135.50927297 -121.13209712 131.92604386 -120.84452915 128.32226658 C-120.49304082 124.13009319 -120.49304082 124.13009319 -121.08085728 120.00000095 C-121.5281229 118.12304783 -121.5281229 118.12304783 -120.5281229 116.12304783 C-132.0781229 116.12304783 -143.6281229 116.12304783 -155.5281229 116.12304783 C-156.51251533 112.18547813 -156.66771485 109.04369844 -156.68925571 104.99951267 C-156.69422062 104.2901305 -156.69918552 103.58074833 -156.70430088 102.84986973 C-156.71886731 100.51123165 -156.72571275 98.17266125 -156.7312479 95.83398533 C-156.73700081 94.20781547 -156.74275853 92.58164563 -156.74852085 90.95547581 C-156.75901294 87.55104348 -156.76486835 84.14663467 -156.76835728 80.74218845 C-156.77385977 76.37269567 -156.79793233 72.00351172 -156.82632923 67.63411617 C-156.84491179 64.27817961 -156.8501587 60.92231841 -156.85169315 57.56633472 C-156.8547266 55.95472226 -156.86277834 54.34311134 -156.87587833 52.73154926 C-156.89285923 50.48338723 -156.89107948 48.23599335 -156.88456821 45.98779392 C-156.89003666 44.06729725 -156.89003666 44.06729725 -156.89561558 42.10800266 C-156.77434299 41.12296757 -156.65307041 40.13793247 -156.5281229 39.12304783 C-152.71184623 36.57886338 -149.63091512 36.85225994 -145.21171665 36.89257908 C-144.39945118 36.8930373 -143.58718571 36.89349552 -142.75030613 36.89396763 C-141.03470999 36.89698672 -139.31911652 36.90486279 -137.60356236 36.91723728 C-134.97219775 36.93550219 -132.34118493 36.93774686 -129.70976353 36.93750095 C-128.04374485 36.94241599 -126.37772856 36.94824425 -124.71171665 36.95507908 C-123.5273225 36.95674831 -123.5273225 36.95674831 -122.3190012 36.95845127 C-116.76027896 37.0069698 -116.76027896 37.0069698 -114.5281229 38.12304783 C-114.36066744 43.07076807 -114.20009172 48.01864503 -114.04594517 52.96679783 C-113.99250867 54.65077853 -113.93717802 56.33470022 -113.87992954 58.01855564 C-113.79806438 60.43606941 -113.72296819 62.85371215 -113.64921665 65.27148533 C-113.60866405 66.40437489 -113.60866405 66.40437489 -113.56729221 67.5601511 C-113.4142512 72.89530442 -113.4142512 72.89530442 -114.5281229 75.12304783 C-113.93724888 75.09046375 -113.34637486 75.05787968 -112.73759556 75.0243082 C-96.6300229 74.16754091 -80.64851305 74.13607244 -64.5281229 74.56054783 C-62.27683763 74.61399514 -60.02553538 74.66673222 -57.77421665 74.71875095 C-52.35863017 74.84538298 -46.94331469 74.98057606 -41.5281229 75.12304783 C-41.53597813 73.70826145 -41.53597813 73.70826145 -41.54399204 72.26489353 C-41.56107602 68.75186643 -41.57359356 65.23888376 -41.58305454 61.72583103 C-41.58807056 60.20792028 -41.59488493 58.69001433 -41.60356236 57.17212009 C-41.61574787 54.98517767 -41.62137862 52.79829936 -41.62577915 50.61132908 C-41.63363438 48.6396677 -41.63363438 48.6396677 -41.64164829 46.62817478 C-41.5281229 43.12304783 -41.5281229 43.12304783 -40.5281229 38.12304783 C-28.3181229 38.12304783 -16.1081229 38.12304783 -3.5281229 38.12304783 C-3.56772574 25.99131186 -3.56772574 25.99131186 -3.61821079 13.85962009 C-3.62112997 12.34456547 -3.62367853 10.82951006 -3.62577915 9.31445408 C-3.63089512 8.52067356 -3.63601109 7.72689304 -3.64128208 6.90905857 C-3.64159247 4.98001953 -3.59048183 3.05107871 -3.5281229 1.12304783 C-2.5281229 0.12304783 -2.5281229 0.12304783 0 0 Z M35.4718771 40.12304783 C35.4718771 52.00304783 35.4718771 63.88304783 35.4718771 76.12304783 C31.4087521 76.28804783 27.3456271 76.45304783 23.1593771 76.62304783 C21.24258144 76.70135838 21.24258144 76.70135838 19.28706264 76.78125095 C18.2794186 76.82185642 17.27177456 76.86246189 16.23359585 76.90429783 C15.20194302 76.94619236 14.17029018 76.98808689 13.10737514 77.03125095 C7.94854909 77.21093772 2.75442392 77.22228899 -2.4031229 76.99804783 C-5.4537217 77.12007178 -6.97155379 77.54977453 -9.5281229 79.12304783 C-9.5281229 78.46304783 -9.5281229 77.80304783 -9.5281229 77.12304783 C-10.4974979 77.12304783 -11.4668729 77.12304783 -12.4656229 77.12304783 C-21.48645624 77.12304783 -30.50728957 77.12304783 -39.5281229 77.12304783 C-39.5281229 89.33304783 -39.5281229 101.54304783 -39.5281229 114.12304783 C-28.34060193 114.15040118 -17.15315857 114.17307591 -5.9656229 114.18554783 C-5.14355099 114.18655113 -4.32147907 114.18755444 -3.47449589 114.18858814 C18.05309299 114.21326188 39.56286878 114.17280544 61.07954311 113.39087009 C61.79684093 113.366106 62.51413876 113.3413419 63.25317287 113.31582737 C65.10477592 113.2502278 66.95607555 113.17620396 68.80732632 113.10131931 C71.4718771 113.12304783 71.4718771 113.12304783 73.4718771 114.12304783 C73.4718771 101.25304783 73.4718771 88.38304783 73.4718771 75.12304783 C86.0118771 75.12304783 98.5518771 75.12304783 111.4718771 75.12304783 C111.5131271 69.55429783 111.5543771 63.98554783 111.5968771 58.24804783 C111.61508511 56.49121677 111.63329311 54.73438572 111.65205288 52.92431736 C111.65789303 51.5348348 111.66298972 50.14534882 111.6671896 48.75586033 C111.67742153 48.03197117 111.68765347 47.30808201 111.69819546 46.56225681 C111.69883106 44.74761847 111.59465285 42.9335281 111.4718771 41.12304783 C109.5915394 38.81217315 109.5915394 38.81217315 106.51142788 38.87580967 C105.24282925 38.87723469 103.97423061 38.87865971 102.6671896 38.88012791 C101.96785305 38.87822956 101.2685165 38.87633121 100.54798794 38.87437534 C98.23083781 38.87066349 95.91399949 38.88137749 93.5968771 38.89257908 C91.9902694 38.89377078 90.383661 38.89422406 88.77705288 38.89396763 C85.40770521 38.89553321 82.03846369 38.90382842 78.66914272 38.91723728 C74.34453884 38.93422723 70.0200517 38.93805165 65.69541836 38.9372921 C62.37722052 38.93756369 59.05904835 38.94304322 55.74085903 38.95029354 C54.14601238 38.95348162 52.5511628 38.95544794 50.95631313 38.95618725 C48.72967965 38.95834934 46.50317131 38.96709072 44.2765646 38.97778416 C43.00796597 38.98159595 41.73936733 38.98540775 40.43232632 38.98933506 C37.54134628 38.91897939 37.54134628 38.91897939 35.4718771 40.12304783 Z M-79.5281229 116.12304783 C-79.5281229 128.00304783 -79.5281229 139.88304783 -79.5281229 152.12304783 C-66.6581229 152.12304783 -53.7881229 152.12304783 -40.5281229 152.12304783 C-40.5074979 148.41054783 -40.4868729 144.69804783 -40.4656229 140.87304783 C-40.4565189 139.72932713 -40.44741489 138.58560642 -40.43803501 137.40722752 C-40.43553745 136.46266697 -40.43303989 135.51810642 -40.43046665 134.54492283 C-40.42522984 133.60229588 -40.41999302 132.65966892 -40.41459751 131.68847752 C-40.58013998 126.48937608 -41.09614222 121.30681602 -41.5281229 116.12304783 C-54.0681229 116.12304783 -66.6081229 116.12304783 -79.5281229 116.12304783 Z M-192.5281229 191.12304783 C-193.45544882 195.40347954 -193.65815504 199.46400912 -193.62577915 203.83007908 C-193.6243642 204.55547382 -193.62294926 205.28086857 -193.62149143 206.02824497 C-193.61592221 208.33072233 -193.60337551 210.63310018 -193.5906229 212.93554783 C-193.58560392 214.50260371 -193.58104171 216.06966112 -193.57695103 217.6367197 C-193.56596288 221.46553372 -193.54871963 225.29427394 -193.5281229 229.12304783 C-197.15274613 229.89548982 -200.38064079 230.20560654 -204.0906229 230.12304783 C-207.48320042 230.04776178 -210.26142186 230.24923891 -213.5281229 231.12304783 C-218.69418295 231.29242685 -223.40877575 230.9106397 -228.5281229 230.12304783 C-232.20770986 229.92544835 -232.20770986 229.92544835 -234.3406229 230.68554783 C-237.52236525 231.3218963 -240.34923874 230.64322887 -243.5281229 230.12304783 C-244.5181229 230.12304783 -245.5081229 230.12304783 -246.5281229 230.12304783 C-248.13360108 230.10026515 -249.73906879 230.07674051 -251.34452915 230.05273533 C-253.25989009 230.03412669 -255.17525489 230.01591269 -257.0906229 229.99804783 C-258.0619315 229.98129002 -259.03324009 229.9645322 -260.03398228 229.94726658 C-261.42520298 229.93759861 -261.42520298 229.93759861 -262.84452915 229.92773533 C-263.69474644 229.9172617 -264.54496372 229.90678806 -265.42094517 229.89599705 C-267.74704372 229.92377914 -267.74704372 229.92377914 -269.5281229 232.12304783 C-269.7032469 234.68098804 -269.75973118 237.12890895 -269.7234354 239.68554783 C-269.71919056 240.80618626 -269.71919056 240.80618626 -269.71485996 241.94946384 C-269.70365243 244.34082038 -269.67856166 246.7318044 -269.6531229 249.12304783 C-269.64309256 250.73502156 -269.6339668 252.34700119 -269.62577915 253.95898533 C-269.60941557 256.90827994 -269.58810369 259.85743667 -269.55986118 262.80664158 C-269.54290218 264.57872743 -269.5281229 266.35088083 -269.5281229 268.12304783 C-273.65309696 268.29036069 -277.77810624 268.45678899 -281.9031229 268.62304783 C-283.0787479 268.67074314 -284.2543729 268.71843845 -285.4656229 268.76757908 C-287.14784946 268.83525486 -287.14784946 268.83525486 -288.8640604 268.90429783 C-289.90095005 268.94619236 -290.9378397 268.98808689 -292.00615025 269.03125095 C-297.17528954 269.21940162 -302.3558969 269.12304783 -307.5281229 269.12304783 C-308.66499658 272.75338537 -308.64852957 276.15084894 -308.64164829 279.93945408 C-308.64179432 280.61636295 -308.64194035 281.29327183 -308.6420908 281.99069309 C-308.64139571 284.22234425 -308.63361937 286.45391129 -308.62577915 288.68554783 C-308.62391273 290.2396652 -308.62248988 291.79378317 -308.62149143 293.34790134 C-308.61767722 297.43658165 -308.60786055 301.52522632 -308.59678745 305.61389256 C-308.58657519 309.77058528 -308.58198746 313.92728368 -308.57695103 318.08398533 C-308.56738231 325.39316214 -308.5528841 332.70231493 -308.53485203 340.01147556 C-308.50377439 354.38188593 -308.5281229 368.75259942 -308.5281229 383.12304783 C-309.5181229 382.79304783 -310.5081229 382.46304783 -311.5281229 382.12304783 C-311.5281229 382.78304783 -311.5281229 383.44304783 -311.5281229 384.12304783 C-312.1881229 383.79304783 -312.8481229 383.46304783 -313.5281229 383.12304783 C-329.3681229 382.62804783 -329.3681229 382.62804783 -345.5281229 382.12304783 C-345.5281229 419.74304783 -345.5281229 457.36304783 -345.5281229 496.12304783 C-326.84683105 497.80546713 -326.84683105 497.80546713 -308.5281229 496.12304783 C-308.5281229 534.07304783 -308.5281229 572.02304783 -308.5281229 611.12304783 C-304.76964116 612.37587508 -301.27321371 612.24686618 -297.36015415 612.22070408 C-296.56534138 612.21928913 -295.7705286 612.21787418 -294.95163059 612.21641636 C-292.41458965 612.21082161 -289.87763715 612.19827011 -287.3406229 612.18554783 C-285.61992105 612.18053215 -283.89921782 612.17596936 -282.17851353 612.17187595 C-277.96165521 612.16170505 -273.744988 612.14212867 -269.5281229 612.12304783 C-269.1981229 623.67304783 -268.8681229 635.22304783 -268.5281229 647.12304783 C-265.58565563 648.59428147 -262.97627268 648.24229548 -259.69169712 648.23657322 C-258.63787342 648.23679226 -258.63787342 648.23679226 -257.56276035 648.23701572 C-255.23607917 648.23631797 -252.90947763 648.22853202 -250.5828104 648.22070408 C-248.97141151 648.21883941 -247.36001206 648.21741574 -245.7486124 648.21641636 C-241.50383538 648.21259503 -237.25909248 648.20276801 -233.01432896 648.19171238 C-228.68429622 648.18149001 -224.35425797 648.17691697 -220.02421665 648.17187595 C-211.52550306 648.16114541 -203.02681722 648.14407358 -194.5281229 648.12304783 C-193.05524249 661.37897149 -193.5281229 674.78554848 -193.5281229 688.12304783 C-117.6281229 688.12304783 -41.7281229 688.12304783 36.4718771 688.12304783 C36.4718771 674.92304783 36.4718771 661.72304783 36.4718771 648.12304783 C48.6818771 648.12304783 60.8918771 648.12304783 73.4718771 648.12304783 C73.4718771 636.24304783 73.4718771 624.36304783 73.4718771 612.12304783 C85.6818771 612.12304783 97.8918771 612.12304783 110.4718771 612.12304783 C111.80333442 608.12867586 111.88099231 604.30903774 112.0968771 600.12304783 C112.14263882 599.26960789 112.18840054 598.41616795 112.23554897 597.53686619 C112.49058194 592.02700435 112.40145604 586.72677144 111.6281271 581.25195408 C111.4718771 579.12304783 111.4718771 579.12304783 112.4718771 575.12304783 C131.2818771 574.62804783 131.2818771 574.62804783 150.4718771 574.12304783 C150.4718771 548.38304783 150.4718771 522.64304783 150.4718771 496.12304783 C163.0118771 496.12304783 175.5518771 496.12304783 188.4718771 496.12304783 C188.4718771 458.83304783 188.4718771 421.54304783 188.4718771 383.12304783 C183.1918771 383.12304783 177.9118771 383.12304783 172.4718771 383.12304783 C168.63202774 382.98660648 164.80656381 382.83387013 160.9718771 382.62304783 C159.577756 382.55150486 159.577756 382.55150486 158.15547085 382.47851658 C155.92738527 382.36366681 153.6996105 382.24447503 151.4718771 382.12304783 C150.54465861 373.12912001 150.3522635 364.24167719 150.4093771 355.20507908 C150.41379421 353.81215175 150.41760768 352.4192224 150.42085171 351.02629185 C150.43214553 346.6626803 150.45145849 342.29912491 150.4718771 337.93554783 C150.49550866 332.83641258 150.51582167 327.73730619 150.52781582 322.63812923 C150.53430293 320.60334183 150.54679601 318.56864729 150.55952358 316.53389072 C150.56447842 314.70014141 150.56447842 314.70014141 150.56953335 312.82934666 C150.57477016 311.74857349 150.58000698 310.66780033 150.58540249 309.55427647 C150.74771828 307.17443735 150.74771828 307.17443735 149.4718771 306.12304783 C146.73293625 306.03446137 144.0193444 306.00781304 141.28047085 306.02539158 C140.05071278 306.027514 140.05071278 306.027514 138.79611111 306.0296793 C136.16716327 306.03529494 133.53829936 306.04785004 130.9093771 306.06054783 C129.13138353 306.06556082 127.35338864 306.07012407 125.57539272 306.0742197 C121.20752165 306.08526944 116.83971362 306.10254452 112.4718771 306.12304783 C112.4718771 302.49304783 112.4718771 298.86304783 112.4718771 295.12304783 C111.8118771 295.12304783 111.1518771 295.12304783 110.4718771 295.12304783 C110.63558804 294.13820408 110.79929897 293.15336033 110.96797085 292.13867283 C111.55382773 288.03457485 111.58456519 284.01163504 111.5343771 279.87304783 C111.52760952 278.81343845 111.52760952 278.81343845 111.52070522 277.73242283 C111.50831057 275.8626014 111.49041007 273.99281849 111.4718771 272.12304783 C111.4718771 271.13304783 111.4718771 270.14304783 111.4718771 269.12304783 C99.2618771 268.79304783 87.0518771 268.46304783 74.4718771 268.12304783 C74.5968771 250.81054783 74.5968771 250.81054783 74.65205288 245.35620213 C74.65789456 243.92822664 74.66299089 242.50024784 74.6671896 241.07226658 C74.67742153 240.33190159 74.68765347 239.5915366 74.69819546 238.82873631 C74.69948478 235.0400674 74.62793436 233.35713372 72.4718771 230.12304783 C71.9356271 230.30867283 71.3993771 230.49429783 70.8468771 230.68554783 C67.86266594 231.23527094 65.44240819 230.63966193 62.4718771 230.12304783 C61.8118771 230.45304783 61.1518771 230.78304783 60.4718771 231.12304783 C59.58886929 230.96964939 58.70586147 230.81625095 57.79609585 230.65820408 C54.13488204 230.06879598 50.97375978 230.24024772 47.2843771 230.56054783 C42.47661044 230.96503512 37.85723759 231.16247735 33.0421896 230.90429783 C17.03870249 229.28924708 17.03870249 229.28924708 1.25703335 230.69336033 C-0.5281229 231.12304783 -0.5281229 231.12304783 -2.5281229 230.12304783 C-2.5281229 242.99304783 -2.5281229 255.86304783 -2.5281229 269.12304783 C-5.5281229 270.12304783 -5.5281229 270.12304783 -8.5281229 269.12304783 C-10.20483213 269.04129573 -11.88460694 269.01554999 -13.56327915 269.02539158 C-15.02410923 269.03022556 -15.02410923 269.03022556 -16.51445103 269.0351572 C-17.52958775 269.04353611 -18.54472446 269.05191502 -19.5906229 269.06054783 C-21.11912876 269.06731541 -21.11912876 269.06731541 -22.67851353 269.0742197 C-25.29509797 269.0863576 -27.91158116 269.10416527 -30.5281229 269.12304783 C-59.86145624 269.12304783 -89.19478957 269.12304783 -118.5281229 269.12304783 C-118.1981229 256.25304783 -117.8681229 243.38304783 -117.5281229 230.12304783 C-107.4656229 230.18554783 -107.4656229 230.18554783 -104.39897251 230.21313572 C-96.3525375 230.2366168 -88.62390542 229.66276666 -80.5281229 229.12304783 C-80.5281229 216.91304783 -80.5281229 204.70304783 -80.5281229 192.12304783 C-87.02704124 191.27642018 -87.02704124 191.27642018 -93.43840122 191.00279331 C-94.32447056 191.00141865 -95.21053989 191.00004398 -96.12345982 190.99862766 C-97.06717442 191.00222294 -98.01088902 191.00581821 -98.98320103 191.00952244 C-99.99874058 191.00937641 -101.01428013 191.00923038 -102.06059361 191.00907993 C-105.39354231 191.00977264 -108.72643405 191.01753487 -112.0593729 191.02539158 C-114.3796444 191.02725804 -116.6999163 191.02868087 -119.02018833 191.0296793 C-125.10943291 191.03348652 -131.19865342 191.04330141 -137.28788853 191.05438328 C-143.50858834 191.06463606 -149.72929206 191.06918519 -155.9499979 191.0742197 C-168.14271678 191.08492535 -180.33541783 191.10198013 -192.5281229 191.12304783 Z M-40.5281229 191.12304783 C-40.5281229 203.99304783 -40.5281229 216.86304783 -40.5281229 230.12304783 C-28.3181229 230.12304783 -16.1081229 230.12304783 -3.5281229 230.12304783 C-3.5281229 217.58304783 -3.5281229 205.04304783 -3.5281229 192.12304783 C-21.8431229 191.62804783 -21.8431229 191.62804783 -40.5281229 191.12304783 Z " fill="#070707" transform="translate(585.5281229019165,127.87695217132568)"/>
<path d="M0 0 C12.69179475 -0.20110238 25.32219884 0.43021118 38 1 C38 13.54 38 26.08 38 39 C38.66 38.67 39.32 38.34 40 38 C42.6754033 37.88896031 45.3239975 37.83589437 48 37.83203125 C48.79148437 37.82870285 49.58296875 37.82537445 50.3984375 37.82194519 C52.07291075 37.8168796 53.7473941 37.81453675 55.421875 37.81469727 C57.98975135 37.81250873 60.55719959 37.79434391 63.125 37.77539062 C64.74999853 37.77245709 66.3749991 37.77047203 68 37.76953125 C68.77085937 37.76234573 69.54171875 37.75516022 70.3359375 37.74775696 C75.7711728 37.7711728 75.7711728 37.7711728 78 40 C78.18753311 42.78510224 78.25561232 45.46899646 78.23046875 48.25390625 C78.23001053 49.06995834 78.22955231 49.88601044 78.2290802 50.72679138 C78.22605744 52.45255995 78.21817042 54.17832578 78.20581055 55.90405273 C78.18754978 58.55527333 78.18530086 61.20614496 78.18554688 63.85742188 C78.18063194 65.53125304 78.17480373 67.20508182 78.16796875 68.87890625 C78.16685593 69.67680069 78.1657431 70.47469513 78.16459656 71.29676819 C78.11604901 76.88395099 78.11604901 76.88395099 77 78 C74.04294679 78.08868299 71.10934944 78.11520296 68.15234375 78.09765625 C66.82270348 78.09553383 66.82270348 78.09553383 65.46620178 78.09336853 C62.62326746 78.08775215 59.78041069 78.07519691 56.9375 78.0625 C55.01497509 78.05748711 53.09244896 78.05292384 51.16992188 78.04882812 C46.44658451 78.03777741 41.72330542 78.02050183 37 78 C36.98640008 74.99347406 36.97653213 71.98701087 36.96875 68.98046875 C36.96456055 68.13867065 36.96037109 67.29687256 36.95605469 66.42956543 C36.9427838 59.57349122 37.31387131 52.82453001 38 46 C37.34 45.67 36.68 45.34 36 45 C36.33 43.35 36.66 41.7 37 40 C24.46 40 11.92 40 -1 40 C-0.505 42.97 -0.505 42.97 0 46 C0.08464971 47.6051501 0.13049114 49.21293357 0.1328125 50.8203125 C0.13474609 52.11775391 0.13474609 52.11775391 0.13671875 53.44140625 C0.13285156 54.32699219 0.12898437 55.21257813 0.125 56.125 C0.13080078 57.46498047 0.13080078 57.46498047 0.13671875 58.83203125 C0.13542969 59.69441406 0.13414062 60.55679688 0.1328125 61.4453125 C0.13168457 62.22406738 0.13055664 63.00282227 0.12939453 63.80517578 C0.00067995 65.98846647 -0.39860321 67.90197923 -1 70 C-0.34 70 0.32 70 1 70 C0.67 72.64 0.34 75.28 0 78 C-13.53 78 -27.06 78 -41 78 C-41.020625 71.585625 -41.04125 65.17125 -41.0625 58.5625 C-41.071604 56.53552979 -41.08070801 54.50855957 -41.09008789 52.42016602 C-41.09300703 50.8230801 -41.09555559 49.22599345 -41.09765625 47.62890625 C-41.10277222 46.79194214 -41.10788818 45.95497803 -41.11315918 45.09265137 C-41.11346924 43.06141735 -41.06240188 41.03027529 -41 39 C-40 38 -40 38 -36.30639648 37.88647461 C-34.66128708 37.88663376 -33.01617269 37.89233012 -31.37109375 37.90234375 C-30.07474754 37.90446617 -30.07474754 37.90446617 -28.75221252 37.90663147 C-25.98060708 37.91224761 -23.2090812 37.92480281 -20.4375 37.9375 C-18.5631522 37.94251292 -16.68880315 37.94707619 -14.81445312 37.95117188 C-10.20960456 37.96222228 -5.60481579 37.9794977 -1 38 C-1.0407666 36.99098633 -1.0815332 35.98197266 -1.12353516 34.94238281 C-1.27218473 31.19306626 -1.4067539 27.44335288 -1.53710938 23.69335938 C-1.59545064 22.07147216 -1.65759217 20.44971696 -1.72363281 18.828125 C-1.81798567 16.4950362 -1.89858886 14.1618116 -1.9765625 11.828125 C-2.02485703 10.74352997 -2.02485703 10.74352997 -2.0741272 9.63702393 C-2.18511534 5.89334891 -2.10305499 3.17252663 0 0 Z " fill="#070707" transform="translate(623,586)"/>
<path d="M0 0 C337.92 0 675.84 0 1024 0 C1024 10.56 1024 21.12 1024 32 C1023.67 32 1023.34 32 1023 32 C1023 21.77 1023 11.54 1023 1 C687.72 1 352.44 1 7 1 C7 338.26 7 675.52 7 1023 C342.61 1023 678.22 1023 1024 1023 C1024 1023.33 1024 1023.66 1024 1024 C686.08 1024 348.16 1024 0 1024 C0 1023.67 0 1023.34 0 1023 C1.65 1023 3.3 1023 5 1023 C5 685.74 5 348.48 5 1 C3.35 1 1.7 1 0 1 C0 0.67 0 0.34 0 0 Z " fill="#858483" transform="translate(0,0)"/>
<path d="M0 0 C99 0 198 0 300 0 C298.68 0.99 297.36 1.98 296 3 C295.01 2.67 294.02 2.34 293 2 C290.98093192 1.90583222 288.95875687 1.87008808 286.9375 1.875 C285.87402344 1.87242187 284.81054688 1.86984375 283.71484375 1.8671875 C281.03295616 1.81561545 281.03295616 1.81561545 279 3 C278.34 2.67 277.68 2.34 277 2 C275.18958207 1.90367103 273.37547247 1.87018467 271.5625 1.875 C270.59441406 1.87242187 269.62632812 1.86984375 268.62890625 1.8671875 C265.88982171 1.88786027 265.88982171 1.88786027 263 3 C262.43216797 2.85763916 261.86433594 2.71527832 261.27929688 2.56860352 C258.04249557 1.7611367 254.84479944 1.87750909 251.53125 1.90234375 C250.813927 1.9037587 250.096604 1.90517365 249.35754395 1.90663147 C247.0716529 1.91221098 244.78586116 1.92474462 242.5 1.9375 C240.96224102 1.94251901 239.42448048 1.94708121 237.88671875 1.95117188 C235.06443276 1.95932711 232.2421845 1.97006169 229.41992188 1.98413086 C218.94690651 2.0327278 208.47313416 2 198 2 C196.72253906 2.01160156 195.44507813 2.02320313 194.12890625 2.03515625 C192.60677189 2.04444565 191.08463642 2.05355377 189.5625 2.0625 C188.4168457 2.07506836 188.4168457 2.07506836 187.24804688 2.08789062 C186.50748047 2.09111328 185.76691406 2.09433594 185.00390625 2.09765625 C184.33174072 2.10289307 183.6595752 2.10812988 182.96704102 2.11352539 C180.87241003 1.9926363 179.01541097 1.56888187 177 1 C177 1.66 177 2.32 177 3 C175.35 3 173.7 3 172 3 C172 2.67 172 2.34 172 2 C168.37114676 1.84850702 168.37114676 1.84850702 165 3 C165 2.34 165 1.68 165 1 C162.69 1 160.38 1 158 1 C157.67 1.66 157.34 2.32 157 3 C157 2.34 157 1.68 157 1 C156.12859375 1.0721875 155.2571875 1.144375 154.359375 1.21875 C132.79775281 2.8988764 132.79775281 2.8988764 129 1 C129 1.66 129 2.32 129 3 C127.68 3 126.36 3 125 3 C125 2.34 125 1.68 125 1 C124.05125 1.33 123.1025 1.66 122.125 2 C119 3 119 3 117 3 C117 2.34 117 1.68 117 1 C110.4 1 103.8 1 97 1 C97 1.66 97 2.32 97 3 C91.72 2.34 86.44 1.68 81 1 C81 1.66 81 2.32 81 3 C80.505 2.814375 80.01 2.62875 79.5 2.4375 C75.84918311 1.79860704 72.66035276 2.45094709 69 3 C69 2.34 69 1.68 69 1 C67.7625 1.185625 66.525 1.37125 65.25 1.5625 C62.23720423 1.94711223 59.89989173 2.0874594 57 1 C57 1.66 57 2.32 57 3 C55.68 3 54.36 3 53 3 C53 2.34 53 1.68 53 1 C51.68 1 50.36 1 49 1 C49 1.66 49 2.32 49 3 C47.68 3 46.36 3 45 3 C45 2.34 45 1.68 45 1 C44.40985107 1.03029297 43.81970215 1.06058594 43.21166992 1.09179688 C40.53698612 1.22864973 37.86224445 1.36433784 35.1875 1.5 C34.25873047 1.54769531 33.32996094 1.59539063 32.37304688 1.64453125 C31.48037109 1.68964844 30.58769531 1.73476563 29.66796875 1.78125 C28.43469849 1.8440918 28.43469849 1.8440918 27.17651367 1.90820312 C25.45227071 1.98092498 23.72577585 2 22 2 C20.10121094 2.01740234 20.10121094 2.01740234 18.1640625 2.03515625 C16.65104274 2.04444672 15.13802184 2.05355477 13.625 2.0625 C12.49191406 2.07506836 12.49191406 2.07506836 11.3359375 2.08789062 C7.4159277 2.10502353 3.8290076 1.96869316 0 1 C0 0.67 0 0.34 0 0 Z " fill="#1D1D1D" transform="translate(356,852)"/>
<path d="M0 0 C25.08 0 50.16 0 76 0 C76 0.33 76 0.66 76 1 C68.08 1.495 68.08 1.495 60 2 C60 2.33 60 2.66 60 3 C50.33333333 3 40.66666667 3 31 3 C31 2.34 31 1.68 31 1 C30.01 1.66 29.02 2.32 28 3 C25.3125 3.125 25.3125 3.125 23 3 C23 2.67 23 2.34 23 2 C15.74 1.67 8.48 1.34 1 1 C1 12.55 1 24.1 1 36 C0.67 36 0.34 36 0 36 C0 24.12 0 12.24 0 0 Z " fill="#1B1A1A" transform="translate(545,204)"/>
<path d="M0 0 C0.33 0 0.66 0 1 0 C1 15.18 1 30.36 1 46 C0.67 46 0.34 46 0 46 C0 30.82 0 15.64 0 0 Z " fill="#5B5B5B" transform="translate(1023,496)"/>
<path d="M0 0 C0.33 0 0.66 0 1 0 C1 8.91 1 17.82 1 27 C0.67 27 0.34 27 0 27 C0 18.09 0 9.18 0 0 Z " fill="#575756" transform="translate(1023,275)"/>
<path d="M0 0 C0.33 0 0.66 0 1 0 C1 8.25 1 16.5 1 25 C0.67 25 0.34 25 0 25 C0 16.75 0 8.5 0 0 Z " fill="#555555" transform="translate(1023,311)"/>
<path d="M0 0 C0.33 0 0.66 0 1 0 C1 7.92 1 15.84 1 24 C0.67 24 0.34 24 0 24 C0 16.08 0 8.16 0 0 Z " fill="#575757" transform="translate(1023,241)"/>
<path d="M0 0 C0.33 0 0.66 0 1 0 C1 7.59 1 15.18 1 23 C0.67 23 0.34 23 0 23 C0 15.41 0 7.82 0 0 Z " fill="#5C5C5C" transform="translate(1023,551)"/>
<path d="M0 0 C0.33 0 0.66 0 1 0 C1 7.59 1 15.18 1 23 C0.67 23 0.34 23 0 23 C0 15.41 0 7.82 0 0 Z " fill="#5A5B5A" transform="translate(1023,472)"/>
<path d="M0 0 C0.33 0 0.66 0 1 0 C1 6.93 1 13.86 1 21 C0.67 21 0.34 21 0 21 C0 14.07 0 7.14 0 0 Z " fill="#747474" transform="translate(1023,65)"/>
<path d="M0 0 C0.33 0 0.66 0 1 0 C1 4.95 1 9.9 1 15 C0.67 15 0.34 15 0 15 C0 10.05 0 5.1 0 0 Z " fill="#585958" transform="translate(1023,433)"/>
<path d="M0 0 C0.33 0 0.66 0 1 0 C1 4.62 1 9.24 1 14 C0.67 14 0.34 14 0 14 C0 9.38 0 4.76 0 0 Z " fill="#7E7F7E" transform="translate(1023,33)"/>
<path d="M0 0 C0.33 0 0.66 0 1 0 C1 4.29 1 8.58 1 13 C0.67 13 0.34 13 0 13 C0 8.71 0 4.42 0 0 Z " fill="#5B5B5B" transform="translate(1023,609)"/>
<path d="M0 0 C0.33 0 0.66 0 1 0 C1 3.63 1 7.26 1 11 C0.67 11 0.34 11 0 11 C0 7.37 0 3.74 0 0 Z " fill="#565757" transform="translate(1023,707)"/>
<path d="M0 0 C3.63 0 7.26 0 11 0 C11 0.33 11 0.66 11 1 C7.37 1 3.74 1 0 1 C0 0.67 0 0.34 0 0 Z " fill="#191918" transform="translate(527,398)"/>
<path d="M0 0 C0.33 0 0.66 0 1 0 C1 3.3 1 6.6 1 10 C0.67 10 0.34 10 0 10 C0 6.7 0 3.4 0 0 Z " fill="#5A5B5A" transform="translate(1023,192)"/>
<path d="M0 0 C0.33 0 0.66 0 1 0 C1 2.97 1 5.94 1 9 C0.67 9 0.34 9 0 9 C0 6.03 0 3.06 0 0 Z " fill="#555655" transform="translate(1023,360)"/>
<path d="M0 0 C0.33 0 0.66 0 1 0 C1 2.97 1 5.94 1 9 C0.67 9 0.34 9 0 9 C0 6.03 0 3.06 0 0 Z " fill="#696968" transform="translate(1023,111)"/>
<path d="M0 0 C0.33 0 0.66 0 1 0 C1 2.64 1 5.28 1 8 C0.67 8 0.34 8 0 8 C0 5.36 0 2.72 0 0 Z " fill="#565756" transform="translate(1023,720)"/>
<path d="M0 0 C0.33 0 0.66 0 1 0 C1 2.64 1 5.28 1 8 C0.67 8 0.34 8 0 8 C0 5.36 0 2.72 0 0 Z " fill="#5B5B5B" transform="translate(1023,591)"/>
<path d="M0 0 C0.33 0 0.66 0 1 0 C1 2.64 1 5.28 1 8 C0.67 8 0.34 8 0 8 C0 5.36 0 2.72 0 0 Z " fill="#585858" transform="translate(1023,424)"/>
<path d="M0 0 C0.33 0 0.66 0 1 0 C1 2.64 1 5.28 1 8 C0.67 8 0.34 8 0 8 C0 5.36 0 2.72 0 0 Z " fill="#5D5D5C" transform="translate(1023,176)"/>
<path d="M0 0 C0.33 0 0.66 0 1 0 C1 2.64 1 5.28 1 8 C0.67 8 0.34 8 0 8 C0 5.36 0 2.72 0 0 Z " fill="#787878" transform="translate(1023,56)"/>
<path d="M0 0 C0.33 0 0.66 0 1 0 C1 2.31 1 4.62 1 7 C0.67 7 0.34 7 0 7 C0 4.69 0 2.38 0 0 Z " fill="#595959" transform="translate(1023,671)"/>
<path d="M0 0 C0.33 0 0.66 0 1 0 C1 2.31 1 4.62 1 7 C0.67 7 0.34 7 0 7 C0 4.69 0 2.38 0 0 Z " fill="#595A59" transform="translate(1023,623)"/>
<path d="M0 0 C0.33 0 0.66 0 1 0 C1 2.31 1 4.62 1 7 C0.67 7 0.34 7 0 7 C0 4.69 0 2.38 0 0 Z " fill="#5A5A5B" transform="translate(1023,575)"/>
<path d="M0 0 C0.33 0 0.66 0 1 0 C1 2.31 1 4.62 1 7 C0.67 7 0.34 7 0 7 C0 4.69 0 2.38 0 0 Z " fill="#5A5A5A" transform="translate(1023,463)"/>
<path d="M0 0 C0.33 0 0.66 0 1 0 C1 2.31 1 4.62 1 7 C0.67 7 0.34 7 0 7 C0 4.69 0 2.38 0 0 Z " fill="#595959" transform="translate(1023,449)"/>
<path d="M0 0 C2.31 0 4.62 0 7 0 C7 0.33 7 0.66 7 1 C4.69 1 2.38 1 0 1 C0 0.67 0 0.34 0 0 Z " fill="#1A1918" transform="translate(566,398)"/>
<path d="M0 0 C2.31 0 4.62 0 7 0 C7 0.33 7 0.66 7 1 C4.69 1 2.38 1 0 1 C0 0.67 0 0.34 0 0 Z " fill="#191918" transform="translate(518,398)"/>
<path d="M0 0 C2.31 0 4.62 0 7 0 C7 0.33 7 0.66 7 1 C4.69 1 2.38 1 0 1 C0 0.67 0 0.34 0 0 Z " fill="#191919" transform="translate(494,398)"/>
<path d="M0 0 C0.33 0 0.66 0 1 0 C1 2.31 1 4.62 1 7 C0.67 7 0.34 7 0 7 C0 4.69 0 2.38 0 0 Z " fill="#555656" transform="translate(1023,351)"/>
<path d="M0 0 C2.31 0 4.62 0 7 0 C7 0.33 7 0.66 7 1 C4.69 1 2.38 1 0 1 C0 0.67 0 0.34 0 0 Z " fill="#1A1918" transform="translate(560,206)"/>
<path d="M0 0 C0.33 0 0.66 0 1 0 C1 2.31 1 4.62 1 7 C0.67 7 0.34 7 0 7 C0 4.69 0 2.38 0 0 Z " fill="#5F5F5F" transform="translate(1023,161)"/>
<path d="M0 0 C0.33 0 0.66 0 1 0 C1 2.31 1 4.62 1 7 C0.67 7 0.34 7 0 7 C0 4.69 0 2.38 0 0 Z " fill="#6E6D6D" transform="translate(1023,96)"/>
<path d="M0 0 C0.33 0 0.66 0 1 0 C1 2.31 1 4.62 1 7 C0.67 7 0.34 7 0 7 C0 4.69 0 2.38 0 0 Z " fill="#7B7B7B" transform="translate(1023,48)"/>
<path d="M0 0 C0.33 0 0.66 0 1 0 C1 1.98 1 3.96 1 6 C0.67 6 0.34 6 0 6 C0 4.02 0 2.04 0 0 Z " fill="#5C5D5C" transform="translate(1023,544)"/>
<path d="M0 0 C1.98 0 3.96 0 6 0 C6 0.33 6 0.66 6 1 C4.02 1 2.04 1 0 1 C0 0.67 0 0.34 0 0 Z " fill="#191918" transform="translate(487,398)"/>
<path d="M0 0 C1.98 0 3.96 0 6 0 C6 0.33 6 0.66 6 1 C4.02 1 2.04 1 0 1 C0 0.67 0 0.34 0 0 Z " fill="#1C1B1B" transform="translate(307,398)"/>
<path d="M0 0 C1.98 0 3.96 0 6 0 C6 0.33 6 0.66 6 1 C4.02 1 2.04 1 0 1 C0 0.67 0 0.34 0 0 Z " fill="#1C1C1B" transform="translate(295,398)"/>
<path d="M0 0 C0.33 0 0.66 0 1 0 C1 1.98 1 3.96 1 6 C0.67 6 0.34 6 0 6 C0 4.02 0 2.04 0 0 Z " fill="#555555" transform="translate(1023,344)"/>
<path d="M0 0 C0.33 0 0.66 0 1 0 C1 1.98 1 3.96 1 6 C0.67 6 0.34 6 0 6 C0 4.02 0 2.04 0 0 Z " fill="#555555" transform="translate(1023,304)"/>
<path d="M0 0 C0.33 0 0.66 0 1 0 C1 1.98 1 3.96 1 6 C0.67 6 0.34 6 0 6 C0 4.02 0 2.04 0 0 Z " fill="#59595A" transform="translate(1023,207)"/>
<path d="M0 0 C0.33 0 0.66 0 1 0 C1 1.98 1 3.96 1 6 C0.67 6 0.34 6 0 6 C0 4.02 0 2.04 0 0 Z " fill="#606160" transform="translate(1023,153)"/>
<path d="M0 0 C0.33 0 0.66 0 1 0 C1 1.98 1 3.96 1 6 C0.67 6 0.34 6 0 6 C0 4.02 0 2.04 0 0 Z " fill="#656565" transform="translate(1023,128)"/>
<path d="M0 0 C0.33 0 0.66 0 1 0 C1 1.98 1 3.96 1 6 C0.67 6 0.34 6 0 6 C0 4.02 0 2.04 0 0 Z " fill="#6C6C6B" transform="translate(1023,104)"/>
<path d="M0 0 C0.33 0 0.66 0 1 0 C1 1.65 1 3.3 1 5 C0.67 5 0.34 5 0 5 C0 3.35 0 1.7 0 0 Z " fill="#6A6A6A" transform="translate(1023,977)"/>
<path d="M0 0 C0.33 0 0.66 0 1 0 C1 1.65 1 3.3 1 5 C0.67 5 0.34 5 0 5 C0 3.35 0 1.7 0 0 Z " fill="#626362" transform="translate(1023,946)"/>
<path d="M0 0 C0.33 0 0.66 0 1 0 C1 1.65 1 3.3 1 5 C0.67 5 0.34 5 0 5 C0 3.35 0 1.7 0 0 Z " fill="#555655" transform="translate(1023,729)"/>
<path d="M0 0 C0.33 0 0.66 0 1 0 C1 1.65 1 3.3 1 5 C0.67 5 0.34 5 0 5 C0 3.35 0 1.7 0 0 Z " fill="#575857" transform="translate(1023,689)"/>
<path d="M0 0 C0.33 0 0.66 0 1 0 C1 1.65 1 3.3 1 5 C0.67 5 0.34 5 0 5 C0 3.35 0 1.7 0 0 Z " fill="#585858" transform="translate(1023,681)"/>
<path d="M0 0 C0.33 0 0.66 0 1 0 C1 1.65 1 3.3 1 5 C0.67 5 0.34 5 0 5 C0 3.35 0 1.7 0 0 Z " fill="#5B5B5B" transform="translate(1023,585)"/>
<path d="M0 0 C0.33 0 0.66 0 1 0 C1 1.65 1 3.3 1 5 C0.67 5 0.34 5 0 5 C0 3.35 0 1.7 0 0 Z " fill="#5A5A5A" transform="translate(1023,457)"/>
<path d="M0 0 C1.65 0 3.3 0 5 0 C5 0.33 5 0.66 5 1 C3.35 1 1.7 1 0 1 C0 0.67 0 0.34 0 0 Z " fill="#191A18" transform="translate(512,398)"/>
<path d="M0 0 C0.33 0 0.66 0 1 0 C1 1.65 1 3.3 1 5 C0.67 5 0.34 5 0 5 C0 3.35 0 1.7 0 0 Z " fill="#1B1A19" transform="translate(657,227)"/>
<path d="M0 0 C0.33 0 0.66 0 1 0 C1 1.65 1 3.3 1 5 C0.67 5 0.34 5 0 5 C0 3.35 0 1.7 0 0 Z " fill="#595959" transform="translate(1023,225)"/>
<path d="M0 0 C1.65 0 3.3 0 5 0 C5 0.33 5 0.66 5 1 C3.35 1 1.7 1 0 1 C0 0.67 0 0.34 0 0 Z " fill="#1A1A19" transform="translate(744,206)"/>
<path d="M0 0 C1.65 0 3.3 0 5 0 C5 0.33 5 0.66 5 1 C3.35 1 1.7 1 0 1 C0 0.67 0 0.34 0 0 Z " fill="#1A1918" transform="translate(608,206)"/>
<path d="M0 0 C0.33 0 0.66 0 1 0 C1 1.65 1 3.3 1 5 C0.67 5 0.34 5 0 5 C0 3.35 0 1.7 0 0 Z " fill="#6F706F" transform="translate(1023,89)"/>
<path d="M0 0 C1 4 1 4 1 4 Z " fill="#727372" transform="translate(1023,1002)"/>
<path d="M0 0 C1 4 1 4 1 4 Z " fill="#646564" transform="translate(1023,955)"/>
<path d="M0 0 C1 4 1 4 1 4 Z " fill="#555656" transform="translate(1023,872)"/>
<path d="M0 0 C4 1 4 1 4 1 Z " fill="#191918" transform="translate(465,854)"/>
<path d="M0 0 C1 4 1 4 1 4 Z " fill="#1A1818" transform="translate(662,847)"/>
<path d="M0 0 C1 4 1 4 1 4 Z " fill="#535453" transform="translate(1023,754)"/>
<path d="M0 0 C1 4 1 4 1 4 Z " fill="#565757" transform="translate(1023,698)"/>
<path d="M0 0 C1 4 1 4 1 4 Z " fill="#595959" transform="translate(1023,657)"/>
<path d="M0 0 C1 4 1 4 1 4 Z " fill="#585959" transform="translate(1023,643)"/>
<path d="M0 0 C4 1 4 1 4 1 Z " fill="#1C1B1B" transform="translate(302,398)"/>
<path d="M0 0 C1 4 1 4 1 4 Z " fill="#555555" transform="translate(1023,370)"/>
<path d="M0 0 C1 4 1 4 1 4 Z " fill="#575857" transform="translate(1023,266)"/>
<path d="M0 0 C1 4 1 4 1 4 Z " fill="#585959" transform="translate(1023,220)"/>
<path d="M0 0 C1 4 1 4 1 4 Z " fill="#1C1A1A" transform="translate(657,218)"/>
<path d="M0 0 C4 1 4 1 4 1 Z " fill="#1A1A1A" transform="translate(553,206)"/>
<path d="M0 0 C4 1 4 1 4 1 Z " fill="#1D1D1B" transform="translate(522,201)"/>
<path d="M0 0 C1 4 1 4 1 4 Z " fill="#5D5C5C" transform="translate(1023,186)"/>
<path d="" fill="#747474" transform="translate(0,0)"/>
<path d="" fill="#6F6E6E" transform="translate(0,0)"/>
<path d="" fill="#666666" transform="translate(0,0)"/>
<path d="" fill="#5F605F" transform="translate(0,0)"/>
<path d="" fill="#585958" transform="translate(0,0)"/>
<path d="" fill="#575757" transform="translate(0,0)"/>
<path d="M0 0 C3 1 3 1 3 1 Z " fill="#191918" transform="translate(386,854)"/>
<path d="" fill="#1B1A1B" transform="translate(0,0)"/>
<path d="" fill="#515251" transform="translate(0,0)"/>
<path d="" fill="#545555" transform="translate(0,0)"/>
<path d="M0 0 C3 1 3 1 3 1 Z " fill="#1B1A19" transform="translate(240,741)"/>
<path d="" fill="#585959" transform="translate(0,0)"/>
<path d="" fill="#595858" transform="translate(0,0)"/>
<path d="" fill="#565656" transform="translate(0,0)"/>
<path d="M0 0 C3 1 3 1 3 1 Z " fill="#1B1B19" transform="translate(667,398)"/>
<path d="M0 0 C3 1 3 1 3 1 Z " fill="#1B1A1A" transform="translate(663,398)"/>
<path d="M0 0 C3 1 3 1 3 1 Z " fill="#191918" transform="translate(506,398)"/>
<path d="M0 0 C3 1 3 1 3 1 Z " fill="#1A1A1A" transform="translate(474,398)"/>
<path d="" fill="#565655" transform="translate(0,0)"/>
<path d="" fill="#555655" transform="translate(0,0)"/>
<path d="" fill="#545554" transform="translate(0,0)"/>
<path d="" fill="#181617" transform="translate(0,0)"/>
<path d="M0 0 C3 1 3 1 3 1 Z " fill="#1D1A1A" transform="translate(441,245)"/>
<path d="" fill="#585858" transform="translate(0,0)"/>
<path d="" fill="#1B1B19" transform="translate(0,0)"/>
<path d="" fill="#585958" transform="translate(0,0)"/>
<path d="" fill="#5A5A5A" transform="translate(0,0)"/>
<path d="" fill="#191819" transform="translate(0,0)"/>
<path d="M0 0 C3 1 3 1 3 1 Z " fill="#1C1C1A" transform="translate(533,201)"/>
<path d="" fill="#5F5E5E" transform="translate(0,0)"/>
<path d="" fill="#6F7171" transform="translate(0,0)"/>
<path d="" fill="#656466" transform="translate(0,0)"/>
<path d="" fill="#616061" transform="translate(0,0)"/>
<path d="" fill="#5D5D5D" transform="translate(0,0)"/>
<path d="" fill="#545554" transform="translate(0,0)"/>
<path d="" fill="#1B1A19" transform="translate(0,0)"/>
<path d="M0 0 C2 1 2 1 2 1 Z " fill="#181719" transform="translate(654,854)"/>
<path d="M0 0 C2 1 2 1 2 1 Z " fill="#191A18" transform="translate(627,854)"/>
<path d="M0 0 C2 1 2 1 2 1 Z " fill="#181918" transform="translate(611,854)"/>
<path d="M0 0 C2 1 2 1 2 1 Z " fill="#191918" transform="translate(606,854)"/>
<path d="M0 0 C2 1 2 1 2 1 Z " fill="#181717" transform="translate(587,854)"/>
<path d="M0 0 C2 1 2 1 2 1 Z " fill="#191818" transform="translate(571,854)"/>
<path d="M0 0 C2 1 2 1 2 1 Z " fill="#191919" transform="translate(563,854)"/>
<path d="M0 0 C2 1 2 1 2 1 Z " fill="#181917" transform="translate(547,854)"/>
<path d="M0 0 C2 1 2 1 2 1 Z " fill="#191918" transform="translate(539,854)"/>
<path d="M0 0 C2 1 2 1 2 1 Z " fill="#181918" transform="translate(523,854)"/>
<path d="M0 0 C2 1 2 1 2 1 Z " fill="#181718" transform="translate(515,854)"/>
<path d="M0 0 C2 1 2 1 2 1 Z " fill="#171817" transform="translate(507,854)"/>
<path d="M0 0 C2 1 2 1 2 1 Z " fill="#181817" transform="translate(499,854)"/>
<path d="M0 0 C2 1 2 1 2 1 Z " fill="#181918" transform="translate(491,854)"/>
<path d="M0 0 C2 1 2 1 2 1 Z " fill="#1A1918" transform="translate(470,854)"/>
<path d="M0 0 C2 1 2 1 2 1 Z " fill="#191818" transform="translate(459,854)"/>
<path d="M0 0 C2 1 2 1 2 1 Z " fill="#191919" transform="translate(443,854)"/>
<path d="M0 0 C2 1 2 1 2 1 Z " fill="#1A1918" transform="translate(419,854)"/>
<path d="M0 0 C2 1 2 1 2 1 Z " fill="#181918" transform="translate(395,854)"/>
<path d="M0 0 C2 1 2 1 2 1 Z " fill="#191919" transform="translate(371,854)"/>
<path d="" fill="#505050" transform="translate(0,0)"/>
<path d="" fill="#171715" transform="translate(0,0)"/>
<path d="" fill="#50504F" transform="translate(0,0)"/>
<path d="" fill="#4F4F4F" transform="translate(0,0)"/>
<path d="" fill="#505251" transform="translate(0,0)"/>
<path d="" fill="#1D1C1B" transform="translate(0,0)"/>
<path d="" fill="#545555" transform="translate(0,0)"/>
<path d="" fill="#191B19" transform="translate(0,0)"/>
<path d="" fill="#545554" transform="translate(0,0)"/>
<path d="M0 0 C2 1 2 1 2 1 Z " fill="#1C1B1B" transform="translate(768,741)"/>
<path d="M0 0 C2 1 2 1 2 1 Z " fill="#1B1C1B" transform="translate(721,700)"/>
<path d="" fill="#1C1C1C" transform="translate(0,0)"/>
<path d="" fill="#585859" transform="translate(0,0)"/>
<path d="" fill="#585958" transform="translate(0,0)"/>
<path d="" fill="#5B5C5B" transform="translate(0,0)"/>
<path d="" fill="#1A1B1B" transform="translate(0,0)"/>
<path d="" fill="#595858" transform="translate(0,0)"/>
<path d="" fill="#575858" transform="translate(0,0)"/>
<path d="" fill="#565756" transform="translate(0,0)"/>
<path d="" fill="#1B1D1C" transform="translate(0,0)"/>
<path d="M0 0 C2 1 2 1 2 1 Z " fill="#1B1A19" transform="translate(691,398)"/>
<path d="M0 0 C2 1 2 1 2 1 Z " fill="#1B1A19" transform="translate(688,398)"/>
<path d="M0 0 C2 1 2 1 2 1 Z " fill="#1A1A1A" transform="translate(683,398)"/>
<path d="M0 0 C2 1 2 1 2 1 Z " fill="#191919" transform="translate(680,398)"/>
<path d="M0 0 C2 1 2 1 2 1 Z " fill="#1A1A1A" transform="translate(675,398)"/>
<path d="M0 0 C2 1 2 1 2 1 Z " fill="#19191A" transform="translate(563,398)"/>
<path d="M0 0 C2 1 2 1 2 1 Z " fill="#191818" transform="translate(539,398)"/>
<path d="M0 0 C2 1 2 1 2 1 Z " fill="#1B191B" transform="translate(283,398)"/>
<path d="" fill="#575655" transform="translate(0,0)"/>
<path d="M0 0 C2 1 2 1 2 1 Z " fill="#191818" transform="translate(758,394)"/>
<path d="" fill="#1C1B1A" transform="translate(0,0)"/>
<path d="" fill="#555555" transform="translate(0,0)"/>
<path d="M0 0 C2 1 2 1 2 1 Z " fill="#1A1A19" transform="translate(577,355)"/>
<path d="" fill="#1E1D1D" transform="translate(0,0)"/>
<path d="" fill="#575857" transform="translate(0,0)"/>
<path d="" fill="#1A1919" transform="translate(0,0)"/>
<path d="" fill="#1C1B1B" transform="translate(0,0)"/>
<path d="M0 0 C2 1 2 1 2 1 Z " fill="#1C1A1A" transform="translate(771,206)"/>
<path d="" fill="#626261" transform="translate(0,0)"/>
<path d="" fill="#636463" transform="translate(0,0)"/>
<path d="" fill="#676867" transform="translate(0,0)"/>
<path d="" fill="#797979" transform="translate(0,0)"/>
<path d="" fill="#777876" transform="translate(0,0)"/>
<path d="" fill="#757676" transform="translate(0,0)"/>
<path d="" fill="#747473" transform="translate(0,0)"/>
<path d="" fill="#717271" transform="translate(0,0)"/>
<path d="" fill="#717071" transform="translate(0,0)"/>
<path d="" fill="#696868" transform="translate(0,0)"/>
<path d="" fill="#626363" transform="translate(0,0)"/>
<path d="" fill="#606161" transform="translate(0,0)"/>
<path d="" fill="#5F605F" transform="translate(0,0)"/>
<path d="" fill="#5F5E5F" transform="translate(0,0)"/>
<path d="" fill="#5D5C5D" transform="translate(0,0)"/>
<path d="" fill="#575656" transform="translate(0,0)"/>
<path d="" fill="#555756" transform="translate(0,0)"/>
<path d="" fill="#191818" transform="translate(0,0)"/>
<path d="" fill="#1A1917" transform="translate(0,0)"/>
<path d="" fill="#191A19" transform="translate(0,0)"/>
<path d="" fill="#181919" transform="translate(0,0)"/>
<path d="" fill="#1A1918" transform="translate(0,0)"/>
<path d="" fill="#1B1918" transform="translate(0,0)"/>
<path d="" fill="#191917" transform="translate(0,0)"/>
<path d="" fill="#181A17" transform="translate(0,0)"/>
<path d="" fill="#1B191A" transform="translate(0,0)"/>
<path d="" fill="#1A1A18" transform="translate(0,0)"/>
<path d="" fill="#1A1917" transform="translate(0,0)"/>
<path d="" fill="#191A18" transform="translate(0,0)"/>
<path d="" fill="#191817" transform="translate(0,0)"/>
<path d="" fill="#171917" transform="translate(0,0)"/>
<path d="" fill="#191818" transform="translate(0,0)"/>
<path d="" fill="#1A181A" transform="translate(0,0)"/>
<path d="" fill="#1A1918" transform="translate(0,0)"/>
<path d="" fill="#1A1919" transform="translate(0,0)"/>
<path d="" fill="#191918" transform="translate(0,0)"/>
<path d="" fill="#1B1818" transform="translate(0,0)"/>
<path d="" fill="#1A1818" transform="translate(0,0)"/>
<path d="" fill="#171817" transform="translate(0,0)"/>
<path d="" fill="#1B1919" transform="translate(0,0)"/>
<path d="" fill="#1A1919" transform="translate(0,0)"/>
<path d="" fill="#191A18" transform="translate(0,0)"/>
<path d="" fill="#4F5052" transform="translate(0,0)"/>
<path d="" fill="#161817" transform="translate(0,0)"/>
<path d="" fill="#171916" transform="translate(0,0)"/>
<path d="" fill="#181618" transform="translate(0,0)"/>
<path d="" fill="#1B1A19" transform="translate(0,0)"/>
<path d="" fill="#50514F" transform="translate(0,0)"/>
<path d="" fill="#171816" transform="translate(0,0)"/>
<path d="" fill="#181817" transform="translate(0,0)"/>
<path d="" fill="#181919" transform="translate(0,0)"/>
<path d="" fill="#4F4F50" transform="translate(0,0)"/>
<path d="" fill="#514F4F" transform="translate(0,0)"/>
<path d="" fill="#191A19" transform="translate(0,0)"/>
<path d="" fill="#525251" transform="translate(0,0)"/>
<path d="" fill="#191917" transform="translate(0,0)"/>
<path d="" fill="#191B18" transform="translate(0,0)"/>
<path d="" fill="#515352" transform="translate(0,0)"/>
<path d="" fill="#1B1B1C" transform="translate(0,0)"/>
<path d="" fill="#1A1B18" transform="translate(0,0)"/>
<path d="" fill="#535253" transform="translate(0,0)"/>
<path d="" fill="#1E1D1D" transform="translate(0,0)"/>
<path d="" fill="#1D1C1A" transform="translate(0,0)"/>
<path d="" fill="#1F1C1B" transform="translate(0,0)"/>
<path d="" fill="#181816" transform="translate(0,0)"/>
<path d="" fill="#1B1D1B" transform="translate(0,0)"/>
<path d="" fill="#1B1B1A" transform="translate(0,0)"/>
<path d="" fill="#1C1D1B" transform="translate(0,0)"/>
<path d="" fill="#1E1B1C" transform="translate(0,0)"/>
<path d="" fill="#1C1A19" transform="translate(0,0)"/>
<path d="" fill="#1A191A" transform="translate(0,0)"/>
<path d="" fill="#1D1A1C" transform="translate(0,0)"/>
<path d="" fill="#555553" transform="translate(0,0)"/>
<path d="" fill="#1A1C1C" transform="translate(0,0)"/>
<path d="" fill="#585857" transform="translate(0,0)"/>
<path d="" fill="#565756" transform="translate(0,0)"/>
<path d="" fill="#1D1D1A" transform="translate(0,0)"/>
<path d="" fill="#1D1B1B" transform="translate(0,0)"/>
<path d="" fill="#1E1B1D" transform="translate(0,0)"/>
<path d="" fill="#565858" transform="translate(0,0)"/>
<path d="" fill="#1D1C1E" transform="translate(0,0)"/>
<path d="" fill="#1E1F1E" transform="translate(0,0)"/>
<path d="" fill="#585859" transform="translate(0,0)"/>
<path d="" fill="#1D1D1D" transform="translate(0,0)"/>
<path d="" fill="#1C1E1C" transform="translate(0,0)"/>
<path d="" fill="#1F1F1B" transform="translate(0,0)"/>
<path d="" fill="#1B1C1B" transform="translate(0,0)"/>
<path d="" fill="#1B1A1B" transform="translate(0,0)"/>
<path d="" fill="#5B5C5B" transform="translate(0,0)"/>
<path d="" fill="#5C5D5A" transform="translate(0,0)"/>
<path d="" fill="#201C1C" transform="translate(0,0)"/>
<path d="" fill="#20201C" transform="translate(0,0)"/>
<path d="" fill="#5A5A5B" transform="translate(0,0)"/>
<path d="" fill="#1B1C1B" transform="translate(0,0)"/>
<path d="" fill="#1A1A1A" transform="translate(0,0)"/>
<path d="" fill="#1C1A1A" transform="translate(0,0)"/>
<path d="" fill="#1B1A1A" transform="translate(0,0)"/>
<path d="" fill="#191819" transform="translate(0,0)"/>
<path d="" fill="#1B1B18" transform="translate(0,0)"/>
<path d="" fill="#1B191A" transform="translate(0,0)"/>
<path d="" fill="#1A191A" transform="translate(0,0)"/>
<path d="" fill="#191917" transform="translate(0,0)"/>
<path d="" fill="#585857" transform="translate(0,0)"/>
<path d="" fill="#575655" transform="translate(0,0)"/>
<path d="" fill="#1A191A" transform="translate(0,0)"/>
<path d="" fill="#1A1B1A" transform="translate(0,0)"/>
<path d="" fill="#1B1D1A" transform="translate(0,0)"/>
<path d="" fill="#1A1919" transform="translate(0,0)"/>
<path d="" fill="#181818" transform="translate(0,0)"/>
<path d="" fill="#181818" transform="translate(0,0)"/>
<path d="" fill="#181A18" transform="translate(0,0)"/>
<path d="" fill="#1A1A19" transform="translate(0,0)"/>
<path d="" fill="#191B19" transform="translate(0,0)"/>
<path d="" fill="#1B181A" transform="translate(0,0)"/>
<path d="" fill="#1C1A19" transform="translate(0,0)"/>
<path d="" fill="#1B1C1B" transform="translate(0,0)"/>
<path d="" fill="#191A19" transform="translate(0,0)"/>
<path d="" fill="#1B1A18" transform="translate(0,0)"/>
<path d="" fill="#1C1D1B" transform="translate(0,0)"/>
<path d="" fill="#1E2020" transform="translate(0,0)"/>
<path d="" fill="#1C1E1D" transform="translate(0,0)"/>
<path d="" fill="#1A1A19" transform="translate(0,0)"/>
<path d="" fill="#575556" transform="translate(0,0)"/>
<path d="" fill="#1C1B1A" transform="translate(0,0)"/>
<path d="" fill="#555555" transform="translate(0,0)"/>
<path d="" fill="#1A1A19" transform="translate(0,0)"/>
<path d="" fill="#1B1A1A" transform="translate(0,0)"/>
<path d="" fill="#1C1B1B" transform="translate(0,0)"/>
<path d="" fill="#1E1B1C" transform="translate(0,0)"/>
<path d="" fill="#1C1C1A" transform="translate(0,0)"/>
<path d="" fill="#1E1C1C" transform="translate(0,0)"/>
<path d="" fill="#1D1C1B" transform="translate(0,0)"/>
<path d="" fill="#20211D" transform="translate(0,0)"/>
<path d="" fill="#1E1F1D" transform="translate(0,0)"/>
<path d="" fill="#1D1E1D" transform="translate(0,0)"/>
<path d="" fill="#191A18" transform="translate(0,0)"/>
<path d="" fill="#181B1A" transform="translate(0,0)"/>
<path d="" fill="#1A1B19" transform="translate(0,0)"/>
<path d="" fill="#1E1B1F" transform="translate(0,0)"/>
<path d="" fill="#181918" transform="translate(0,0)"/>
<path d="" fill="#1B1B19" transform="translate(0,0)"/>
<path d="" fill="#171818" transform="translate(0,0)"/>
<path d="" fill="#1A1A18" transform="translate(0,0)"/>
<path d="" fill="#21201D" transform="translate(0,0)"/>
<path d="" fill="#1E1B1B" transform="translate(0,0)"/>
<path d="" fill="#1C1A1A" transform="translate(0,0)"/>
<path d="" fill="#191618" transform="translate(0,0)"/>
<path d="" fill="#1B1A18" transform="translate(0,0)"/>
<path d="" fill="#1D1C1C" transform="translate(0,0)"/>
<path d="" fill="#1E1B1A" transform="translate(0,0)"/>
<path d="" fill="#1C1B1B" transform="translate(0,0)"/>
<path d="" fill="#1B1A1A" transform="translate(0,0)"/>
<path d="" fill="#1C1A1A" transform="translate(0,0)"/>
<path d="" fill="#1D1819" transform="translate(0,0)"/>
<path d="" fill="#1D1A1A" transform="translate(0,0)"/>
<path d="" fill="#1B1A1A" transform="translate(0,0)"/>
<path d="" fill="#1C1B19" transform="translate(0,0)"/>
<path d="" fill="#191918" transform="translate(0,0)"/>
<path d="" fill="#585958" transform="translate(0,0)"/>
<path d="" fill="#1B1C18" transform="translate(0,0)"/>
<path d="" fill="#1A191A" transform="translate(0,0)"/>
<path d="" fill="#191919" transform="translate(0,0)"/>
<path d="" fill="#1B1B1A" transform="translate(0,0)"/>
<path d="" fill="#1A1B1A" transform="translate(0,0)"/>
<path d="" fill="#191917" transform="translate(0,0)"/>
<path d="" fill="#1A1A19" transform="translate(0,0)"/>
<path d="" fill="#191919" transform="translate(0,0)"/>
<path d="" fill="#1A1A19" transform="translate(0,0)"/>
<path d="" fill="#1A1D1B" transform="translate(0,0)"/>
<path d="" fill="#1C1B1A" transform="translate(0,0)"/>
<path d="" fill="#1A1817" transform="translate(0,0)"/>
<path d="" fill="#1C1A19" transform="translate(0,0)"/>
<path d="" fill="#1C1B1A" transform="translate(0,0)"/>
<path d="" fill="#1E1C19" transform="translate(0,0)"/>
<path d="" fill="#1E1A17" transform="translate(0,0)"/>
<path d="" fill="#1C1D1A" transform="translate(0,0)"/>
<path d="" fill="#1C1C19" transform="translate(0,0)"/>
<path d="" fill="#1C1B19" transform="translate(0,0)"/>
<path d="" fill="#1B1B1A" transform="translate(0,0)"/>
<path d="" fill="#5E5C5E" transform="translate(0,0)"/>
<path d="" fill="#1A1A1A" transform="translate(0,0)"/>
<path d="" fill="#1F1F1F" transform="translate(0,0)"/>
<path d="" fill="#1A1918" transform="translate(0,0)"/>
<path d="" fill="#1A1A18" transform="translate(0,0)"/>
<path d="" fill="#626260" transform="translate(0,0)"/>
<path d="" fill="#626262" transform="translate(0,0)"/>
<path d="" fill="#636364" transform="translate(0,0)"/>
<path d="" fill="#646464" transform="translate(0,0)"/>
<path d="" fill="#1C1C1C" transform="translate(0,0)"/>
<path d="" fill="#686566" transform="translate(0,0)"/>
<path d="" fill="#727170" transform="translate(0,0)"/>
</svg>
