<?xml version="1.0" encoding="UTF-8"?>
<svg version="1.1" xmlns="http://www.w3.org/2000/svg" width="1024" height="1024">
<path d="M0 0 C19.47 0 38.94 0 59 0 C59 19.14 59 38.28 59 58 C76.82 58 94.64 58 113 58 C112.505 101.56 112.505 101.56 112 146 C160.84 146 209.68 146 260 146 C260 116.96 260 87.92 260 58 C240.53 58 221.06 58 201 58 C201 38.86 201 19.72 201 0 C221.79 0 242.58 0 264 0 C264 19.14 264 38.28 264 58 C281.49 58 298.98 58 317 58 C317 87.04 317 116.08 317 146 C332.51 146 348.02 146 364 146 C364 160.85 364 175.7 364 191 C379.84 191 395.68 191 412 191 C412 205.19 412 219.38 412 234 C433.78 234.495 433.78 234.495 456 235 C456 249.52 456 264.04 456 279 C468.21 279 480.42 279 493 279 C493 346.32 493 413.64 493 483 C480.79 483 468.58 483 456 483 C456 497.52 456 512.04 456 527 C441.48 527 426.96 527 412 527 C412 539.87 412 552.74 412 566 C389.89 566 367.78 566 345 566 C345 577.55 345 589.1 345 601 C357.87 601 370.74 601 384 601 C384.33 613.54 384.66 626.08 385 639 C398.2 639 411.4 639 425 639 C425 659.46 425 679.92 425 701 C410.48 701 395.96 701 381 701 C381 706.28 381 711.56 381 717 C369.78 717 358.56 717 347 717 C347 761.55 347 806.1 347 852 C301.46 852 255.92 852 209 852 C209 830.22 209 808.44 209 786 C201.41 786 193.82 786 186 786 C186 807.78 186 829.56 186 852 C142.77 852 99.54 852 55 852 C55 832.53 55 813.06 55 793 C62.26 793 69.52 793 77 793 C77 772.87 77 752.74 77 732 C52.58 732 28.16 732 3 732 C3 716.16 3 700.32 3 684 C18.84 684 34.68 684 51 684 C51 669.81 51 655.62 51 641 C59.58 641 68.16 641 77 641 C77 629.12 77 617.24 77 605 C47.795 604.505 47.795 604.505 18 604 C18 592.12 18 580.24 18 568 C8.1 568 -1.8 568 -12 568 C-12 554.47 -12 540.94 -12 527 C-18.93 527 -25.86 527 -33 527 C-33 514.13 -33 501.26 -33 488 C-46.86 488 -60.72 488 -75 488 C-75 419.36 -75 350.72 -75 280 C-32 280 -32 280 -30 281 C-30.33 280.34 -30.66 279.68 -31 279 C-31.08934406 277.58026727 -31.11758978 276.15642209 -31.11352539 274.73388672 C-31.11344986 273.85312469 -31.11337433 272.97236267 -31.11329651 272.06491089 C-31.10813522 271.11278717 -31.10297394 270.16066345 -31.09765625 269.1796875 C-31.0962413 268.20589142 -31.09482635 267.23209534 -31.09336853 266.22879028 C-31.08775973 263.11082927 -31.07520573 259.9929394 -31.0625 256.875 C-31.05748613 254.76432395 -31.05292303 252.65364678 -31.04882812 250.54296875 C-31.03863725 245.36192953 -31.01906353 240.18104465 -31 235 C-16.81 235 -2.62 235 12 235 C12 220.48 12 205.96 12 191 C26.52 190.67 41.04 190.34 56 190 C56.495 124.66 56.495 124.66 57 58 C38.19 58 19.38 58 0 58 C0 38.86 0 19.72 0 0 Z M58 191 C58 206.18 58 221.36 58 237 C43.15 237 28.3 237 13 237 C13 251.19 13 265.38 13 280 C5.08 280 -2.84 280 -11 280 C-11 296.17 -11 312.34 -11 329 C-12.65 329 -14.3 329 -16 329 C-16 335.93 -16 342.86 -16 350 C-6.43 350 3.14 350 13 350 C13 377.72 13 405.44 13 434 C2.77 434 -7.46 434 -18 434 C-17.67 439.94 -17.34 445.88 -17 452 C-15.02 452 -13.04 452 -11 452 C-11 476.75 -11 501.5 -11 527 C-2.42 527 6.16 527 15 527 C15 519.74 15 512.48 15 505 C29.85 505 44.7 505 60 505 C60 497.74 60 490.48 60 483 C70.89 483 81.78 483 93 483 C93 492.57 93 502.14 93 512 C86.73 512 80.46 512 74 512 C74 518.93 74 525.86 74 533 C56.18 533 38.36 533 20 533 C20 543.56 20 554.12 20 565 C52.34 565 84.68 565 118 565 C118 577.87 118 590.74 118 604 C111.07 604 104.14 604 97 604 C97 676.6 97 749.2 97 824 C113.83 824 130.66 824 148 824 C148 799.58 148 775.16 148 750 C169.45 750 190.9 750 213 750 C213 774.42 213 798.84 213 824 C242.7 824 272.4 824 303 824 C303 778.13 303 732.26 303 685 C290.79 685 278.58 685 266 685 C266 670.15 266 655.3 266 640 C279.2 640 292.4 640 306 640 C306 654.19 306 668.38 306 683 C330.42 683 354.84 683 380 683 C380 668.81 380 654.62 380 640 C367.79 640 355.58 640 343 640 C343 628.12 343 616.24 343 604 C317.92 604 292.84 604 267 604 C267 591.13 267 578.26 267 565 C286.14 565 305.28 565 325 565 C325 552.13 325 539.26 325 526 C342.82 526 360.64 526 379 526 C379 511.48 379 496.96 379 482 C392.2 482 405.4 482 419 482 C419 416.33 419 350.66 419 283 C415.7 283 412.4 283 409 283 C409 267.82 409 252.64 409 237 C393.82 237 378.64 237 363 237 C363 221.82 363 206.64 363 191 C262.35 191 161.7 191 58 191 Z " fill="#080808" transform="translate(309,78)"/>
<path d="M0 0 C32.01 0 64.02 0 97 0 C97 7.92 97 15.84 97 24 C105.25 24 113.5 24 122 24 C122 31.26 122 38.52 122 46 C130.25 46 138.5 46 147 46 C147 81.64 147 117.28 147 154 C138.75 154 130.5 154 122 154 C122 162.91 122 171.82 122 181 C114.08 181.33 106.16 181.66 98 182 C98 188.6 98 195.2 98 202 C65.66 202 33.32 202 0 202 C0 195.4 0 188.8 0 182 C-8.58 181.67 -17.16 181.34 -26 181 C-26 172.09 -26 163.18 -26 154 C-33.26 154 -40.52 154 -48 154 C-48 118.36 -48 82.72 -48 46 C-37.605 45.505 -37.605 45.505 -27 45 C-27 38.07 -27 31.14 -27 24 C-18.09 24 -9.18 24 0 24 C0 16.08 0 8.16 0 0 Z " fill="#080808" transform="translate(450,358)"/>
<path d="M0 0 C0.33 0 0.66 0 1 0 C1.495 10.395 1.495 10.395 2 21 C-15.82 21 -33.64 21 -52 21 C-52 31.56 -52 42.12 -52 53 C-19.66 53 12.68 53 46 53 C46 65.87 46 78.74 46 92 C39.07 92 32.14 92 25 92 C25 164.6 25 237.2 25 312 C41.83 312 58.66 312 76 312 C76 287.58 76 263.16 76 238 C97.45 238 118.9 238 141 238 C141 262.42 141 286.84 141 312 C140.67 312 140.34 312 140 312 C139.67 299.46 139.34 286.92 139 274 C138.67 295.45 138.34 316.9 138 339 C137.67 339 137.34 339 137 339 C137 317.55 137 296.1 137 274 C129.41 274 121.82 274 114 274 C114 295.78 114 317.56 114 340 C70.77 340 27.54 340 -17 340 C-17 320.53 -17 301.06 -17 281 C-9.74 281 -2.48 281 5 281 C5 260.87 5 240.74 5 220 C-19.42 220 -43.84 220 -69 220 C-69 204.16 -69 188.32 -69 172 C-53.16 172 -37.32 172 -21 172 C-21 157.81 -21 143.62 -21 129 C-12.42 129 -3.84 129 5 129 C5 117.12 5 105.24 5 93 C-24.205 92.505 -24.205 92.505 -54 92 C-54 80.12 -54 68.24 -54 56 C-63.9 56 -73.8 56 -84 56 C-84 43.13 -84 30.26 -84 17 C-83.67 17 -83.34 17 -83 17 C-83 29.21 -83 41.42 -83 54 C-73.43 54 -63.86 54 -54 54 C-54 42.78 -54 31.56 -54 20 C-36.18 20 -18.36 20 0 20 C0 13.4 0 6.8 0 0 Z " fill="#080808" transform="translate(381,590)"/>
<path d="M0 0 C0.33 0 0.66 0 1 0 C1 12.54 1 25.08 1 38 C-1.55723229 39.27861615 -3.36737102 39.11336609 -6.2265625 39.09765625 C-7.15549316 39.09515869 -8.08442383 39.09266113 -9.04150391 39.09008789 C-10.81533447 39.07643188 -10.81533447 39.07643188 -12.625 39.0625 C-18.255625 39.0315625 -18.255625 39.0315625 -24 39 C-24 52.53 -24 66.06 -24 80 C-20.99538715 80.75115321 -18.694445 81.16527775 -15.671875 81.31640625 C-14.87265625 81.35830078 -14.0734375 81.40019531 -13.25 81.44335938 C-12.425 81.48267578 -11.6 81.52199219 -10.75 81.5625 C-9.48929688 81.62727539 -9.48929688 81.62727539 -8.203125 81.69335938 C-6.13559329 81.79908543 -4.06781719 81.90001295 -2 82 C-1.9505991 87.78408559 -1.91428 93.56804864 -1.89013672 99.35229492 C-1.88007293 101.32041564 -1.86642066 103.28852138 -1.84912109 105.2565918 C-1.82488941 108.08385918 -1.81352077 110.91092905 -1.8046875 113.73828125 C-1.79436493 114.61962234 -1.78404236 115.50096344 -1.77340698 116.40901184 C-1.77325592 117.22963608 -1.77310486 118.05026031 -1.77294922 118.89575195 C-1.768508 119.61745071 -1.76406677 120.33914948 -1.75949097 121.0827179 C-2 123 -2 123 -4 126 C-6.70095965 126.34118399 -9.18216003 126.48921024 -11.890625 126.51171875 C-12.69542297 126.52971527 -13.50022095 126.54771179 -14.32940674 126.56625366 C-16.96955414 126.62123173 -19.60949117 126.65472836 -22.25 126.6875 C-24.06056501 126.72028619 -25.87111232 126.75406449 -27.68164062 126.78881836 C-43.12151533 127.06559906 -58.55799657 127.07721002 -74 127 C-74 111.82 -74 96.64 -74 81 C-51.23 80.505 -51.23 80.505 -28 80 C-27.67 65.81 -27.34 51.62 -27 37 C-18.42 37 -9.84 37 -1 37 C-1.01160156 34.41285156 -1.02320313 31.82570313 -1.03515625 29.16015625 C-1.04294662 26.66479617 -1.04902349 24.16943743 -1.05493164 21.67407227 C-1.05997204 19.93480832 -1.0668043 18.19554864 -1.07543945 16.45629883 C-1.08751792 13.96174063 -1.09323108 11.46723827 -1.09765625 8.97265625 C-1.10281754 8.19036148 -1.10797882 7.40806671 -1.11329651 6.60206604 C-1.11349226 4.73432886 -1.06199694 2.86670796 -1 1 C-0.67 0.67 -0.34 0.34 0 0 Z " fill="#090909" transform="translate(387,682)"/>
<path d="M0 0 C14.19 0 28.38 0 43 0 C43 14.52 43 29.04 43 44 C55.21 44 67.42 44 80 44 C80 111.32 80 178.64 80 248 C68.12 248 56.24 248 44 248 C43.67 247.34 43.34 246.68 43 246 C43.58007812 245.93941406 44.16015625 245.87882813 44.7578125 245.81640625 C45.53898438 245.73261719 46.32015625 245.64882813 47.125 245.5625 C47.89070312 245.48128906 48.65640625 245.40007812 49.4453125 245.31640625 C52.30856218 244.96178358 55.15412857 244.4743119 58 244 C64.27 244.33 70.54 244.66 77 245 C77 179.33 77 113.66 77 46 C69.74 46 62.48 46 55 46 C48.07 45.505 48.07 45.505 41 45 C41 30.81 41 16.62 41 2 C27.14 2 13.28 2 -1 2 C-0.67 1.34 -0.34 0.68 0 0 Z " fill="#191919" transform="translate(722,313)"/>
<path d="M0 0 C0.33 0 0.66 0 1 0 C1.17714882 25.76411108 1.34283074 51.52827366 1.49477577 77.29254627 C1.56559163 89.25472474 1.64019223 101.21685746 1.72363281 113.17895508 C1.79633068 123.60233534 1.86199864 134.02573183 1.91914403 144.44920939 C1.94966346 149.97086243 1.9837578 155.49244225 2.02626419 161.01401711 C2.0661305 166.2070519 2.09662412 171.40005592 2.11981392 176.59319115 C2.1300147 178.50283362 2.14369048 180.41246106 2.16103554 182.322052 C2.18414214 184.92221524 2.19493234 187.52214287 2.20254517 190.12239075 C2.21712011 191.2648946 2.21712011 191.2648946 2.2319895 192.43047935 C2.22930151 196.18021233 2.13635393 197.79546911 0 201 C-2.9795099 201.26653946 -5.7488582 201.34767784 -8.7265625 201.29296875 C-9.58937836 201.28872391 -10.45219421 201.28447906 -11.34115601 201.28010559 C-14.10275197 201.26328392 -16.86362383 201.22562598 -19.625 201.1875 C-21.49478114 201.17245764 -23.3645737 201.15876846 -25.234375 201.14648438 C-29.82319658 201.11336906 -34.41147544 201.06156339 -39 201 C-38.99476318 202.29736084 -38.98952637 203.59472168 -38.98413086 204.93139648 C-38.96608531 209.72647415 -38.95456963 214.5215488 -38.94506836 219.31665039 C-38.94002712 221.39543156 -38.93319426 223.47420916 -38.92456055 225.55297852 C-38.91248578 228.53402586 -38.90676976 231.51502649 -38.90234375 234.49609375 C-38.89718246 235.43150497 -38.89202118 236.3669162 -38.88670349 237.33067322 C-38.88662796 238.19149002 -38.88655243 239.05230682 -38.88647461 239.93920898 C-38.884254 240.70087875 -38.88203339 241.46254852 -38.87974548 242.24729919 C-39 244 -39 244 -40 245 C-41.62674778 245.09340434 -43.25754051 245.11745171 -44.88696289 245.11352539 C-45.92796646 245.11344986 -46.96897003 245.11337433 -48.04151917 245.11329651 C-49.1737944 245.10813522 -50.30606964 245.10297394 -51.47265625 245.09765625 C-53.20182533 245.09553383 -53.20182533 245.09553383 -54.96592712 245.09336853 C-58.66481064 245.08775005 -62.36363464 245.07519442 -66.0625 245.0625 C-68.56315017 245.05748738 -71.06380129 245.05292406 -73.56445312 245.04882812 C-79.70965588 245.03777462 -85.85482369 245.02101852 -92 245 C-91.98428955 246.66554932 -91.98428955 246.66554932 -91.96826172 248.36474609 C-91.93212051 252.47587879 -91.90912104 256.58699739 -91.89013672 260.69824219 C-91.88006569 262.47919067 -91.86640815 264.26012257 -91.84912109 266.04101562 C-91.82492087 268.59769783 -91.81352816 271.15416185 -91.8046875 273.7109375 C-91.79436493 274.50994476 -91.78404236 275.30895203 -91.77340698 276.13217163 C-91.77300774 278.0895722 -91.87758931 280.04643077 -92 282 C-94 284 -94 284 -96.40444946 284.24050903 C-97.41260712 284.23606781 -98.42076477 284.23162659 -99.45947266 284.22705078 C-100.60050446 284.22689972 -101.74153625 284.22674866 -102.91714478 284.22659302 C-104.77186905 284.21110916 -104.77186905 284.21110916 -106.6640625 284.1953125 C-107.92640717 284.1924826 -109.18875183 284.18965271 -110.48934937 284.18673706 C-113.84646944 284.17742131 -117.20331912 284.15944835 -120.56036377 284.1373291 C-123.98553079 284.11687551 -127.41072656 284.10762688 -130.8359375 284.09765625 C-137.55744439 284.07726333 -144.27847644 284.03811828 -151 284 C-151 295.55 -151 307.1 -151 319 C-126.25 319 -101.5 319 -76 319 C-76 319.33 -76 319.66 -76 320 C-113.62 320.495 -113.62 320.495 -152 321 C-152 308.13 -152 295.26 -152 282 C-132.86 282 -113.72 282 -94 282 C-94 269.13 -94 256.26 -94 243 C-76.18 243 -58.36 243 -40 243 C-40 228.48 -40 213.96 -40 199 C-26.8 199 -13.6 199 0 199 C0 133.33 0 67.66 0 0 Z " fill="#000000" transform="translate(728,361)"/>
<path d="M0 0 C0.33 0 0.66 0 1 0 C1 43.23 1 86.46 1 131 C92.74 131 184.48 131 279 131 C279 131.33 279 131.66 279 132 C186.93 132 94.86 132 0 132 C0 147.18 0 162.36 0 178 C-0.66 178 -1.32 178 -2 178 C-1.67 163.15 -1.34 148.3 -1 133 C-15.19 133 -29.38 133 -44 133 C-44 147.19 -44 161.38 -44 176 C-44.66 175.67 -45.32 175.34 -46 175 C-46 160.81 -46 146.62 -46 132 C-31.48 131.67 -16.96 131.34 -2 131 C-1.97494385 127.06715088 -1.9498877 123.13430176 -1.92407227 119.08227539 C-1.84078449 106.12219349 -1.75212548 93.16215308 -1.66066074 80.2021265 C-1.60531058 72.34057688 -1.5518257 64.47902273 -1.50268555 56.61743164 C-1.45986561 49.76771678 -1.41359325 42.91803558 -1.36312145 36.06837267 C-1.33650278 32.43932582 -1.31164936 28.81028573 -1.29092598 25.18120003 C-1.2677645 21.13645577 -1.23689742 17.09180646 -1.20532227 13.04711914 C-1.1995668 11.83511841 -1.19381134 10.62311768 -1.18788147 9.37438965 C-1.17809265 8.27917496 -1.16830383 7.18396027 -1.15821838 6.05555725 C-1.15176583 5.09781434 -1.14531328 4.14007143 -1.1386652 3.15330601 C-1 1 -1 1 0 0 Z " fill="#010101" transform="translate(367,137)"/>
<path d="M0 0 C15.51 0 31.02 0 47 0 C47 0.33 47 0.66 47 1 C31.82 1 16.64 1 1 1 C1 16.18 1 31.36 1 47 C25.42 47 49.84 47 75 47 C75 67.79 75 88.58 75 110 C68.73191505 113.13404247 61.00793201 111 54 111 C54 129.48 54 147.96 54 167 C96.24 167 138.48 167 182 167 C182 145.55 182 124.1 182 102 C182.33 102 182.66 102 183 102 C183 123.78 183 145.56 183 168 C139.77 168 96.54 168 52 168 C52 148.53 52 129.06 52 109 C59.26 109 66.52 109 74 109 C74 88.87 74 68.74 74 48 C49.58 48 25.16 48 0 48 C0 32.16 0 16.32 0 0 Z " fill="#000000" transform="translate(312,762)"/>
<path d="M0 0 C19.47 0 38.94 0 59 0 C59.020625 9.384375 59.04125 18.76875 59.0625 28.4375 C59.071604 31.40419678 59.08070801 34.37089355 59.09008789 37.42749023 C59.0930068 39.76285761 59.09555542 42.09822549 59.09765625 44.43359375 C59.10277222 45.65921021 59.10788818 46.88482666 59.11315918 48.14758301 C59.11334045 49.88328552 59.11334045 49.88328552 59.11352539 51.65405273 C59.115746 52.664431 59.11796661 53.67480927 59.12025452 54.71580505 C59 57 59 57 58 58 C56.18944975 58.09376053 54.37522799 58.1174411 52.56225586 58.11352539 C50.79609924 58.11334412 50.79609924 58.11334412 48.9942627 58.11315918 C47.12345032 58.10548523 47.12345032 58.10548523 45.21484375 58.09765625 C44.07567505 58.09664917 42.93650635 58.09564209 41.76281738 58.09460449 C37.48770142 58.08935338 33.21259975 58.07539227 28.9375 58.0625 C19.388125 58.041875 9.83875 58.02125 0 58 C0 38.86 0 19.72 0 0 Z M2 2 C2 19.82 2 37.64 2 56 C20.15 56 38.3 56 57 56 C57 38.18 57 20.36 57 2 C38.85 2 20.7 2 2 2 Z " fill="#020202" transform="translate(309,78)"/>
<path d="M0 0 C0.33 0 0.66 0 1 0 C1 14.52 1 29.04 1 44 C-13.19 44 -27.38 44 -42 44 C-42 56.87 -42 69.74 -42 83 C-64.11 83 -86.22 83 -109 83 C-109 94.55 -109 106.1 -109 118 C-109.33 118 -109.66 118 -110 118 C-110.19212959 113.05247317 -110.37087189 108.10471461 -110.53710938 103.15625 C-110.5955834 101.47219817 -110.65774301 99.78827017 -110.72363281 98.10449219 C-110.8175959 95.68707829 -110.89838488 93.26953187 -110.9765625 90.8515625 C-111.00875885 90.0963028 -111.0409552 89.34104309 -111.0741272 88.56289673 C-111.12750104 86.70920144 -111.07285874 84.85303173 -111 83 C-109 81 -109 81 -106.2918396 80.75949097 C-105.14156281 80.76393219 -103.99128601 80.76837341 -102.80615234 80.77294922 C-101.50495453 80.77310028 -100.20375671 80.77325134 -98.86312866 80.77340698 C-97.43739673 80.78362107 -96.01166635 80.79405308 -94.5859375 80.8046875 C-93.13148187 80.80841705 -91.67702373 80.8112643 -90.2225647 80.81326294 C-86.39201944 80.820904 -82.56162554 80.84055643 -78.73114014 80.8626709 C-74.82338509 80.88311922 -70.91560561 80.89226248 -67.0078125 80.90234375 C-59.33847262 80.92380198 -51.66925751 80.95794349 -44 81 C-44.00523682 79.88963379 -44.01047363 78.77926758 -44.01586914 77.63525391 C-44.03393985 73.52409671 -44.04543962 69.41294304 -44.05493164 65.30175781 C-44.05996711 63.52082733 -44.06679581 61.739901 -44.07543945 59.95898438 C-44.08753942 57.40233335 -44.09323609 54.84573688 -44.09765625 52.2890625 C-44.10281754 51.49005524 -44.10797882 50.69104797 -44.11329651 49.86782837 C-44.11387171 44.22774341 -44.11387171 44.22774341 -43 42 C-28.81 42 -14.62 42 0 42 C0 28.14 0 14.28 0 0 Z " fill="#010101" transform="translate(763,561)"/>
<path d="M0 0 C0 0.66 0 1.32 0 2 C-14.19 2 -28.38 2 -43 2 C-43.33 15.53 -43.66 29.06 -44 43 C-51.59 43 -59.18 43 -67 43 C-67 42.67 -67 42.34 -67 42 C-59.74 42 -52.48 42 -45 42 C-45 29.13 -45 16.26 -45 3 C-57.87 3 -70.74 3 -84 3 C-84 16.53 -84 30.06 -84 44 C-84.99 44 -85.98 44 -87 44 C-87 29.48 -87 14.96 -87 0 C-57.92020044 -0.87239399 -29.07001132 -0.93242236 0 0 Z " fill="#0F0F0F" transform="translate(365,313)"/>
<path d="M0 0 C0.66 0 1.32 0 2 0 C2 5.61 2 11.22 2 17 C33.02 17 64.04 17 96 17 C96 11.39 96 5.78 96 0 C96.99 0.495 96.99 0.495 98 1 C98 6.94 98 12.88 98 19 C65.66 19 33.32 19 0 19 C0 12.73 0 6.46 0 0 Z " fill="#010101" transform="translate(450,541)"/>
<path d="M0 0 C0.33 0 0.66 0 1 0 C1 12.54 1 25.08 1 38 C-1.55723229 39.27861615 -3.36737102 39.11336609 -6.2265625 39.09765625 C-7.6199585 39.09390991 -7.6199585 39.09390991 -9.04150391 39.09008789 C-10.22405762 39.08098389 -11.40661133 39.07187988 -12.625 39.0625 C-18.255625 39.0315625 -18.255625 39.0315625 -24 39 C-24 52.53 -24 66.06 -24 80 C-25.485 80.495 -25.485 80.495 -27 81 C-27 66.48 -27 51.96 -27 37 C-18.42 37 -9.84 37 -1 37 C-1.01160156 34.41285156 -1.02320313 31.82570313 -1.03515625 29.16015625 C-1.04294662 26.66479617 -1.04902349 24.16943743 -1.05493164 21.67407227 C-1.05997204 19.93480832 -1.0668043 18.19554864 -1.07543945 16.45629883 C-1.08751792 13.96174063 -1.09323108 11.46723827 -1.09765625 8.97265625 C-1.10281754 8.19036148 -1.10797882 7.40806671 -1.11329651 6.60206604 C-1.11349226 4.73432886 -1.06199694 2.86670796 -1 1 C-0.67 0.67 -0.34 0.34 0 0 Z " fill="#171717" transform="translate(387,682)"/>
<path d="M0 0 C0.33 0 0.66 0 1 0 C1.02464513 6.1055471 1.04283371 12.21106551 1.05493164 18.31665039 C1.05997288 20.39543156 1.06680574 22.47420916 1.07543945 24.55297852 C1.08751422 27.53402586 1.09323024 30.51502649 1.09765625 33.49609375 C1.10281754 34.43150497 1.10797882 35.3669162 1.11329651 36.33067322 C1.11337204 37.19149002 1.11344757 38.05230682 1.11352539 38.93920898 C1.115746 39.70087875 1.11796661 40.46254852 1.12025452 41.24729919 C1 43 1 43 0 44 C-2.26991887 44.09439978 -4.54281967 44.11742226 -6.81469727 44.11352539 C-7.88293228 44.11374443 -7.88293228 44.11374443 -8.9727478 44.1139679 C-11.33733112 44.1132687 -13.70183661 44.10547606 -16.06640625 44.09765625 C-17.70165463 44.09579209 -19.33690357 44.09436818 -20.97215271 44.09336853 C-25.28434785 44.08954318 -29.59650952 44.07971275 -33.90869141 44.06866455 C-38.30565946 44.0584508 -42.70263289 44.05387099 -47.09960938 44.04882812 C-55.73308831 44.03809049 -64.36654 44.02101387 -73 44 C-72.67 43.34 -72.34 42.68 -72 42 C-48.57 42 -25.14 42 -1 42 C-1.03960516 28.55185995 -1.03960516 28.55185995 -1.09008789 15.10375977 C-1.093007 13.42464257 -1.09555557 11.74552467 -1.09765625 10.06640625 C-1.10277222 9.18625854 -1.10788818 8.30611084 -1.11315918 7.39929199 C-1.11346896 5.26586121 -1.06244067 3.13251686 -1 1 C-0.67 0.67 -0.34 0.34 0 0 Z " fill="#010102" transform="translate(690,719)"/>
<path d="M0 0 C0.33 0.66 0.66 1.32 1 2 C32.68 2 64.36 2 97 2 C97 13.55 97 25.1 97 37 C91.06 37 85.12 37 79 37 C79 36.67 79 36.34 79 36 C84.61 36 90.22 36 96 36 C96 25.11 96 14.22 96 3 C64.98 3.33 33.96 3.66 2 4 C1.67 14.56 1.34 25.12 1 36 C11.89 36 22.78 36 34 36 C34 36.33 34 36.66 34 37 C22.78 37 11.56 37 0 37 C-0.375 21.75 -0.375 21.75 -0.47802734 16.95605469 C-0.5136377 15.70727539 -0.54924805 14.45849609 -0.5859375 13.171875 C-0.6173584 11.8940918 -0.6487793 10.61630859 -0.68115234 9.29980469 C-0.97346385 6.27462676 -1.40581489 4.53950891 -3 2 C-2.34 2 -1.68 2 -1 2 C-0.67 1.34 -0.34 0.68 0 0 Z " fill="#121213" transform="translate(329,643)"/>
<path d="M0 0 C10.89 0 21.78 0 33 0 C32.67 8.58 32.34 17.16 32 26 C31.67 26 31.34 26 31 26 C31 18.08 31 10.16 31 2 C21.43 2 11.86 2 2 2 C1.67 8.93 1.34 15.86 1 23 C-13.52 23 -28.04 23 -43 23 C-43 29.93 -43 36.86 -43 44 C-44 45 -44 45 -46.40844727 45.11352539 C-47.45057373 45.10828857 -48.4927002 45.10305176 -49.56640625 45.09765625 C-50.69111328 45.09443359 -51.81582031 45.09121094 -52.97460938 45.08789062 C-54.15861328 45.07951172 -55.34261719 45.07113281 -56.5625 45.0625 C-57.75037109 45.05798828 -58.93824219 45.05347656 -60.16210938 45.04882812 C-63.10812226 45.03699675 -66.05403681 45.02051287 -69 45 C-69 44.67 -69 44.34 -69 44 C-61.08 44 -53.16 44 -45 44 C-45 36.74 -45 29.48 -45 22 C-30.15 22 -15.3 22 0 22 C0 14.74 0 7.48 0 0 Z " fill="#000000" transform="translate(369,561)"/>
<path d="M0 0 C0.33 0 0.66 0 1 0 C1 10.56 1 21.12 1 32 C20.47 32 39.94 32 60 32 C60 32.66 60 33.32 60 34 C39.87 34 19.74 34 -1 34 C-1.020625 28.575625 -1.04125 23.15125 -1.0625 17.5625 C-1.071604 15.84877197 -1.08070801 14.13504395 -1.09008789 12.36938477 C-1.09300716 11.01839273 -1.09555569 9.66739981 -1.09765625 8.31640625 C-1.10277222 7.60899292 -1.10788818 6.90157959 -1.11315918 6.17272949 C-1.11347032 4.44807383 -1.06225761 2.72353162 -1 1 C-0.67 0.67 -0.34 0.34 0 0 Z " fill="#020202" transform="translate(328,648)"/>
<path d="M0 0 C0.66 0.33 1.32 0.66 2 1 C5.0602251 1.15744826 8.10159019 1.25874346 11.1640625 1.31640625 C11.96803467 1.33505737 12.77200684 1.3537085 13.6003418 1.3729248 C16.60844761 1.44131015 19.61673733 1.50140287 22.625 1.5625 C29.34875 1.706875 36.0725 1.85125 43 2 C43 15.86 43 29.72 43 44 C42.67 44 42.34 44 42 44 C42 30.47 42 16.94 42 3 C28.47 3 14.94 3 1 3 C1 16.86 1 30.72 1 45 C3.31 45 5.62 45 8 45 C8 45.33 8 45.66 8 46 C6.72125 45.95875 5.4425 45.9175 4.125 45.875 C1.98128508 45.75787127 1.98128508 45.75787127 0 46 C-0.66 46.66 -1.32 47.32 -2 48 C-2.0505939 41.48554795 -2.08568856 34.97114632 -2.10986328 28.45654297 C-2.11993825 26.23907579 -2.13359859 24.02162195 -2.15087891 21.80419922 C-2.17506163 18.62203688 -2.18646797 15.44004976 -2.1953125 12.2578125 C-2.20563507 11.26194122 -2.21595764 10.26606995 -2.22659302 9.24002075 C-2.22674408 8.31921722 -2.22689514 7.3984137 -2.22705078 6.44970703 C-2.231492 5.6369632 -2.23593323 4.82421936 -2.24050903 3.98684692 C-2 2 -2 2 0 0 Z " fill="#222222" transform="translate(720,313)"/>
<path d="M0 0 C1.56047445 0.00015913 3.12095416 0.00585397 4.68139648 0.01586914 C5.5012352 0.01728409 6.32107391 0.01869904 7.16575623 0.02015686 C9.79470406 0.0257725 12.42356797 0.0383276 15.05249023 0.05102539 C16.8304838 0.05603838 18.60847869 0.06060163 20.38647461 0.06469727 C24.75434569 0.07574701 29.12215371 0.09302208 33.48999023 0.11352539 C33.98499023 1.10352539 33.98499023 1.10352539 34.48999023 2.11352539 C33.37962402 2.13858154 32.26925781 2.1636377 31.12524414 2.18945312 C27.01395705 2.28347454 22.902841 2.38370796 18.79174805 2.48583984 C17.01086421 2.52920869 15.22993826 2.57088233 13.44897461 2.61083984 C10.89220475 2.66849529 8.33564725 2.73220309 5.77905273 2.79711914 C4.98004547 2.81383163 4.18103821 2.83054413 3.3578186 2.84776306 C-0.70807344 2.8674553 -0.70807344 2.8674553 -4.51000977 4.11352539 C-6.89176086 4.17699968 -9.24153074 4.17964907 -11.62182617 4.13525391 C-12.35363602 4.12564636 -13.08544586 4.11603882 -13.83943176 4.10614014 C-16.26357499 4.07310173 -18.68754071 4.03278797 -21.11157227 3.99243164 C-22.79022593 3.96813525 -24.4688862 3.94429145 -26.14755249 3.92088318 C-30.56994136 3.85799438 -34.99221353 3.78894135 -39.41448975 3.71862793 C-43.92544227 3.64798775 -48.43647766 3.58314497 -52.94750977 3.51782227 C-61.80176749 3.38874814 -70.65591281 3.25316533 -79.51000977 3.11352539 C-79.51000977 2.78352539 -79.51000977 2.45352539 -79.51000977 2.11352539 C-78.10393211 2.09806419 -78.10393211 2.09806419 -76.66944885 2.08229065 C-67.85472334 1.98472367 -59.04007106 1.88200588 -50.22546482 1.77418613 C-45.6933039 1.71891617 -41.16113658 1.6654898 -36.62890625 1.61621094 C-32.25872429 1.56862728 -27.88862328 1.51628691 -23.51853752 1.46058464 C-21.84752341 1.44013381 -20.17648708 1.42142533 -18.50543404 1.40445137 C-16.17297416 1.38046746 -13.8406687 1.35040519 -11.50830078 1.31884766 C-10.81059067 1.31309219 -10.11288055 1.30733673 -9.39402771 1.30140686 C-5.76239013 1.24519654 -3.49592039 0.11306969 0 0 Z " fill="#1E1E1E" transform="translate(656.510009765625,678.886474609375)"/>
<path d="M0 0 C0.33 0 0.66 0 1 0 C1 8.91 1 17.82 1 27 C-5.27 27 -11.54 27 -18 27 C-18 33.6 -18 40.2 -18 47 C-18.33 47 -18.66 47 -19 47 C-19.19590444 43.52125243 -19.38031592 40.04199096 -19.5625 36.5625 C-19.61857422 35.56927734 -19.67464844 34.57605469 -19.73242188 33.55273438 C-19.78076172 32.60849609 -19.82910156 31.66425781 -19.87890625 30.69140625 C-19.9260376 29.81685791 -19.97316895 28.94230957 -20.02172852 28.04125977 C-20 26 -20 26 -19 25 C-17.65984779 24.84417697 -16.31241097 24.74955858 -14.96484375 24.68359375 C-14.23644287 24.64548584 -13.50804199 24.60737793 -12.75756836 24.56811523 C-11.8269458 24.52501221 -10.89632324 24.48190918 -9.9375 24.4375 C-6.988125 24.293125 -4.03875 24.14875 -1 24 C-0.67 16.08 -0.34 8.16 0 0 Z " fill="#252625" transform="translate(401,563)"/>
<path d="M0 0 C8.58 0 17.16 0 26 0 C26 0.33 26 0.66 26 1 C15.11 1.495 15.11 1.495 4 2 C2.41769192 5.16461615 2.75842187 8.59079367 2.68359375 12.0703125 C2.66281265 12.86654022 2.64203156 13.66276794 2.62062073 14.48312378 C2.55515851 17.03032685 2.49625585 19.57763425 2.4375 22.125 C2.3943116 23.85027127 2.35069721 25.57553193 2.30664062 27.30078125 C2.19948055 31.53374685 2.09820377 35.76681753 2 40 C1.67 40 1.34 40 1 40 C0.67 26.8 0.34 13.6 0 0 Z " fill="#313131" transform="translate(297,604)"/>
<path d="M0 0 C1.49249268 0.01571045 1.49249268 0.01571045 3.01513672 0.03173828 C4.6296875 0.04140625 4.6296875 0.04140625 6.27685547 0.05126953 C7.40478516 0.06802734 8.53271484 0.08478516 9.69482422 0.10205078 C11.39832031 0.11558594 11.39832031 0.11558594 13.13623047 0.12939453 C15.94763721 0.1530198 18.7586272 0.18596065 21.56982422 0.22705078 C21.23982422 1.54705078 20.90982422 2.86705078 20.56982422 4.22705078 C20.23982422 3.56705078 19.90982422 2.90705078 19.56982422 2.22705078 C11.64982422 2.22705078 3.72982422 2.22705078 -4.43017578 2.22705078 C-2.43017578 0.22705078 -2.43017578 0.22705078 0 0 Z " fill="#000000" transform="translate(575.43017578125,403.77294921875)"/>
<path d="M0 0 C7.26 0 14.52 0 22 0 C22 4.62 22 9.24 22 14 C21.01 14.495 21.01 14.495 20 15 C19.2286833 9.94359054 18.97038242 7.14808788 20 2 C13.4 1.67 6.8 1.34 0 1 C0 0.67 0 0.34 0 0 Z " fill="#020202" transform="translate(550,382)"/>
<path d="M0 0 C0.33 0.66 0.66 1.32 1 2 C3.97 2 6.94 2 10 2 C10 2.33 10 2.66 10 3 C8.72125 3.0825 7.4425 3.165 6.125 3.25 C3.94666582 3.45869931 3.94666582 3.45869931 2 4 C0.4100567 5.92064793 0.4100567 5.92064793 0 8 C-0.99 6.35 -1.98 4.7 -3 3 C-2.01 2.01 -1.02 1.02 0 0 Z " fill="#1A1A1A" transform="translate(329,643)"/>
</svg>
