<?xml version="1.0" standalone="no"?>
<!DOCTYPE svg PUBLIC "-//W3C//DTD SVG 20010904//EN"
 "http://www.w3.org/TR/2001/REC-SVG-20010904/DTD/svg10.dtd">
<svg version="1.0" xmlns="http://www.w3.org/2000/svg"
 width="1024.000000pt" height="1024.000000pt" viewBox="0 0 1024.000000 1024.000000"
 preserveAspectRatio="xMidYMid meet">

<g transform="translate(0.000000,1024.000000) scale(0.100000,-0.100000)"
fill="#000000" stroke="none">
<path d="M6212 9198 l3 -133 500 -3 500 -2 -2 -250 c-1 -138 0 -257 3 -265 5
-12 30 -15 135 -15 l129 0 0 400 0 400 -635 0 -636 0 3 -132z"/>
<path d="M4100 8795 l0 -265 130 0 130 0 0 -265 0 -265 135 0 135 0 0 -260 0
-260 -530 0 -530 0 0 -135 0 -135 -265 0 -265 0 0 -130 0 -130 -135 0 -135 0
0 -135 0 -135 -130 0 -130 0 0 -130 0 -130 -134 0 -135 0 -1 -262 c0 -144 -2
-263 -3 -264 -2 -2 -60 -4 -130 -5 l-127 -1 0 -802 0 -801 -141 3 -140 3 3
-136 3 -136 -137 2 -138 2 0 268 0 269 -135 0 -135 0 0 255 0 255 -130 0 -130
0 0 -136 0 -137 -130 5 -130 6 0 -254 0 -253 128 -3 127 -3 0 -133 0 -132 138
0 137 0 0 -135 0 -135 405 0 405 0 0 -135 0 -135 130 0 130 0 0 1200 0 1199
135 -6 135 -6 0 271 0 272 130 0 130 0 0 130 0 130 135 0 135 0 0 135 0 135
265 0 265 0 0 130 0 130 660 0 660 0 0 -130 0 -130 265 0 265 0 0 130 0 130
395 0 395 0 0 -130 0 -130 270 0 270 0 0 -135 0 -135 260 0 260 0 0 -130 0
-130 130 0 130 0 0 130 0 130 -130 0 -130 0 0 135 0 135 -260 0 -260 0 0 130
0 130 -270 0 -270 0 0 135 0 135 240 0 240 0 0 130 0 130 135 0 135 0 0 125
c0 92 -3 127 -12 130 -7 2 -68 5 -136 7 l-122 3 0 -134 0 -134 -502 4 -503 4
-5 134 -5 134 -127 -2 -128 -2 0 260 0 261 135 0 135 0 0 135 0 135 -135 0
-135 0 0 -135 0 -135 -135 0 -135 0 0 -395 0 -395 -125 0 -125 0 0 265 0 265
-140 0 -140 0 0 265 0 265 -130 0 -130 0 0 130 0 130 -130 0 -130 0 0 -265z"/>
<path d="M5692 8930 l3 -131 258 -2 257 -2 0 133 0 132 -260 0 -261 0 3 -130z"/>
<path d="M6210 8400 l0 -130 -260 0 -260 0 0 -135 0 -135 260 0 260 0 0 135 0
135 130 0 130 0 0 130 0 130 -130 0 -130 0 0 -130z"/>
<path d="M6952 8268 l3 -263 133 -3 132 -3 0 266 0 265 -135 0 -135 0 2 -262z"/>
<path d="M7540 6285 l0 -135 130 0 130 0 0 -237 c0 -131 3 -309 7 -395 l6
-158 129 0 128 0 0 -405 0 -405 130 0 130 0 0 535 0 535 -130 0 -130 0 0 265
0 265 -135 0 -135 0 0 135 0 135 -130 0 -130 0 0 -135z"/>
<path d="M3040 5490 l0 -130 -130 0 -130 0 0 -405 0 -405 130 0 130 0 0 -125
0 -125 265 0 265 0 0 132 0 131 130 -6 130 -7 0 405 0 405 -130 0 -130 0 0
130 0 130 -265 0 -265 0 0 -130z"/>
<path d="M5690 5490 l0 -130 -135 0 -135 0 0 -405 0 -405 135 0 135 0 0 -125
0 -125 265 0 265 0 0 132 0 131 130 -6 130 -6 0 404 0 405 -130 0 -130 0 0
130 0 130 -265 0 -265 0 0 -130z"/>
<path d="M8335 4548 c-3 -7 -6 -128 -7 -268 l-3 -255 -128 0 -127 0 2 -265 3
-265 128 -3 127 -3 0 271 0 271 104 -2 c58 -1 116 -4 130 -6 l26 -5 0 -123 0
-122 31 -7 c17 -3 78 -6 135 -6 l104 0 0 -130 0 -130 -136 0 -135 0 3 -140 3
-140 -132 0 -133 0 0 -260 0 -260 263 0 262 0 -3 265 -3 265 141 0 140 0 0
130 0 130 125 0 125 0 0 135 0 135 -125 0 -125 0 0 133 0 132 -47 0 c-27 0
-90 2 -141 3 l-93 2 3 129 3 128 -89 7 c-49 3 -109 6 -133 6 l-43 0 0 130 0
130 -125 0 c-91 0 -127 -3 -130 -12z"/>
<path d="M3830 4160 l0 -131 133 3 132 3 3 128 3 127 -136 0 -135 0 0 -130z"/>
<path d="M5160 4161 l0 -128 -32 -7 c-18 -3 -257 -6 -533 -6 l-500 1 -2 -131
-2 -130 535 0 534 0 0 135 0 135 130 0 130 0 0 130 0 130 -130 0 -130 0 0
-129z"/>
<path d="M2247 3463 c-2 -21 -4 -141 -2 -268 l3 -230 131 -3 131 -3 0 -129 0
-129 128 -3 127 -3 3 -132 3 -133 134 0 135 0 0 -130 0 -130 265 0 265 0 0
-533 0 -533 -37 3 c-21 1 -140 4 -265 6 l-228 4 0 -139 0 -138 528 2 527 3 0
532 0 533 1063 0 1062 0 0 -401 0 -400 -265 3 -265 3 0 -138 0 -137 528 2 527
3 3 663 2 662 265 0 265 0 0 130 0 130 130 0 130 0 0 130 0 130 -132 0 -133 0
3 -130 3 -130 -265 0 -266 0 0 -130 0 -130 -1590 0 -1590 0 0 130 0 130 -265
0 -265 0 0 130 0 130 -135 0 -135 0 0 135 0 135 -130 0 -130 0 0 270 0 270
-129 0 -129 0 -5 -37z"/>
<path d="M7800 3230 l0 -270 135 0 135 0 -2 268 -3 267 -132 3 -133 3 0 -271z"/>
<path d="M7540 2830 l0 -130 135 0 136 0 -3 128 -3 127 -132 3 -133 3 0 -131z"/>
</g>
</svg>
