<?xml version="1.0" standalone="no"?>
<!DOCTYPE svg PUBLIC "-//W3C//DTD SVG 20010904//EN"
 "http://www.w3.org/TR/2001/REC-SVG-20010904/DTD/svg10.dtd">
<svg version="1.0" xmlns="http://www.w3.org/2000/svg"
 width="1024.000000pt" height="1024.000000pt" viewBox="0 0 1024.000000 1024.000000"
 preserveAspectRatio="xMidYMid meet">

<g transform="translate(0.000000,1024.000000) scale(0.100000,-0.100000)"
fill="#000000" stroke="none">
<path d="M6217 9312 c-3 -4 -4 -61 -4 -127 l2 -120 638 -3 637 -2 0 -135 0
-135 -135 0 -135 0 -2 -262 -3 -263 -133 0 -132 0 0 -135 0 -135 -135 3 -135
3 0 -135 0 -136 -500 0 -501 0 3 132 3 132 265 0 265 1 3 133 3 132 -261 0
c-143 0 -263 0 -267 0 -5 0 -9 -58 -11 -130 l-3 -130 -129 0 -130 0 0 265 0
265 130 0 130 0 0 130 0 130 270 0 270 0 0 135 0 135 -270 0 -270 0 0 -135 0
-135 -130 0 -130 0 0 -130 0 -130 -135 0 -135 0 0 -135 0 -135 -135 0 -135 0
0 265 0 265 -135 0 -135 0 0 135 0 135 -275 0 -275 0 0 -265 0 -265 135 0 134
0 3 -132 3 -133 137 0 138 0 0 -272 0 -273 135 0 135 0 0 -130 0 -130 -670 0
-670 0 0 -135 0 -135 670 0 670 0 0 -130 0 -130 -135 0 -135 0 0 -135 0 -135
270 0 270 0 0 135 0 135 135 0 135 0 0 130 0 130 530 0 530 0 0 -130 0 -130
265 0 265 0 0 -135 0 -135 133 0 132 0 -3 -130 -3 -130 136 0 136 0 -3 -135
-3 -135 133 0 132 0 0 -271 0 -271 135 4 135 3 0 -397 0 -398 130 0 130 0 0
-400 0 -400 -130 0 -130 0 0 -395 0 -395 -135 0 -135 0 0 -135 0 -135 -135 0
-136 0 3 -265 3 -265 -132 0 -133 0 0 -135 0 -135 -265 0 -265 0 0 -130 0
-130 -266 0 -265 0 3 -130 3 -130 -1062 0 c-585 0 -1066 1 -1069 3 -3 1 -5 59
-5 130 l2 127 -399 0 c-311 0 -401 3 -405 13 -2 6 -3 65 -2 130 l3 117 -263 0
c-203 0 -264 -3 -268 -13 -2 -7 -5 -65 -6 -130 l-2 -117 270 0 271 0 0 -135 0
-135 265 0 265 0 0 -265 0 -265 -132 0 -133 0 0 -135 0 -135 398 0 397 0 0
268 0 267 800 0 800 0 0 -132 0 -133 -130 0 -130 0 0 -135 0 -135 400 0 400 0
0 400 0 400 265 0 265 0 0 135 0 135 266 0 265 0 -3 130 -3 130 133 0 132 0 0
135 0 135 135 0 135 0 0 265 0 265 130 0 130 0 0 265 0 265 135 0 135 0 0 930
0 930 -135 0 -135 0 0 265 0 265 -130 0 -130 0 0 270 0 270 -135 0 -135 0 0
136 0 135 -130 -3 -130 -3 0 133 0 132 -265 0 -265 0 0 130 0 130 -265 0 -265
0 0 135 0 135 235 0 235 0 0 130 0 130 135 0 135 0 0 273 0 273 131 -1 131 0
-1 133 -2 132 136 0 136 0 -3 130 -3 130 133 0 132 0 0 135 0 135 -130 0 -130
0 0 130 0 130 -764 0 c-421 0 -767 -3 -769 -8z"/>
<path d="M6211 8406 c-1 -92 2 -127 11 -133 7 -4 124 -8 261 -9 l247 0 0 133
0 133 -259 0 -259 0 -1 -124z"/>
<path d="M3010 7060 l0 -130 -135 0 -135 0 0 -130 0 -130 -135 0 -135 0 0
-135 0 -135 -130 0 -130 0 0 -270 0 -270 -135 0 -135 0 0 -265 0 -265 -135 0
-135 0 0 -930 0 -930 135 0 135 0 0 -265 0 -265 135 0 135 0 0 -265 0 -265
135 0 135 0 0 -135 0 -135 135 0 135 0 0 135 0 135 -135 0 -135 0 0 265 0 265
-135 0 -135 0 0 265 0 265 -135 0 -135 0 0 930 0 930 135 0 135 0 0 265 0 265
135 0 135 0 0 270 0 270 130 0 130 0 0 130 0 130 135 0 135 0 0 135 0 135 265
0 266 0 -3 128 -3 127 -262 3 -263 2 0 -130z"/>
<path d="M5433 6923 c-10 -3 -13 -40 -13 -134 l0 -129 130 0 130 0 0 135 0
135 -117 -1 c-65 0 -124 -3 -130 -6z"/>
<path d="M3010 4665 l0 -135 -135 0 -135 0 2 -262 3 -263 133 -3 132 -3 0
-129 0 -130 263 0 262 0 -3 130 -3 130 140 0 141 0 0 265 0 265 -135 0 -135 0
0 135 0 135 -265 0 -265 0 0 -135z"/>
<path d="M5940 4665 l0 -135 -130 0 -130 0 2 -262 3 -263 128 -3 127 -3 0
-129 0 -130 270 0 270 0 0 130 0 130 130 0 130 0 0 268 0 267 -130 -3 -130 -3
0 135 0 136 -270 0 -270 0 0 -135z"/>
<path d="M4070 3870 l0 -130 135 0 135 0 0 -135 0 -135 405 0 405 0 0 135 0
135 135 0 135 0 0 130 0 130 -135 0 -135 0 0 -130 0 -130 -405 0 -405 0 0 130
0 130 -135 0 -135 0 0 -130z"/>
</g>
</svg>
