<?xml version="1.0" encoding="UTF-8"?>
<svg version="1.1" xmlns="http://www.w3.org/2000/svg" width="1024" height="1024">
<path d="M0 0 C3.21517768 7.51156556 6.20201892 15.07843789 9.03173828 22.7421875 C10.38332262 26.4271553 10.38332262 26.4271553 12 30 C12 28.68 12 27.36 12 26 C12.99 26 13.98 26 15 26 C15.33 27.32 15.66 28.64 16 30 C17.31471568 29.71848913 18.62675767 29.42446661 19.9375 29.125 C21.03384766 28.88136719 21.03384766 28.88136719 22.15234375 28.6328125 C24.20700294 28.17038477 24.20700294 28.17038477 25 26 C27.0390625 25.25390625 27.0390625 25.25390625 29.625 24.5625 C32.84292016 23.66735816 35.80638439 22.70328768 38.8125 21.25 C42 20 42 20 44.6875 19.8125 C50.12150112 22.60293301 51.84399851 31.25208636 53.64453125 36.76367188 C54.22278537 38.57104606 54.7928931 40.38104375 55.35546875 42.19335938 C55.64035156 43.05638672 55.92523437 43.91941406 56.21875 44.80859375 C56.46560547 45.59032959 56.71246094 46.37206543 56.96679688 47.17749023 C57.85066088 49.181265 57.85066088 49.181265 59.98535156 49.78369141 C62.39754494 50.04268357 63.93863627 49.67697476 66.25 48.9375 C67.11496094 48.66292969 67.97992187 48.38835937 68.87109375 48.10546875 C71.28230785 47.25356664 73.6568289 46.36232754 76.03515625 45.42578125 C76.7405957 45.15064697 77.44603516 44.8755127 78.17285156 44.59204102 C79.5794694 44.03847815 80.98141564 43.47286651 82.37792969 42.89428711 C85.18229115 41.78557805 87.71422643 41.01798861 90.73046875 40.828125 C96.45432773 43.78364599 98.64011818 54.12573797 100.71484375 59.94921875 C101.05246231 60.88369339 101.39008087 61.81816803 101.7379303 62.78096008 C102.80906702 65.74816853 103.87359119 68.71769319 104.9375 71.6875 C106.34039197 75.58798179 107.74595947 79.48749498 109.15234375 83.38671875 C109.48712738 84.31620331 109.82191101 85.24568787 110.1668396 86.20333862 C112.68370956 93.1733303 115.28648884 100.10380637 118 107 C121.83746201 106.45456162 125.15979378 105.69172512 128.71484375 104.15234375 C129.56626953 103.79462891 130.41769531 103.43691406 131.29492188 103.06835938 C133.05475821 102.31525868 134.81258768 101.55745078 136.56835938 100.79492188 C141.6567309 98.66803642 145.47841775 97.52672152 151 98 C155.02117705 108.32527018 159.03329144 118.65365417 163 129 C169.3193776 128.44445032 174.64651485 126.36788791 180.5 124 C186.35348515 121.63211209 191.6806224 119.55554968 198 119 C200.27001199 122.54141355 201.81339664 125.94009983 203.15625 129.921875 C203.53910156 131.02917969 203.92195312 132.13648438 204.31640625 133.27734375 C205.11024166 135.60645161 205.89925034 137.93720977 206.68359375 140.26953125 C207.06644531 141.37167969 207.44929687 142.47382813 207.84375 143.609375 C208.18599609 144.61967773 208.52824219 145.62998047 208.88085938 146.67089844 C209.25017578 147.43950195 209.61949219 148.20810547 210 149 C214.07243807 150.35747936 215.7490506 149.18307325 219.71484375 147.62109375 C221.05391916 147.10711617 222.39311566 146.59345398 223.73242188 146.08007812 C225.8390078 145.26001695 227.9435034 144.43512576 230.0456543 143.60375977 C232.07637029 142.80464532 234.113613 142.02448735 236.15234375 141.24609375 C237.36913818 140.76841553 238.58593262 140.2907373 239.83959961 139.79858398 C243 139 243 139 245.31884766 139.62988281 C247.27342217 141.2228355 247.88780904 142.31715162 248.74609375 144.67578125 C249.02380615 145.41586426 249.30151855 146.15594727 249.58764648 146.91845703 C250.00832397 148.1035083 250.00832397 148.1035083 250.4375 149.3125 C250.735354 150.1154248 251.03320801 150.91834961 251.34008789 151.74560547 C251.94560356 153.37840194 252.54580826 155.013178 253.140625 156.64990234 C254.362859 159.99229568 255.64990479 163.30724756 256.9375 166.625 C257.62535866 168.416529 258.31301343 170.2081364 259 172 C266.78416502 170.51242954 273.57384044 167.84885011 280.80273438 164.65820312 C281.64513672 164.30306641 282.48753906 163.94792969 283.35546875 163.58203125 C284.10465576 163.25436768 284.85384277 162.9267041 285.62573242 162.58911133 C288.86855778 161.7844905 290.83176029 161.91325741 294 163 C295.64575195 165.66479492 295.64575195 165.66479492 296.92578125 169.29296875 C297.16694168 169.95491745 297.40810211 170.61686615 297.65657043 171.2988739 C298.46104002 173.52495948 299.22953054 175.76194176 300 178 C300.5762036 179.60844991 301.15487789 181.21601656 301.73583984 182.82275391 C303.27366243 187.09676953 304.77792038 191.38169464 306.26928711 195.67211914 C307.19283631 198.3278449 308.12241161 200.98140606 309.05273438 203.63476562 C311.87548602 211.71008312 314.65468154 219.77006433 317 228 C313.90138285 231.54692772 311.11334702 232.99710201 306.703125 234.578125 C305.49785156 235.01640625 304.29257812 235.4546875 303.05078125 235.90625 C301.78394053 236.35441087 300.51701231 236.80232447 299.25 237.25 C297.96707665 237.71251314 296.68451997 238.17604469 295.40234375 238.640625 C292.2716901 239.77048496 289.13767627 240.8898234 286 242 C286.56421299 246.71502281 287.49921536 250.93491886 289.06640625 255.4140625 C289.6706543 257.17363281 289.6706543 257.17363281 290.28710938 258.96875 C291.14022318 261.41443002 291.99439703 263.85974052 292.84960938 266.3046875 C293.25115234 267.47515625 293.65269531 268.645625 294.06640625 269.8515625 C294.43709229 270.91197754 294.80777832 271.97239258 295.18969727 273.06494141 C295.96519988 275.87394788 296.16528845 278.10628343 296 281 C293.83588599 282.10941238 291.66891807 283.21254869 289.5 284.3125 C288.89929688 284.62123047 288.29859375 284.92996094 287.6796875 285.24804688 C286.77089844 285.70727539 286.77089844 285.70727539 285.84375 286.17578125 C285.22056885 286.4917627 284.5973877 286.80774414 283.95532227 287.13330078 C282 288 282 288 279.90209961 288.56591797 C276.68665861 289.4426178 274.62885172 290.10337245 272.67041016 292.89575195 C271.48405174 295.39203686 270.50478862 297.90179989 269.5625 300.5 C268.81317283 302.39713095 268.06048652 304.29293807 267.3046875 306.1875 C266.73959473 307.63382813 266.73959473 307.63382813 266.16308594 309.109375 C264.33558076 313.65128544 262.28213634 318.07629538 260.1875 322.5 C259.82664307 323.28181641 259.46578613 324.06363281 259.09399414 324.86914062 C258.74715576 325.60326172 258.40031738 326.33738281 258.04296875 327.09375 C257.74414795 327.72990234 257.44532715 328.36605469 257.13745117 329.02148438 C253.96057541 334.5474344 251.05479004 336.79366132 245.07421875 339.04296875 C244.40840286 339.2975032 243.74258698 339.55203766 243.05659485 339.81428528 C240.93863534 340.61961528 238.81340087 341.40340965 236.6875 342.1875 C235.27098176 342.72458772 233.85496025 343.26298746 232.43945312 343.80273438 C226.34616122 346.10747545 220.28322633 348.27603316 214 350 C214.60975898 351.74501932 215.21962516 353.49000121 215.82983398 355.23486328 C216.41431917 356.90629459 216.99845194 358.57784916 217.58227539 360.24951172 C219.53473396 365.83357196 221.49840395 371.41354949 223.47245789 376.99000549 C224.66292674 380.35381477 225.85099781 383.71846905 227.03897095 387.0831604 C227.63890688 388.780313 228.23996443 390.47706952 228.84213257 392.1734314 C229.69837693 394.58598137 230.55074465 396.99986959 231.40234375 399.4140625 C231.66452698 400.14970932 231.92671021 400.88535614 232.19683838 401.64329529 C234 406.77236722 234 406.77236722 234 409 C240.92806657 408.48346959 246.73864543 406.44514728 253.1875 403.9375 C255.11556862 403.18904602 257.04648419 402.4478756 258.98046875 401.71484375 C259.82504639 401.38605225 260.66962402 401.05726074 261.53979492 400.71850586 C264.1456589 399.95746014 266.30018384 399.8676472 269 400 C273.94752321 408.86998407 277.0907113 418.30754258 280.375 427.875 C280.94951245 429.53590591 281.52454757 431.19663111 282.10009766 432.85717773 C282.9520725 435.31579458 283.80346754 437.77459527 284.65194702 440.23442078 C286.21007586 444.74717288 287.79982062 449.24577911 289.4375 453.73046875 C289.94144287 455.11999756 289.94144287 455.11999756 290.45556641 456.53759766 C291.04873741 458.16653407 291.64943432 459.79275898 292.25927734 461.41552734 C294.46321385 467.52881064 294.46321385 467.52881064 293 471 C291.3137207 472.11401367 291.3137207 472.11401367 289.11328125 472.98046875 C288.29939941 473.30966309 287.48551758 473.63885742 286.64697266 473.97802734 C285.77347168 474.31527832 284.8999707 474.6525293 284 475 C283.12778809 475.35658691 282.25557617 475.71317383 281.35693359 476.08056641 C278.64392969 477.18557235 275.91831108 478.25234836 273.1875 479.3125 C272.26001953 479.68439453 271.33253906 480.05628906 270.37695312 480.43945312 C269.48298828 480.78556641 268.58902344 481.13167969 267.66796875 481.48828125 C266.86641357 481.80321533 266.0648584 482.11814941 265.23901367 482.44262695 C262.65046502 483.08701214 261.47937099 482.93300624 259 482 C255.52646261 476.10896531 253.31682338 469.75094958 251.03125 463.32421875 C250.66906372 462.31841263 250.30687744 461.31260651 249.93371582 460.27632141 C248.78449972 457.0816932 247.64210717 453.8846757 246.5 450.6875 C245.73353164 448.55256963 244.96660859 446.41780244 244.19921875 444.28320312 C242.78036319 440.33523867 241.36444823 436.38624401 239.95117188 432.4362793 C237.98631473 426.9506372 235.99621157 421.47429962 234 416 C226.06299063 417.53880794 218.93904018 420.22439325 211.46484375 423.25390625 C210.12873047 423.78177734 210.12873047 423.78177734 208.765625 424.3203125 C207.96930664 424.64273926 207.17298828 424.96516602 206.35253906 425.29736328 C203.64228718 426.10683868 201.80254542 426.48961511 199 426 C195.51347386 421.86513065 194.08322914 416.06964745 192.3125 411.01953125 C191.96872314 410.0515007 191.62494629 409.08347015 191.27075195 408.08610535 C190.54544939 406.04032609 189.82276901 403.99361553 189.10253906 401.94604492 C188.00926151 398.83882231 186.90770492 395.73463606 185.8046875 392.63085938 C185.09846525 390.63559113 184.39272081 388.64015368 183.6875 386.64453125 C183.36241455 385.72750931 183.0373291 384.81048737 182.70239258 383.86567688 C180.62785886 377.95769103 178.74632502 372.01311236 177 366 C141.98118991 379.43826626 106.97938481 392.92370289 72.0625 406.625 C70.93239502 407.06811523 69.80229004 407.51123047 68.63793945 407.96777344 C67.634646 408.36254883 66.63135254 408.75732422 65.59765625 409.1640625 C64.74695557 409.49873535 63.89625488 409.8334082 63.01977539 410.17822266 C60.97985808 410.97792105 60.97985808 410.97792105 59 412 C60.65108118 419.40234728 63.18399919 426.43555109 65.75 433.5625 C66.24052947 434.93324404 66.73075522 436.30409681 67.22070312 437.67504883 C68.2692557 440.60676112 69.32026766 443.53757635 70.37304688 446.46777344 C71.71049543 450.19111967 73.04244452 453.91640045 74.37223816 457.64248657 C80.94753534 476.06436011 87.61228728 494.45270931 94.33190918 512.82241821 C95.55463569 516.16599484 96.77604011 519.51005161 97.99707031 522.85424805 C101.36608867 532.07881513 104.73650998 541.30260014 108.15000916 550.51081848 C109.40204486 553.89238948 110.64608446 557.27686446 111.88839722 560.66201782 C112.45730873 562.20577442 113.03009137 563.74811058 113.60696411 565.28890991 C114.38836954 567.37665664 115.15663106 569.46878649 115.921875 571.5625 C116.35081055 572.71878906 116.77974609 573.87507812 117.22167969 575.06640625 C118.37180608 579.40138703 118.37180608 579.40138703 117 582 C111.93042049 585.68203918 105.82213183 587.5094113 100 589.6875 C98.91976563 590.10322266 97.83953125 590.51894531 96.7265625 590.94726562 C95.68242188 591.33978516 94.63828125 591.73230469 93.5625 592.13671875 C92.14130859 592.67365356 92.14130859 592.67365356 90.69140625 593.22143555 C87.96713932 594.00950587 85.8145729 594.05873517 83 594 C79.66512404 587.61929344 76.8149563 581.25353933 74.42578125 574.46484375 C74.10469391 573.56962006 73.78360657 572.67439636 73.45278931 571.75204468 C72.76173526 569.82349822 72.07343653 567.8939626 71.38766479 565.96353149 C69.51853897 560.70291132 67.62847872 555.44979642 65.7421875 550.1953125 C65.35173752 549.10577774 64.96128754 548.01624298 64.55900574 546.89369202 C60.41595948 535.34298646 56.18068746 523.82671119 51.9375 512.3125 C45.31298866 494.32425432 38.7366514 476.31914215 32.21264648 458.29418945 C31.59375945 456.58668887 30.97470601 454.8792486 30.35546875 453.171875 C30.06469955 452.3689653 29.77393036 451.5660556 29.47434998 450.73881531 C27.3627394 444.93212265 25.14481001 439.17594289 22.84106445 433.44238281 C22 431 22 431 22 428 C16.60851929 429.25899654 11.4958584 430.81551121 6.33984375 432.84375 C5.61262115 433.1251886 4.88539856 433.4066272 4.13613892 433.69659424 C1.73492494 434.62682692 -0.66372537 435.56349716 -3.0625 436.5 C-4.75962875 437.15844042 -6.45698095 437.81630518 -8.15454102 438.47363281 C-10.8618411 439.52197063 -13.56901361 440.57062435 -16.27555847 441.62091064 C-26.60780501 445.62943144 -36.95763357 449.59187723 -47.30831909 453.55249023 C-50.39274113 454.73287118 -53.47680879 455.91417363 -56.56079102 457.09570312 C-58.47671367 457.82945735 -60.39264738 458.5631827 -62.30859375 459.296875 C-63.17165131 459.62753967 -64.03470886 459.95820435 -64.92391968 460.29888916 C-66.52859771 460.91304549 -68.13390916 461.52555029 -69.73995972 462.1361084 C-71.25402 462.71485205 -72.76503792 463.30161482 -74.27297974 463.89611816 C-77.32218164 465.08343952 -79.69687038 466 -83 466 C-81.41771368 472.90674751 -79.19352313 479.51073647 -76.8671875 486.19921875 C-76.05314057 488.565671 -75.23934597 490.93221005 -74.42578125 493.29882812 C-73.14714625 497.00637689 -71.86613121 500.71306093 -70.58056641 504.41821289 C-69.33603398 508.00959824 -68.10098333 511.60413328 -66.8671875 515.19921875 C-66.47973358 516.30762619 -66.09227966 517.41603363 -65.69308472 518.55802917 C-65.33916656 519.59292984 -64.98524841 520.62783051 -64.62060547 521.6940918 C-64.30686981 522.60039841 -63.99313416 523.50670502 -63.66989136 524.44047546 C-62.98153104 527.07056628 -62.8736078 529.2941826 -63 532 C-68.83128536 535.04358081 -74.69301721 537.51335095 -80.875 539.75 C-81.72835937 540.06582031 -82.58171875 540.38164063 -83.4609375 540.70703125 C-89.73434118 543 -89.73434118 543 -92 543 C-90.21111611 548.39675976 -88.41883423 553.79238379 -86.625 559.1875 C-86.35666351 559.9951178 -86.08832703 560.8027356 -85.81185913 561.63482666 C-82.92497047 570.31840703 -80.02182034 578.99496073 -77.01171875 587.63671875 C-76.78061401 588.30102402 -76.54950928 588.96532928 -76.31140137 589.64976501 C-75.22663073 592.76411826 -74.13530936 595.87597859 -73.03564453 598.98510742 C-72.64876465 600.09088135 -72.26188477 601.19665527 -71.86328125 602.3359375 C-71.52594971 603.29032715 -71.18861816 604.2447168 -70.84106445 605.22802734 C-69.95793527 608.13863657 -69.43593792 610.99255561 -69 614 C-74.61513933 618.30032677 -80.88706073 620.43872238 -87.5 622.8125 C-88.61503906 623.23208984 -89.73007812 623.65167969 -90.87890625 624.08398438 C-91.96042969 624.47521484 -93.04195312 624.86644531 -94.15625 625.26953125 C-95.13400391 625.62635986 -96.11175781 625.98318848 -97.11914062 626.35083008 C-100.40704547 627.09172321 -102.74003912 626.75246132 -106 626 C-106.19743301 625.44084396 -106.39486603 624.88168793 -106.59828186 624.30558777 C-108.69020271 618.38181003 -110.78394783 612.45867919 -112.87866211 606.53588867 C-113.65580436 604.33780537 -114.4325113 602.1395681 -115.20874023 599.94116211 C-116.3371771 596.74550478 -117.46726631 593.55043568 -118.59765625 590.35546875 C-119.15243149 588.78320023 -119.15243149 588.78320023 -119.71841431 587.1791687 C-121.47044225 582.23217846 -123.25063609 577.30071715 -125.12060547 572.39697266 C-125.44854599 571.53219803 -125.77648651 570.6674234 -126.11436462 569.77644348 C-126.72274371 568.18134216 -127.33929084 566.58932033 -127.96583557 565.00126648 C-129.55291321 560.83591007 -130.33617056 557.53718646 -130 553 C-123.59853678 550.02184716 -117.11564503 547.53321026 -110.4375 545.25 C-109.52419922 544.93417969 -108.61089844 544.61835937 -107.66992188 544.29296875 C-105.44780336 543.52511628 -103.22452041 542.76085976 -101 542 C-101.66723961 536.72120561 -103.26463335 532.03567878 -105.0625 527.0625 C-105.69430381 525.28526052 -106.32580155 523.50791222 -106.95703125 521.73046875 C-107.28912598 520.80024902 -107.6212207 519.8700293 -107.96337891 518.91162109 C-109.74540633 513.90633164 -111.49886288 508.89116316 -113.25 503.875 C-113.5787915 502.94051025 -113.90758301 502.00602051 -114.24633789 501.04321289 C-116.33179124 495.074208 -118.23610964 489.07179017 -120 483 C-130.97875028 485.85903807 -141.40128052 489.69858026 -151.9375 493.875 C-153.48089232 494.48104836 -155.02451154 495.0865192 -156.56835938 495.69140625 C-165.43274717 499.17076082 -165.43274717 499.17076082 -174.25830078 502.74707031 C-174.93292862 503.02293976 -175.60755646 503.2988092 -176.30262756 503.58303833 C-178.12638525 504.33054523 -179.94721958 505.08517341 -181.76782227 505.84033203 C-184.86735966 506.95241018 -187.74181921 507.57487235 -191 508 C-193.62987653 504.85548995 -194.93806383 501.85897162 -196.26171875 497.9921875 C-196.65810547 496.84105469 -197.05449219 495.68992187 -197.46289062 494.50390625 C-197.86701172 493.30636719 -198.27113281 492.10882812 -198.6875 490.875 C-199.31108398 489.06708984 -199.31108398 489.06708984 -199.94726562 487.22265625 C-203 478.29002463 -203 478.29002463 -203 476 C-210.91397415 477.53277787 -218.00451834 480.20938542 -225.44726562 483.25390625 C-230.12238381 485.10765682 -233.87026352 486.52743559 -239 486 C-242.45215709 479.53109303 -244.90515988 472.93898985 -247.25 466 C-247.79527344 464.40865234 -247.79527344 464.40865234 -248.3515625 462.78515625 C-249.23938905 460.19176816 -250.1220636 457.5967493 -251 455 C-255.14651914 455.58110182 -258.76876634 456.53081288 -262.66015625 458.06640625 C-264.2215332 458.6706543 -264.2215332 458.6706543 -265.81445312 459.28710938 C-267.98453205 460.13922094 -270.15380131 460.99339728 -272.32226562 461.84960938 C-273.88170898 462.45192383 -273.88170898 462.45192383 -275.47265625 463.06640625 C-276.41375244 463.43709229 -277.35484863 463.80777832 -278.32446289 464.18969727 C-281.0372838 465.01129163 -283.18443252 465.15792701 -286 465 C-289.18074039 459.01518584 -291.44503122 453.07365369 -293.5 446.625 C-295.94928205 439.08193431 -298.48029691 431.57993906 -301.15234375 424.11328125 C-301.42345978 423.35420471 -301.69457581 422.59512817 -301.97390747 421.81304932 C-303.06175498 418.77036804 -304.15073541 415.72818592 -305.25244141 412.69049072 C-306.02684785 410.55477486 -306.79324165 408.41631786 -307.55859375 406.27734375 C-308.00517334 405.04234131 -308.45175293 403.80733887 -308.91186523 402.53491211 C-310.01479356 398.95194168 -310.81456889 395.74853934 -311 392 C-309.02918238 388.69751218 -305.50108323 387.82723614 -302.01953125 386.51953125 C-300.85615234 386.07802734 -299.69277344 385.63652344 -298.49414062 385.18164062 C-297.27919922 384.72982422 -296.06425781 384.27800781 -294.8125 383.8125 C-293.58595703 383.34908203 -292.35941406 382.88566406 -291.09570312 382.40820312 C-288.0664516 381.26486695 -285.03456773 380.12913412 -282 379 C-281.27909284 371.12547568 -284.48350774 364.51952845 -287.24414062 357.2734375 C-287.79038086 355.7884375 -287.79038086 355.7884375 -288.34765625 354.2734375 C-288.85824585 352.93418213 -288.85824585 352.93418213 -289.37915039 351.56787109 C-290.10497337 348.56582386 -290.050413 346.90268635 -289 344 C-286.21102266 341.2777484 -283.05454048 340.09752158 -279.4296875 338.7734375 C-278.36878906 338.3815625 -277.30789063 337.9896875 -276.21484375 337.5859375 C-275.11269531 337.18632813 -274.01054687 336.78671875 -272.875 336.375 C-270.68460905 335.57109345 -268.4944907 334.76644367 -266.3046875 333.9609375 C-264.8503833 333.43185791 -264.8503833 333.43185791 -263.36669922 332.89208984 C-261.02831083 332.05707179 -261.02831083 332.05707179 -259 331 C-260.35721078 322.95467838 -262.77714003 315.657392 -265.69726562 308.06054688 C-266.00728516 307.21943359 -266.31730469 306.37832031 -266.63671875 305.51171875 C-267.06537231 304.38963013 -267.06537231 304.38963013 -267.50268555 303.24487305 C-268.13239335 300.4023776 -268.02811727 298.73083959 -267 296 C-264.88623047 294.65380859 -264.88623047 294.65380859 -262.1171875 293.6484375 C-261.11429688 293.27203125 -260.11140625 292.895625 -259.078125 292.5078125 C-257.49257813 291.94707031 -257.49257813 291.94707031 -255.875 291.375 C-253.80962358 290.61271643 -251.74451296 289.84971222 -249.6796875 289.0859375 C-248.7009668 288.72854492 -247.72224609 288.37115234 -246.71386719 288.00292969 C-240.41654609 286.15992198 -240.41654609 286.15992198 -236 282 C-236.66 281.67 -237.32 281.34 -238 281 C-238.2358306 279.35980879 -238.46451469 277.718251 -238.65576172 276.07226562 C-239.28117065 272.30739254 -240.72336693 268.81066472 -242.0625 265.25 C-245 257.38529748 -245 257.38529748 -245 254 C-245.66 253.67 -246.32 253.34 -247 253 C-246.34 253 -245.68 253 -245 253 C-244.67 252.01 -244.34 251.02 -244 250 C-241.8203125 248.83203125 -241.8203125 248.83203125 -239.125 247.8125 C-237.79855469 247.29623047 -237.79855469 247.29623047 -236.4453125 246.76953125 C-234 246 -234 246 -231 246 C-231 245.34 -231 244.68 -231 244 C-231.556875 243.79375 -232.11375 243.5875 -232.6875 243.375 C-236.38778034 241.17483331 -239.0683436 237.8633128 -241 234 C-241.04026822 232.17744954 -241.0115157 230.35318051 -240.94921875 228.53125 C-240.91159424 227.41177979 -240.87396973 226.29230957 -240.83520508 225.13891602 C-239.54613905 193.3810166 -239.54613905 193.3810166 -235.1875 178.3125 C-234.95135986 177.4862915 -234.71521973 176.66008301 -234.47192383 175.80883789 C-232.41096154 169.18484946 -230.48612197 163.83459997 -224.10375977 160.47583008 C-220.50418234 158.94601607 -216.86654971 157.5720337 -213.1875 156.25 C-211.92826979 155.77939008 -210.66979726 155.30674758 -209.41210938 154.83203125 C-205.94836836 153.53473621 -202.47575088 152.26467974 -199 151 C-196.3310178 150.00602748 -193.66548502 149.00331933 -191 148 C-191.60287505 140.47716786 -193.9778299 134.139207 -196.73632812 127.15820312 C-199.07297399 120.90660902 -199.07297399 120.90660902 -198.76953125 117.13671875 C-193.44641609 110.70902782 -181.78078681 108.67658161 -174.11328125 106.08789062 C-173.20964844 105.76111328 -172.30601562 105.43433594 -171.375 105.09765625 C-170.55773437 104.81414307 -169.74046875 104.53062988 -168.8984375 104.23852539 C-166.79762326 103.12966049 -166.79762326 103.12966049 -166.10961914 100.73022461 C-165.9771897 97.4318761 -166.68226153 95.29543275 -167.87109375 92.21875 C-168.28037109 91.12949219 -168.68964844 90.04023438 -169.11132812 88.91796875 C-169.54896484 87.79003906 -169.98660156 86.66210938 -170.4375 85.5 C-171.29770017 83.26322393 -172.15085422 81.02372222 -172.99609375 78.78125 C-173.37950928 77.79189453 -173.7629248 76.80253906 -174.15795898 75.78320312 C-174.99381002 73.02045978 -175.16780977 70.8655236 -175 68 C-168.23703343 64.38904346 -161.19096273 61.65105683 -154.04125977 58.91567993 C-150.0719354 57.39620352 -146.10830998 55.86199824 -142.14453125 54.328125 C-141.27748566 53.99279251 -140.41044006 53.65746002 -139.51712036 53.31196594 C-127.65104447 48.71416545 -115.82766042 44.00800349 -104 39.3125 C-99.41935093 37.49458977 -94.83861311 35.67690334 -90.2578125 33.859375 C-89.17107742 33.42814331 -88.08434235 32.99691162 -86.9646759 32.5526123 C-78.94209114 29.3704031 -70.91189718 26.20837465 -62.875 23.0625 C-50.13810557 18.07476489 -37.43819908 12.9951887 -24.74197388 7.90501404 C-23.36306094 7.35266293 -21.98373697 6.80133666 -20.60397339 6.25111389 C-17.70302431 5.09296074 -14.81120499 3.92009743 -11.93457031 2.70263672 C-11.06155273 2.33541504 -10.18853516 1.96819336 -9.2890625 1.58984375 C-8.2055249 1.12179321 -8.2055249 1.12179321 -7.10009766 0.64428711 C-4.65176256 -0.10683546 -2.54653535 -0.11337124 0 0 Z M-3.28515625 42.12109375 C-4.53161423 42.61723427 -4.53161423 42.61723427 -5.80325317 43.12339783 C-8.55888001 44.22184172 -11.31060042 45.32975519 -14.0625 46.4375 C-16.00727975 47.21442725 -17.95235307 47.99062001 -19.89770508 48.76611328 C-23.93913428 50.37784678 -27.97927835 51.99274228 -32.01855469 53.60986328 C-40.19233206 56.87953879 -48.38119627 60.11083941 -56.57025146 63.3420105 C-61.00072511 65.09065328 -65.43004587 66.8422106 -69.859375 68.59375 C-70.75457855 68.94771347 -71.6497821 69.30167694 -72.57211304 69.66636658 C-79.51244641 72.4109008 -86.45168555 75.15819373 -93.390625 77.90625 C-96.53485989 79.15141131 -99.67909605 80.39656941 -102.82333374 81.64172363 C-104.88700988 82.45898347 -106.95066975 83.2762844 -109.01431274 84.09362793 C-122.43738273 89.40968991 -135.86516433 94.71320826 -149.31225586 99.96826172 C-150.3203833 100.36287598 -151.32851074 100.75749023 -152.3671875 101.1640625 C-153.65278564 101.66607178 -153.65278564 101.66607178 -154.96435547 102.17822266 C-157.01833085 102.97588389 -157.01833085 102.97588389 -159 104 C-158.45676403 110.50374175 -156.77590152 116.02850878 -154.5 122.125 C-150.6434538 132.54851645 -150.6434538 132.54851645 -150 138 C-150.86061035 138.28085449 -151.7212207 138.56170898 -152.60791016 138.85107422 C-155.86414496 139.9539849 -159.06651366 141.14449537 -162.2734375 142.3828125 C-163.42714844 142.82753906 -164.58085937 143.27226562 -165.76953125 143.73046875 C-166.95933594 144.19066406 -168.14914062 144.65085937 -169.375 145.125 C-170.58800781 145.59292969 -171.80101562 146.06085938 -173.05078125 146.54296875 C-176.03432481 147.69409973 -179.01737853 148.84648243 -182 150 C-181.46960445 157.04668367 -179.38280323 163.08644827 -176.9375 169.6875 C-176.18930339 171.70954931 -175.44813873 173.73421781 -174.71484375 175.76171875 C-174.22165649 177.091427 -174.22165649 177.091427 -173.71850586 178.44799805 C-172.97507042 181.08854534 -172.86540467 183.2716086 -173 186 C-173.54785156 186.14695312 -174.09570312 186.29390625 -174.66015625 186.4453125 C-180.26253394 188.03037546 -185.66123297 189.96552581 -191.0625 192.125 C-191.72967041 192.39070801 -192.39684082 192.65641602 -193.08422852 192.93017578 C-196.28007174 194.07343461 -196.28007174 194.07343461 -199 196 C-199.39610074 201.80439924 -198.2808329 206.79629698 -196.75 212.375 C-196.52546143 213.21264893 -196.30092285 214.05029785 -196.06958008 214.91333008 C-194.51552686 220.54890166 -192.65994133 225.77863369 -190 231 C-182.86545176 228.70117267 -175.90579947 226.07142948 -168.9375 223.3125 C-167.72763428 222.83538574 -166.51776855 222.35827148 -165.27124023 221.86669922 C-154.19298665 217.4930457 -143.13798884 213.06101966 -132.0821228 208.63116455 C-116.65164916 202.44897796 -101.20428268 196.30991152 -85.75 190.1875 C-84.59780975 189.73097046 -83.44561951 189.27444092 -82.2585144 188.80407715 C-70.05668233 183.97019874 -57.84990596 179.15023398 -45.625 174.375 C-31.41740515 168.81912048 -17.28850637 163.06791813 -3.14892578 157.34179688 C9.21381119 152.33575074 21.58229933 147.34470794 33.96566772 142.38989258 C36.46530977 141.38889197 38.96380585 140.38507382 41.4621582 139.38085938 C48.46724949 136.57033437 55.47721938 133.79683334 62.55859375 131.18359375 C64.20601562 130.56895264 64.20601562 130.56895264 65.88671875 129.94189453 C67.84241044 129.21790047 69.80429116 128.51028717 71.7734375 127.82373047 C72.59972656 127.51709473 73.42601562 127.21045898 74.27734375 126.89453125 C74.98109131 126.64550049 75.68483887 126.39646973 76.40991211 126.13989258 C78.21377795 125.0708482 78.21377795 125.0708482 78.84301758 122.73413086 C79.03021937 119.47367533 78.38447313 117.41167626 77.234375 114.359375 C76.64076172 112.75255859 76.64076172 112.75255859 76.03515625 111.11328125 C75.61105469 110.00339844 75.18695312 108.89351563 74.75 107.75 C73.93140861 105.55762118 73.11368507 103.36491811 72.296875 101.171875 C71.89847412 100.11049316 71.50007324 99.04911133 71.08959961 97.95556641 C69.91829027 94.77836029 68.83945933 91.58114175 67.78662109 88.36328125 C66.08637296 83.25514907 64.25225904 78.19329932 62.4375 73.125 C62.03853516 71.99835938 61.63957031 70.87171875 61.22851562 69.7109375 C60.84244141 68.63328125 60.45636719 67.555625 60.05859375 66.4453125 C59.53736938 64.98375732 59.53736938 64.98375732 59.00561523 63.49267578 C58.02367059 60.81545791 58.02367059 60.81545791 56 58 C47.91526559 59.90763396 40.25585848 62.68124067 32.55151367 65.75024414 C31.76236572 66.05438232 30.97321777 66.35852051 30.16015625 66.671875 C29.45511963 66.9512793 28.75008301 67.23068359 28.02368164 67.51855469 C25.55692237 68.10541067 24.31303632 68.05094075 22 67 C20.84326172 65.14575195 20.84326172 65.14575195 19.9296875 62.73828125 C19.59066406 61.86623047 19.25164062 60.99417969 18.90234375 60.09570312 C18.56332031 59.17724609 18.22429687 58.25878906 17.875 57.3125 C17.52824219 56.41337891 17.18148437 55.51425781 16.82421875 54.58789062 C15.41457798 50.90716195 14.07715682 47.25747517 12.9453125 43.48046875 C12.15411204 40.68387888 12.15411204 40.68387888 9 39 C4.34902683 39 0.94402909 40.4050212 -3.28515625 42.12109375 Z M151.1875 138.578125 C150.48832962 138.85615463 149.78915924 139.13418427 149.06880188 139.42063904 C147.53014007 140.03311789 145.99240687 140.6479333 144.45547485 141.26473999 C141.06249036 142.62617602 137.66492967 143.9760202 134.26765442 145.32670593 C132.42448254 146.05962907 130.58154245 146.79313532 128.73881531 147.5271759 C118.67959573 151.53253851 108.59936637 155.48391389 98.51760864 159.43212891 C95.270463 160.70396498 92.02372605 161.9768392 88.77709961 163.25 C79.05661312 167.06153383 69.33502869 170.87021667 59.6098938 174.6698761 C29.26082485 186.5282316 -1.01438452 198.5623849 -31.25578308 210.69210815 C-40.73424979 214.49385288 -50.21593739 218.28749856 -59.69846535 222.07909775 C-66.7905578 224.91496545 -73.88179459 227.75288056 -80.96875 230.6015625 C-98.44202506 237.62098753 -115.96136798 244.51609552 -133.5043335 251.35946655 C-145.95582128 256.21857441 -158.37700739 261.13402464 -170.73852539 266.21801758 C-179.90864197 269.98472121 -189.12999588 273.61358683 -198.36767578 277.21069336 C-208.68329523 281.23527241 -218.90930537 285.43880217 -229 290 C-227.53799645 297.15311983 -225.4414251 303.83755227 -222.94726562 310.68945312 C-222.54991211 311.82737305 -222.54991211 311.82737305 -222.14453125 312.98828125 C-221.90065674 313.66415283 -221.65678223 314.34002441 -221.40551758 315.03637695 C-220.89419752 317.5123235 -220.88637995 318.70908255 -222 321 C-224.45263672 322.34033203 -224.45263672 322.34033203 -227.6796875 323.5078125 C-229.41412109 324.15169922 -229.41412109 324.15169922 -231.18359375 324.80859375 C-233.01083984 325.46021484 -233.01083984 325.46021484 -234.875 326.125 C-237.26932684 326.99960501 -239.66260777 327.87708014 -242.0546875 328.7578125 C-243.12187012 329.1408252 -244.18905273 329.52383789 -245.28857422 329.91845703 C-248.15334337 330.95276314 -248.15334337 330.95276314 -251 333 C-249.64349644 338.51644781 -248.04759428 343.92701995 -246.20703125 349.30078125 C-245.88677979 350.23704346 -245.56652832 351.17330566 -245.23657227 352.13793945 C-244.58217888 354.03634421 -243.9199754 355.93207583 -243.24975586 357.82495117 C-242.94561768 358.70771729 -242.64147949 359.5904834 -242.328125 360.5 C-242.0487207 361.2940625 -241.76931641 362.088125 -241.48144531 362.90625 C-241 365 -241 365 -242 368 C-244.28594862 369.07073257 -246.47110531 369.94682179 -248.84375 370.77734375 C-250.24876705 371.29603672 -251.6537128 371.81492287 -253.05859375 372.33398438 C-255.28224253 373.13974337 -257.50764913 373.94023327 -259.73486328 374.73608398 C-261.88044754 375.50738331 -264.01833037 376.29759457 -266.15625 377.08984375 C-266.82603882 377.3222728 -267.49582764 377.55470184 -268.18591309 377.79417419 C-271.69378969 379.05371372 -271.69378969 379.05371372 -274.04248047 381.79492188 C-273.98354542 384.85412533 -273.1609135 387.29806012 -272.1640625 390.19140625 C-271.75929688 391.38314453 -271.35453125 392.57488281 -270.9375 393.80273438 C-270.504375 395.04345703 -270.07125 396.28417969 -269.625 397.5625 C-269.19960938 398.80708984 -268.77421875 400.05167969 -268.3359375 401.33398438 C-267.54719182 403.63906867 -266.75415769 405.94269293 -265.95556641 408.24438477 C-265.291703 410.15880128 -264.64075777 412.07772669 -264 414 C-263.01 415.485 -263.01 415.485 -262 417 C-247.85881001 411.84953464 -233.9160165 406.19942493 -219.95361328 400.58789062 C-213.74302233 398.09248077 -207.52749309 395.60942193 -201.3125 393.125 C-198.82157976 392.12899319 -196.33068232 391.13292974 -193.83984375 390.13671875 C-193.21020721 389.88490341 -192.58057068 389.63308807 -191.93185425 389.37364197 C-187.79942226 387.72062358 -183.667794 386.0656092 -179.53660583 384.40948486 C-176.54392269 383.20988587 -173.55094686 382.01101805 -170.55795288 380.81219482 C-169.15630673 380.25056445 -167.75478616 379.68862051 -166.35342407 379.12628174 C-153.13036177 373.82036976 -139.86670186 368.61859584 -126.60327148 363.4145813 C-120.98019503 361.20705993 -115.35930044 358.99400318 -109.73828125 356.78125 C-86.24085309 347.5351378 -62.73078127 338.32417714 -39.18115234 329.21170044 C-18.20785443 321.09509711 2.72869084 312.8860704 23.66143799 304.66555786 C33.59244286 300.76603889 43.52730143 296.87640054 53.46328735 292.98959351 C56.29875906 291.88037537 59.13413091 290.77090229 61.96948242 289.66137695 C70.64956062 286.26497967 79.33036712 282.87046234 88.01281738 279.48013306 C109.16118649 271.22180695 130.29463809 262.93378362 151.35888672 254.46289062 C157.27320869 252.08669261 163.19192548 249.72149813 169.11032104 247.35546875 C172.75342507 245.89891302 176.39622529 244.44159787 180.0390625 242.984375 C181.62271992 242.35090788 183.20637883 241.71744447 184.79003906 241.08398438 C185.62329712 240.75068115 186.45655518 240.41737793 187.31506348 240.07397461 C221.80175781 226.27929687 221.80175781 226.27929687 224.83959961 225.06420898 C226.83590109 224.26565603 228.83215814 223.46699198 230.82836914 222.66821289 C236.22272949 220.5098527 241.61808207 218.35401102 247.01464844 216.20117188 C248.16532806 215.74180237 249.31600769 215.28243286 250.5015564 214.80914307 C252.72590615 213.92119369 254.95052579 213.03392002 257.17544556 212.1473999 C258.6690712 211.55091644 258.6690712 211.55091644 260.19287109 210.94238281 C261.07462006 210.59073059 261.95636902 210.23907837 262.86483765 209.87677002 C265.00066276 209.03047708 265.00066276 209.03047708 267 208 C265.67554915 201.37105659 263.78331885 195.24709958 261.375 188.9375 C261.05015625 188.07189453 260.7253125 187.20628906 260.390625 186.31445312 C259.59908318 184.20755504 258.80216278 182.10287198 258 180 C253.17406851 178.83389443 250.45567168 179.21428273 245.90234375 181.125 C244.77119141 181.58390625 243.64003906 182.0428125 242.47460938 182.515625 C240.72374023 183.25039063 240.72374023 183.25039063 238.9375 184 C236.61817192 184.97010971 234.29408989 185.92895137 231.96484375 186.875 C230.9399585 187.30554688 229.91507324 187.73609375 228.85913086 188.1796875 C225.64044618 189.1031595 224.07916424 189.34360546 221 188 C219.54614258 185.47143555 219.54614258 185.47143555 218.39453125 182.13671875 C217.75547852 180.34137695 217.75547852 180.34137695 217.10351562 178.50976562 C216.67246526 177.23591773 216.24213374 175.96182638 215.8125 174.6875 C215.37238375 173.42445217 214.93034694 172.16207182 214.48632812 170.90039062 C213.6691474 168.57610407 212.8613046 166.24849932 212.06567383 163.91674805 C211.18084727 161.49497877 210.2156283 159.26841542 209 157 C201.02651533 157.61334497 193.97535481 160.96709481 186.62890625 163.9375 C185.59378906 164.34226562 184.55867188 164.74703125 183.4921875 165.1640625 C182.55745605 165.53998535 181.62272461 165.9159082 180.65966797 166.30322266 C177.60147019 167.10440647 175.94900266 167.14485878 173 166 C171.76147461 164.1015625 171.76147461 164.1015625 170.90234375 161.625 C170.41217773 160.26955078 170.41217773 160.26955078 169.91210938 158.88671875 C169.59048828 157.93410156 169.26886719 156.98148438 168.9375 156 C168.28240038 154.14496543 167.62486556 152.29078896 166.96484375 150.4375 C166.64628418 149.53257812 166.32772461 148.62765625 165.99951172 147.6953125 C164.52171743 143.71024924 162.79327647 139.85165114 161 136 C157.32078871 136 154.53999137 137.22127551 151.1875 138.578125 Z M230.796875 265.60546875 C230.09534805 265.88057785 229.39382111 266.15568695 228.67103577 266.43913269 C226.36080408 267.34731584 224.05550126 268.26738193 221.75 269.1875 C220.12099724 269.8303769 218.4916791 270.47245519 216.86206055 271.11376953 C212.69504859 272.75562426 208.53178769 274.40677514 204.36932373 276.06011963 C200.82290562 277.46693826 197.2730302 278.86491951 193.72265625 280.26171875 C192.40266494 280.78115761 191.08267794 281.30060744 189.76269531 281.82006836 C189.11288696 282.07577606 188.46307861 282.33148376 187.7935791 282.59494019 C185.78099879 283.38740376 183.76885299 284.18096102 181.75683594 284.97485352 C155.77195653 295.22663584 129.73173378 305.33766214 103.6875 315.4375 C102.65808289 315.83670654 101.62866577 316.23591309 100.5680542 316.6472168 C89.58963299 320.90385333 78.60866677 325.15375746 67.62109375 329.38671875 C48.05165073 336.92732108 28.51068115 344.53252472 9.01538086 352.26293945 C-5.01954599 357.82762488 -19.07007929 363.35188154 -33.12503052 368.86578369 C-49.84101077 375.42401593 -66.55334819 381.98810848 -83.21655273 388.67944336 C-110.94001325 399.80783307 -138.75835903 410.70019277 -166.5625 421.625 C-167.75155945 422.09226501 -168.9406189 422.55953003 -170.16571045 423.04095459 C-172.48976189 423.95410852 -174.81393727 424.86694711 -177.13824463 425.77944946 C-179.35309162 426.64949477 -181.56742135 427.5208582 -183.78118896 428.39364624 C-188.71111461 430.33425155 -193.64610441 432.25196971 -198.61279297 434.09667969 C-199.46099106 434.4149472 -200.30918915 434.73321472 -201.18309021 435.06112671 C-202.7381262 435.64250662 -204.29660106 436.21480611 -205.85902405 436.77603149 C-207.60691566 437.43258342 -209.31015592 438.20588885 -211 439 C-212.22161981 442.66485943 -211.63582194 443.82975592 -210.41796875 447.4375 C-210.06283203 448.49710938 -209.70769531 449.55671875 -209.34179688 450.6484375 C-208.96087891 451.75445313 -208.57996094 452.86046875 -208.1875 454 C-207.81818359 455.10601563 -207.44886719 456.21203125 -207.06835938 457.3515625 C-205.05810161 463.42391287 -205.05810161 463.42391287 -202 469 C-196.11428488 468.36244727 -190.96497656 466.21721226 -185.50390625 464.0625 C-184.47933823 463.66353516 -183.4547702 463.26457031 -182.39915466 462.85351562 C-179.1181279 461.57441888 -175.84029541 460.28735167 -172.5625 459 C-170.42403428 458.16483653 -168.28536411 457.33019636 -166.14648438 456.49609375 C-160.81501087 454.41541444 -155.48611665 452.32822386 -150.15817261 450.23852539 C-136.71900069 444.96814985 -123.27751473 439.70404886 -109.8125 434.5 C-108.53473643 434.00573001 -107.25698637 433.51142508 -105.97924805 433.01708984 C-98.153984 429.99018152 -90.32706246 426.96756673 -82.5 423.9453125 C-46.89203264 410.19556272 -11.30930552 396.38594392 24.1953125 382.37109375 C24.99550812 382.0552533 25.79570374 381.73941284 26.62014771 381.41400146 C30.70250096 379.80247792 34.78445947 378.18996592 38.86572266 376.57568359 C46.42851082 373.58548366 53.9952726 370.60695719 61.578125 367.66796875 C62.89456856 367.15634599 64.21097592 366.64463009 65.52734375 366.1328125 C67.95010615 365.19218072 70.37450834 364.25575808 72.80078125 363.32421875 C74.39212891 362.70546875 74.39212891 362.70546875 76.015625 362.07421875 C76.93633789 361.71932373 77.85705078 361.36442871 78.80566406 360.9987793 C81.14491815 360.088845 81.14491815 360.088845 83 358 C83.99 358 84.98 358 86 358 C88.04100923 357.31000744 90.06071171 356.5562954 92.06640625 355.76953125 C93.27490234 355.29580078 94.48339844 354.82207031 95.72851562 354.33398438 C96.35927002 354.08350342 96.99002441 353.83302246 97.63989258 353.57495117 C99.5286545 352.82592216 101.42118431 352.08715976 103.31445312 351.34960938 C108.75447865 349.20412551 114.09003481 347.02997916 119.27734375 344.32421875 C123.21040231 342.29043196 127.05547868 341.0013758 131.31054688 339.81445312 C136.75743895 338.16495857 141.98409691 335.89653359 147.25 333.75 C149.91449484 332.6723212 152.5803451 331.59801044 155.24609375 330.5234375 C155.94482101 330.24130402 156.64354828 329.95917053 157.3634491 329.66848755 C165.18074274 326.51545749 173.02324834 323.42684471 180.86642456 320.33889771 C183.30303709 319.37872894 185.73870819 318.41621137 188.17407227 317.45288086 C194.77617382 314.84215799 201.37773341 312.23166609 208.00392151 309.68255615 C209.80447686 308.98899929 211.60284283 308.28976676 213.40112305 307.59033203 C215.52376143 306.76499295 217.65002299 305.94888527 219.78051758 305.14404297 C221.16339966 304.60287842 221.16339966 304.60287842 222.57421875 304.05078125 C223.36401123 303.74825439 224.15380371 303.44572754 224.9675293 303.1340332 C229.62276435 300.53660776 231.17210846 295.68084187 233.13671875 290.96875 C233.42102249 290.29581909 233.70532623 289.62288818 233.99824524 288.92956543 C234.59515185 287.51200597 235.18918984 286.09323556 235.78051758 284.67333984 C236.68608103 282.50340018 237.6051261 280.33952037 238.52539062 278.17578125 C239.10499026 276.79461616 239.68379367 275.41311662 240.26171875 274.03125 C240.53666672 273.3863562 240.81161469 272.7414624 241.09489441 272.07702637 C242.46569086 268.7541706 243 266.66926103 243 263 C238.47103808 262.64020753 234.92447295 263.94054971 230.796875 265.60546875 Z " fill="#060605" transform="translate(511,206)"/>
<path d="M0 0 C1.62854189 2.69856589 2.49673232 5.63420608 3.453125 8.625 C3.75510803 9.51138153 4.05709106 10.39776306 4.3682251 11.31100464 C5.34833134 14.20117531 6.29933014 17.10002794 7.25 20 C7.91265456 21.97481319 8.5773712 23.94893562 9.24414062 25.92236328 C10.23870504 28.86710944 11.23169074 31.81227765 12.21655273 34.76028442 C14.06544595 40.28765095 15.97437839 45.78292296 18.015625 51.2421875 C18.44327148 52.38945313 18.87091797 53.53671875 19.31152344 54.71875 C20.08247774 56.76618164 20.86131333 58.81066953 21.64941406 60.8515625 C21.98166992 61.74359375 22.31392578 62.635625 22.65625 63.5546875 C22.94306641 64.30218262 23.22988281 65.04967773 23.52539062 65.81982422 C24.12623951 68.57989653 23.92357801 70.33423701 23 73 C21.42456055 74.13085938 21.42456055 74.13085938 19.38671875 74.84375 C18.63865967 75.11832031 17.89060059 75.39289063 17.11987305 75.67578125 C16.31718994 75.94777344 15.51450684 76.21976563 14.6875 76.5 C13.04107889 77.09211818 11.39524587 77.68587411 9.75 78.28125 C8.94046875 78.56871094 8.1309375 78.85617187 7.296875 79.15234375 C3.26479133 80.64037463 -0.6185828 82.44869624 -4.51953125 84.25 C-7.54269655 85.16409092 -9.06025978 85.16617794 -12 84 C-14.47454748 80.41886219 -15.99156631 76.69438597 -17.48364258 72.62084961 C-17.71162537 72.00231613 -17.93960815 71.38378265 -18.17449951 70.74650574 C-18.92036073 68.7172044 -19.65810873 66.68508791 -20.39453125 64.65234375 C-20.91067753 63.23416828 -21.42684712 61.8160013 -21.94303894 60.39784241 C-23.02037658 57.43294519 -24.09287166 54.46634256 -25.1628418 51.4987793 C-26.53549469 47.69497479 -27.92708494 43.89839446 -29.32321644 40.10315609 C-30.39459389 37.18062153 -31.45234606 34.25329236 -32.5063839 31.3244648 C-33.01371889 29.92200357 -33.52611893 28.52136392 -34.04364967 27.12263298 C-34.76466006 25.16987422 -35.46619837 23.21114335 -36.16333008 21.24975586 C-36.56731522 20.1367662 -36.97130035 19.02377655 -37.38752747 17.87705994 C-38 15 -38 15 -37.2328186 12.67970276 C-35.64772578 10.52002997 -34.31068617 9.9509094 -31.81640625 9 C-30.97601807 8.67185303 -30.13562988 8.34370605 -29.26977539 8.00561523 C-28.37637451 7.67376221 -27.48297363 7.34190918 -26.5625 7 C-25.65685303 6.65332275 -24.75120605 6.30664551 -23.81811523 5.94946289 C-22.02426001 5.2651326 -20.2281542 4.58666838 -18.4296875 3.91455078 C-16.41196144 3.15506507 -14.40723049 2.36116092 -12.40625 1.55859375 C-11.4678125 1.18863281 -10.529375 0.81867187 -9.5625 0.4375 C-8.78003906 0.12683594 -7.99757813 -0.18382812 -7.19140625 -0.50390625 C-4.20516629 -1.17993562 -2.86791451 -1.1900094 0 0 Z " fill="#080807" transform="translate(517,708)"/>
<path d="M0 0 C1.37812808 2.55599847 2.3253243 4.79047263 3.25390625 7.51171875 C3.54294327 8.30551437 3.83198029 9.09931 4.129776 9.91716003 C4.76402171 11.66695951 5.38886124 13.42018883 6.00567627 15.1762085 C7.03265287 18.09273127 8.08888088 20.99729518 9.15185547 23.90087891 C11.05783868 29.1217828 12.93135175 34.35358592 14.79125977 39.59106445 C15.95289889 42.8557776 17.125849 46.11629978 18.29882812 49.37695312 C19.0423613 51.46589872 19.78522541 53.55508261 20.52734375 55.64453125 C20.87723862 56.61219925 21.22713348 57.57986725 21.58763123 58.57685852 C22.06426964 59.9306385 22.06426964 59.9306385 22.55053711 61.31176758 C22.83142685 62.09908768 23.11231659 62.88640778 23.40171814 63.69758606 C24.05573628 66.21449422 24.10629747 68.41038456 24 71 C19.7427768 72.7249094 15.47899015 74.43200137 11.20800781 76.12255859 C9.73690482 76.707161 8.26748932 77.29602795 6.79980469 77.88916016 C4.6629256 78.75108253 2.51993161 79.59584966 0.375 80.4375 C-0.28693359 80.70836426 -0.94886719 80.97922852 -1.63085938 81.25830078 C-4.34794871 82.30884377 -6.79852482 82.98809729 -9.7109375 83.16015625 C-15.45290705 80.24997714 -17.64298101 69.86622644 -19.71484375 64.05078125 C-20.05246231 63.11630661 -20.39008087 62.18183197 -20.7379303 61.21903992 C-21.80906702 58.25183147 -22.87359119 55.28230681 -23.9375 52.3125 C-24.99652401 49.36807952 -26.05696333 46.42417596 -27.11856079 43.48068237 C-27.80277781 41.58287141 -28.48555915 39.68454217 -29.1668396 37.78567505 C-31.37604186 31.6485458 -33.6989411 25.57680657 -36.18969727 19.54760742 C-37.07996191 16.74859822 -37.54025843 14.90219228 -37 12 C-31.75176431 7.88540264 -24.68717293 6.05796545 -18.5 3.75 C-16.66501953 3.04230469 -16.66501953 3.04230469 -14.79296875 2.3203125 C-13.61347656 1.87945313 -12.43398438 1.43859375 -11.21875 0.984375 C-9.6090332 0.37674316 -9.6090332 0.37674316 -7.96679688 -0.24316406 C-4.66112992 -1.08644645 -3.10332364 -1.46606756 0 0 Z " fill="#080807" transform="translate(675,647)"/>
<path d="M0 0 C1.11621094 1.9050293 1.11621094 1.9050293 1.984375 4.38671875 C2.31373047 5.29212402 2.64308594 6.1975293 2.98242188 7.13037109 C3.31822266 8.07734863 3.65402344 9.02432617 4 10 C4.70739218 11.80060513 5.4209032 13.59881884 6.140625 15.39453125 C6.84463145 17.20017741 7.54775441 19.00616828 8.25 20.8125 C8.61351562 21.72708984 8.97703125 22.64167969 9.3515625 23.58398438 C9.69445312 24.47021484 10.03734375 25.35644531 10.390625 26.26953125 C10.70032227 27.05948486 11.01001953 27.84943848 11.32910156 28.66333008 C12.06035529 31.21021125 12.12029825 33.36365811 12 36 C-0.39611583 41.18278486 -12.88517666 46.08441445 -25.4375 50.875 C-28.08486631 51.88682442 -30.7319911 52.89927036 -33.37867737 53.91287231 C-35.00645206 54.53612697 -36.63463899 55.15830632 -38.26329041 55.77926636 C-42.18613301 57.26298148 -42.18613301 57.26298148 -46 59 C-48.9375 59.3125 -48.9375 59.3125 -52 59 C-54.51316312 56.26694 -55.74671517 53.44567295 -56.97265625 49.97265625 C-57.31490234 49.01552734 -57.65714844 48.05839844 -58.00976562 47.07226562 C-58.35716797 46.07904297 -58.70457031 45.08582031 -59.0625 44.0625 C-59.76111614 42.09483802 -60.46031565 40.12738305 -61.16015625 38.16015625 C-61.46574463 37.29011963 -61.77133301 36.42008301 -62.08618164 35.52368164 C-62.96733391 32.97051595 -62.96733391 32.97051595 -64.17749023 30.48999023 C-65.17459355 27.47145158 -65.16143038 25.95772224 -64 23 C-62.08813477 21.74316406 -62.08813477 21.74316406 -59.37890625 20.765625 C-58.29109863 20.35376953 -57.20329102 19.94191406 -56.08251953 19.51757812 C-55.44727356 19.28401611 -54.81202759 19.0504541 -54.15753174 18.80981445 C-50.75340209 17.53209819 -47.38953547 16.15646697 -44.01889038 14.79333496 C-41.04726818 13.59216538 -38.07210445 12.40021174 -35.09570312 11.2109375 C-30.954484 9.55616669 -26.81387425 7.89989087 -22.67382812 6.2421875 C-20.68754428 5.44780594 -18.70121772 4.65353117 -16.71484375 3.859375 C-15.78365219 3.48649353 -14.85246063 3.11361206 -13.89305115 2.72943115 C-13.0310762 2.38527161 -12.16910126 2.04111206 -11.28100586 1.68652344 C-10.52444199 1.38405701 -9.76787811 1.08159058 -8.98838806 0.7699585 C-3.30852613 -1.42944012 -3.30852613 -1.42944012 0 0 Z " fill="#080808" transform="translate(517,441)"/>
<path d="M0 0 C1.34619141 2.15795898 1.34619141 2.15795898 2.3515625 4.99609375 C2.72796875 6.03056641 3.104375 7.06503906 3.4921875 8.13085938 C3.86601563 9.22205078 4.23984375 10.31324219 4.625 11.4375 C5.0065625 12.49388672 5.388125 13.55027344 5.78125 14.63867188 C8.065861 21.03164368 10.12256365 27.47641042 12 34 C5.30718949 38.56066054 -1.63861974 41.49077796 -9.1875 44.375 C-10.34958984 44.83777344 -11.51167969 45.30054688 -12.70898438 45.77734375 C-13.82982422 46.20917969 -14.95066406 46.64101563 -16.10546875 47.0859375 C-17.11762451 47.4782959 -18.12978027 47.8706543 -19.17260742 48.27490234 C-22.27299244 49.07001015 -23.99531636 49.07159816 -27 48 C-28.58984375 45.18359375 -28.58984375 45.18359375 -29.9375 41.4375 C-30.18056885 40.77580811 -30.4236377 40.11411621 -30.67407227 39.43237305 C-31.19114424 38.02303361 -31.70061319 36.61088546 -32.203125 35.19628906 C-33.00948873 32.97384786 -33.87030974 30.78029761 -34.75 28.5859375 C-35.31277907 27.16156856 -35.87528683 25.7370924 -36.4375 24.3125 C-36.70876709 23.64210693 -36.98003418 22.97171387 -37.25952148 22.28100586 C-38.24344564 19.71928089 -39.00593603 17.49269049 -38.97265625 14.73046875 C-35.88529629 9.23769582 -26.44854704 7.20019576 -20.93457031 5.01904297 C-19.00065772 4.25026146 -17.07478366 3.46329668 -15.1484375 2.67578125 C-13.31152344 1.94681641 -13.31152344 1.94681641 -11.4375 1.203125 C-10.32246094 0.75614258 -9.20742188 0.30916016 -8.05859375 -0.15136719 C-4.7751412 -1.06238898 -3.13941188 -1.32863298 0 0 Z " fill="#0A0A0A" transform="translate(657,388)"/>
<path d="M0 0 C3.25210442 7.3734349 6.16312038 14.87313643 8.9375 22.4375 C9.43358765 23.73349121 9.43358765 23.73349121 9.93969727 25.05566406 C10.23674561 25.88163086 10.53379395 26.70759766 10.83984375 27.55859375 C11.24771118 28.66158813 11.24771118 28.66158813 11.66381836 29.78686523 C12.13474872 32.88707126 11.63368405 34.32546387 10 37 C7.20605469 38.57739258 7.20605469 38.57739258 3.671875 39.89453125 C3.04524963 40.13161301 2.41862427 40.36869476 1.77301025 40.61296082 C0.44814557 41.10977993 -0.88013155 41.59758045 -2.21142578 42.0769043 C-4.23689538 42.80777135 -6.24924251 43.56815957 -8.26171875 44.33398438 C-19.00048379 48.32526811 -19.00048379 48.32526811 -25 48 C-28.25979292 40.60913311 -31.14068259 33.09861101 -33.875 25.5 C-34.35851929 24.19144043 -34.35851929 24.19144043 -34.85180664 22.85644531 C-35.14563232 22.02725586 -35.43945801 21.19806641 -35.7421875 20.34375 C-36.0088623 19.60318359 -36.27553711 18.86261719 -36.55029297 18.09960938 C-37.0933687 15.56407665 -37.13928651 14.34601879 -36 12 C-33.67089844 10.65966797 -33.67089844 10.65966797 -30.609375 9.4921875 C-29.50722656 9.06292969 -28.40507812 8.63367188 -27.26953125 8.19140625 C-26.10808594 7.75699219 -24.94664062 7.32257813 -23.75 6.875 C-22.60402344 6.43285156 -21.45804687 5.99070312 -20.27734375 5.53515625 C-18.13649799 4.71022034 -15.99317128 3.89167484 -13.84667969 3.08154297 C-11.99641859 2.3785707 -10.15840057 1.64215822 -8.33691406 0.86767578 C-5.46334574 -0.19925504 -3.03980876 -0.14138645 0 0 Z " fill="#0A0A0A" transform="translate(352,503)"/>
<path d="M0 0 C3.46941546 0.45822468 6.67395049 0.89131683 10 2 C6.21812119 3.83691257 4.05431692 4.15837626 0 3 C0 2.01 0 1.02 0 0 Z " fill="#4D4C4B" transform="translate(568,255)"/>
<path d="M0 0 C0.598125 0.20625 1.19625 0.4125 1.8125 0.625 C2.1425 2.275 2.4725 3.925 2.8125 5.625 C2.4825 4.965 2.1525 4.305 1.8125 3.625 C-0.5015622 2.89424352 -2.83578869 2.22361742 -5.1875 1.625 C-2.1875 -0.375 -2.1875 -0.375 0 0 Z " fill="#4B4948" transform="translate(521.1875,243.375)"/>
<path d="M0 0 C1.98 0.495 1.98 0.495 4 1 C2.35 1.33 0.7 1.66 -1 2 C-0.67 1.34 -0.34 0.68 0 0 Z " fill="#282625" transform="translate(460,536)"/>
<path d="M0 0 C0.66 1.32 1.32 2.64 2 4 C1.34 3.67 0.68 3.34 0 3 C0 2.01 0 1.02 0 0 Z " fill="#3F3E3C" transform="translate(401,824)"/>
<path d="M0 0 C0.99 0 1.98 0 3 0 C3 0.66 3 1.32 3 2 C2.01 2 1.02 2 0 2 C0 1.34 0 0.68 0 0 Z " fill="#2A2927" transform="translate(392,562)"/>
<path d="M0 0 C1.32 0.33 2.64 0.66 4 1 C3.01 1.33 2.02 1.66 1 2 C0.67 1.34 0.34 0.68 0 0 Z " fill="#292A28" transform="translate(398,560)"/>
<path d="M0 0 C0.33 0.66 0.66 1.32 1 2 C0.34 2.66 -0.32 3.32 -1 4 C-0.67 2.68 -0.34 1.36 0 0 Z " fill="#353433" transform="translate(617,400)"/>
<path d="M0 0 C1.32 0.33 2.64 0.66 4 1 C3.01 1.495 3.01 1.495 2 2 C1.34 1.34 0.68 0.68 0 0 Z " fill="#2A2A29" transform="translate(485,368)"/>
<path d="M0 0 C0.66 1.32 1.32 2.64 2 4 C1.34 4 0.68 4 0 4 C0 2.68 0 1.36 0 0 Z " fill="#262423" transform="translate(585,318)"/>
<path d="M0 0 C0.99 0.495 0.99 0.495 2 1 C2 1.66 2 2.32 2 3 C1.34 3 0.68 3 0 3 C0 2.01 0 1.02 0 0 Z " fill="#40403E" transform="translate(558,224)"/>
<path d="M0 0 C0.99 0.33 1.98 0.66 3 1 C2.01 1.33 1.02 1.66 0 2 C0 1.34 0 0.68 0 0 Z " fill="#2A2827" transform="translate(311,672)"/>
<path d="M0 0 C0.99 0.33 1.98 0.66 3 1 C2.01 1 1.02 1 0 1 C0 0.67 0 0.34 0 0 Z " fill="#242221" transform="translate(597,560)"/>
<path d="M0 0 C1.485 0.99 1.485 0.99 3 2 C2.01 2 1.02 2 0 2 C0 1.34 0 0.68 0 0 Z " fill="#292927" transform="translate(432,544)"/>
<path d="M0 0 C0.99 0.33 1.98 0.66 3 1 C2.01 1 1.02 1 0 1 C0 0.67 0 0.34 0 0 Z " fill="#232221" transform="translate(708,486)"/>
<path d="M0 0 C0.99 0.33 1.98 0.66 3 1 C2.01 1 1.02 1 0 1 C0 0.67 0 0.34 0 0 Z " fill="#312F2F" transform="translate(272,447)"/>
<path d="M0 0 C0.99 0.33 1.98 0.66 3 1 C2.01 1.33 1.02 1.66 0 2 C0 1.34 0 0.68 0 0 Z " fill="#2B2A2A" transform="translate(367,416)"/>
<path d="M0 0 C4 1 4 1 4 1 Z " fill="#2A2827" transform="translate(569,383)"/>
<path d="M0 0 C1.485 0.99 1.485 0.99 3 2 C2.01 2 1.02 2 0 2 C0 1.34 0 0.68 0 0 Z " fill="#292927" transform="translate(480,370)"/>
<path d="" fill="#2B2928" transform="translate(0,0)"/>
<path d="" fill="#2D2C29" transform="translate(0,0)"/>
<path d="" fill="#242221" transform="translate(0,0)"/>
<path d="M0 0 C3 1 3 1 3 1 Z " fill="#2B2A28" transform="translate(257,661)"/>
<path d="M0 0 C3 1 3 1 3 1 Z " fill="#252525" transform="translate(413,632)"/>
<path d="M0 0 C0.66 0 1.32 0 2 0 C1.67 0.66 1.34 1.32 1 2 C0.67 1.34 0.34 0.68 0 0 Z " fill="#282625" transform="translate(364,622)"/>
<path d="" fill="#292625" transform="translate(0,0)"/>
<path d="M0 0 C0.66 0.66 1.32 1.32 2 2 C1.34 2 0.68 2 0 2 C0 1.34 0 0.68 0 0 Z " fill="#242423" transform="translate(514,593)"/>
<path d="M0 0 C3 1 3 1 3 1 Z " fill="#242524" transform="translate(517,592)"/>
<path d="M0 0 C0.99 0.495 0.99 0.495 2 1 C1.01 1.495 1.01 1.495 0 2 C0 1.34 0 0.68 0 0 Z " fill="#252422" transform="translate(535,585)"/>
<path d="" fill="#242423" transform="translate(0,0)"/>
<path d="M0 0 C0.66 0.66 1.32 1.32 2 2 C1.34 2 0.68 2 0 2 C0 1.34 0 0.68 0 0 Z " fill="#292725" transform="translate(352,578)"/>
<path d="M0 0 C3 1 3 1 3 1 Z " fill="#292726" transform="translate(559,576)"/>
<path d="M0 0 C3 1 3 1 3 1 Z " fill="#292926" transform="translate(432,547)"/>
<path d="M0 0 C0.33 0.66 0.66 1.32 1 2 C0.34 1.67 -0.32 1.34 -1 1 C-0.67 0.67 -0.34 0.34 0 0 Z " fill="#262624" transform="translate(714,514)"/>
<path d="M0 0 C3 1 3 1 3 1 Z " fill="#282928" transform="translate(720,512)"/>
<path d="M0 0 C0.66 0.66 1.32 1.32 2 2 C1.34 2 0.68 2 0 2 C0 1.34 0 0.68 0 0 Z " fill="#2B2A29" transform="translate(503,441)"/>
<path d="M0 0 C0.66 0 1.32 0 2 0 C1.67 0.66 1.34 1.32 1 2 C0.67 1.34 0.34 0.68 0 0 Z " fill="#282826" transform="translate(321,432)"/>
<path d="" fill="#32302E" transform="translate(0,0)"/>
<path d="M0 0 C3 1 3 1 3 1 Z " fill="#2B2B2A" transform="translate(403,400)"/>
<path d="" fill="#373633" transform="translate(0,0)"/>
<path d="M0 0 C0.99 0.495 0.99 0.495 2 1 C1.01 1.495 1.01 1.495 0 2 C0 1.34 0 0.68 0 0 Z " fill="#3A3A39" transform="translate(325,312)"/>
<path d="M0 0 C0.33 0.66 0.66 1.32 1 2 C0.34 1.67 -0.32 1.34 -1 1 C-0.67 0.67 -0.34 0.34 0 0 Z " fill="#2B2A28" transform="translate(527,233)"/>
<path d="" fill="#32302F" transform="translate(0,0)"/>
<path d="" fill="#2A2A28" transform="translate(0,0)"/>
<path d="" fill="#242323" transform="translate(0,0)"/>
<path d="" fill="#2A2827" transform="translate(0,0)"/>
<path d="M0 0 C2 1 2 1 2 1 Z " fill="#2D2D2D" transform="translate(438,743)"/>
<path d="" fill="#222320" transform="translate(0,0)"/>
<path d="" fill="#2D2D2B" transform="translate(0,0)"/>
<path d="M0 0 C2 1 2 1 2 1 Z " fill="#2E2C2A" transform="translate(400,724)"/>
<path d="" fill="#2F302D" transform="translate(0,0)"/>
<path d="" fill="#2F2E2D" transform="translate(0,0)"/>
<path d="" fill="#2B2929" transform="translate(0,0)"/>
<path d="M0 0 C2 1 2 1 2 1 Z " fill="#252325" transform="translate(372,695)"/>
<path d="" fill="#3D3B38" transform="translate(0,0)"/>
<path d="" fill="#292625" transform="translate(0,0)"/>
<path d="" fill="#403F3D" transform="translate(0,0)"/>
<path d="" fill="#282726" transform="translate(0,0)"/>
<path d="M0 0 C2 1 2 1 2 1 Z " fill="#232523" transform="translate(374,648)"/>
<path d="M0 0 C2 1 2 1 2 1 Z " fill="#252425" transform="translate(368,648)"/>
<path d="M0 0 C2 1 2 1 2 1 Z " fill="#272424" transform="translate(499,646)"/>
<path d="" fill="#202220" transform="translate(0,0)"/>
<path d="" fill="#383634" transform="translate(0,0)"/>
<path d="M0 0 C2 1 2 1 2 1 Z " fill="#252624" transform="translate(340,631)"/>
<path d="" fill="#302F2D" transform="translate(0,0)"/>
<path d="" fill="#262623" transform="translate(0,0)"/>
<path d="M0 0 C2 1 2 1 2 1 Z " fill="#2A2827" transform="translate(255,618)"/>
<path d="" fill="#292926" transform="translate(0,0)"/>
<path d="M0 0 C2 1 2 1 2 1 Z " fill="#31302E" transform="translate(758,610)"/>
<path d="" fill="#282725" transform="translate(0,0)"/>
<path d="" fill="#393835" transform="translate(0,0)"/>
<path d="M0 0 C2 1 2 1 2 1 Z " fill="#302F2D" transform="translate(765,608)"/>
<path d="" fill="#2A2B28" transform="translate(0,0)"/>
<path d="" fill="#2B2A29" transform="translate(0,0)"/>
<path d="M0 0 C2 1 2 1 2 1 Z " fill="#2A2828" transform="translate(420,599)"/>
<path d="M0 0 C2 1 2 1 2 1 Z " fill="#272826" transform="translate(313,595)"/>
<path d="" fill="#252626" transform="translate(0,0)"/>
<path d="" fill="#2B2B29" transform="translate(0,0)"/>
<path d="M0 0 C2 1 2 1 2 1 Z " fill="#252525" transform="translate(512,592)"/>
<path d="" fill="#2A2928" transform="translate(0,0)"/>
<path d="M0 0 C2 1 2 1 2 1 Z " fill="#252524" transform="translate(539,584)"/>
<path d="M0 0 C2 1 2 1 2 1 Z " fill="#272425" transform="translate(681,575)"/>
<path d="M0 0 C2 1 2 1 2 1 Z " fill="#252322" transform="translate(481,575)"/>
<path d="" fill="#2A2727" transform="translate(0,0)"/>
<path d="M0 0 C2 1 2 1 2 1 Z " fill="#272626" transform="translate(577,569)"/>
<path d="" fill="#262524" transform="translate(0,0)"/>
<path d="" fill="#252422" transform="translate(0,0)"/>
<path d="M0 0 C2 1 2 1 2 1 Z " fill="#2D2C2C" transform="translate(600,560)"/>
<path d="M0 0 C2 1 2 1 2 1 Z " fill="#252323" transform="translate(593,560)"/>
<path d="" fill="#262524" transform="translate(0,0)"/>
<path d="M0 0 C2 1 2 1 2 1 Z " fill="#272625" transform="translate(608,552)"/>
<path d="M0 0 C2 1 2 1 2 1 Z " fill="#282725" transform="translate(421,552)"/>
<path d="M0 0 C2 1 2 1 2 1 Z " fill="#252523" transform="translate(549,548)"/>
<path d="M0 0 C2 1 2 1 2 1 Z " fill="#252424" transform="translate(439,545)"/>
<path d="M0 0 C2 1 2 1 2 1 Z " fill="#272828" transform="translate(436,544)"/>
<path d="M0 0 C2 1 2 1 2 1 Z " fill="#262523" transform="translate(586,534)"/>
<path d="" fill="#292726" transform="translate(0,0)"/>
<path d="" fill="#242523" transform="translate(0,0)"/>
<path d="" fill="#272725" transform="translate(0,0)"/>
<path d="" fill="#272825" transform="translate(0,0)"/>
<path d="M0 0 C2 1 2 1 2 1 Z " fill="#262624" transform="translate(502,520)"/>
<path d="M0 0 C2 1 2 1 2 1 Z " fill="#323231" transform="translate(336,505)"/>
<path d="M0 0 C2 1 2 1 2 1 Z " fill="#222120" transform="translate(665,503)"/>
<path d="" fill="#2F2E2D" transform="translate(0,0)"/>
<path d="M0 0 C2 1 2 1 2 1 Z " fill="#2A2627" transform="translate(484,495)"/>
<path d="" fill="#302F2E" transform="translate(0,0)"/>
<path d="" fill="#272524" transform="translate(0,0)"/>
<path d="M0 0 C2 1 2 1 2 1 Z " fill="#2A2A27" transform="translate(580,488)"/>
<path d="M0 0 C2 1 2 1 2 1 Z " fill="#2D2C2B" transform="translate(269,488)"/>
<path d="M0 0 C2 1 2 1 2 1 Z " fill="#2A2928" transform="translate(603,481)"/>
<path d="M0 0 C2 1 2 1 2 1 Z " fill="#2A2A28" transform="translate(640,464)"/>
<path d="M0 0 C2 1 2 1 2 1 Z " fill="#2F2E2C" transform="translate(636,438)"/>
<path d="" fill="#292725" transform="translate(0,0)"/>
<path d="M0 0 C2 1 2 1 2 1 Z " fill="#2B2C2A" transform="translate(736,426)"/>
<path d="" fill="#292827" transform="translate(0,0)"/>
<path d="M0 0 C2 1 2 1 2 1 Z " fill="#252524" transform="translate(508,407)"/>
<path d="" fill="#2B2B29" transform="translate(0,0)"/>
<path d="M0 0 C2 1 2 1 2 1 Z " fill="#2B2828" transform="translate(469,376)"/>
<path d="" fill="#2A2A28" transform="translate(0,0)"/>
<path d="M0 0 C2 1 2 1 2 1 Z " fill="#292728" transform="translate(507,360)"/>
<path d="M0 0 C2 1 2 1 2 1 Z " fill="#333331" transform="translate(300,360)"/>
<path d="M0 0 C2 1 2 1 2 1 Z " fill="#292926" transform="translate(521,355)"/>
<path d="" fill="#32312E" transform="translate(0,0)"/>
<path d="" fill="#302E2E" transform="translate(0,0)"/>
<path d="M0 0 C2 1 2 1 2 1 Z " fill="#2C2D2C" transform="translate(528,352)"/>
<path d="M0 0 C2 1 2 1 2 1 Z " fill="#3F3F3B" transform="translate(758,346)"/>
<path d="M0 0 C2 1 2 1 2 1 Z " fill="#262523" transform="translate(549,344)"/>
<path d="M0 0 C2 1 2 1 2 1 Z " fill="#2B2B29" transform="translate(540,344)"/>
<path d="M0 0 C2 1 2 1 2 1 Z " fill="#282727" transform="translate(568,336)"/>
<path d="" fill="#232223" transform="translate(0,0)"/>
<path d="" fill="#2B2928" transform="translate(0,0)"/>
<path d="" fill="#252423" transform="translate(0,0)"/>
<path d="M0 0 C2 1 2 1 2 1 Z " fill="#2E2C2C" transform="translate(420,287)"/>
<path d="" fill="#2B2A28" transform="translate(0,0)"/>
<path d="" fill="#3D3D39" transform="translate(0,0)"/>
<path d="" fill="#282626" transform="translate(0,0)"/>
<path d="M0 0 C2 1 2 1 2 1 Z " fill="#393736" transform="translate(395,248)"/>
<path d="M0 0 C2 1 2 1 2 1 Z " fill="#383835" transform="translate(410,242)"/>
<path d="" fill="#383735" transform="translate(0,0)"/>
<path d="" fill="#464443" transform="translate(0,0)"/>
<path d="" fill="#464945" transform="translate(0,0)"/>
<path d="" fill="#464443" transform="translate(0,0)"/>
<path d="" fill="#393736" transform="translate(0,0)"/>
<path d="" fill="#302F2F" transform="translate(0,0)"/>
<path d="" fill="#3D3C3A" transform="translate(0,0)"/>
<path d="" fill="#2D2F2B" transform="translate(0,0)"/>
<path d="" fill="#2D2B2B" transform="translate(0,0)"/>
<path d="" fill="#373634" transform="translate(0,0)"/>
<path d="" fill="#2D2B2A" transform="translate(0,0)"/>
<path d="" fill="#373734" transform="translate(0,0)"/>
<path d="" fill="#2A2B28" transform="translate(0,0)"/>
<path d="" fill="#2C2C2E" transform="translate(0,0)"/>
<path d="" fill="#312F2F" transform="translate(0,0)"/>
<path d="" fill="#2F2F2C" transform="translate(0,0)"/>
<path d="" fill="#2D2C2A" transform="translate(0,0)"/>
<path d="" fill="#232322" transform="translate(0,0)"/>
<path d="" fill="#333130" transform="translate(0,0)"/>
<path d="" fill="#292A27" transform="translate(0,0)"/>
<path d="" fill="#201F1D" transform="translate(0,0)"/>
<path d="" fill="#292B27" transform="translate(0,0)"/>
<path d="" fill="#2C2B29" transform="translate(0,0)"/>
<path d="" fill="#2B2C27" transform="translate(0,0)"/>
<path d="" fill="#2A2B2A" transform="translate(0,0)"/>
<path d="" fill="#252525" transform="translate(0,0)"/>
<path d="" fill="#2B2B29" transform="translate(0,0)"/>
<path d="" fill="#2B2C28" transform="translate(0,0)"/>
<path d="" fill="#3B3C39" transform="translate(0,0)"/>
<path d="" fill="#2C2B29" transform="translate(0,0)"/>
<path d="" fill="#21201F" transform="translate(0,0)"/>
<path d="" fill="#343534" transform="translate(0,0)"/>
<path d="" fill="#242525" transform="translate(0,0)"/>
<path d="" fill="#262824" transform="translate(0,0)"/>
<path d="" fill="#272424" transform="translate(0,0)"/>
<path d="" fill="#242322" transform="translate(0,0)"/>
<path d="" fill="#2A2A26" transform="translate(0,0)"/>
<path d="" fill="#3D3C39" transform="translate(0,0)"/>
<path d="" fill="#2E2B2A" transform="translate(0,0)"/>
<path d="" fill="#2F2F2A" transform="translate(0,0)"/>
<path d="" fill="#3B3D39" transform="translate(0,0)"/>
<path d="" fill="#363532" transform="translate(0,0)"/>
<path d="" fill="#2C2C2B" transform="translate(0,0)"/>
<path d="" fill="#2D2C2D" transform="translate(0,0)"/>
<path d="" fill="#393736" transform="translate(0,0)"/>
<path d="" fill="#2E2D2A" transform="translate(0,0)"/>
<path d="" fill="#2B2C29" transform="translate(0,0)"/>
<path d="" fill="#2E2D2B" transform="translate(0,0)"/>
<path d="" fill="#2B2C2A" transform="translate(0,0)"/>
<path d="" fill="#272724" transform="translate(0,0)"/>
<path d="" fill="#2B2A29" transform="translate(0,0)"/>
<path d="" fill="#22211F" transform="translate(0,0)"/>
<path d="" fill="#2E3030" transform="translate(0,0)"/>
<path d="" fill="#24211F" transform="translate(0,0)"/>
<path d="" fill="#272526" transform="translate(0,0)"/>
<path d="" fill="#232221" transform="translate(0,0)"/>
<path d="" fill="#252324" transform="translate(0,0)"/>
<path d="" fill="#2A2725" transform="translate(0,0)"/>
<path d="" fill="#282725" transform="translate(0,0)"/>
<path d="" fill="#3E3D3A" transform="translate(0,0)"/>
<path d="" fill="#3E3E3D" transform="translate(0,0)"/>
<path d="" fill="#222321" transform="translate(0,0)"/>
<path d="" fill="#252422" transform="translate(0,0)"/>
<path d="" fill="#32302E" transform="translate(0,0)"/>
<path d="" fill="#393737" transform="translate(0,0)"/>
<path d="" fill="#2C2D29" transform="translate(0,0)"/>
<path d="" fill="#393938" transform="translate(0,0)"/>
<path d="" fill="#2E2C2A" transform="translate(0,0)"/>
<path d="" fill="#353334" transform="translate(0,0)"/>
<path d="" fill="#393A35" transform="translate(0,0)"/>
<path d="" fill="#262522" transform="translate(0,0)"/>
<path d="" fill="#21221F" transform="translate(0,0)"/>
<path d="" fill="#31302E" transform="translate(0,0)"/>
<path d="" fill="#282827" transform="translate(0,0)"/>
<path d="" fill="#272521" transform="translate(0,0)"/>
<path d="" fill="#282724" transform="translate(0,0)"/>
<path d="" fill="#323030" transform="translate(0,0)"/>
<path d="" fill="#32312F" transform="translate(0,0)"/>
<path d="" fill="#20211F" transform="translate(0,0)"/>
<path d="" fill="#292827" transform="translate(0,0)"/>
<path d="" fill="#2F2F2C" transform="translate(0,0)"/>
<path d="" fill="#282425" transform="translate(0,0)"/>
<path d="" fill="#2F2E2E" transform="translate(0,0)"/>
<path d="" fill="#2B2A28" transform="translate(0,0)"/>
<path d="" fill="#2F2D2B" transform="translate(0,0)"/>
<path d="" fill="#3C3C3A" transform="translate(0,0)"/>
<path d="" fill="#434542" transform="translate(0,0)"/>
<path d="" fill="#2F2E2D" transform="translate(0,0)"/>
<path d="" fill="#272625" transform="translate(0,0)"/>
<path d="" fill="#312E2D" transform="translate(0,0)"/>
<path d="" fill="#292A27" transform="translate(0,0)"/>
<path d="" fill="#292826" transform="translate(0,0)"/>
<path d="" fill="#393935" transform="translate(0,0)"/>
<path d="" fill="#2E2C2A" transform="translate(0,0)"/>
<path d="" fill="#242422" transform="translate(0,0)"/>
<path d="" fill="#242121" transform="translate(0,0)"/>
<path d="" fill="#242221" transform="translate(0,0)"/>
<path d="" fill="#262724" transform="translate(0,0)"/>
<path d="" fill="#2F2E2D" transform="translate(0,0)"/>
<path d="" fill="#2F2F2F" transform="translate(0,0)"/>
<path d="" fill="#272725" transform="translate(0,0)"/>
<path d="" fill="#312E2D" transform="translate(0,0)"/>
<path d="" fill="#2F2E2B" transform="translate(0,0)"/>
<path d="" fill="#2E2D2B" transform="translate(0,0)"/>
<path d="" fill="#262624" transform="translate(0,0)"/>
<path d="" fill="#292826" transform="translate(0,0)"/>
<path d="" fill="#282625" transform="translate(0,0)"/>
<path d="" fill="#262527" transform="translate(0,0)"/>
<path d="" fill="#242422" transform="translate(0,0)"/>
<path d="" fill="#272524" transform="translate(0,0)"/>
<path d="" fill="#232524" transform="translate(0,0)"/>
<path d="" fill="#3A3836" transform="translate(0,0)"/>
<path d="" fill="#272725" transform="translate(0,0)"/>
<path d="" fill="#282725" transform="translate(0,0)"/>
<path d="" fill="#282927" transform="translate(0,0)"/>
<path d="" fill="#282A24" transform="translate(0,0)"/>
<path d="" fill="#262323" transform="translate(0,0)"/>
<path d="" fill="#282826" transform="translate(0,0)"/>
<path d="" fill="#312F2F" transform="translate(0,0)"/>
<path d="" fill="#31302E" transform="translate(0,0)"/>
<path d="" fill="#312D2D" transform="translate(0,0)"/>
<path d="" fill="#2B2B28" transform="translate(0,0)"/>
<path d="" fill="#22211F" transform="translate(0,0)"/>
<path d="" fill="#242322" transform="translate(0,0)"/>
<path d="" fill="#2D2B2A" transform="translate(0,0)"/>
<path d="" fill="#242322" transform="translate(0,0)"/>
<path d="" fill="#292727" transform="translate(0,0)"/>
<path d="" fill="#262726" transform="translate(0,0)"/>
<path d="" fill="#272624" transform="translate(0,0)"/>
<path d="" fill="#282725" transform="translate(0,0)"/>
<path d="" fill="#242423" transform="translate(0,0)"/>
<path d="" fill="#282827" transform="translate(0,0)"/>
<path d="" fill="#272826" transform="translate(0,0)"/>
<path d="" fill="#262524" transform="translate(0,0)"/>
<path d="" fill="#393837" transform="translate(0,0)"/>
<path d="" fill="#272426" transform="translate(0,0)"/>
<path d="" fill="#262425" transform="translate(0,0)"/>
<path d="" fill="#272626" transform="translate(0,0)"/>
<path d="" fill="#282524" transform="translate(0,0)"/>
<path d="" fill="#252523" transform="translate(0,0)"/>
<path d="" fill="#252725" transform="translate(0,0)"/>
<path d="" fill="#282827" transform="translate(0,0)"/>
<path d="" fill="#232423" transform="translate(0,0)"/>
<path d="" fill="#252324" transform="translate(0,0)"/>
<path d="" fill="#242220" transform="translate(0,0)"/>
<path d="" fill="#272526" transform="translate(0,0)"/>
<path d="" fill="#262422" transform="translate(0,0)"/>
<path d="" fill="#272924" transform="translate(0,0)"/>
<path d="" fill="#373432" transform="translate(0,0)"/>
<path d="" fill="#2F2C2D" transform="translate(0,0)"/>
<path d="" fill="#272625" transform="translate(0,0)"/>
<path d="" fill="#282825" transform="translate(0,0)"/>
<path d="" fill="#272726" transform="translate(0,0)"/>
<path d="" fill="#32332F" transform="translate(0,0)"/>
<path d="" fill="#252525" transform="translate(0,0)"/>
<path d="" fill="#2E2C2C" transform="translate(0,0)"/>
<path d="" fill="#282825" transform="translate(0,0)"/>
<path d="" fill="#3A3937" transform="translate(0,0)"/>
<path d="" fill="#2B2926" transform="translate(0,0)"/>
<path d="" fill="#292725" transform="translate(0,0)"/>
<path d="" fill="#242423" transform="translate(0,0)"/>
<path d="" fill="#282827" transform="translate(0,0)"/>
<path d="" fill="#2E2B2A" transform="translate(0,0)"/>
<path d="" fill="#252324" transform="translate(0,0)"/>
<path d="" fill="#282825" transform="translate(0,0)"/>
<path d="" fill="#2B2926" transform="translate(0,0)"/>
<path d="" fill="#272727" transform="translate(0,0)"/>
<path d="" fill="#272725" transform="translate(0,0)"/>
<path d="" fill="#2D2C2A" transform="translate(0,0)"/>
<path d="" fill="#282627" transform="translate(0,0)"/>
<path d="" fill="#2A292A" transform="translate(0,0)"/>
<path d="" fill="#383938" transform="translate(0,0)"/>
<path d="" fill="#2C2A28" transform="translate(0,0)"/>
<path d="" fill="#272426" transform="translate(0,0)"/>
<path d="" fill="#2C2927" transform="translate(0,0)"/>
<path d="" fill="#282924" transform="translate(0,0)"/>
<path d="" fill="#272826" transform="translate(0,0)"/>
<path d="" fill="#2C2928" transform="translate(0,0)"/>
<path d="" fill="#333133" transform="translate(0,0)"/>
<path d="" fill="#363635" transform="translate(0,0)"/>
<path d="" fill="#262826" transform="translate(0,0)"/>
<path d="" fill="#292925" transform="translate(0,0)"/>
<path d="" fill="#292926" transform="translate(0,0)"/>
<path d="" fill="#292A28" transform="translate(0,0)"/>
<path d="" fill="#282726" transform="translate(0,0)"/>
<path d="" fill="#262524" transform="translate(0,0)"/>
<path d="" fill="#242422" transform="translate(0,0)"/>
<path d="" fill="#2E2C2A" transform="translate(0,0)"/>
<path d="" fill="#2A2A27" transform="translate(0,0)"/>
<path d="" fill="#272524" transform="translate(0,0)"/>
<path d="" fill="#282623" transform="translate(0,0)"/>
<path d="" fill="#242524" transform="translate(0,0)"/>
<path d="" fill="#282625" transform="translate(0,0)"/>
<path d="" fill="#2B2929" transform="translate(0,0)"/>
<path d="" fill="#282826" transform="translate(0,0)"/>
<path d="" fill="#262424" transform="translate(0,0)"/>
<path d="" fill="#242222" transform="translate(0,0)"/>
<path d="" fill="#272627" transform="translate(0,0)"/>
<path d="" fill="#272827" transform="translate(0,0)"/>
<path d="" fill="#312F30" transform="translate(0,0)"/>
<path d="" fill="#272727" transform="translate(0,0)"/>
<path d="" fill="#2A2928" transform="translate(0,0)"/>
<path d="" fill="#292827" transform="translate(0,0)"/>
<path d="" fill="#292726" transform="translate(0,0)"/>
<path d="" fill="#22231F" transform="translate(0,0)"/>
<path d="" fill="#252424" transform="translate(0,0)"/>
<path d="" fill="#262624" transform="translate(0,0)"/>
<path d="" fill="#282625" transform="translate(0,0)"/>
<path d="" fill="#292626" transform="translate(0,0)"/>
<path d="" fill="#282624" transform="translate(0,0)"/>
<path d="" fill="#262726" transform="translate(0,0)"/>
<path d="" fill="#272526" transform="translate(0,0)"/>
<path d="" fill="#262725" transform="translate(0,0)"/>
<path d="" fill="#252423" transform="translate(0,0)"/>
<path d="" fill="#292725" transform="translate(0,0)"/>
<path d="" fill="#262624" transform="translate(0,0)"/>
<path d="" fill="#2A2B27" transform="translate(0,0)"/>
<path d="" fill="#2A2625" transform="translate(0,0)"/>
<path d="" fill="#262522" transform="translate(0,0)"/>
<path d="" fill="#232222" transform="translate(0,0)"/>
<path d="" fill="#292927" transform="translate(0,0)"/>
<path d="" fill="#2F302E" transform="translate(0,0)"/>
<path d="" fill="#31302F" transform="translate(0,0)"/>
<path d="" fill="#323230" transform="translate(0,0)"/>
<path d="" fill="#2D2B2B" transform="translate(0,0)"/>
<path d="" fill="#272624" transform="translate(0,0)"/>
<path d="" fill="#292827" transform="translate(0,0)"/>
<path d="" fill="#262523" transform="translate(0,0)"/>
<path d="" fill="#2A2927" transform="translate(0,0)"/>
<path d="" fill="#383632" transform="translate(0,0)"/>
<path d="" fill="#383938" transform="translate(0,0)"/>
<path d="" fill="#3A3C38" transform="translate(0,0)"/>
<path d="" fill="#2D2B2A" transform="translate(0,0)"/>
<path d="" fill="#34312F" transform="translate(0,0)"/>
<path d="" fill="#252625" transform="translate(0,0)"/>
<path d="" fill="#363432" transform="translate(0,0)"/>
<path d="" fill="#2D2C2B" transform="translate(0,0)"/>
<path d="" fill="#333230" transform="translate(0,0)"/>
<path d="" fill="#252523" transform="translate(0,0)"/>
<path d="" fill="#292A27" transform="translate(0,0)"/>
<path d="" fill="#30302E" transform="translate(0,0)"/>
<path d="" fill="#333030" transform="translate(0,0)"/>
<path d="" fill="#292829" transform="translate(0,0)"/>
<path d="" fill="#312F2F" transform="translate(0,0)"/>
<path d="" fill="#313031" transform="translate(0,0)"/>
<path d="" fill="#2E2D2D" transform="translate(0,0)"/>
<path d="" fill="#252625" transform="translate(0,0)"/>
<path d="" fill="#292A29" transform="translate(0,0)"/>
<path d="" fill="#282927" transform="translate(0,0)"/>
<path d="" fill="#2D2A29" transform="translate(0,0)"/>
<path d="" fill="#312F2C" transform="translate(0,0)"/>
<path d="" fill="#252625" transform="translate(0,0)"/>
<path d="" fill="#282624" transform="translate(0,0)"/>
<path d="" fill="#2F2C2B" transform="translate(0,0)"/>
<path d="" fill="#282724" transform="translate(0,0)"/>
<path d="" fill="#2E302E" transform="translate(0,0)"/>
<path d="" fill="#22221F" transform="translate(0,0)"/>
<path d="" fill="#2C2B2B" transform="translate(0,0)"/>
<path d="" fill="#282727" transform="translate(0,0)"/>
<path d="" fill="#252625" transform="translate(0,0)"/>
<path d="" fill="#292827" transform="translate(0,0)"/>
<path d="" fill="#2F2F2D" transform="translate(0,0)"/>
<path d="" fill="#282625" transform="translate(0,0)"/>
<path d="" fill="#282628" transform="translate(0,0)"/>
<path d="" fill="#292525" transform="translate(0,0)"/>
<path d="" fill="#222120" transform="translate(0,0)"/>
<path d="" fill="#262727" transform="translate(0,0)"/>
<path d="" fill="#282927" transform="translate(0,0)"/>
<path d="" fill="#272525" transform="translate(0,0)"/>
<path d="" fill="#292926" transform="translate(0,0)"/>
<path d="" fill="#2A2727" transform="translate(0,0)"/>
<path d="" fill="#292927" transform="translate(0,0)"/>
<path d="" fill="#272725" transform="translate(0,0)"/>
<path d="" fill="#292828" transform="translate(0,0)"/>
<path d="" fill="#252525" transform="translate(0,0)"/>
<path d="" fill="#353432" transform="translate(0,0)"/>
<path d="" fill="#282525" transform="translate(0,0)"/>
<path d="" fill="#252525" transform="translate(0,0)"/>
<path d="" fill="#323331" transform="translate(0,0)"/>
<path d="" fill="#363533" transform="translate(0,0)"/>
<path d="" fill="#302F2C" transform="translate(0,0)"/>
<path d="" fill="#272625" transform="translate(0,0)"/>
<path d="" fill="#2F2D2C" transform="translate(0,0)"/>
<path d="" fill="#2F2A2B" transform="translate(0,0)"/>
<path d="" fill="#373736" transform="translate(0,0)"/>
<path d="" fill="#2A2A27" transform="translate(0,0)"/>
<path d="" fill="#292725" transform="translate(0,0)"/>
<path d="" fill="#363533" transform="translate(0,0)"/>
<path d="" fill="#252222" transform="translate(0,0)"/>
<path d="" fill="#2C2A29" transform="translate(0,0)"/>
<path d="" fill="#2C2929" transform="translate(0,0)"/>
<path d="" fill="#292727" transform="translate(0,0)"/>
<path d="" fill="#2C2C2B" transform="translate(0,0)"/>
<path d="" fill="#2C2929" transform="translate(0,0)"/>
<path d="" fill="#2D2D2C" transform="translate(0,0)"/>
<path d="" fill="#272826" transform="translate(0,0)"/>
<path d="" fill="#2B2827" transform="translate(0,0)"/>
<path d="" fill="#2F2F2B" transform="translate(0,0)"/>
<path d="" fill="#2A2A27" transform="translate(0,0)"/>
<path d="" fill="#282825" transform="translate(0,0)"/>
<path d="" fill="#292A29" transform="translate(0,0)"/>
<path d="" fill="#2C2A27" transform="translate(0,0)"/>
<path d="" fill="#282626" transform="translate(0,0)"/>
<path d="" fill="#252826" transform="translate(0,0)"/>
<path d="" fill="#2C2A27" transform="translate(0,0)"/>
<path d="" fill="#222120" transform="translate(0,0)"/>
<path d="" fill="#2C2928" transform="translate(0,0)"/>
<path d="" fill="#2A2927" transform="translate(0,0)"/>
<path d="" fill="#232022" transform="translate(0,0)"/>
<path d="" fill="#2C2B28" transform="translate(0,0)"/>
<path d="" fill="#2C2B2C" transform="translate(0,0)"/>
<path d="" fill="#2A2829" transform="translate(0,0)"/>
<path d="" fill="#2E2B2B" transform="translate(0,0)"/>
<path d="" fill="#2E2C2A" transform="translate(0,0)"/>
<path d="" fill="#2A2A29" transform="translate(0,0)"/>
<path d="" fill="#2B292B" transform="translate(0,0)"/>
<path d="" fill="#2D2B2A" transform="translate(0,0)"/>
<path d="" fill="#292626" transform="translate(0,0)"/>
<path d="" fill="#272624" transform="translate(0,0)"/>
<path d="" fill="#262623" transform="translate(0,0)"/>
<path d="" fill="#282626" transform="translate(0,0)"/>
<path d="" fill="#2B2B27" transform="translate(0,0)"/>
<path d="" fill="#2A2828" transform="translate(0,0)"/>
<path d="" fill="#2B2A29" transform="translate(0,0)"/>
<path d="" fill="#2A2929" transform="translate(0,0)"/>
<path d="" fill="#2E2F2E" transform="translate(0,0)"/>
<path d="" fill="#272624" transform="translate(0,0)"/>
<path d="" fill="#31312F" transform="translate(0,0)"/>
<path d="" fill="#2B2A27" transform="translate(0,0)"/>
<path d="" fill="#232321" transform="translate(0,0)"/>
<path d="" fill="#2D2C2C" transform="translate(0,0)"/>
<path d="" fill="#292829" transform="translate(0,0)"/>
<path d="" fill="#292928" transform="translate(0,0)"/>
<path d="" fill="#2E2B29" transform="translate(0,0)"/>
<path d="" fill="#2C2B29" transform="translate(0,0)"/>
<path d="" fill="#2A2926" transform="translate(0,0)"/>
<path d="" fill="#292926" transform="translate(0,0)"/>
<path d="" fill="#2C2C29" transform="translate(0,0)"/>
<path d="" fill="#2D2B2A" transform="translate(0,0)"/>
<path d="" fill="#242523" transform="translate(0,0)"/>
<path d="" fill="#2B2A2A" transform="translate(0,0)"/>
<path d="" fill="#2D2F2D" transform="translate(0,0)"/>
<path d="" fill="#272929" transform="translate(0,0)"/>
<path d="" fill="#262726" transform="translate(0,0)"/>
<path d="" fill="#292B2A" transform="translate(0,0)"/>
<path d="" fill="#2B2A2A" transform="translate(0,0)"/>
<path d="" fill="#363636" transform="translate(0,0)"/>
<path d="" fill="#232321" transform="translate(0,0)"/>
<path d="" fill="#292A28" transform="translate(0,0)"/>
<path d="" fill="#292A29" transform="translate(0,0)"/>
<path d="" fill="#2C2C2B" transform="translate(0,0)"/>
<path d="" fill="#2B2B29" transform="translate(0,0)"/>
<path d="" fill="#2A2A28" transform="translate(0,0)"/>
<path d="" fill="#2E2F2B" transform="translate(0,0)"/>
<path d="" fill="#262624" transform="translate(0,0)"/>
<path d="" fill="#3D3E3D" transform="translate(0,0)"/>
<path d="" fill="#3E3F3D" transform="translate(0,0)"/>
<path d="" fill="#2A2B29" transform="translate(0,0)"/>
<path d="" fill="#262626" transform="translate(0,0)"/>
<path d="" fill="#282927" transform="translate(0,0)"/>
<path d="" fill="#292929" transform="translate(0,0)"/>
<path d="" fill="#292A26" transform="translate(0,0)"/>
<path d="" fill="#242221" transform="translate(0,0)"/>
<path d="" fill="#313232" transform="translate(0,0)"/>
<path d="" fill="#31302D" transform="translate(0,0)"/>
<path d="" fill="#2B2B29" transform="translate(0,0)"/>
<path d="" fill="#282726" transform="translate(0,0)"/>
<path d="" fill="#282826" transform="translate(0,0)"/>
<path d="" fill="#272523" transform="translate(0,0)"/>
<path d="" fill="#292A27" transform="translate(0,0)"/>
<path d="" fill="#272523" transform="translate(0,0)"/>
<path d="" fill="#272626" transform="translate(0,0)"/>
<path d="" fill="#2F2F2B" transform="translate(0,0)"/>
<path d="" fill="#2C2929" transform="translate(0,0)"/>
<path d="" fill="#2C2B2B" transform="translate(0,0)"/>
<path d="" fill="#2E2C2D" transform="translate(0,0)"/>
<path d="" fill="#2D2E2B" transform="translate(0,0)"/>
<path d="" fill="#2D2C2A" transform="translate(0,0)"/>
<path d="" fill="#2F2F2E" transform="translate(0,0)"/>
<path d="" fill="#292727" transform="translate(0,0)"/>
<path d="" fill="#2A2825" transform="translate(0,0)"/>
<path d="" fill="#282726" transform="translate(0,0)"/>
<path d="" fill="#282928" transform="translate(0,0)"/>
<path d="" fill="#252624" transform="translate(0,0)"/>
<path d="" fill="#252723" transform="translate(0,0)"/>
<path d="" fill="#2D2B2A" transform="translate(0,0)"/>
<path d="" fill="#292B28" transform="translate(0,0)"/>
<path d="" fill="#2A2B2A" transform="translate(0,0)"/>
<path d="" fill="#2B2826" transform="translate(0,0)"/>
<path d="" fill="#292926" transform="translate(0,0)"/>
<path d="" fill="#302E2C" transform="translate(0,0)"/>
<path d="" fill="#292628" transform="translate(0,0)"/>
<path d="" fill="#272826" transform="translate(0,0)"/>
<path d="" fill="#262724" transform="translate(0,0)"/>
<path d="" fill="#322E2D" transform="translate(0,0)"/>
<path d="" fill="#272926" transform="translate(0,0)"/>
<path d="" fill="#3C3B3D" transform="translate(0,0)"/>
<path d="" fill="#262524" transform="translate(0,0)"/>
<path d="" fill="#2E2F29" transform="translate(0,0)"/>
<path d="" fill="#2D2D2C" transform="translate(0,0)"/>
<path d="" fill="#2B2B29" transform="translate(0,0)"/>
<path d="" fill="#272626" transform="translate(0,0)"/>
<path d="" fill="#282926" transform="translate(0,0)"/>
<path d="" fill="#353430" transform="translate(0,0)"/>
<path d="" fill="#272825" transform="translate(0,0)"/>
<path d="" fill="#323231" transform="translate(0,0)"/>
<path d="" fill="#323133" transform="translate(0,0)"/>
<path d="" fill="#302F2E" transform="translate(0,0)"/>
<path d="" fill="#2B2A29" transform="translate(0,0)"/>
<path d="" fill="#252222" transform="translate(0,0)"/>
<path d="" fill="#282525" transform="translate(0,0)"/>
<path d="" fill="#2B2829" transform="translate(0,0)"/>
<path d="" fill="#252423" transform="translate(0,0)"/>
<path d="" fill="#403E3E" transform="translate(0,0)"/>
<path d="" fill="#2A2A2B" transform="translate(0,0)"/>
<path d="" fill="#2A2A28" transform="translate(0,0)"/>
<path d="" fill="#353231" transform="translate(0,0)"/>
<path d="" fill="#2A2926" transform="translate(0,0)"/>
<path d="" fill="#343230" transform="translate(0,0)"/>
<path d="" fill="#2D2C2B" transform="translate(0,0)"/>
<path d="" fill="#333130" transform="translate(0,0)"/>
<path d="" fill="#302D2C" transform="translate(0,0)"/>
<path d="" fill="#3B3D3B" transform="translate(0,0)"/>
<path d="" fill="#3A3B39" transform="translate(0,0)"/>
<path d="" fill="#3C3D3B" transform="translate(0,0)"/>
<path d="" fill="#3E3E3D" transform="translate(0,0)"/>
<path d="" fill="#3F3D3E" transform="translate(0,0)"/>
<path d="" fill="#282726" transform="translate(0,0)"/>
<path d="" fill="#2B2A27" transform="translate(0,0)"/>
<path d="" fill="#282825" transform="translate(0,0)"/>
<path d="" fill="#2C2D2A" transform="translate(0,0)"/>
<path d="" fill="#2A2A2A" transform="translate(0,0)"/>
<path d="" fill="#292829" transform="translate(0,0)"/>
<path d="" fill="#393938" transform="translate(0,0)"/>
<path d="" fill="#302E2C" transform="translate(0,0)"/>
<path d="" fill="#3A3837" transform="translate(0,0)"/>
<path d="" fill="#272625" transform="translate(0,0)"/>
<path d="" fill="#363735" transform="translate(0,0)"/>
<path d="" fill="#3B3A3B" transform="translate(0,0)"/>
<path d="" fill="#3B3B3A" transform="translate(0,0)"/>
<path d="" fill="#2F2D2B" transform="translate(0,0)"/>
<path d="" fill="#2F2E2D" transform="translate(0,0)"/>
<path d="" fill="#302F2D" transform="translate(0,0)"/>
<path d="" fill="#33312E" transform="translate(0,0)"/>
<path d="" fill="#2B2827" transform="translate(0,0)"/>
<path d="" fill="#2D2C2A" transform="translate(0,0)"/>
<path d="" fill="#32312F" transform="translate(0,0)"/>
<path d="" fill="#2B2C29" transform="translate(0,0)"/>
<path d="" fill="#262726" transform="translate(0,0)"/>
<path d="" fill="#2C2B2A" transform="translate(0,0)"/>
<path d="" fill="#31302D" transform="translate(0,0)"/>
<path d="" fill="#292827" transform="translate(0,0)"/>
<path d="" fill="#2A2B29" transform="translate(0,0)"/>
<path d="" fill="#2C2C29" transform="translate(0,0)"/>
<path d="" fill="#404240" transform="translate(0,0)"/>
<path d="" fill="#33302D" transform="translate(0,0)"/>
<path d="" fill="#282826" transform="translate(0,0)"/>
<path d="" fill="#31302B" transform="translate(0,0)"/>
<path d="" fill="#282927" transform="translate(0,0)"/>
<path d="" fill="#292A28" transform="translate(0,0)"/>
<path d="" fill="#282826" transform="translate(0,0)"/>
<path d="" fill="#2B2B2B" transform="translate(0,0)"/>
<path d="" fill="#2C2A29" transform="translate(0,0)"/>
<path d="" fill="#2B2C29" transform="translate(0,0)"/>
<path d="" fill="#3A3937" transform="translate(0,0)"/>
<path d="" fill="#292723" transform="translate(0,0)"/>
<path d="" fill="#2E2D2B" transform="translate(0,0)"/>
<path d="" fill="#282724" transform="translate(0,0)"/>
<path d="" fill="#282825" transform="translate(0,0)"/>
<path d="" fill="#242321" transform="translate(0,0)"/>
<path d="" fill="#333333" transform="translate(0,0)"/>
<path d="" fill="#333331" transform="translate(0,0)"/>
<path d="" fill="#333331" transform="translate(0,0)"/>
<path d="" fill="#32322E" transform="translate(0,0)"/>
<path d="" fill="#272726" transform="translate(0,0)"/>
<path d="" fill="#282828" transform="translate(0,0)"/>
<path d="" fill="#3F3F3B" transform="translate(0,0)"/>
<path d="" fill="#3E3B3A" transform="translate(0,0)"/>
<path d="" fill="#353431" transform="translate(0,0)"/>
<path d="" fill="#3E3F3C" transform="translate(0,0)"/>
<path d="" fill="#3D3E3D" transform="translate(0,0)"/>
<path d="" fill="#2B2A2A" transform="translate(0,0)"/>
<path d="" fill="#252121" transform="translate(0,0)"/>
<path d="" fill="#2C2B29" transform="translate(0,0)"/>
<path d="" fill="#353635" transform="translate(0,0)"/>
<path d="" fill="#2E2D2D" transform="translate(0,0)"/>
<path d="" fill="#2C2929" transform="translate(0,0)"/>
<path d="" fill="#262725" transform="translate(0,0)"/>
<path d="" fill="#2B2627" transform="translate(0,0)"/>
<path d="" fill="#333431" transform="translate(0,0)"/>
<path d="" fill="#2E2E2D" transform="translate(0,0)"/>
<path d="" fill="#212320" transform="translate(0,0)"/>
<path d="" fill="#333231" transform="translate(0,0)"/>
<path d="" fill="#322F2E" transform="translate(0,0)"/>
<path d="" fill="#2A2826" transform="translate(0,0)"/>
<path d="" fill="#2D2C2B" transform="translate(0,0)"/>
<path d="" fill="#2C2B29" transform="translate(0,0)"/>
<path d="" fill="#434342" transform="translate(0,0)"/>
<path d="" fill="#2E2E2E" transform="translate(0,0)"/>
<path d="" fill="#413D3F" transform="translate(0,0)"/>
<path d="" fill="#424141" transform="translate(0,0)"/>
<path d="" fill="#282725" transform="translate(0,0)"/>
<path d="" fill="#3A3938" transform="translate(0,0)"/>
<path d="" fill="#3A3B3B" transform="translate(0,0)"/>
<path d="" fill="#262622" transform="translate(0,0)"/>
<path d="" fill="#2C2C28" transform="translate(0,0)"/>
<path d="" fill="#353432" transform="translate(0,0)"/>
<path d="" fill="#252525" transform="translate(0,0)"/>
<path d="" fill="#353533" transform="translate(0,0)"/>
<path d="" fill="#3A3A38" transform="translate(0,0)"/>
<path d="" fill="#3C3B3B" transform="translate(0,0)"/>
<path d="" fill="#383532" transform="translate(0,0)"/>
<path d="" fill="#3D3C3C" transform="translate(0,0)"/>
<path d="" fill="#3F3F3D" transform="translate(0,0)"/>
<path d="" fill="#2E2C2B" transform="translate(0,0)"/>
<path d="" fill="#383535" transform="translate(0,0)"/>
<path d="" fill="#3A3C38" transform="translate(0,0)"/>
<path d="" fill="#3F3F3C" transform="translate(0,0)"/>
<path d="" fill="#403E3D" transform="translate(0,0)"/>
<path d="" fill="#403E3C" transform="translate(0,0)"/>
<path d="" fill="#464644" transform="translate(0,0)"/>
</svg>
