<?xml version="1.0" encoding="UTF-8"?>
<svg version="1.1" xmlns="http://www.w3.org/2000/svg" width="1024" height="1024">
<path d="M0 0 C337.92 0 675.84 0 1024 0 C1024 337.92 1024 675.84 1024 1024 C686.08 1024 348.16 1024 0 1024 C0 686.08 0 348.16 0 0 Z " fill="#F0F0F0" transform="translate(0,0)"/>
<path d="M0 0 C56.76 0 113.52 0 172 0 C172 24.42 172 48.84 172 74 C159.79 74 147.58 74 135 74 C135.33 78.95 135.66 83.9 136 89 C136.06115014 92.65677815 136.09914603 96.28424769 136.0625 99.9375 C136.041875 102.928125 136.02125 105.91875 136 109 C124.78 109 113.56 109 102 109 C102 97.12 102 85.24 102 73 C112.89 73 123.78 73 135 73 C135 61.12 135 49.24 135 37 C132.00679687 37.01160156 129.01359375 37.02320313 125.9296875 37.03515625 C122.9472667 37.04301213 119.96484716 37.04905146 116.98242188 37.05493164 C114.95018984 37.05988129 112.91796121 37.06664269 110.88574219 37.07543945 C96.55202272 37.13581439 82.31604788 36.74697538 68 36 C68 48.21 68 60.42 68 73 C44.96510786 73.09829968 22.01502563 73.0581621 -1 72 C-1 83.88 -1 95.76 -1 108 C-12.55 108 -24.1 108 -36 108 C-36 119.55 -36 131.1 -36 143 C-2.01 143 31.98 143 67 143 C67 131.78 67 120.56 67 109 C77.89 109 88.78 109 100 109 C100.60272229 114.42450057 101.12455391 119.2137724 101.09765625 124.56640625 C101.09515869 125.59967041 101.09266113 126.63293457 101.09008789 127.69750977 C101.07643188 129.61067993 101.07643188 129.61067993 101.0625 131.5625 C101.041875 135.666875 101.02125 139.77125 101 144 C89.78 144 78.56 144 67 144 C67 155.22 67 166.44 67 178 C62.58620972 178.03758423 62.58620972 178.03758423 58.08325195 178.07592773 C48.36420051 178.1593816 38.64520193 178.24807016 28.92622089 178.33933926 C23.03327096 178.3945178 17.14031602 178.44792976 11.24731445 178.49731445 C5.56090687 178.54503267 -0.12544096 178.59737826 -5.81177711 178.65294075 C-7.98188605 178.67333049 -10.15201134 178.69204912 -12.32214928 178.70907402 C-15.36025278 178.73319282 -18.39824397 178.76323726 -21.4362793 178.79467773 C-22.33467529 178.8004332 -23.23307129 178.80618866 -24.15869141 178.81211853 C-24.99015182 178.82190735 -25.82161224 178.83169617 -26.67826843 178.84178162 C-27.75538353 178.85146044 -27.75538353 178.85146044 -28.85425854 178.8613348 C-31.49665733 178.984523 -31.49665733 178.984523 -36 180 C-36 189.9 -36 199.8 -36 210 C-31.3903125 209.9278125 -26.780625 209.855625 -22.03125 209.78125 C-19.03255565 209.73540872 -16.03386039 209.68971604 -13.03515625 209.64453125 C-8.32142911 209.57349101 -3.6077124 209.50203033 1.10595703 209.42724609 C22.40737941 209.09005615 43.6953665 208.95147008 65 209 C65 220.55 65 232.1 65 244 C76.55 244 88.1 244 100 244 C100 267.1 100 290.2 100 314 C88.78 314 77.56 314 66 314 C66 336.11 66 358.22 66 381 C54.45 381 42.9 381 31 381 C31.33 381.66 31.66 382.32 32 383 C32.09345312 384.81188736 32.12191292 386.62726378 32.12025452 388.44155884 C32.12231651 390.17479149 32.12231651 390.17479149 32.12442017 391.94303894 C32.12082489 393.21689957 32.11722961 394.49076019 32.11352539 395.80322266 C32.11324343 397.15325417 32.11340143 398.50328584 32.1139679 399.85331726 C32.11425552 403.5245827 32.10836443 407.19581566 32.10139394 410.86707354 C32.09515459 414.70145027 32.09455614 418.53582771 32.09336853 422.37020874 C32.09025693 429.63396423 32.08204585 436.89770473 32.07201904 444.1614536 C32.06085259 452.42978075 32.05534611 460.69810859 32.05032361 468.96644139 C32.0398631 485.97763777 32.02151974 502.98881347 32 520 C43.55 520 55.1 520 67 520 C67 531.22 67 542.44 67 554 C78.22 554 89.44 554 101 554 C101.165 556.660625 101.33 559.32125 101.5 562.0625 C101.55220703 562.8656665 101.60441406 563.66883301 101.65820312 564.49633789 C102.09964561 572.03501941 102 579.39561005 102 587 C113.22 586.67 124.44 586.34 136 586 C137.14806378 635.16173121 137.14806378 635.16173121 137 659 C125.12 659 113.24 659 101 659 C101 669.56 101 680.12 101 691 C89.45 691 77.9 691 66 691 C66.32573698 697.98392449 66.32573698 697.98392449 66.65820312 704.9675293 C66.99016124 712.33713128 67 719.60300218 67 727 C-45.2 727 -157.4 727 -273 727 C-273 715.12 -273 703.24 -273 691 C-295.44 691 -317.88 691 -341 691 C-341 680.44 -341 669.88 -341 659 C-352.22 659 -363.44 659 -375 659 C-375 647.12 -375 635.24 -375 623 C-386.22 623 -397.44 623 -409 623 C-409 600.56 -409 578.12 -409 555 C-419.89 554.67 -430.78 554.34 -442 554 C-442 486.35 -442 418.7 -442 349 C-431.11 349 -420.22 349 -409 349 C-409 326.23 -409 303.46 -409 280 C-397.78 280 -386.56 280 -375 280 C-375 268.78 -375 257.56 -375 246 C-363.78 246 -352.56 246 -341 246 C-341.01160156 243.48503906 -341.02320313 240.97007812 -341.03515625 238.37890625 C-341.04294673 235.9530449 -341.04902354 233.52718493 -341.05493164 231.10131836 C-341.0599719 229.41055684 -341.06680405 227.71979971 -341.07543945 226.02905273 C-341.08751857 223.60399293 -341.09323123 221.17899056 -341.09765625 218.75390625 C-341.10281754 217.99348526 -341.10797882 217.23306427 -341.11329651 216.44960022 C-341.11349238 214.6326743 -341.06197277 212.81586873 -341 211 C-340 210 -340 210 -337.33616638 209.87974548 C-335.5541256 209.8830764 -335.5541256 209.8830764 -333.73608398 209.88647461 C-332.7556311 209.88625557 -332.7556311 209.88625557 -331.75537109 209.8860321 C-329.58557872 209.88673117 -327.41587121 209.89452322 -325.24609375 209.90234375 C-323.74536689 209.90420795 -322.24463943 209.90563184 -320.74391174 209.90663147 C-316.78681774 209.91045648 -312.82976022 209.9202866 -308.87268066 209.93133545 C-304.1286825 209.94334467 -299.38467215 209.94795189 -294.64066315 209.95378876 C-287.42708336 209.96349838 -280.21358369 209.98265502 -273 210 C-273 198.78 -273 187.56 -273 176 C-228.78 176 -184.56 176 -139 176 C-139 170.39 -139 164.78 -139 159 C-138.94086073 154.79969621 -138.87256503 150.60180501 -138.78125 146.40234375 C-138.74795593 144.77372154 -138.74795593 144.77372154 -138.71398926 143.11219788 C-138.64428821 139.72059578 -138.57219672 136.32904978 -138.5 132.9375 C-138.45166282 130.60612311 -138.40348464 128.27474291 -138.35546875 125.94335938 C-138.23910129 120.29552489 -138.11948443 114.64777279 -138 109 C-148.89 109 -159.78 109 -171 109 C-171 84.58 -171 60.16 -171 35 C-148.89 35 -126.78 35 -104 35 C-103.95989119 55.25049218 -103.95989119 55.25049218 -103.95117188 64.04296875 C-103.94524934 69.98650024 -103.93833047 75.93001599 -103.92456055 81.87353516 C-103.87772211 102.61459892 -103.88886952 123.28222848 -105 144 C-93.45 144 -81.9 144 -70 144 C-70.0309375 136.760625 -70.0309375 136.760625 -70.0625 129.375 C-70.10141171 110.23423725 -69.56691517 91.13338707 -69 72 C-57.45 72 -45.9 72 -34 72 C-34 60.12 -34 48.24 -34 36 C-22.78 36 -11.56 36 0 36 C0 24.12 0 12.24 0 0 Z " fill="#F0F0F0" transform="translate(614,130)"/>
<path d="M0 0 C56.76 0 113.52 0 172 0 C172 24.42 172 48.84 172 74 C159.79 74 147.58 74 135 74 C135.33 78.95 135.66 83.9 136 89 C136.06115014 92.65677815 136.09914603 96.28424769 136.0625 99.9375 C136.041875 102.928125 136.02125 105.91875 136 109 C124.78 109 113.56 109 102 109 C102 97.12 102 85.24 102 73 C112.89 73 123.78 73 135 73 C135 61.12 135 49.24 135 37 C132.00679687 37.01160156 129.01359375 37.02320313 125.9296875 37.03515625 C122.9472667 37.04301213 119.96484716 37.04905146 116.98242188 37.05493164 C114.95018984 37.05988129 112.91796121 37.06664269 110.88574219 37.07543945 C96.55202272 37.13581439 82.31604788 36.74697538 68 36 C68 48.21 68 60.42 68 73 C44.96510786 73.09829968 22.01502563 73.0581621 -1 72 C-1 83.88 -1 95.76 -1 108 C-12.55 108 -24.1 108 -36 108 C-36 119.55 -36 131.1 -36 143 C-2.01 143 31.98 143 67 143 C67 131.78 67 120.56 67 109 C77.89 109 88.78 109 100 109 C100.60272229 114.42450057 101.12455391 119.2137724 101.09765625 124.56640625 C101.09515869 125.59967041 101.09266113 126.63293457 101.09008789 127.69750977 C101.07643188 129.61067993 101.07643188 129.61067993 101.0625 131.5625 C101.041875 135.666875 101.02125 139.77125 101 144 C89.78 144 78.56 144 67 144 C67 155.22 67 166.44 67 178 C62.58620972 178.03758423 62.58620972 178.03758423 58.08325195 178.07592773 C48.36420051 178.1593816 38.64520193 178.24807016 28.92622089 178.33933926 C23.03327096 178.3945178 17.14031602 178.44792976 11.24731445 178.49731445 C5.56090687 178.54503267 -0.12544096 178.59737826 -5.81177711 178.65294075 C-7.98188605 178.67333049 -10.15201134 178.69204912 -12.32214928 178.70907402 C-15.36025278 178.73319282 -18.39824397 178.76323726 -21.4362793 178.79467773 C-22.33467529 178.8004332 -23.23307129 178.80618866 -24.15869141 178.81211853 C-24.99015182 178.82190735 -25.82161224 178.83169617 -26.67826843 178.84178162 C-27.75538353 178.85146044 -27.75538353 178.85146044 -28.85425854 178.8613348 C-31.49665733 178.984523 -31.49665733 178.984523 -36 180 C-36 189.9 -36 199.8 -36 210 C-31.3903125 209.9278125 -26.780625 209.855625 -22.03125 209.78125 C-19.03255565 209.73540872 -16.03386039 209.68971604 -13.03515625 209.64453125 C-8.32142911 209.57349101 -3.6077124 209.50203033 1.10595703 209.42724609 C22.40737941 209.09005615 43.6953665 208.95147008 65 209 C65 220.55 65 232.1 65 244 C76.55 244 88.1 244 100 244 C100 267.1 100 290.2 100 314 C88.78 314 77.56 314 66 314 C66 336.11 66 358.22 66 381 C54.45 381 42.9 381 31 381 C31.33 381.66 31.66 382.32 32 383 C32.09345312 384.81188736 32.12191292 386.62726378 32.12025452 388.44155884 C32.12231651 390.17479149 32.12231651 390.17479149 32.12442017 391.94303894 C32.12082489 393.21689957 32.11722961 394.49076019 32.11352539 395.80322266 C32.11324343 397.15325417 32.11340143 398.50328584 32.1139679 399.85331726 C32.11425552 403.5245827 32.10836443 407.19581566 32.10139394 410.86707354 C32.09515459 414.70145027 32.09455614 418.53582771 32.09336853 422.37020874 C32.09025693 429.63396423 32.08204585 436.89770473 32.07201904 444.1614536 C32.06085259 452.42978075 32.05534611 460.69810859 32.05032361 468.96644139 C32.0398631 485.97763777 32.02151974 502.98881347 32 520 C43.55 520 55.1 520 67 520 C67 531.22 67 542.44 67 554 C78.22 554 89.44 554 101 554 C101.165 556.660625 101.33 559.32125 101.5 562.0625 C101.55220703 562.8656665 101.60441406 563.66883301 101.65820312 564.49633789 C102.09964561 572.03501941 102 579.39561005 102 587 C113.22 586.67 124.44 586.34 136 586 C137.14806378 635.16173121 137.14806378 635.16173121 137 659 C125.12 659 113.24 659 101 659 C101 669.56 101 680.12 101 691 C89.45 691 77.9 691 66 691 C66.32573698 697.98392449 66.32573698 697.98392449 66.65820312 704.9675293 C66.99016124 712.33713128 67 719.60300218 67 727 C-45.2 727 -157.4 727 -273 727 C-273 715.12 -273 703.24 -273 691 C-295.44 691 -317.88 691 -341 691 C-341 680.44 -341 669.88 -341 659 C-352.22 659 -363.44 659 -375 659 C-375 647.12 -375 635.24 -375 623 C-386.22 623 -397.44 623 -409 623 C-409 600.56 -409 578.12 -409 555 C-419.89 554.67 -430.78 554.34 -442 554 C-442 486.35 -442 418.7 -442 349 C-431.11 349 -420.22 349 -409 349 C-409 326.23 -409 303.46 -409 280 C-397.78 280 -386.56 280 -375 280 C-375 268.78 -375 257.56 -375 246 C-363.78 246 -352.56 246 -341 246 C-341.01160156 243.48503906 -341.02320313 240.97007812 -341.03515625 238.37890625 C-341.04294673 235.9530449 -341.04902354 233.52718493 -341.05493164 231.10131836 C-341.0599719 229.41055684 -341.06680405 227.71979971 -341.07543945 226.02905273 C-341.08751857 223.60399293 -341.09323123 221.17899056 -341.09765625 218.75390625 C-341.10281754 217.99348526 -341.10797882 217.23306427 -341.11329651 216.44960022 C-341.11349238 214.6326743 -341.06197277 212.81586873 -341 211 C-340 210 -340 210 -337.33616638 209.87974548 C-335.5541256 209.8830764 -335.5541256 209.8830764 -333.73608398 209.88647461 C-332.7556311 209.88625557 -332.7556311 209.88625557 -331.75537109 209.8860321 C-329.58557872 209.88673117 -327.41587121 209.89452322 -325.24609375 209.90234375 C-323.74536689 209.90420795 -322.24463943 209.90563184 -320.74391174 209.90663147 C-316.78681774 209.91045648 -312.82976022 209.9202866 -308.87268066 209.93133545 C-304.1286825 209.94334467 -299.38467215 209.94795189 -294.64066315 209.95378876 C-287.42708336 209.96349838 -280.21358369 209.98265502 -273 210 C-273 198.78 -273 187.56 -273 176 C-228.78 176 -184.56 176 -139 176 C-139 170.39 -139 164.78 -139 159 C-138.94086073 154.79969621 -138.87256503 150.60180501 -138.78125 146.40234375 C-138.74795593 144.77372154 -138.74795593 144.77372154 -138.71398926 143.11219788 C-138.64428821 139.72059578 -138.57219672 136.32904978 -138.5 132.9375 C-138.45166282 130.60612311 -138.40348464 128.27474291 -138.35546875 125.94335938 C-138.23910129 120.29552489 -138.11948443 114.64777279 -138 109 C-148.89 109 -159.78 109 -171 109 C-171 84.58 -171 60.16 -171 35 C-148.89 35 -126.78 35 -104 35 C-103.95989119 55.25049218 -103.95989119 55.25049218 -103.95117188 64.04296875 C-103.94524934 69.98650024 -103.93833047 75.93001599 -103.92456055 81.87353516 C-103.87772211 102.61459892 -103.88886952 123.28222848 -105 144 C-93.45 144 -81.9 144 -70 144 C-70.0309375 136.760625 -70.0309375 136.760625 -70.0625 129.375 C-70.10141171 110.23423725 -69.56691517 91.13338707 -69 72 C-57.45 72 -45.9 72 -34 72 C-34 60.12 -34 48.24 -34 36 C-22.78 36 -11.56 36 0 36 C0 24.12 0 12.24 0 0 Z M-238 211 C-238 222.22 -238 233.44 -238 245 C-261.1 245 -284.2 245 -308 245 C-308 256.55 -308 268.1 -308 280 C-318.89 280 -329.78 280 -341 280 C-341 291.88 -341 303.76 -341 316 C-351.89 316 -362.78 316 -374 316 C-374.10732937 337.70438459 -373.92786994 359.3110402 -373 381 C-384.22 381 -395.44 381 -407 381 C-407 426.87 -407 472.74 -407 520 C-390.665 520.495 -390.665 520.495 -374 521 C-373.67 542.78 -373.34 564.56 -373 587 C-362.11 587 -351.22 587 -340 587 C-340 598.55 -340 610.1 -340 622 C-328.45 622 -316.9 622 -305 622 C-305 633.55 -305 645.1 -305 657 C-283.22 657 -261.44 657 -239 657 C-239 668.22 -239 679.44 -239 691 C-207.65335173 691.02266915 -176.30670645 691.04054336 -144.96005195 691.05106533 C-141.24810753 691.05231584 -137.53616314 691.05361018 -133.82421875 691.05493164 C-132.71588038 691.05532511 -132.71588038 691.05532511 -131.58515133 691.05572652 C-119.6660366 691.06006207 -107.74692676 691.06793785 -95.82781492 691.0771528 C-83.57159449 691.0865484 -71.3153766 691.09206804 -59.05915272 691.09408849 C-51.51389495 691.09545153 -43.96865101 691.09973524 -36.4233975 691.10791647 C-30.60970576 691.11389395 -24.79602261 691.11444417 -18.98232841 691.11310768 C-16.6178841 691.11337996 -14.25343919 691.11533061 -11.88899803 691.11920547 C2.77105487 691.14202642 17.36109751 690.80177068 32 690 C32.03425835 689.37351625 32.06851669 688.74703251 32.10381317 688.10156441 C32.14879189 687.27971594 32.1937706 686.45786747 32.2401123 685.6111145 C32.28468315 684.79642763 32.329254 683.98174076 32.37517548 683.14236641 C32.46776468 681.46053615 32.56242966 679.7788199 32.65820312 678.09716797 C33.0448039 670.69805869 33 663.44566946 33 656 C43.56 656 54.12 656 65 656 C65 644.45 65 632.9 65 621 C76.88 621 88.76 621 101 621 C101 610.11 101 599.22 101 588 C78.23 588 55.46 588 32 588 C32 576.78 32 565.56 32 554 C21.11 554 10.22 554 -1 554 C-1 542.78 -1 531.56 -1 520 C-12.55 520 -24.1 520 -36 520 C-36 474.46 -36 428.92 -36 382 C-24.78 382 -13.56 382 -2 382 C-2 370.78 -2 359.56 -2 348 C8.89 348 19.78 348 31 348 C31 336.45 31 324.9 31 313 C42.55 313 54.1 313 66 313 C66 301.78 66 290.56 66 279 C54.45 279 42.9 279 31 279 C31 267.45 31 255.9 31 244 C8.89 244 -13.22 244 -36 244 C-36 232.78 -36 221.56 -36 210 C-47.22 210 -58.44 210 -70 210 C-70 221.55 -70 233.1 -70 245 C-93.1 245 -116.2 245 -140 245 C-140 233.45 -140 221.9 -140 210 C-172.67841214 209.84085189 -205.32859669 210.33662125 -238 211 Z " fill="#010101" transform="translate(614,130)"/>
<path d="M0 0 C11.88 0 23.76 0 36 0 C36 11.55 36 23.1 36 35 C24.12 35 12.24 35 0 35 C0 23.45 0 11.9 0 0 Z " fill="#000000" transform="translate(273,582)"/>
<path d="M0 0 C11.55 0 23.1 0 35 0 C35 11.88 35 23.76 35 36 C31.82375 36.020625 28.6475 36.04125 25.375 36.0625 C24.4061084 36.071604 23.4372168 36.08070801 22.43896484 36.09008789 C14.86295093 36.11322646 7.62690218 35.54477873 0 35 C0 23.45 0 11.9 0 0 Z " fill="#020202" transform="translate(443,546)"/>
<path d="M0 0 C0 11.55 0 23.1 0 35 C-11.55 35 -23.1 35 -35 35 C-35.020625 29.575625 -35.04125 24.15125 -35.0625 18.5625 C-35.071604 16.84877197 -35.08070801 15.13504395 -35.09008789 13.36938477 C-35.09300716 12.01839273 -35.09555569 10.66739981 -35.09765625 9.31640625 C-35.10277222 8.60899292 -35.10788818 7.90157959 -35.11315918 7.17272949 C-35.11347032 5.44807383 -35.06225761 3.72353162 -35 2 C-33.08611335 0.08611335 -29.58557766 0.74701686 -26.97265625 0.68359375 C-25.91648354 0.6524221 -25.91648354 0.6524221 -24.838974 0.62062073 C-22.58025181 0.55505829 -20.32140879 0.49624458 -18.0625 0.4375 C-16.54230528 0.39431541 -15.02212271 0.35070114 -13.50195312 0.30664062 C-2.76388437 0 -2.76388437 0 0 0 Z " fill="#020202" transform="translate(410,649)"/>
<path d="M0 0 C11.22 0 22.44 0 34 0 C34 11.55 34 23.1 34 35 C22.78 35 11.56 35 0 35 C0 23.45 0 11.9 0 0 Z " fill="#000000" transform="translate(342,479)"/>
<path d="M0 0 C0 11.88 0 23.76 0 36 C4.16740814 35.99555878 8.33481628 35.99111755 12.62850952 35.98654175 C50.80719022 35.94677927 88.98586848 35.91690348 127.16456535 35.89786934 C132.16407225 35.8953678 137.16357911 35.89277917 142.16308594 35.89013672 C143.15843604 35.8896121 144.15378613 35.88908748 145.17929836 35.88854696 C161.31517153 35.8798343 177.45103052 35.86405961 193.58689527 35.84569441 C210.13254561 35.82701927 226.67818849 35.81588834 243.22384894 35.81182301 C253.44089973 35.80907298 263.65791042 35.80037415 273.87494887 35.78416707 C280.87248299 35.77362961 287.86999624 35.77039199 294.86753772 35.77299725 C298.91024498 35.77428361 302.95288196 35.77225348 306.99557686 35.76158905 C310.69163043 35.75190974 314.38756597 35.75133012 318.0836248 35.75820221 C320.06448703 35.75945736 322.04534773 35.7507839 324.02619016 35.74183738 C325.7721194 35.74781053 325.7721194 35.74781053 327.55331993 35.75390434 C328.56413545 35.7531449 329.57495097 35.75238546 330.61639726 35.75160301 C333 36 333 36 335 38 C292.35702477 38.02286771 249.71405025 38.04049891 207.07107011 38.05106533 C202.04152069 38.0523161 197.01197128 38.05361042 191.98242188 38.05493164 C190.48042488 38.05532511 190.48042488 38.05532511 188.94808452 38.05572652 C172.71521911 38.06008286 156.48235723 38.06797021 140.24949391 38.0771528 C123.60440182 38.08649034 106.95931158 38.09205582 90.31421697 38.09408849 C80.03576039 38.09546351 69.75731376 38.09981296 59.47886024 38.10791647 C52.43927994 38.11318516 45.39970483 38.11480401 38.3601227 38.11350138 C34.29313294 38.11285819 30.22616065 38.11387333 26.15917397 38.11920547 C22.44094357 38.12404503 18.72274251 38.12433495 15.00451081 38.12089889 C13.01172412 38.12027131 11.01893783 38.12460807 9.02615607 38.12908131 C7.85523645 38.12709026 6.68431684 38.12509921 5.47791481 38.12304783 C4.46102377 38.12342755 3.44413272 38.12380727 2.3964268 38.1241985 C0 38 0 38 -2 37 C-2 25.45 -2 13.9 -2 2 C-23.45 2 -44.9 2 -67 2 C-67 1.67 -67 1.34 -67 1 C-58.55959662 0.86943556 -50.11919071 0.73903601 -41.67878151 0.60884857 C-37.75981141 0.54839597 -33.84084221 0.48788598 -29.921875 0.42724609 C-26.14178037 0.36875714 -22.36168347 0.31041728 -18.58158493 0.25218201 C-17.13745415 0.22990764 -15.6933242 0.20757901 -14.2491951 0.18519592 C-12.23074815 0.15392043 -10.21229798 0.12285356 -8.19384766 0.09179688 C-7.04357086 0.07403198 -5.89329407 0.05626709 -4.7081604 0.03796387 C-3.13887677 0.01596514 -1.56943782 0 0 0 Z " fill="#FBFCFC" transform="translate(341,821)"/>
<path d="M0 0 C0.33 0 0.66 0 1 0 C1 11.22 1 22.44 1 34 C-10.22 34 -21.44 34 -33 34 C-33 56.77 -33 79.54 -33 103 C-58 103 -58 103 -67 102 C-67 101.67 -67 101.34 -67 101 C-56.44 101 -45.88 101 -35 101 C-35.01160156 97.01292969 -35.02320313 93.02585937 -35.03515625 88.91796875 C-35.04160124 85.7099994 -35.04701908 82.50203191 -35.05175018 79.29405975 C-35.05699917 75.92364675 -35.06399655 72.55325948 -35.07543945 69.18286133 C-35.08765644 65.30289034 -35.0932629 61.42295556 -35.09765625 57.54296875 C-35.10281754 56.35293747 -35.10797882 55.16290619 -35.11329651 53.93681335 C-35.11431878 38.50277454 -35.11431878 38.50277454 -34 33 C-31.04183458 31.52091729 -28.04551087 31.87798675 -24.8046875 31.90234375 C-23.51030762 31.90484131 -22.21592773 31.90733887 -20.88232422 31.90991211 C-19.22990723 31.91901611 -17.57749023 31.92812012 -15.875 31.9375 C-8.016875 31.9684375 -8.016875 31.9684375 0 32 C0 21.44 0 10.88 0 0 Z " fill="#FBFCFC" transform="translate(238,376)"/>
<path d="M0 0 C0.99 0.495 0.99 0.495 2 1 C2.04241723 3.33294775 2.04092937 5.66702567 2 8 C1 9 1 9 -1.70179749 9.12025452 C-2.90758957 9.11803391 -4.11338165 9.11581329 -5.35571289 9.11352539 C-6.01910172 9.11367142 -6.68249054 9.11381744 -7.36598206 9.1139679 C-9.56823956 9.11326881 -11.77041345 9.10547665 -13.97265625 9.09765625 C-15.49580336 9.09579206 -17.01895107 9.09436816 -18.542099 9.09336853 C-22.55837651 9.08954346 -26.57461808 9.07971328 -30.59088135 9.06866455 C-34.68623366 9.05845019 -38.78159176 9.05387086 -42.87695312 9.04882812 C-50.91798528 9.038091 -58.95898817 9.02101472 -67 9 C-66.99476318 9.66942627 -66.98952637 10.33885254 -66.98413086 11.02856445 C-66.96307529 14.12319971 -66.9502503 17.21781981 -66.9375 20.3125 C-66.92912109 21.36501953 -66.92074219 22.41753906 -66.91210938 23.50195312 C-66.89090579 30.39311686 -67.24328318 37.15030513 -68 44 C-67.01 44.495 -67.01 44.495 -66 45 C-77.88 45 -89.76 45 -102 45 C-102 49.95 -102 54.9 -102 60 C-102.33 60 -102.66 60 -103 60 C-103 54.39 -103 48.78 -103 43 C-91.78 43 -80.56 43 -69 43 C-69 31.12 -69 19.24 -69 7 C-45.98348918 6.8677212 -23.00681022 7.38373152 0 8 C0 5.36 0 2.72 0 0 Z " fill="#F8F9F9" transform="translate(682,195)"/>
<path d="M0 0 C11.55 0 23.1 0 35 0 C35 11.22 35 22.44 35 34 C34.01 33.505 34.01 33.505 33 33 C30.51900266 32.91350549 28.06655072 32.88434946 25.5859375 32.90234375 C24.49147812 32.90446617 24.49147812 32.90446617 23.37490845 32.90663147 C21.04156415 32.91223469 18.70831536 32.92478765 16.375 32.9375 C14.79427222 32.94251459 13.21354293 32.94707757 11.6328125 32.95117188 C7.75517146 32.96220516 3.87760193 32.97947189 0 33 C0 32.67 0 32.34 0 32 C10.56 32 21.12 32 32 32 C32 22.43 32 12.86 32 3 C24.13277651 3.03932942 24.13277651 3.03932942 16.265625 3.09008789 C10.4098216 3.10478429 4.7883052 2.90087593 -1 2 C-0.67 1.34 -0.34 0.68 0 0 Z " fill="#E1E1E1" transform="translate(645,409)"/>
<path d="M0 0 C11.22 0 22.44 0 34 0 C34.33 11.22 34.66 22.44 35 34 C40.94 34.33 46.88 34.66 53 35 C53 35.33 53 35.66 53 36 C49.85418577 36.02888514 46.70840531 36.04675923 43.5625 36.0625 C42.66466797 36.07087891 41.76683594 36.07925781 40.84179688 36.08789062 C39.56079102 36.09272461 39.56079102 36.09272461 38.25390625 36.09765625 C37.46314697 36.10289307 36.6723877 36.10812988 35.85766602 36.11352539 C34 36 34 36 33 35 C32.75544754 32.11971542 32.57417759 29.26091367 32.4375 26.375 C32.39431641 25.59898437 32.35113281 24.82296875 32.30664062 24.0234375 C31.91805749 16.32579072 32 8.73797226 32 1 C21.77 1 11.54 1 1 1 C1.33 12.55 1.66 24.1 2 36 C-1.45323989 37.15107996 -4.03288525 37.08142811 -7.67456055 37.02172852 C-8.347995 37.01212097 -9.02142944 37.00251343 -9.715271 36.99261475 C-11.93919437 36.95965754 -14.16291928 36.91931291 -16.38671875 36.87890625 C-17.929421 36.85460192 -19.47213058 36.83075851 -21.0148468 36.80735779 C-25.07390694 36.74454798 -29.13283729 36.67547257 -33.19177246 36.60510254 C-37.33416842 36.53439106 -41.47665636 36.46959094 -45.61914062 36.40429688 C-53.7461956 36.27532453 -61.87312298 36.13973444 -70 36 C-70 35.67 -70 35.34 -70 35 C-46.9 35 -23.8 35 0 35 C0 23.45 0 11.9 0 0 Z " fill="#E2E2E2" transform="translate(544,340)"/>
<path d="M0 0 C37.95 0 75.9 0 115 0 C115 0.99 115 1.98 115 3 C85.63 3 56.26 3 26 3 C26 2.67 26 2.34 26 2 C13.13 1.505 13.13 1.505 0 1 C0 0.67 0 0.34 0 0 Z " fill="#DEDEDE" transform="translate(509,818)"/>
<path d="M0 0 C9.24 0 18.48 0 28 0 C28 0.33 28 0.66 28 1 C19.09 1 10.18 1 1 1 C1.01160156 3.44277344 1.02320313 5.88554687 1.03515625 8.40234375 C1.04294684 10.75870636 1.04902359 13.11506756 1.05493164 15.47143555 C1.05997174 17.11369464 1.06680378 18.75594923 1.07543945 20.39819336 C1.08751926 22.75375479 1.09323139 25.10925709 1.09765625 27.46484375 C1.10281754 28.20339096 1.10797882 28.94193817 1.11329651 29.7028656 C1.1134925 31.46898088 1.06194719 33.23497146 1 35 C-0.92472662 36.92472662 -4.46878456 36.25325156 -7.09765625 36.31640625 C-9.04297241 36.37356812 -9.04297241 36.37356812 -11.02758789 36.43188477 C-12.68910889 36.47498779 -14.35062988 36.51809082 -16.0625 36.5625 C-23.9515625 36.7790625 -23.9515625 36.7790625 -32 37 C-32 47.89 -32 58.78 -32 70 C-32.66 70 -33.32 70 -34 70 C-34 58.12 -34 46.24 -34 34 C-22.78 34 -11.56 34 0 34 C0 22.78 0 11.56 0 0 Z " fill="#FBFBFB" transform="translate(307,376)"/>
<path d="M0 0 C21.78 0 43.56 0 66 0 C66 11.88 66 23.76 66 36 C65.34 35.67 64.68 35.34 64 35 C64 24.11 64 13.22 64 2 C59.33230469 2.01740234 59.33230469 2.01740234 54.5703125 2.03515625 C51.49202577 2.04299768 48.41374024 2.04904536 45.33544922 2.05493164 C43.22737108 2.05990125 41.11929627 2.06667926 39.01123047 2.07543945 C25.96762568 2.12820987 13.01392091 1.91222916 0 1 C0 0.67 0 0.34 0 0 Z " fill="#F6F7F7" transform="translate(579,374)"/>
<path d="M0 0 C0.33 0 0.66 0 1 0 C1.79997567 17.40266742 2.2130528 34.78346467 2.24023438 52.20458984 C2.25020739 56.08060159 2.28150447 59.95613705 2.3125 63.83203125 C2.31900866 66.30468442 2.32426743 68.77734127 2.328125 71.25 C2.3404718 72.40491943 2.3528186 73.55983887 2.36553955 74.74975586 C2.36253845 75.80686768 2.35953735 76.86397949 2.35644531 77.953125 C2.36009094 78.88286133 2.36373657 79.81259766 2.36749268 80.77050781 C2.24622009 81.50624023 2.12494751 82.24197266 2 83 C0.515 83.99 0.515 83.99 -1 85 C-1.02334119 76.13219865 -1.04102468 67.26440815 -1.05181217 58.3965826 C-1.05699394 54.27731669 -1.06400424 50.15807204 -1.07543945 46.03881836 C-1.08643793 42.05117654 -1.0923121 38.06355496 -1.09487724 34.07589912 C-1.09670135 32.56715133 -1.10026191 31.05840444 -1.10573006 29.54966545 C-1.14012156 19.65185546 -0.7895391 9.86909893 0 0 Z " fill="#E4E5E5" transform="translate(647,565)"/>
<path d="M0 0 C2.19852032 -0.00989099 4.39617292 -0.0411081 6.59448242 -0.07226562 C7.99616966 -0.07878087 9.39786346 -0.08403711 10.79956055 -0.08789062 C12.05969971 -0.09723633 13.31983887 -0.10658203 14.61816406 -0.11621094 C15.60486084 0.00141602 16.59155762 0.11904297 17.6081543 0.24023438 C18.5981543 1.72523438 18.5981543 1.72523438 19.6081543 3.24023438 C12.4121818 3.38645169 5.21613156 3.52830167 -1.97998047 3.66748047 C-4.4145694 3.71503914 -6.84914086 3.76350352 -9.28369141 3.81298828 C-22.62525703 4.08351868 -35.96535643 4.29362855 -49.30981445 4.33398438 C-50.43623856 4.34046997 -51.56266266 4.34695557 -52.72322083 4.3536377 C-57.72209659 4.35651156 -62.48249714 4.32087837 -67.3918457 3.24023438 C-67.3918457 2.91023438 -67.3918457 2.58023437 -67.3918457 2.24023438 C-66.177146 2.21517822 -64.96244629 2.19012207 -63.7109375 2.16430664 C-59.15778996 2.06936696 -54.60476465 1.96936603 -50.05175781 1.86791992 C-48.08987306 1.82489543 -46.12795862 1.78320116 -44.16601562 1.74291992 C-30.62056603 1.48567277 -30.62056603 1.48567277 -17.11816406 0.46069336 C-11.42526753 0.0003472 -5.708636 0.01557432 0 0 Z " fill="#E7E7E7" transform="translate(455.391845703125,302.759765625)"/>
<path d="M0 0 C0.33 0 0.66 0 1 0 C1 20.13 1 40.26 1 61 C-10.55 61 -22.1 61 -34 61 C-34 55 -34 55 -32 53 C-32 54.98 -32 56.96 -32 59 C-21.77 59 -11.54 59 -1 59 C-0.67 39.53 -0.34 20.06 0 0 Z " fill="#FCFCFC" transform="translate(543,213)"/>
<path d="M0 0 C0 12.21 0 24.42 0 37 C-3.07874877 38.53937439 -6.26736697 38.00296786 -9.6328125 37.87890625 C-10.76056595 37.84348976 -10.76056595 37.84348976 -11.91110229 37.80735779 C-14.31592566 37.7306938 -16.72042918 37.64668156 -19.125 37.5625 C-20.75389052 37.50928203 -22.38279672 37.45654161 -24.01171875 37.40429688 C-28.0080156 37.27507502 -32.00404092 37.13926173 -36 37 C-36 36.67 -36 36.34 -36 36 C-24.78 36 -13.56 36 -2 36 C-2 24.45 -2 12.9 -2 1 C-11.9 1 -21.8 1 -32 1 C-32 0.67 -32 0.34 -32 0 C-27.7643915 -0.16752496 -23.52859426 -0.32809332 -19.29248047 -0.48217773 C-17.85100177 -0.5355959 -16.40959259 -0.59092518 -14.96826172 -0.64819336 C-12.89826447 -0.73010997 -10.82811573 -0.80518359 -8.7578125 -0.87890625 C-6.88826904 -0.94960327 -6.88826904 -0.94960327 -4.98095703 -1.02172852 C-2 -1 -2 -1 0 0 Z " fill="#D4D5D5" transform="translate(378,478)"/>
<path d="M0 0 C1.32 0 2.64 0 4 0 C4 10.56 4 21.12 4 32 C25.78 32 47.56 32 70 32 C70 32.33 70 32.66 70 33 C61.28164878 33.15359569 52.56322756 33.30177736 43.84466648 33.4429636 C39.79670216 33.50868731 35.74878767 33.57630653 31.70092773 33.64819336 C27.79770613 33.71744285 23.89443223 33.78179731 19.9910717 33.84269524 C18.49863672 33.86685196 17.00622968 33.89280067 15.51385689 33.92053413 C13.43058776 33.95894837 11.34731213 33.99110544 9.26391602 34.02172852 C8.07588882 34.04171402 6.88786163 34.06169952 5.66383362 34.08229065 C3 34 3 34 2 33 C1.9116033 30.6243148 1.88469695 28.27791326 1.90234375 25.90234375 C1.9037587 25.19348526 1.90517365 24.48462677 1.90663147 23.75428772 C1.91224557 21.48198288 1.92480037 19.20977525 1.9375 16.9375 C1.94251319 15.40039204 1.94707641 13.86328255 1.95117188 12.32617188 C1.96221958 8.55074358 1.97949359 4.77538829 2 1 C1.34 0.67 0.68 0.34 0 0 Z " fill="#C7C7C7" transform="translate(269,789)"/>
<path d="M0 0 C7.28421548 -0.02312916 14.5684231 -0.04091801 21.85266781 -0.05181217 C25.23471813 -0.05703975 28.6167434 -0.06413511 31.9987793 -0.07543945 C35.88329777 -0.08834267 39.76780597 -0.09322924 43.65234375 -0.09765625 C44.87211411 -0.10281754 46.09188446 -0.10797882 47.34861755 -0.11329651 C49.03024742 -0.11340981 49.03024742 -0.11340981 50.74584961 -0.11352539 C51.73846298 -0.115746 52.73107635 -0.11796661 53.75376892 -0.12025452 C56 0 56 0 57 1 C57.0169493 3.52316057 56.97114756 6.01529688 56.87890625 8.53515625 C56.84348976 9.66503212 56.84348976 9.66503212 56.80735779 10.81773376 C56.73054502 13.23283929 56.64659728 15.6476382 56.5625 18.0625 C56.5092969 19.69594834 56.4565564 21.32941182 56.40429688 22.96289062 C56.27490625 26.97545601 56.13911453 30.98776044 56 35 C55.67 35 55.34 35 55 35 C55 24.11 55 13.22 55 2 C49.6375 2.020625 44.275 2.04125 38.75 2.0625 C25.80315979 2.08713776 12.92107162 1.89885716 0 1 C0 0.67 0 0.34 0 0 Z " fill="#E7E8E8" transform="translate(320,785)"/>
<path d="M0 0 C0.33 0 0.66 0 1 0 C1 11.22 1 22.44 1 34 C11.89 34 22.78 34 34 34 C34 34.33 34 34.66 34 35 C29.19510717 35.21681633 24.3899718 35.41371912 19.58349609 35.59204102 C17.94785655 35.65554996 16.31242035 35.72453859 14.67724609 35.79907227 C12.32941809 35.90514454 9.98156859 35.99161666 7.6328125 36.07421875 C6.89942657 36.11157639 6.16604065 36.14893402 5.41043091 36.18742371 C3.34814453 36.2487793 3.34814453 36.2487793 0 36 C-2.45286296 32.32070555 -2.23228878 30.52622093 -2.1953125 26.14453125 C-2.1924826 25.48289474 -2.18965271 24.82125824 -2.18673706 24.13957214 C-2.17555918 22.03036263 -2.15045981 19.92158075 -2.125 17.8125 C-2.11496707 16.38086552 -2.10584176 14.94922436 -2.09765625 13.51757812 C-2.07733071 10.01142222 -2.03817991 6.5061887 -2 3 C-6.29 3 -10.58 3 -15 3 C-15 2.67 -15 2.34 -15 2 C-10.38 2 -5.76 2 -1 2 C-0.67 1.34 -0.34 0.68 0 0 Z " fill="#E6E6E7" transform="translate(612,650)"/>
<path d="M0 0 C11.22 0 22.44 0 34 0 C34 0.66 34 1.32 34 2 C23.44 2 12.88 2 2 2 C1.67 13.55 1.34 25.1 1 37 C0.67 37 0.34 37 0 37 C0 24.79 0 12.58 0 0 Z " fill="#D3D3D3" transform="translate(240,446)"/>
<path d="M0 0 C0.33 0 0.66 0 1 0 C1 3.63 1 7.26 1 11 C-2.93739666 11.16948056 -6.8748883 11.33565524 -10.8125 11.5 C-11.91271484 11.54769531 -13.01292969 11.59539063 -14.14648438 11.64453125 C-15.23896484 11.68964844 -16.33144531 11.73476563 -17.45703125 11.78125 C-18.44678955 11.82314453 -19.43654785 11.86503906 -20.45629883 11.90820312 C-25.30267003 12.03374467 -30.15200304 12 -35 12 C-35 21.9 -35 31.8 -35 42 C-35.33 42 -35.66 42 -36 42 C-36.88066607 34.76602819 -37.12519167 27.65721971 -37.0625 20.375 C-37.041875 16.95125 -37.02125 13.5275 -37 10 C-24.79 10 -12.58 10 0 10 C0 6.7 0 3.4 0 0 Z " fill="#FBFBFB" transform="translate(752,779)"/>
<path d="M0 0 C0.99 0.66 1.98 1.32 3 2 C3 8.27 3 14.54 3 21 C-30.165 20.505 -30.165 20.505 -64 20 C-64 19.67 -64 19.34 -64 19 C-42.88 19 -21.76 19 0 19 C0 12.73 0 6.46 0 0 Z " fill="#E7E8E8" transform="translate(338,319)"/>
<path d="M0 0 C0.33 0 0.66 0 1 0 C0.98952637 0.9286084 0.97905273 1.8572168 0.96826172 2.81396484 C0.93420796 6.2542569 0.90911507 9.69437027 0.89013672 13.13476562 C0.88006957 14.6247032 0.86641482 16.11462097 0.84912109 17.60449219 C0.82490347 19.74419028 0.81352436 21.88362753 0.8046875 24.0234375 C0.79421387 25.31169434 0.78374023 26.59995117 0.77294922 27.92724609 C0.67162336 31.10700806 0.67162336 31.10700806 3 33 C-5.25 33 -13.5 33 -22 33 C-22.33 32.34 -22.66 31.68 -23 31 C-17.98418549 29.98241463 -13.21249767 29.88189087 -8.125 29.9375 C-4.103125 29.9684375 -4.103125 29.9684375 0 30 C0 20.1 0 10.2 0 0 Z " fill="#E1E1E1" transform="translate(609,479)"/>
<path d="M0 0 C0.66 0 1.32 0 2 0 C2.33 5.94 2.66 11.88 3 18 C3.33 18 3.66 18 4 18 C4 23.28 4 28.56 4 34 C3.01 34 2.02 34 1 34 C0.31583529 22.65019611 -0.15298709 11.37204047 0 0 Z " fill="#DEDEDE" transform="translate(749,204)"/>
<path d="M0 0 C0.99 0.66 1.98 1.32 3 2 C3.34057617 3.97119141 3.34057617 3.97119141 3.29296875 6.3515625 C3.28330078 7.20234375 3.27363281 8.053125 3.26367188 8.9296875 C3.23853516 9.81914062 3.21339844 10.70859375 3.1875 11.625 C3.17396484 12.5221875 3.16042969 13.419375 3.14648438 14.34375 C3.11107473 16.56275471 3.05726654 18.78145176 3 21 C-0.3 20.67 -3.6 20.34 -7 20 C-7 19.67 -7 19.34 -7 19 C-4.69 19 -2.38 19 0 19 C0 12.73 0 6.46 0 0 Z " fill="#DBDCDB" transform="translate(338,319)"/>
<path d="M0 0 C-7.26 0 -14.52 0 -22 0 C-21.67 -0.66 -21.34 -1.32 -21 -2 C-6.19230769 -4.64423077 -6.19230769 -4.64423077 0 0 Z " fill="#E6E7E7" transform="translate(580,202)"/>
<path d="M0 0 C2.45391569 3.68087353 2.22802759 6.44355588 2.125 10.6875 C2.11597656 11.38939453 2.10695313 12.09128906 2.09765625 12.81445312 C2.07413704 14.54311525 2.03826713 16.27160145 2 18 C1.01 18.33 0.02 18.66 -1 19 C-1.02690104 16.20826945 -1.04679053 13.41679652 -1.0625 10.625 C-1.07087891 9.8309375 -1.07925781 9.036875 -1.08789062 8.21875 C-1.11328125 2.2265625 -1.11328125 2.2265625 0 0 Z " fill="#E7E8E8" transform="translate(752,770)"/>
<path d="M0 0 C0.33 0 0.66 0 1 0 C1 2.97 1 5.94 1 9 C3.97 9.33 6.94 9.66 10 10 C10 10.33 10 10.66 10 11 C6.7 11 3.4 11 0 11 C0 13.31 0 15.62 0 18 C-0.33 18 -0.66 18 -1 18 C-1.09706112 11.88514973 -0.77040851 6.06696699 0 0 Z " fill="#D9D8D9" transform="translate(715,230)"/>
</svg>
