<?xml version="1.0" encoding="UTF-8"?>
<svg version="1.1" xmlns="http://www.w3.org/2000/svg" width="1024" height="1024">
<path d="M0 0 C337.92 0 675.84 0 1024 0 C1024 337.92 1024 675.84 1024 1024 C686.08 1024 348.16 1024 0 1024 C0 686.08 0 348.16 0 0 Z " fill="#F0F0F0" transform="translate(0,0)"/>
<path d="M0 0 C1.2101754 0.00085602 2.4203508 0.00171204 3.66719818 0.00259399 C18.71564682 0.01402562 33.76407404 0.03416142 48.8125 0.0625 C49.45428827 17.71475109 49.96405158 35.33390061 49.875 53 C49.854375 58.960625 49.83375 64.92125 49.8125 71.0625 C37.2725 71.0625 24.7325 71.0625 11.8125 71.0625 C11.8125 59.8425 11.8125 48.6225 11.8125 37.0625 C7.75195312 37.17078125 7.75195312 37.17078125 3.609375 37.28125 C-16.99876611 37.8172482 -37.571196 38.1757764 -58.1875 38.0625 C-58.1875 48.9525 -58.1875 59.8425 -58.1875 71.0625 C-79.9675 71.0625 -101.7475 71.0625 -124.1875 71.0625 C-124.1875 82.6125 -124.1875 94.1625 -124.1875 106.0625 C-141.5125 106.5575 -141.5125 106.5575 -159.1875 107.0625 C-159.1875 118.2825 -159.1875 129.5025 -159.1875 141.0625 C-155.8875 140.7325 -152.5875 140.4025 -149.1875 140.0625 C-147.03535213 139.98648022 -144.88151218 139.94423125 -142.72802734 139.94897461 C-141.56757904 139.94905014 -140.40713074 139.94912567 -139.21151733 139.94920349 C-137.38591782 139.95694542 -137.38591782 139.95694542 -135.5234375 139.96484375 C-133.6136058 139.96696617 -133.6136058 139.96696617 -131.66519165 139.96913147 C-128.31485022 139.97374995 -124.96457973 139.98270115 -121.61425781 139.99383545 C-118.1816469 140.0041488 -114.74902838 140.00870533 -111.31640625 140.01367188 C-104.60673153 140.0237951 -97.89717914 140.04337805 -91.1875 140.0625 C-91.1875 128.5125 -91.1875 116.9625 -91.1875 105.0625 C-68.7475 105.7225 -46.3075 106.3825 -23.1875 107.0625 C-23.5175 118.6125 -23.8475 130.1625 -24.1875 142.0625 C-35.4075 142.0625 -46.6275 142.0625 -58.1875 142.0625 C-58.1875 152.9525 -58.1875 163.8425 -58.1875 175.0625 C-60.641875 175.2275 -63.09625 175.3925 -65.625 175.5625 C-66.35775146 175.61470703 -67.09050293 175.66691406 -67.84545898 175.72070312 C-75.99301984 176.23138223 -83.96156797 176.0625 -92.1875 176.0625 C-92.1875 187.2825 -92.1875 198.5025 -92.1875 210.0625 C-91.5275 209.7325 -90.8675 209.4025 -90.1875 209.0625 C-88.12457015 208.97089663 -86.05861115 208.9449882 -83.99365234 208.94897461 C-82.69245453 208.94905014 -81.39125671 208.94912567 -80.05062866 208.94920349 C-78.62489789 208.95431053 -77.1991675 208.95952653 -75.7734375 208.96484375 C-74.31898039 208.96670853 -72.86452266 208.96813215 -71.4100647 208.96913147 C-67.57957224 208.97295195 -63.74911763 208.98277824 -59.91864014 208.99383545 C-55.32396222 209.00585686 -50.72927166 209.01045405 -46.13458252 209.01628876 C-39.15219535 209.02599023 -32.16989123 209.04515005 -25.1875 209.0625 C-24.8575 220.6125 -24.5275 232.1625 -24.1875 244.0625 C-13.2975 244.0625 -2.4075 244.0625 8.8125 244.0625 C8.8125 255.2825 8.8125 266.5025 8.8125 278.0625 C20.6925 278.0625 32.5725 278.0625 44.8125 278.0625 C44.8125 300.5025 44.8125 322.9425 44.8125 346.0625 C56.0325 346.0625 67.2525 346.0625 78.8125 346.0625 C78.8125 414.0425 78.8125 482.0225 78.8125 552.0625 C67.9225 552.0625 57.0325 552.0625 45.8125 552.0625 C45.8125 574.1725 45.8125 596.2825 45.8125 619.0625 C40.5929167 619.71494791 36.07198186 620.18407168 30.90625 620.16015625 C29.78927734 620.15765869 28.67230469 620.15516113 27.52148438 620.15258789 C26.13251953 620.14348389 24.74355469 620.13437988 23.3125 620.125 C18.8575 620.104375 14.4025 620.08375 9.8125 620.0625 C9.8125 631.2825 9.8125 642.5025 9.8125 654.0625 C-1.4075 654.0625 -12.6275 654.0625 -24.1875 654.0625 C-24.1875 665.2825 -24.1875 676.5025 -24.1875 688.0625 C-46.2975 688.0625 -68.4075 688.0625 -91.1875 688.0625 C-91.1875 699.6125 -91.1875 711.1625 -91.1875 723.0625 C-149.68859912 723.16916732 -208.18853294 722.87374871 -266.68891144 722.61711788 C-276.51395917 722.57404128 -286.33900976 722.53166427 -296.1640625 722.48974609 C-296.86412714 722.4867591 -297.56419177 722.4837721 -298.28547049 722.48069459 C-301.80032694 722.46570114 -305.31518345 722.45071897 -308.83003998 722.43574238 C-337.6158676 722.31307335 -366.40168629 722.18839138 -395.1875 722.0625 C-395.1875 711.1725 -395.1875 700.2825 -395.1875 689.0625 C-399.89386719 689.07990234 -399.89386719 689.07990234 -404.6953125 689.09765625 C-407.81673075 689.10550902 -410.9381478 689.11155015 -414.05957031 689.11743164 C-416.18880729 689.12238558 -418.31804102 689.1291506 -420.44726562 689.13793945 C-435.05939422 689.19663657 -449.59675555 688.86485526 -464.1875 688.0625 C-464.21656612 683.50001341 -464.23432113 678.9375507 -464.25 674.375 C-464.25837891 673.08142578 -464.26675781 671.78785156 -464.27539062 670.45507812 C-464.27861328 669.20791016 -464.28183594 667.96074219 -464.28515625 666.67578125 C-464.29039307 665.52891846 -464.29562988 664.38205566 -464.30102539 663.20043945 C-464.19825807 660.35986223 -463.84066416 657.82206208 -463.1875 655.0625 C-464.15163818 655.06773682 -465.11577637 655.07297363 -466.10913086 655.07836914 C-469.67422564 655.09642118 -473.23931636 655.10793274 -476.80444336 655.11743164 C-478.34969766 655.1224714 -479.89494716 655.1293032 -481.44018555 655.13793945 C-483.65675029 655.15002076 -485.87325218 655.15573173 -488.08984375 655.16015625 C-489.13204323 655.16789818 -489.13204323 655.16789818 -490.19529724 655.17579651 C-491.8597933 655.17599277 -493.52415499 655.12439129 -495.1875 655.0625 C-496.1875 654.0625 -496.1875 654.0625 -496.30102539 650.73608398 C-496.30077435 649.26024445 -496.29521514 647.78439903 -496.28515625 646.30859375 C-496.28414917 645.62156372 -496.28314209 644.93453369 -496.28210449 644.22668457 C-496.27685776 641.65110616 -496.26289659 639.07555147 -496.25 636.5 C-496.229375 630.745625 -496.20875 624.99125 -496.1875 619.0625 C-507.7375 619.0625 -519.2875 619.0625 -531.1875 619.0625 C-531.1875 597.2825 -531.1875 575.5025 -531.1875 553.0625 C-532.5075 553.3925 -533.8275 553.7225 -535.1875 554.0625 C-545.0875 554.0625 -554.9875 554.0625 -565.1875 554.0625 C-565.1875 485.7525 -565.1875 417.4425 -565.1875 347.0625 C-553.6375 346.7325 -542.0875 346.4025 -530.1875 346.0625 C-529.8575 323.6225 -529.5275 301.1825 -529.1875 278.0625 C-517.9675 278.0625 -506.7475 278.0625 -495.1875 278.0625 C-495.1875 266.5125 -495.1875 254.9625 -495.1875 243.0625 C-484.6275 242.7325 -474.0675 242.4025 -463.1875 242.0625 C-462.8575 231.1725 -462.5275 220.2825 -462.1875 209.0625 C-439.7475 209.0625 -417.3075 209.0625 -394.1875 209.0625 C-394.1875 202.7925 -394.1875 196.5225 -394.1875 190.0625 C-393.8575 184.7825 -393.5275 179.5025 -393.1875 174.0625 C-349.6275 174.0625 -306.0675 174.0625 -261.1875 174.0625 C-261.5175 152.2825 -261.8475 130.5025 -262.1875 108.0625 C-272.7475 107.7325 -283.3075 107.4025 -294.1875 107.0625 C-294.23363208 99.32512442 -294.27339214 91.58823405 -294.29736328 83.85083008 C-294.30736588 81.2235349 -294.32097224 78.5962507 -294.33837891 75.96899414 C-294.36288113 72.17331213 -294.3740409 68.37777845 -294.3828125 64.58203125 C-294.39313507 63.42419632 -294.40345764 62.26636139 -294.41409302 61.07344055 C-294.41424408 59.95326035 -294.41439514 58.83308014 -294.41455078 57.67895508 C-294.418992 56.71298904 -294.42343323 55.74702301 -294.42800903 54.75178528 C-294.06286563 49.15067272 -293.04099728 43.61023232 -292.1875 38.0625 C-270.7375 38.0625 -249.2875 38.0625 -227.1875 38.0625 C-227.07669897 71.74601241 -227.49697323 105.38698919 -228.1875 139.0625 C-216.6375 139.7225 -205.0875 140.3825 -193.1875 141.0625 C-193.1875 117.9625 -193.1875 94.8625 -193.1875 71.0625 C-181.9675 71.0625 -170.7475 71.0625 -159.1875 71.0625 C-159.5175 68.4225 -159.8475 65.7825 -160.1875 63.0625 C-160.26130033 60.98021978 -160.29600812 58.89605937 -160.28515625 56.8125 C-160.28193359 55.71035156 -160.27871094 54.60820312 -160.27539062 53.47265625 C-160.26701172 52.34730469 -160.25863281 51.22195312 -160.25 50.0625 C-160.24548828 48.90621094 -160.24097656 47.74992187 -160.23632812 46.55859375 C-160.22462529 43.72650775 -160.20822996 40.89453189 -160.1875 38.0625 C-151.91407531 37.23942601 -143.7484806 36.93384469 -135.4375 37 C-131.725 37.020625 -128.0125 37.04125 -124.1875 37.0625 C-124.1875 25.1825 -124.1875 13.3025 -124.1875 1.0625 C-115.22930425 0.88320802 -106.27119199 0.71328969 -97.3125 0.5625 C-96.60746212 0.55062275 -95.90242424 0.5387455 -95.17602158 0.52650833 C-63.45152589 -0.00034929 -31.72819663 -0.02260246 0 0 Z " fill="#F0F0F0" transform="translate(737.1875,137.9375)"/>
<path d="M0 0 C1.2101754 0.00085602 2.4203508 0.00171204 3.66719818 0.00259399 C18.71564682 0.01402562 33.76407404 0.03416142 48.8125 0.0625 C49.45428827 17.71475109 49.96405158 35.33390061 49.875 53 C49.854375 58.960625 49.83375 64.92125 49.8125 71.0625 C37.2725 71.0625 24.7325 71.0625 11.8125 71.0625 C11.8125 59.8425 11.8125 48.6225 11.8125 37.0625 C7.75195312 37.17078125 7.75195312 37.17078125 3.609375 37.28125 C-16.99876611 37.8172482 -37.571196 38.1757764 -58.1875 38.0625 C-58.1875 48.9525 -58.1875 59.8425 -58.1875 71.0625 C-79.9675 71.0625 -101.7475 71.0625 -124.1875 71.0625 C-124.1875 82.6125 -124.1875 94.1625 -124.1875 106.0625 C-141.5125 106.5575 -141.5125 106.5575 -159.1875 107.0625 C-159.1875 118.2825 -159.1875 129.5025 -159.1875 141.0625 C-155.8875 140.7325 -152.5875 140.4025 -149.1875 140.0625 C-147.03535213 139.98648022 -144.88151218 139.94423125 -142.72802734 139.94897461 C-141.56757904 139.94905014 -140.40713074 139.94912567 -139.21151733 139.94920349 C-137.38591782 139.95694542 -137.38591782 139.95694542 -135.5234375 139.96484375 C-133.6136058 139.96696617 -133.6136058 139.96696617 -131.66519165 139.96913147 C-128.31485022 139.97374995 -124.96457973 139.98270115 -121.61425781 139.99383545 C-118.1816469 140.0041488 -114.74902838 140.00870533 -111.31640625 140.01367188 C-104.60673153 140.0237951 -97.89717914 140.04337805 -91.1875 140.0625 C-91.1875 128.5125 -91.1875 116.9625 -91.1875 105.0625 C-68.7475 105.7225 -46.3075 106.3825 -23.1875 107.0625 C-23.5175 118.6125 -23.8475 130.1625 -24.1875 142.0625 C-35.4075 142.0625 -46.6275 142.0625 -58.1875 142.0625 C-58.1875 152.9525 -58.1875 163.8425 -58.1875 175.0625 C-60.641875 175.2275 -63.09625 175.3925 -65.625 175.5625 C-66.35775146 175.61470703 -67.09050293 175.66691406 -67.84545898 175.72070312 C-75.99301984 176.23138223 -83.96156797 176.0625 -92.1875 176.0625 C-92.1875 187.2825 -92.1875 198.5025 -92.1875 210.0625 C-114.2975 210.0625 -136.4075 210.0625 -159.1875 210.0625 C-159.1875 198.3910724 -159.01905479 186.704267 -158.1875 175.0625 C-170.0675 175.0625 -181.9475 175.0625 -194.1875 175.0625 C-194.1875 180.6725 -194.1875 186.2825 -194.1875 192.0625 C-194.24701511 196.40852744 -194.31570248 200.75239644 -194.40625 205.09765625 C-194.43954407 206.79286659 -194.43954407 206.79286659 -194.47351074 208.52232361 C-194.54327603 212.0565823 -194.61533866 215.5907895 -194.6875 219.125 C-194.73583081 221.55273132 -194.78400899 223.98046568 -194.83203125 226.40820312 C-194.94848262 232.29301289 -195.06805594 238.17774722 -195.1875 244.0625 C-183.3075 244.0625 -171.4275 244.0625 -159.1875 244.0625 C-159.1875 255.9425 -159.1875 267.8225 -159.1875 280.0625 C-204.3975 280.0625 -249.6075 280.0625 -296.1875 280.0625 C-296.1875 252.0625 -296.1875 252.0625 -295.1875 245.0625 C-284.2975 245.0625 -273.4075 245.0625 -262.1875 245.0625 C-262.1875 233.5125 -262.1875 221.9625 -262.1875 210.0625 C-294.1975 210.0625 -326.2075 210.0625 -359.1875 210.0625 C-359.1875 221.2825 -359.1875 232.5025 -359.1875 244.0625 C-393.3425 243.5675 -393.3425 243.5675 -428.1875 243.0625 C-428.1875 254.6125 -428.1875 266.1625 -428.1875 278.0625 C-438.7475 278.3925 -449.3075 278.7225 -460.1875 279.0625 C-460.5175 290.6125 -460.8475 302.1625 -461.1875 314.0625 C-472.4075 314.0625 -483.6275 314.0625 -495.1875 314.0625 C-495.1875 336.1725 -495.1875 358.2825 -495.1875 381.0625 C-505.7475 381.0625 -516.3075 381.0625 -527.1875 381.0625 C-527.17589844 383.59035156 -527.16429687 386.11820313 -527.15234375 388.72265625 C-527.05442656 418.02711185 -527.3364456 447.32302694 -527.6875 476.625 C-527.69945782 477.6233852 -527.71141563 478.6217704 -527.72373581 479.6504097 C-527.8735429 492.12116776 -528.02869744 504.59185344 -528.1875 517.0625 C-517.6275 517.0625 -507.0675 517.0625 -496.1875 517.0625 C-495.0625 528.3125 -495.0625 528.3125 -495.07397461 533.33837891 C-495.07408791 535.01898911 -495.07408791 535.01898911 -495.07420349 536.73355103 C-495.08194542 538.49352921 -495.08194542 538.49352921 -495.08984375 540.2890625 C-495.0912587 541.51789154 -495.09267365 542.74672058 -495.09413147 544.01278687 C-495.09969041 547.90438358 -495.1122352 551.79592093 -495.125 555.6875 C-495.13002031 558.33984291 -495.13458228 560.99218674 -495.13867188 563.64453125 C-495.14879179 570.1172283 -495.16837514 576.58979837 -495.1875 583.0625 C-484.6275 583.0625 -474.0675 583.0625 -463.1875 583.0625 C-463.1875 594.9425 -463.1875 606.8225 -463.1875 619.0625 C-451.6375 619.0625 -440.0875 619.0625 -428.1875 619.0625 C-428.1875 630.6125 -428.1875 642.1625 -428.1875 654.0625 C-405.4175 653.7325 -382.6475 653.4025 -359.1875 653.0625 C-359.1875 664.6125 -359.1875 676.1625 -359.1875 688.0625 C-281.9675 688.0625 -204.7475 688.0625 -125.1875 688.0625 C-125.1875 676.5125 -125.1875 664.9625 -125.1875 653.0625 C-103.4075 653.0625 -81.6275 653.0625 -59.1875 653.0625 C-59.1875 641.5125 -59.1875 629.9625 -59.1875 618.0625 C-47.9675 618.0625 -36.7475 618.0625 -25.1875 618.0625 C-25.1875 606.8425 -25.1875 595.6225 -25.1875 584.0625 C-13.6375 584.0625 -2.0875 584.0625 9.8125 584.0625 C9.8125 561.9525 9.8125 539.8425 9.8125 517.0625 C20.0425 516.7325 30.2725 516.4025 40.8125 516.0625 C40.8125 471.8425 40.8125 427.6225 40.8125 382.0625 C29.9225 382.0625 19.0325 382.0625 7.8125 382.0625 C7.8125 358.9625 7.8125 335.8625 7.8125 312.0625 C-3.4075 312.0625 -14.6275 312.0625 -26.1875 312.0625 C-26.1875 300.8425 -26.1875 289.6225 -26.1875 278.0625 C-37.0775 278.0625 -47.9675 278.0625 -59.1875 278.0625 C-59.1875 266.5125 -59.1875 254.9625 -59.1875 243.0625 C-69.7475 243.0625 -80.3075 243.0625 -91.1875 243.0625 C-91.21041088 238.38104289 -91.23033732 233.69977898 -91.24243164 229.01831055 C-91.24747157 227.42455386 -91.2543035 225.83080181 -91.26293945 224.23706055 C-91.27501999 221.95099747 -91.28073155 219.66499533 -91.28515625 217.37890625 C-91.29031754 216.66223282 -91.29547882 215.94555939 -91.30079651 215.20716858 C-91.30099263 213.49186328 -91.24942007 211.77668734 -91.1875 210.0625 C-90.1875 209.0625 -90.1875 209.0625 -87.59959412 208.94224548 C-86.44709671 208.94446609 -85.2945993 208.94668671 -84.10717773 208.94897461 C-82.15526772 208.94908791 -82.15526772 208.94908791 -80.16392517 208.94920349 C-78.73298098 208.95431091 -77.30203718 208.95952692 -75.87109375 208.96484375 C-74.4152074 208.96670797 -72.95932043 208.96813185 -71.50343323 208.96913147 C-67.66470621 208.97295635 -63.82601681 208.98278636 -59.98730469 208.99383545 C-55.38514229 209.00584502 -50.78296734 209.01045196 -46.18079376 209.01628876 C-39.18300298 209.02599815 -32.1852948 209.04515487 -25.1875 209.0625 C-24.8575 220.6125 -24.5275 232.1625 -24.1875 244.0625 C-13.2975 244.0625 -2.4075 244.0625 8.8125 244.0625 C8.8125 255.2825 8.8125 266.5025 8.8125 278.0625 C20.6925 278.0625 32.5725 278.0625 44.8125 278.0625 C44.8125 300.5025 44.8125 322.9425 44.8125 346.0625 C56.0325 346.0625 67.2525 346.0625 78.8125 346.0625 C78.8125 414.0425 78.8125 482.0225 78.8125 552.0625 C67.9225 552.0625 57.0325 552.0625 45.8125 552.0625 C45.8125 574.1725 45.8125 596.2825 45.8125 619.0625 C40.5929167 619.71494791 36.07198186 620.18407168 30.90625 620.16015625 C29.78927734 620.15765869 28.67230469 620.15516113 27.52148438 620.15258789 C26.13251953 620.14348389 24.74355469 620.13437988 23.3125 620.125 C18.8575 620.104375 14.4025 620.08375 9.8125 620.0625 C9.8125 631.2825 9.8125 642.5025 9.8125 654.0625 C-1.4075 654.0625 -12.6275 654.0625 -24.1875 654.0625 C-24.1875 665.2825 -24.1875 676.5025 -24.1875 688.0625 C-46.2975 688.0625 -68.4075 688.0625 -91.1875 688.0625 C-91.1875 699.6125 -91.1875 711.1625 -91.1875 723.0625 C-149.68859912 723.16916732 -208.18853294 722.87374871 -266.68891144 722.61711788 C-276.51395917 722.57404128 -286.33900976 722.53166427 -296.1640625 722.48974609 C-296.86412714 722.4867591 -297.56419177 722.4837721 -298.28547049 722.48069459 C-301.80032694 722.46570114 -305.31518345 722.45071897 -308.83003998 722.43574238 C-337.6158676 722.31307335 -366.40168629 722.18839138 -395.1875 722.0625 C-395.1875 711.1725 -395.1875 700.2825 -395.1875 689.0625 C-399.89386719 689.07990234 -399.89386719 689.07990234 -404.6953125 689.09765625 C-407.81673075 689.10550902 -410.9381478 689.11155015 -414.05957031 689.11743164 C-416.18880729 689.12238558 -418.31804102 689.1291506 -420.44726562 689.13793945 C-435.05939422 689.19663657 -449.59675555 688.86485526 -464.1875 688.0625 C-464.21656612 683.50001341 -464.23432113 678.9375507 -464.25 674.375 C-464.25837891 673.08142578 -464.26675781 671.78785156 -464.27539062 670.45507812 C-464.27861328 669.20791016 -464.28183594 667.96074219 -464.28515625 666.67578125 C-464.29039307 665.52891846 -464.29562988 664.38205566 -464.30102539 663.20043945 C-464.19825807 660.35986223 -463.84066416 657.82206208 -463.1875 655.0625 C-464.15163818 655.06773682 -465.11577637 655.07297363 -466.10913086 655.07836914 C-469.67422564 655.09642118 -473.23931636 655.10793274 -476.80444336 655.11743164 C-478.34969766 655.1224714 -479.89494716 655.1293032 -481.44018555 655.13793945 C-483.65675029 655.15002076 -485.87325218 655.15573173 -488.08984375 655.16015625 C-489.13204323 655.16789818 -489.13204323 655.16789818 -490.19529724 655.17579651 C-491.8597933 655.17599277 -493.52415499 655.12439129 -495.1875 655.0625 C-496.1875 654.0625 -496.1875 654.0625 -496.30102539 650.73608398 C-496.30077435 649.26024445 -496.29521514 647.78439903 -496.28515625 646.30859375 C-496.28414917 645.62156372 -496.28314209 644.93453369 -496.28210449 644.22668457 C-496.27685776 641.65110616 -496.26289659 639.07555147 -496.25 636.5 C-496.229375 630.745625 -496.20875 624.99125 -496.1875 619.0625 C-507.7375 619.0625 -519.2875 619.0625 -531.1875 619.0625 C-531.1875 597.2825 -531.1875 575.5025 -531.1875 553.0625 C-532.5075 553.3925 -533.8275 553.7225 -535.1875 554.0625 C-545.0875 554.0625 -554.9875 554.0625 -565.1875 554.0625 C-565.1875 485.7525 -565.1875 417.4425 -565.1875 347.0625 C-553.6375 346.7325 -542.0875 346.4025 -530.1875 346.0625 C-529.8575 323.6225 -529.5275 301.1825 -529.1875 278.0625 C-517.9675 278.0625 -506.7475 278.0625 -495.1875 278.0625 C-495.1875 266.5125 -495.1875 254.9625 -495.1875 243.0625 C-484.6275 242.7325 -474.0675 242.4025 -463.1875 242.0625 C-462.8575 231.1725 -462.5275 220.2825 -462.1875 209.0625 C-439.7475 209.0625 -417.3075 209.0625 -394.1875 209.0625 C-394.1875 202.7925 -394.1875 196.5225 -394.1875 190.0625 C-393.8575 184.7825 -393.5275 179.5025 -393.1875 174.0625 C-349.6275 174.0625 -306.0675 174.0625 -261.1875 174.0625 C-261.5175 152.2825 -261.8475 130.5025 -262.1875 108.0625 C-272.7475 107.7325 -283.3075 107.4025 -294.1875 107.0625 C-294.23363208 99.32512442 -294.27339214 91.58823405 -294.29736328 83.85083008 C-294.30736588 81.2235349 -294.32097224 78.5962507 -294.33837891 75.96899414 C-294.36288113 72.17331213 -294.3740409 68.37777845 -294.3828125 64.58203125 C-294.39313507 63.42419632 -294.40345764 62.26636139 -294.41409302 61.07344055 C-294.41424408 59.95326035 -294.41439514 58.83308014 -294.41455078 57.67895508 C-294.418992 56.71298904 -294.42343323 55.74702301 -294.42800903 54.75178528 C-294.06286563 49.15067272 -293.04099728 43.61023232 -292.1875 38.0625 C-270.7375 38.0625 -249.2875 38.0625 -227.1875 38.0625 C-227.07669897 71.74601241 -227.49697323 105.38698919 -228.1875 139.0625 C-216.6375 139.7225 -205.0875 140.3825 -193.1875 141.0625 C-193.1875 117.9625 -193.1875 94.8625 -193.1875 71.0625 C-181.9675 71.0625 -170.7475 71.0625 -159.1875 71.0625 C-159.5175 68.4225 -159.8475 65.7825 -160.1875 63.0625 C-160.26130033 60.98021978 -160.29600812 58.89605937 -160.28515625 56.8125 C-160.28193359 55.71035156 -160.27871094 54.60820312 -160.27539062 53.47265625 C-160.26701172 52.34730469 -160.25863281 51.22195312 -160.25 50.0625 C-160.24548828 48.90621094 -160.24097656 47.74992187 -160.23632812 46.55859375 C-160.22462529 43.72650775 -160.20822996 40.89453189 -160.1875 38.0625 C-151.91407531 37.23942601 -143.7484806 36.93384469 -135.4375 37 C-131.725 37.020625 -128.0125 37.04125 -124.1875 37.0625 C-124.1875 25.1825 -124.1875 13.3025 -124.1875 1.0625 C-115.22930425 0.88320802 -106.27119199 0.71328969 -97.3125 0.5625 C-96.60746212 0.55062275 -95.90242424 0.5387455 -95.17602158 0.52650833 C-63.45152589 -0.00034929 -31.72819663 -0.02260246 0 0 Z " fill="#010101" transform="translate(737.1875,137.9375)"/>
<path d="M0 0 C11.88 0 23.76 0 36 0 C36 11.88 36 23.76 36 36 C23.79 36 11.58 36 -1 36 C-1.020625 30.616875 -1.04125 25.23375 -1.0625 19.6875 C-1.071604 17.99197998 -1.08070801 16.29645996 -1.09008789 14.54956055 C-1.09300888 13.20361409 -1.09555701 11.85766674 -1.09765625 10.51171875 C-1.10277222 9.81453735 -1.10788818 9.11735596 -1.11315918 8.39904785 C-1.11371559 5.3159858 -0.98329171 2.94987514 0 0 Z " fill="#050406" transform="translate(273,585)"/>
<path d="M0 0 C11.88 0.33 23.76 0.66 36 1 C36 9.86872095 35.9804622 18.60455843 35.5 27.4375 C35.335 30.593125 35.17 33.74875 35 37 C23.12 36.67 11.24 36.34 -1 36 C-1.020625 32.101875 -1.04125 28.20375 -1.0625 24.1875 C-1.071604 22.98246826 -1.08070801 21.77743652 -1.09008789 20.53588867 C-1.09258545 19.5482251 -1.09508301 18.56056152 -1.09765625 17.54296875 C-1.10289307 16.55321045 -1.10812988 15.56345215 -1.11352539 14.54370117 C-0.95784423 9.68410525 -0.44019285 4.84212138 0 0 Z " fill="#010101" transform="translate(344,483)"/>
<path d="M0 0 C2.40156023 7.48832954 2.22735139 14.69231008 2.125 22.5 C2.08375 26.955 2.0425 31.41 2 36 C-9.88 36 -21.76 36 -34 36 C-34.020625 30.410625 -34.04125 24.82125 -34.0625 19.0625 C-34.071604 17.29656494 -34.08070801 15.53062988 -34.09008789 13.71118164 C-34.09300714 12.31917395 -34.09555567 10.92716541 -34.09765625 9.53515625 C-34.10277222 8.80615112 -34.10788818 8.077146 -34.11315918 7.3260498 C-34.11347011 5.55029924 -34.06228515 3.77465792 -34 2 C-32.40714347 0.40714347 -30.68429167 0.77920738 -28.4765625 0.68359375 C-27.53683594 0.64169922 -26.59710937 0.59980469 -25.62890625 0.55664062 C-24.63761719 0.51732422 -23.64632812 0.47800781 -22.625 0.4375 C-21.67238281 0.39431641 -20.71976563 0.35113281 -19.73828125 0.30664062 C-13.1555991 0.02605268 -6.58814185 -0.05072756 0 0 Z " fill="#040405" transform="translate(749,209)"/>
<path d="M0 0 C11.55 0 23.1 0 35 0 C35 11.55 35 23.1 35 35 C23.45 35 11.9 35 0 35 C0 23.45 0 11.9 0 0 Z " fill="#000001" transform="translate(409,620)"/>
<path d="M0 0 C11.55 0 23.1 0 35 0 C35 11.22 35 22.44 35 34 C23.12 34 11.24 34 -1 34 C-1 25.84819073 -0.93361846 17.81048532 -0.5 9.6875 C-0.335 6.490625 -0.17 3.29375 0 0 Z " fill="#020102" transform="translate(476,518)"/>
<path d="M0 0 C0.33 0 0.66 0 1 0 C1 9.24 1 18.48 1 28 C-10.55 28 -22.1 28 -34 28 C-34 39.22 -34 50.44 -34 62 C-45.22 62 -56.44 62 -68 62 C-68 73.55 -68 85.1 -68 97 C-89.78 97 -111.56 97 -134 97 C-134 108.55 -134 120.1 -134 132 C-211.22 132 -288.44 132 -368 132 C-368 120.12 -368 108.24 -368 96 C-367.67 96 -367.34 96 -367 96 C-367 107.55 -367 119.1 -367 131 C-359.64787231 130.95456055 -359.64787231 130.95456055 -352.1472168 130.90820312 C-335.69111191 130.80676521 -319.23499532 130.7073316 -302.77887249 130.60884857 C-292.83166084 130.54927234 -282.88445382 130.48906934 -272.93725586 130.42724609 C-227.29095166 130.14390105 -181.64734455 129.90928761 -136 130 C-136.00681333 128.20809456 -136.01363121 126.41618913 -136.02047062 124.62428379 C-136.02621514 123.10808117 -136.03187741 121.59187824 -136.03745937 120.07567501 C-136.04908465 116.94025644 -136.06120893 113.80486043 -136.07791138 110.66946411 C-136.08912242 108.55175794 -136.09436355 106.43413684 -136.09765625 104.31640625 C-136.10277222 103.60899292 -136.10788818 102.90157959 -136.11315918 102.17272949 C-136.11347032 100.44807383 -136.06225761 98.72353162 -136 97 C-134.17350312 95.17350312 -131.28332493 95.82729274 -128.82788086 95.79467773 C-128.18399918 95.78477814 -127.54011749 95.77487854 -126.87672424 95.76467896 C-124.73946869 95.73298472 -122.60219087 95.70827551 -120.46484375 95.68359375 C-118.98653064 95.66303104 -117.50822351 95.64203476 -116.02992249 95.62062073 C-112.13207829 95.56532941 -108.23418042 95.51595143 -104.33624268 95.46777344 C-99.66309464 95.40879577 -94.99004507 95.34252912 -90.31697845 95.27747345 C-83.21137891 95.17937513 -76.10571729 95.09058007 -69 95 C-69 83.78 -69 72.56 -69 61 C-50.59459459 59.84966216 -50.59459459 59.84966216 -43 59.9375 C-42.21367188 59.94201172 -41.42734375 59.94652344 -40.6171875 59.95117188 C-38.74475574 59.96258914 -36.87236499 59.9804962 -35 60 C-35.0611499 58.72153198 -35.0611499 58.72153198 -35.12353516 57.41723633 C-35.27022762 54.2399814 -35.4069793 51.06249452 -35.53710938 47.88452148 C-35.59533076 46.51195227 -35.65745491 45.1395426 -35.72363281 43.76733398 C-35.81833403 41.78936991 -35.89761366 39.81068668 -35.9765625 37.83203125 C-36.02893066 36.64327393 -36.08129883 35.4545166 -36.13525391 34.22973633 C-36.00015929 31.00380368 -35.39419294 28.88593179 -34 26 C-30.00001563 25.97072084 -26.00005924 25.95310781 -22 25.9375 C-20.87464844 25.92912109 -19.74929688 25.92074219 -18.58984375 25.91210938 C-12.62415603 25.89466584 -6.89712427 26.08218777 -1 27 C-1.00785522 25.82642944 -1.00785522 25.82642944 -1.01586914 24.62915039 C-1.03657106 21.10694167 -1.04963838 17.5847457 -1.0625 14.0625 C-1.07087891 12.83080078 -1.07925781 11.59910156 -1.08789062 10.33007812 C-1.09272461 8.5753418 -1.09272461 8.5753418 -1.09765625 6.78515625 C-1.10551147 5.15912476 -1.10551147 5.15912476 -1.11352539 3.50024414 C-1 1 -1 1 0 0 Z " fill="#FBFCFC" transform="translate(746,694)"/>
<path d="M0 0 C1.52947266 -0.00290039 1.52947266 -0.00290039 3.08984375 -0.00585938 C4.72179687 0.0009082 4.72179687 0.0009082 6.38671875 0.0078125 C7.47855469 0.00974609 8.57039062 0.01167969 9.6953125 0.01367188 C16.86885444 0.05219328 23.94761614 0.25761569 31.07421875 1.1328125 C31.07421875 1.4628125 31.07421875 1.7928125 31.07421875 2.1328125 C19.52421875 2.1328125 7.97421875 2.1328125 -3.92578125 2.1328125 C-3.92578125 70.4428125 -3.92578125 138.7528125 -3.92578125 209.1328125 C7.29421875 208.8028125 18.51421875 208.4728125 30.07421875 208.1328125 C30.07421875 230.2428125 30.07421875 252.3528125 30.07421875 275.1328125 C41.29421875 275.1328125 52.51421875 275.1328125 64.07421875 275.1328125 C64.07421875 280.7428125 64.07421875 286.3528125 64.07421875 292.1328125 C63.74421875 292.1328125 63.41421875 292.1328125 63.07421875 292.1328125 C63.07421875 286.8528125 63.07421875 281.5728125 63.07421875 276.1328125 C60.63144531 276.14441406 58.18867188 276.15601563 55.671875 276.16796875 C53.31551239 276.17575934 50.95915119 276.18183609 48.6027832 276.18774414 C46.96052411 276.19278424 45.31826952 276.19961628 43.67602539 276.20825195 C41.32046396 276.22033176 38.96496166 276.22604389 36.609375 276.23046875 C35.87082779 276.23563004 35.13228058 276.24079132 34.37135315 276.24610901 C32.60523787 276.246305 30.83924729 276.19475969 29.07421875 276.1328125 C28.07421875 275.1328125 28.07421875 275.1328125 27.95396423 272.54490662 C27.95618484 271.39240921 27.95840546 270.2399118 27.96069336 269.05249023 C27.96076889 267.75121689 27.96084442 266.44994354 27.96092224 265.10923767 C27.96602966 263.67829348 27.97124567 262.24734968 27.9765625 260.81640625 C27.97842672 259.3605199 27.9798506 257.90463293 27.98085022 256.44874573 C27.9846751 252.61001871 27.99450511 248.77132931 28.0055542 244.93261719 C28.01576897 241.01823434 28.02034798 237.10384544 28.02539062 233.18945312 C28.03612741 225.50388907 28.05320346 217.81835605 28.07421875 210.1328125 C27.0797876 210.13804932 26.08535645 210.14328613 25.06079102 210.14868164 C21.38387954 210.16673291 17.706972 210.17824496 14.0300293 210.18774414 C12.43627261 210.19278407 10.84252056 210.199616 9.2487793 210.20825195 C6.96271622 210.22033249 4.67671408 210.22604405 2.390625 210.23046875 C1.67395157 210.23563004 0.95727814 210.24079132 0.21888733 210.24610901 C-1.49641797 210.24630513 -3.21159391 210.19473257 -4.92578125 210.1328125 C-6.71094065 208.3476531 -6.05098436 205.94175537 -6.05952466 203.56438541 C-6.05729393 202.75866313 -6.05506321 201.95294085 -6.05276489 201.12280273 C-6.05510488 199.84851111 -6.05510488 199.84851111 -6.05749214 198.54847622 C-6.06150583 195.67943566 -6.05831107 192.81044728 -6.05517578 189.94140625 C-6.05652966 187.89364592 -6.05830951 185.84588584 -6.06048584 183.79812622 C-6.06506179 178.21977776 -6.06326995 172.64144771 -6.06010675 167.06309891 C-6.05758398 161.23924966 -6.05992046 155.41540204 -6.06149292 149.59155273 C-6.06331486 139.80940466 -6.06090767 130.02726412 -6.05615234 120.24511719 C-6.05070968 108.91787964 -6.05247232 97.59066008 -6.05797875 86.26342297 C-6.06250919 76.55730885 -6.06316077 66.85120017 -6.06054008 57.14508533 C-6.05897692 51.3396303 -6.05878459 45.53418374 -6.06207657 39.72872925 C-6.06495428 34.27218656 -6.06298144 28.8156672 -6.05718231 23.35912704 C-6.05585418 21.35030023 -6.05624973 19.34147147 -6.05844498 17.33264542 C-6.06115439 14.6026774 -6.05777793 11.87278537 -6.05276489 9.14282227 C-6.05499561 8.33709998 -6.05722634 7.5313777 -6.05952466 6.70123959 C-6.03547805 0.00736868 -6.03547805 0.00736868 0 0 Z " fill="#FBFBFB" transform="translate(175.92578125,482.8671875)"/>
<path d="M0 0 C0.33 0 0.66 0 1 0 C1 6.93 1 13.86 1 21 C3.51496094 20.98839844 6.02992188 20.97679687 8.62109375 20.96484375 C11.0469551 20.95705327 13.47281507 20.95097646 15.89868164 20.94506836 C17.58944316 20.9400281 19.28020029 20.93319595 20.97094727 20.92456055 C23.39600707 20.91248143 25.82100944 20.90676877 28.24609375 20.90234375 C29.38672523 20.89460182 29.38672523 20.89460182 30.55039978 20.88670349 C32.3673257 20.88650762 34.18413127 20.93802723 36 21 C37 22 37 22 37.12025452 24.62586975 C37.11803391 25.79613205 37.11581329 26.96639435 37.11352539 28.17211914 C37.11367142 28.81600082 37.11381744 29.45988251 37.1139679 30.12327576 C37.11326885 32.26060303 37.10547691 34.39784413 37.09765625 36.53515625 C37.09579204 38.01346285 37.09436815 39.49177007 37.09336853 40.97007751 C37.08954359 44.86798802 37.07971352 48.76586149 37.06866455 52.66375732 C37.05844992 56.63846333 37.0538708 60.61317529 37.04882812 64.58789062 C37.03809122 72.391944 37.02101509 80.19596682 37 88 C38.44620728 87.99214478 38.44620728 87.99214478 39.92163086 87.98413086 C43.48672564 87.96607882 47.05181636 87.95456726 50.61694336 87.94506836 C52.16219766 87.9400286 53.70744716 87.9331968 55.25268555 87.92456055 C57.46925029 87.91247924 59.68575218 87.90676827 61.90234375 87.90234375 C62.5971434 87.89718246 63.29194305 87.89202118 64.00779724 87.88670349 C65.6722933 87.88650723 67.33665499 87.93810871 69 88 C70.7851594 89.7851594 70.12520311 92.19105713 70.13374341 94.56842709 C70.13151268 95.37414937 70.12928196 96.17987165 70.12698364 97.01000977 C70.12932363 98.28430139 70.12932363 98.28430139 70.13171089 99.58433628 C70.13572458 102.45337684 70.13252982 105.32236522 70.12939453 108.19140625 C70.13074841 110.23916658 70.13252826 112.28692666 70.13470459 114.33468628 C70.13928054 119.91303474 70.1374887 125.49136479 70.1343255 131.06971359 C70.13180273 136.89356284 70.13413921 142.71741046 70.13571167 148.54125977 C70.13753361 158.32340784 70.13512642 168.10554838 70.13037109 177.88769531 C70.12492843 189.21493286 70.12669107 200.54215242 70.1321975 211.86938953 C70.13672794 221.57550365 70.13737952 231.28161233 70.13475883 240.98772717 C70.13319567 246.7931822 70.13300334 252.59862876 70.13629532 258.40408325 C70.13917303 263.86062594 70.13720019 269.3171453 70.13140106 274.77368546 C70.13007293 276.78251227 70.13046848 278.79134103 70.13266373 280.80016708 C70.13537314 283.5301351 70.13199668 286.26002713 70.12698364 288.98999023 C70.13032973 290.19857366 70.13032973 290.19857366 70.13374341 291.43157291 C70.11414984 296.88585016 70.11414984 296.88585016 69 298 C66.62458949 298.08838648 64.2776642 298.11537523 61.90234375 298.09765625 C59.95702759 298.09390991 59.95702759 298.09390991 57.97241211 298.09008789 C56.31089111 298.08098389 54.64937012 298.07187988 52.9375 298.0625 C47.678125 298.041875 42.41875 298.02125 37 298 C37 318.79 37 339.58 37 361 C36.67 361 36.34 361 36 361 C36 339.55 36 318.1 36 296 C46.89 296 57.78 296 69 296 C69 228.02 69 160.04 69 90 C57.78 90 46.56 90 35 90 C35 67.56 35 45.12 35 22 C23.45 22 11.9 22 0 22 C0 14.74 0 7.48 0 0 Z " fill="#F9F8FA" transform="translate(747,394)"/>
<path d="M0 0 C0.33 0 0.66 0 1 0 C1 10.89 1 21.78 1 33 C3.92679626 32.99777939 6.85359253 32.99555878 9.86907959 32.99327087 C36.87451558 32.97325896 63.87995141 32.95838809 90.88539301 32.94893467 C94.44410317 32.94768436 98.00281331 32.94639 101.56152344 32.94506836 C102.26982781 32.94480605 102.97813218 32.94454374 103.70790032 32.94427348 C115.09053538 32.93995369 126.47316525 32.93208705 137.85579726 32.9228472 C149.5854995 32.91340694 161.31519907 32.90792276 173.04490495 32.90591151 C179.61217316 32.90467723 186.17943185 32.90164753 192.74669647 32.89426994 C220.84790736 32.86388247 248.91568193 32.95083877 277 34 C277 34.33 277 34.66 277 35 C185.59 35 94.18 35 0 35 C-1.51322577 31.97354845 -1.00453618 28.89228139 -0.87890625 25.5859375 C-0.85529526 24.85629791 -0.83168427 24.12665833 -0.80735779 23.37490845 C-0.73070246 21.04140861 -0.64668657 18.70823911 -0.5625 16.375 C-0.50928115 14.79428707 -0.45654074 13.21355795 -0.40429688 11.6328125 C-0.27508487 7.75499862 -0.13927041 3.87746514 0 0 Z " fill="#E7E5E8" transform="translate(341,827)"/>
<path d="M0 0 C1.26902161 -0.01812744 2.53804321 -0.03625488 3.84552002 -0.05493164 C4.90999359 -0.07616089 5.97446716 -0.09739014 7.07119751 -0.1192627 C9.50421143 0.08374023 9.50421143 0.08374023 11.50421143 2.08374023 C-16.66539669 2.85725755 -44.81704907 3.17820251 -72.99578857 3.14624023 C-74.13591589 3.14495621 -74.13591589 3.14495621 -75.29907608 3.14364624 C-84.69801348 3.13227296 -94.09687088 3.10921923 -103.49578857 3.08374023 C-103.49578857 14.96374023 -103.49578857 26.84374023 -103.49578857 39.08374023 C-114.38578857 39.08374023 -125.27578857 39.08374023 -136.49578857 39.08374023 C-136.49578857 38.75374023 -136.49578857 38.42374023 -136.49578857 38.08374023 C-126.26578857 38.08374023 -116.03578857 38.08374023 -105.49578857 38.08374023 C-105.49578857 25.87374023 -105.49578857 13.66374023 -105.49578857 1.08374023 C-92.56882138 0.95260821 -79.64184847 0.82207979 -66.71486473 0.69258881 C-60.71117147 0.63242556 -54.70748101 0.57200668 -48.70379639 0.51098633 C-42.9006879 0.45201429 -37.0975728 0.39373628 -31.29445267 0.33592224 C-29.08989848 0.31384054 -26.88534671 0.29151651 -24.68079758 0.26893616 C-19.6739008 0.21772179 -14.66704217 0.16934848 -9.66003418 0.13037109 C-6.43941699 0.10503382 -3.22008843 0.06303288 0 0 Z " fill="#D1D4DC" transform="translate(716.4957885742188,135.916259765625)"/>
<path d="M0 0 C32.01 0 64.02 0 97 0 C97 0.66 97 1.32 97 2 C65.65 2 34.3 2 2 2 C2 12.89 2 23.78 2 35 C-0.82445592 35.94148531 -2.14171618 36.07311695 -5.01171875 35.87890625 C-5.76904297 35.83056641 -6.52636719 35.78222656 -7.30664062 35.73242188 C-8.48516602 35.64831055 -8.48516602 35.64831055 -9.6875 35.5625 C-10.48478516 35.51029297 -11.28207031 35.45808594 -12.10351562 35.40429688 C-14.06936522 35.27480978 -16.03473665 35.13809959 -18 35 C-18 34.67 -18 34.34 -18 34 C-12.06 34 -6.12 34 0 34 C0 22.78 0 11.56 0 0 Z " fill="#F8F5F6" transform="translate(378,348)"/>
<path d="M0 0 C4.95 0 9.9 0 15 0 C15 0.33 15 0.66 15 1 C10.38 1 5.76 1 1 1 C1 12.55 1 24.1 1 36 C-21.44 36.33 -43.88 36.66 -67 37 C-66.67 26.77 -66.34 16.54 -66 6 C-65.67 6 -65.34 6 -65 6 C-65 15.57 -65 25.14 -65 35 C-60.854375 34.7834375 -60.854375 34.7834375 -56.625 34.5625 C-38.09855175 33.6644118 -19.54211574 33.40458656 -1 33 C-0.67 22.11 -0.34 11.22 0 0 Z " fill="#FBFBFB" transform="translate(645,242)"/>
<path d="M0 0 C11.55 0 23.1 0 35 0 C35 0.33 35 0.66 35 1 C24.11 1 13.22 1 2 1 C2 11.23 2 21.46 2 32 C4.2378125 31.83628906 6.475625 31.67257812 8.78125 31.50390625 C18.35526781 30.86856096 27.90944837 30.88755903 37.5 30.9375 C39.20963408 30.94253311 40.91926963 30.94709276 42.62890625 30.95117188 C46.75264135 30.96201548 50.87630372 30.97917649 55 31 C54.67 31.66 54.34 32.32 54 33 C36.18 33.33 18.36 33.66 0 34 C0 22.78 0 11.56 0 0 Z " fill="#FAFAFA" transform="translate(645,314)"/>
<path d="M0 0 C0.33 0 0.66 0 1 0 C1 11.88 1 23.76 1 36 C-9.56 36 -20.12 36 -31 36 C-31.33 47.22 -31.66 58.44 -32 70 C-32.33 70 -32.66 70 -33 70 C-33.02465098 65.03377651 -33.04283649 60.06758834 -33.05493164 55.10131836 C-33.0599719 53.41055684 -33.06680405 51.71979971 -33.07543945 50.02905273 C-33.08751857 47.60399293 -33.09323123 45.17899056 -33.09765625 42.75390625 C-33.10281754 41.99348526 -33.10797882 41.23306427 -33.11329651 40.44960022 C-33.11349238 38.6326743 -33.06197277 36.81586873 -33 35 C-32 34 -32 34 -28.94897461 33.88647461 C-27.60008731 33.88672557 -26.25119355 33.89228185 -24.90234375 33.90234375 C-22.95702759 33.90609009 -22.95702759 33.90609009 -20.97241211 33.90991211 C-18.48013062 33.92356812 -18.48013062 33.92356812 -15.9375 33.9375 C-10.678125 33.958125 -5.41875 33.97875 0 34 C0 22.78 0 11.56 0 0 Z " fill="#AEAAB1" transform="translate(309,382)"/>
<path d="M0 0 C13.86 0 27.72 0 42 0 C42 10.89 42 21.78 42 33 C41.34 33 40.68 33 40 33 C40 22.77 40 12.54 40 2 C20.2 1.505 20.2 1.505 0 1 C0 0.67 0 0.34 0 0 Z " fill="#DEDBDD" transform="translate(707,175)"/>
<path d="M0 0 C0.33 0 0.66 0 1 0 C1.33 11.22 1.66 22.44 2 34 C12.15713092 33.96040178 12.15713092 33.96040178 22.31420898 33.90991211 C23.57048096 33.90741455 24.82675293 33.90491699 26.12109375 33.90234375 C28.06133423 33.89448853 28.06133423 33.89448853 30.04077148 33.88647461 C33 34 33 34 34 35 C34.07244053 37.01964199 34.08377188 39.04167124 34.0625 41.0625 C34.05347656 42.16722656 34.04445313 43.27195312 34.03515625 44.41015625 C34.02355469 45.26480469 34.01195312 46.11945313 34 47 C33.67 47 33.34 47 33 47 C33 43.37 33 39.74 33 36 C22.11 36 11.22 36 0 36 C0 24.12 0 12.24 0 0 Z " fill="#FBFCFB" transform="translate(713,346)"/>
<path d="M0 0 C1.12591553 0.04713135 2.25183105 0.0942627 3.41186523 0.14282227 C5.23427734 0.21533203 5.23427734 0.21533203 7.09350586 0.28930664 C8.37290039 0.34538086 9.65229492 0.40145508 10.97045898 0.45922852 C12.89535156 0.53753906 12.89535156 0.53753906 14.85913086 0.61743164 C18.0422929 0.74759812 21.22517902 0.88257852 24.40795898 1.02172852 C24.40795898 1.35172852 24.40795898 1.68172852 24.40795898 2.02172852 C15.82795898 2.02172852 7.24795898 2.02172852 -1.59204102 2.02172852 C-1.59204102 14.89172852 -1.59204102 27.76172852 -1.59204102 41.02172852 C-2.58204102 41.51672852 -2.58204102 41.51672852 -3.59204102 42.02172852 C-3.61668739 36.20101229 -3.63487532 30.38032617 -3.64697266 24.55957031 C-3.65201369 22.5777941 -3.6588464 20.59602163 -3.66748047 18.61425781 C-3.67955616 15.77220743 -3.68527147 12.93020604 -3.68969727 10.08813477 C-3.69485855 9.1964711 -3.70001984 8.30480743 -3.70533752 7.38612366 C-3.70553278 5.2643225 -3.65414132 3.14262072 -3.59204102 1.02172852 C-2.59204102 0.02172852 -2.59204102 0.02172852 0 0 Z " fill="#DCDDE3" transform="translate(748.592041015625,652.978271484375)"/>
<path d="M0 0 C18.81 0 37.62 0 57 0 C57 0.33 57 0.66 57 1 C29.775 1.495 29.775 1.495 2 2 C2 12.56 2 23.12 2 34 C1.67 34 1.34 34 1 34 C0.82864992 30.95853608 0.66288142 27.91692051 0.5 24.875 C0.45230469 24.03839844 0.40460937 23.20179688 0.35546875 22.33984375 C-0.03817276 14.86065498 0 7.52437155 0 0 Z " fill="#FDFCFD" transform="translate(679,176)"/>
<path d="M0 0 C0.33 0 0.66 0 1 0 C1.02686553 1.97909398 1.04633375 3.95828971 1.0625 5.9375 C1.07410156 7.03964844 1.08570313 8.14179688 1.09765625 9.27734375 C1 12 1 12 0 13 C-2.44608998 13.15980437 -4.86731058 13.25929447 -7.31640625 13.31640625 C-8.04746078 13.33718735 -8.77851532 13.35796844 -9.53172302 13.37937927 C-11.87521656 13.44495024 -14.21882539 13.50379432 -16.5625 13.5625 C-18.14779855 13.60567808 -19.73308529 13.64929213 -21.31835938 13.69335938 C-25.21212298 13.80146282 -29.10596958 13.90047883 -33 14 C-33 24.23 -33 34.46 -33 45 C-33.33 45 -33.66 45 -34 45 C-34.33 34.11 -34.66 23.22 -35 12 C-23.78 12 -12.56 12 -1 12 C-1 9.03 -1 6.06 -1 3 C-0.67 2.01 -0.34 1.02 0 0 Z " fill="#FCFCFC" transform="translate(714,268)"/>
<path d="M0 0 C0.33 0 0.66 0 1 0 C1 10.56 1 21.12 1 32 C-16.25506757 32 -16.25506757 32 -24.4375 31.5 C-25.27603516 31.45230469 -26.11457031 31.40460938 -26.97851562 31.35546875 C-28.98589678 31.24076126 -30.99298726 31.12098247 -33 31 C-33 30.67 -33 30.34 -33 30 C-22.44 30 -11.88 30 -1 30 C-0.67 20.1 -0.34 10.2 0 0 Z " fill="#FBFCFC" transform="translate(474,351)"/>
<path d="M0 0 C0.33 0 0.66 0 1 0 C1 2.31 1 4.62 1 7 C5.95 7 10.9 7 16 7 C15.67 7.66 15.34 8.32 15 9 C8.07 8.505 8.07 8.505 1 8 C1 12.62 1 17.24 1 22 C0.67 22 0.34 22 0 22 C0 17.05 0 12.1 0 7 C-9.24 7 -18.48 7 -28 7 C-28 6.67 -28 6.34 -28 6 C-19.09 5.67 -10.18 5.34 -1 5 C-0.67 3.35 -0.34 1.7 0 0 Z " fill="#D0D6E4" transform="translate(714,238)"/>
<path d="M0 0 C0.33 0.66 0.66 1.32 1 2 C1.66 2 2.32 2 3 2 C3 10.58 3 19.16 3 28 C-1.29 28 -5.58 28 -10 28 C-10 27.67 -10 27.34 -10 27 C-7.03 26.67 -4.06 26.34 -1 26 C-0.45627049 22.94152152 0 20.11227195 0 17 C0 11.33333333 0 5.66666667 0 0 Z " fill="#EEEDEE" transform="translate(541,251)"/>
<path d="M0 0 C0.99 0.33 1.98 0.66 3 1 C3.3690205 14.6332574 3.3690205 14.6332574 1 21 C0.67 21 0.34 21 0 21 C0 14.07 0 7.14 0 0 Z " fill="#EBE9E9" transform="translate(713,250)"/>
<path d="M0 0 C0.33 0 0.66 0 1 0 C1.33 1.65 1.66 3.3 2 5 C2.33 5 2.66 5 3 5 C3 7.64 3 10.28 3 13 C-1.29 13 -5.58 13 -10 13 C-9.34 12.01 -8.68 11.02 -8 10 C-6.0546875 9.70703125 -6.0546875 9.70703125 -3.875 9.8125 C-2.59625 9.874375 -1.3175 9.93625 0 10 C0 6.7 0 3.4 0 0 Z " fill="#CBCED9" transform="translate(575,196)"/>
<path d="M0 0 C0.33 0 0.66 0 1 0 C1.05787784 3.62493334 1.0935542 7.24974857 1.125 10.875 C1.14175781 11.90753906 1.15851563 12.94007813 1.17578125 14.00390625 C1.18222656 14.99003906 1.18867188 15.97617187 1.1953125 16.9921875 C1.20578613 17.90339355 1.21625977 18.81459961 1.22705078 19.75341797 C1 22 1 22 -1 24 C-4.125 24.125 -4.125 24.125 -7 24 C-7 23.34 -7 22.68 -7 22 C-3.535 21.505 -3.535 21.505 0 21 C0 14.07 0 7.14 0 0 Z " fill="#C2BFC0" transform="translate(379,499)"/>
<path d="M0 0 C0.33 0 0.66 0 1 0 C1 3.3 1 6.6 1 10 C-3.29 10 -7.58 10 -12 10 C-12 9.67 -12 9.34 -12 9 C-7.545 8.505 -7.545 8.505 -3 8 C-2.87625 7.05125 -2.7525 6.1025 -2.625 5.125 C-2 2 -2 2 0 0 Z " fill="#D6DAE0" transform="translate(543,269)"/>
<path d="M0 0 C0.33 0 0.66 0 1 0 C1 1.65 1 3.3 1 5 C-2.63 5 -6.26 5 -10 5 C-9.34 4.01 -8.68 3.02 -8 2 C-6.0546875 1.70703125 -6.0546875 1.70703125 -3.875 1.8125 C-2.59625 1.874375 -1.3175 1.93625 0 2 C0 1.34 0 0.68 0 0 Z " fill="#E9E8E9" transform="translate(783,755)"/>
</svg>
