<?xml version="1.0" encoding="UTF-8"?>
<svg version="1.1" xmlns="http://www.w3.org/2000/svg" width="1024" height="1024">
<path d="M0 0 C17.49 0 34.98 0 53 0 C53.28967473 26.12420448 53.28967473 26.12420448 53.40429688 37.2265625 C53.48265753 44.81383742 53.56214839 52.40108908 53.64819336 59.98828125 C53.71746486 66.1025249 53.78181473 72.21680204 53.84269524 78.3311348 C53.86684378 80.66843179 53.89279127 83.00571089 53.92053413 85.34296799 C53.95897238 88.60670928 53.9911186 91.8704546 54.02172852 95.13427734 C54.04114754 96.59623283 54.04114754 96.59623283 54.06095886 98.08772278 C54.0715181 99.41707603 54.0715181 99.41707603 54.08229065 100.77328491 C54.09473485 101.93197869 54.09473485 101.93197869 54.10743046 103.11408043 C54 105 54 105 53 107 C53.55836044 106.98747192 54.11672089 106.97494385 54.69200134 106.96203613 C102.06118589 105.90363424 102.06118589 105.90363424 117.3125 105.875 C118.27986084 105.87048828 119.24722168 105.86597656 120.24389648 105.86132812 C121.10829346 105.86326172 121.97269043 105.86519531 122.86328125 105.8671875 C123.93509644 105.86887939 123.93509644 105.86887939 125.02856445 105.87060547 C127.12037137 106.00790054 128.97635813 106.46959546 131 107 C131.13260466 117.80797284 131.26310568 128.61596906 131.39115143 139.42399693 C131.45071364 144.44633258 131.51091562 149.46865861 131.57275391 154.4909668 C131.63276407 159.36694934 131.69086676 164.24295168 131.74781799 169.11897087 C131.76949994 170.94942934 131.79179144 172.77988073 131.81480408 174.61032295 C132.16647692 202.68559984 131.99308583 230.76074585 131.79807091 258.83643413 C131.76928478 263.01363677 131.74171065 267.19084743 131.71398926 271.36805725 C131.66169124 279.22229212 131.60835692 287.07651958 131.5546174 294.93074471 C131.48179175 305.58366948 131.41063367 316.23660539 131.33936501 326.88954067 C131.22757527 343.59303633 131.11361534 360.29651643 131 377 C105.26 377 79.52 377 53 377 C53.08378906 384.71246094 53.16757812 392.42492187 53.25390625 400.37109375 C53.30459083 405.24283421 53.35497985 410.1145741 53.40429688 414.98632812 C53.48268783 422.72732916 53.56220207 430.4683077 53.64819336 438.20922852 C53.71741471 444.44666202 53.78177541 450.68412811 53.84269524 456.92164803 C53.86686233 459.30721944 53.89281253 461.69277344 53.92053413 464.0783062 C53.9589171 467.40691273 53.99108935 470.73552348 54.02172852 474.06420898 C54.04114754 475.5596096 54.04114754 475.5596096 54.06095886 477.08522034 C54.0715181 478.43775406 54.0715181 478.43775406 54.08229065 479.81761169 C54.09058679 480.6057447 54.09888292 481.3938777 54.10743046 482.20589352 C54 484 54 484 53 485 C51.34261557 485.09346915 49.68125356 485.11744977 48.02124023 485.11352539 C46.96021591 485.11344986 45.89919159 485.11337433 44.80601501 485.11329651 C43.651866 485.10813522 42.49771698 485.10297394 41.30859375 485.09765625 C40.13361832 485.0962413 38.95864288 485.09482635 37.74806213 485.09336853 C33.97784936 485.08774992 30.20769496 485.07519426 26.4375 485.0625 C23.88867273 485.0574874 21.33984453 485.05292408 18.79101562 485.04882812 C12.52732367 485.03777444 6.26366601 485.02101821 0 485 C-1.00402167 473.04534363 -1.1474584 461.16268123 -1.1328125 449.171875 C-1.13348769 447.20509835 -1.13445951 445.23832178 -1.13571167 443.27154541 C-1.13717434 439.18378898 -1.13507777 435.09605462 -1.13037109 431.00830078 C-1.124629 425.76607925 -1.12798988 420.52390843 -1.13394356 415.28168869 C-1.13754936 411.23603937 -1.13641128 407.19040218 -1.13381577 403.1447525 C-1.13314889 401.21021773 -1.13396656 399.27568186 -1.13629532 397.34114838 C-1.13882703 394.65155586 -1.13497595 391.96204718 -1.12939453 389.27246094 C-1.13141876 388.47459671 -1.13344299 387.67673248 -1.13552856 386.85469055 C-1.12312756 383.63855533 -1.02456376 381.07369129 0 378 C-25.08 377.67 -50.16 377.34 -76 377 C-76 287.9 -76 198.8 -76 107 C-73.02657911 105.51328955 -70.3879853 105.92698992 -67.07177734 105.97827148 C-66.35947464 105.98787903 -65.64717194 105.99748657 -64.9132843 106.00738525 C-62.55406956 106.04042019 -60.1950374 106.08073525 -57.8359375 106.12109375 C-56.20212451 106.14539048 -54.56830473 106.16923426 -52.93447876 106.19264221 C-48.63045524 106.25552763 -44.32655173 106.32458161 -40.02264404 106.39489746 C-35.63233921 106.46554069 -31.24194917 106.53038164 -26.8515625 106.59570312 C-18.23428066 106.72477291 -9.61711693 106.860356 -1 107 C-1.00222061 105.76273666 -1.00444122 104.52547333 -1.00672913 103.25071716 C-1.0270127 91.58299559 -1.0419973 79.9152776 -1.05181217 68.24754238 C-1.05702773 62.24924929 -1.06410131 56.25097044 -1.07543945 50.25268555 C-1.08631545 44.4625694 -1.09228684 38.67246696 -1.09487724 32.88234138 C-1.09672299 30.67479296 -1.10032725 28.46724527 -1.10573006 26.25970268 C-1.11300298 23.1645738 -1.1139883 20.06950131 -1.11352539 16.97436523 C-1.11712067 16.06445831 -1.12071594 15.15455139 -1.12442017 14.21707153 C-1.1230455 13.36603348 -1.12167084 12.51499542 -1.12025452 11.63816833 C-1.12117631 10.9071865 -1.1220981 10.17620466 -1.12304783 9.42307186 C-0.96261903 6.26388977 -0.44735151 3.1314606 0 0 Z " fill="#000000" transform="translate(220,320)"/>
<path d="M0 0 C0.99 0.495 0.99 0.495 2 1 C2 1.66 2 2.32 2 3 C3.546875 2.7215625 3.546875 2.7215625 5.125 2.4375 C8.78717375 2.02402877 11.42089526 2.31561028 15 3 C15.153629 16.26454464 15.30181083 29.52913772 15.4429636 42.79382133 C15.50867334 48.95258805 15.57628689 55.1113218 15.64819336 61.27001953 C15.71746773 67.20919786 15.78181697 73.14841069 15.84269524 79.08768082 C15.86684272 81.35799231 15.89279005 83.62828537 15.92053413 85.89855576 C15.95897556 89.06889714 15.99112026 92.23924267 16.02172852 95.40966797 C16.03467453 96.35625275 16.04762054 97.30283752 16.06095886 98.27810669 C16.0715181 99.56959625 16.0715181 99.56959625 16.08229065 100.88717651 C16.09058679 101.637516 16.09888292 102.38785549 16.10743046 103.16093254 C16 105 16 105 15 107 C15.66 107 16.32 107 17 107 C17 107.66 17 108.32 17 109 C17.5775 108.814375 18.155 108.62875 18.75 108.4375 C21.20692525 107.95976454 22.64397534 108.24270636 25 109 C25 108.01 25 107.02 25 106 C25.66 106.33 26.32 106.66 27 107 C31.14287519 108.2211035 35.20011597 108.12569316 39.484375 108.09765625 C40.29996887 108.0962413 41.11556274 108.09482635 41.95587158 108.09336853 C44.55395212 108.08778303 47.15194563 108.07523321 49.75 108.0625 C51.51432167 108.05748312 53.27864469 108.05292054 55.04296875 108.04882812 C59.36201407 108.03867045 63.68098753 108.0193481 68 108 C69.29963419 128.2636084 69.14381167 148.53907916 69.13072467 168.83363402 C69.12844024 174.08424546 69.13196498 179.3348537 69.13470459 184.58546448 C69.13912741 194.8378402 69.13820189 205.09020856 69.13529195 215.34258456 C69.13302624 223.67201354 69.13273044 232.00144047 69.13381577 240.33086967 C69.133969 241.51985062 69.13412223 242.70883156 69.13428011 243.93384222 C69.13459985 246.34960982 69.13492406 248.76537741 69.1352527 251.181145 C69.13809671 273.77277067 69.13483633 296.36439225 69.12945233 318.95601725 C69.12497544 338.34250637 69.12576959 357.7289895 69.13037109 377.11547852 C69.135719 399.6570314 69.13783244 422.19858075 69.13475883 444.74013418 C69.13444029 447.14142223 69.13412592 449.54271028 69.13381577 451.94399834 C69.13366149 453.12537246 69.13350721 454.30674659 69.13334826 455.52391993 C69.13248449 463.85246037 69.13394278 472.18099856 69.13629532 480.50953865 C69.13909547 490.64462654 69.13835008 500.77970668 69.13301457 510.91479368 C69.13038201 516.0860758 69.12936517 521.25734498 69.13266373 526.42862701 C69.13563515 531.15831765 69.1340197 535.88798331 69.12868617 540.61767166 C69.12756575 542.3317617 69.12814493 544.04585384 69.13056196 545.75994254 C69.13358823 548.08357346 69.13049827 550.407118 69.12584114 552.73074436 C69.12567879 554.0231581 69.12551644 555.31557183 69.12534916 556.64714962 C69 560 69 560 68 565 C50.84 565.33 33.68 565.66 16 566 C16 608.9 16 651.8 16 696 C-2.81 696 -21.62 696 -41 696 C-40.01 695.67 -39.02 695.34 -38 695 C-38 653.09 -38 611.18 -38 568 C-38.99 568 -39.98 568 -41 568 C-41 567.34 -41 566.68 -41 566 C-57.5 565.67 -74 565.34 -91 565 C-92.25800937 562.48398125 -92.12304379 560.77480118 -92.12025452 557.95826721 C-92.12162918 556.8912558 -92.12300385 555.82424438 -92.12442017 554.72489929 C-92.12082489 553.54925919 -92.11722961 552.37361908 -92.11352539 551.16235352 C-92.11367142 549.92817688 -92.11381744 548.69400024 -92.1139679 547.42242432 C-92.11338945 544.03192986 -92.10836367 540.64149584 -92.10139394 537.25101209 C-92.09515063 533.70631923 -92.09455569 530.16162561 -92.09336853 526.6169281 C-92.0902566 519.89861025 -92.08204642 513.18030862 -92.07201904 506.46199793 C-92.06086817 498.82693869 -92.05534764 491.19187871 -92.05032361 483.55681336 C-92.04029059 468.48685438 -92.02381305 453.41691086 -92.00279331 438.34696293 C-92.00067203 436.56464297 -92 434.78232122 -92 433 C-91.99516807 431.55598798 -91.9898172 430.11197766 -91.98413086 428.66796875 C-91.96618494 423.82520161 -91.95459541 418.98243894 -91.94506836 414.13964844 C-91.94002277 412.0465444 -91.93318682 409.95344391 -91.92456055 407.86035156 C-91.91245684 404.84439225 -91.90676476 401.82847913 -91.90234375 398.8125 C-91.89718246 397.87494873 -91.89202118 396.93739746 -91.88670349 395.97143555 C-91.88662796 395.10043213 -91.88655243 394.22942871 -91.88647461 393.33203125 C-91.884254 392.56608643 -91.88203339 391.8001416 -91.87974548 391.01098633 C-91.9252829 388.79242639 -91.9252829 388.79242639 -93 386 C-92.67 385.34 -92.34 384.68 -92 384 C-91.90846555 382.49851498 -91.87988213 380.99298153 -91.8825388 379.48871136 C-91.88178114 378.53336237 -91.88102349 377.57801338 -91.88024288 376.59371442 C-91.88451997 375.53683086 -91.88879705 374.47994731 -91.89320374 373.39103699 C-91.8940388 371.71542544 -91.8940388 371.71542544 -91.89489073 370.00596315 C-91.89794326 366.23727096 -91.90813716 362.46863065 -91.91821289 358.69995117 C-91.92176663 356.00829509 -91.92491284 353.31664161 -91.92750549 350.62498474 C-91.93381243 344.81587669 -91.94355841 339.0067826 -91.95540047 333.19768333 C-91.97235336 324.79319026 -91.98192319 316.38870069 -91.9892792 307.98419432 C-92.00123442 294.34224193 -92.01618675 280.70029503 -92.03442383 267.05834961 C-92.03551395 266.24136372 -92.03660407 265.42437782 -92.03772723 264.58263478 C-92.05333512 252.9903262 -92.071927 241.3980243 -92.0917251 229.80572221 C-92.09311842 228.9896459 -92.09451173 228.17356958 -92.09594727 227.33276367 C-92.0973408 226.51767935 -92.09873433 225.70259502 -92.10017008 224.86281117 C-92.12319785 211.27658868 -92.13851832 197.69037051 -92.14750665 184.10413152 C-92.15336381 175.72030167 -92.16574861 167.33653106 -92.18647944 158.95272455 C-92.20017917 153.20780075 -92.20667998 147.46289768 -92.20748956 141.7179577 C-92.20819419 138.40192125 -92.21329827 135.08599229 -92.2249527 131.76997375 C-92.2370957 128.17655733 -92.23699383 124.58334457 -92.23377991 120.98991394 C-92.24028771 119.93972255 -92.24679551 118.88953117 -92.25350052 117.8075158 C-92.25013512 116.84434357 -92.24676973 115.88117133 -92.24330235 114.88881207 C-92.24460386 114.05944785 -92.24590537 113.23008363 -92.24724633 112.37558717 C-91.96281438 109.64271383 -91.120434 107.49670137 -90 105 C-89.67 105.99 -89.34 106.98 -89 108 C-86.72923158 108.02699725 -84.45837179 108.04639453 -82.1875 108.0625 C-80.29064453 108.07990234 -80.29064453 108.07990234 -78.35546875 108.09765625 C-75.00394763 108.16159116 -75.00394763 108.16159116 -72 107 C-70.515 107.495 -70.515 107.495 -69 108 C-67.1419719 107.88405441 -65.28749514 107.70791772 -63.4375 107.5 C-57.73244743 106.98288517 -52.24694031 107.09653761 -46.53515625 107.46875 C-45.71019653 107.51870117 -44.88523682 107.56865234 -44.03527832 107.62011719 C-42.02325884 107.74254358 -40.01158797 107.87067695 -38 108 C-38.00222061 106.90578232 -38.00444122 105.81156464 -38.00672913 104.68418884 C-38.02710254 94.31398105 -38.04204004 83.94377739 -38.05181217 73.57355404 C-38.05700518 68.24360754 -38.06403687 62.91367735 -38.07543945 57.58374023 C-38.08639676 52.42900497 -38.09230373 47.27428528 -38.09487724 42.11953926 C-38.09670855 40.16421832 -38.10028399 38.20889812 -38.10573006 36.25358391 C-38.12198817 30.16797867 -38.10217692 24.08485062 -38 18 C-37.9873045 17.230154 -37.97460899 16.460308 -37.96152878 15.66713333 C-37.91405806 13.54392014 -37.83612854 11.42466442 -37.74389648 9.30297852 C-37.69837143 8.12486099 -37.65284637 6.94674347 -37.60594177 5.73292542 C-37 3 -37 3 -34.95350647 1.60606384 C-33.98652077 1.30606224 -33.98652077 1.30606224 -33 1 C-32.505 1.495 -32.505 1.495 -32 2 C-30.32747651 2.08720828 -28.65133201 2.10699405 -26.9765625 2.09765625 C-25.44515625 2.09282227 -25.44515625 2.09282227 -23.8828125 2.08789062 C-22.80773437 2.07951172 -21.73265625 2.07113281 -20.625 2.0625 C-19.55765625 2.05798828 -18.4903125 2.05347656 -17.390625 2.04882812 C-15.4057506 2.04007868 -13.42088349 2.02928716 -11.43603516 2.01586914 C-9.62405416 2.0040653 -7.81201944 2 -6 2 C-3.78882074 1.53096198 -2.02678158 1.01339079 0 0 Z M-56 142 C-56 270.37 -56 398.74 -56 531 C-39.03390072 532.75655062 -39.03390072 532.75655062 -34 529 C-31.65986656 529.64238957 -29.32748694 530.31320058 -27 531 C-24.30468778 531.18102843 -21.70833219 531.08879778 -19 531 C-17.68 531 -16.36 531 -15 531 C-14.071875 530.835 -13.14375 530.67 -12.1875 530.5 C-8.74206746 529.95953999 -5.48242594 529.93303027 -2 530 C-1.34 530 -0.68 530 0 530 C4.44124664 530 8.79201346 530.0539035 13.22070312 530.35571289 C20.49192889 530.84271362 27.70856489 531.1390316 35 531 C35.59732819 528.23735711 36 525.83967231 36 523 C36.01160156 522.22785156 36.02320313 521.45570313 36.03515625 520.66015625 C36.04417969 519.80292969 36.05320312 518.94570313 36.0625 518.0625 C36.07410156 517.20785156 36.08570313 516.35320312 36.09765625 515.47265625 C36.00599403 513.15176882 35.56429753 511.23822214 35 509 C35.32550502 507.33178677 35.65846063 505.66500443 36 504 C35.505 502.515 35.505 502.515 35 501 C35.165 500.360625 35.33 499.72125 35.5 499.0625 C36.16673682 497.00922596 36.16673682 497.00922596 35.5 495 C34.90597701 492.62390805 35.41402299 491.34390805 36 489 C35.855625 488.4225 35.71125 487.845 35.5625 487.25 C34.37156633 482.48626531 34.73356416 477.70390453 36 473 C35.67 472.34 35.34 471.68 35 471 C34.90099726 468.25183349 34.86016973 465.52956362 34.8671875 462.78125 C34.86623077 461.96756958 34.86527405 461.15388916 34.86428833 460.31555176 C34.86360737 458.59399335 34.86545583 456.87243239 34.86962891 455.15087891 C34.87497835 452.51068371 34.86968111 449.87065864 34.86328125 447.23046875 C34.86394205 445.55989546 34.86522324 443.88932227 34.8671875 442.21875 C34.86516327 441.42601685 34.86313904 440.63328369 34.86105347 439.81652832 C34.88503986 434.22992027 34.88503986 434.22992027 36 432 C35.34 432 34.68 432 34 432 C34.165 430.78054688 34.33 429.56109375 34.5 428.3046875 C35.1742599 422.24347085 35.0711492 416.21537122 35 410.125 C34.97452501 407.89848577 34.9534804 405.67191512 34.9375 403.4453125 C34.92589844 402.47094238 34.91429687 401.49657227 34.90234375 400.49267578 C35 398 35 398 36 395 C35.68951441 392.99632592 35.35282123 390.99665427 35 389 C34.91086516 386.77347906 34.86939421 384.54470956 34.8671875 382.31640625 C34.86589844 381.05892578 34.86460937 379.80144531 34.86328125 378.50585938 C34.86714844 377.20455078 34.87101563 375.90324219 34.875 374.5625 C34.87113281 373.26505859 34.86726562 371.96761719 34.86328125 370.63085938 C34.86457031 369.37208984 34.86585938 368.11332031 34.8671875 366.81640625 C34.86831543 365.67631104 34.86944336 364.53621582 34.87060547 363.36157227 C35.00584542 359.84814041 35.46039275 356.47214082 36 353 C36.19949424 349.5557906 36.30248479 346.17632974 35.4375 342.8125 C35 341 35 341 35.5 338.6875 C36.17012422 335.9015814 36.17012422 335.9015814 35.5 332.6875 C35.03186579 329.23501023 35.28473247 326.51885729 35.8125 323.1015625 C36.01785504 320.79987472 35.81434831 318.78688393 35.5 316.5 C35.08282897 313.46508072 35.03240958 310.90264795 35.5 307.875 C36.16782026 304.07022092 36.16782026 304.07022092 35.5 300.5625 C34.97018726 296.7875842 35.23639127 293.66654015 35.74609375 289.91796875 C36.04374597 287.99200006 36.04374597 287.99200006 36 286 C36 277.66666667 36 269.33333333 36 261 C35.814375 259.72125 35.62875 258.4425 35.4375 257.125 C34.99438075 253.81678095 35.25323803 251.26708361 36 248 C35.67 247.01 35.34 246.02 35 245 C34.875 241.375 34.875 241.375 35 238 C35.33 237.67 35.66 237.34 36 237 C36.09345783 235.35850535 36.11745007 233.71299596 36.11352539 232.06884766 C36.11344986 231.01750641 36.11337433 229.96616516 36.11329651 228.88296509 C36.10813522 227.73822723 36.10297394 226.59348938 36.09765625 225.4140625 C36.0962413 224.24620209 36.09482635 223.07834167 36.09336853 221.87509155 C36.08775022 218.1250355 36.07520143 214.37503813 36.0625 210.625 C36.05748676 208.10156336 36.05292355 205.57812579 36.04882812 203.0546875 C36.0389671 197.49181443 36.02473471 191.92897181 36.00672913 186.36611938 C36.00164215 184.57741875 36 182.78870787 36 181 C35.814375 180.13375 35.62875 179.2675 35.4375 178.375 C35.06987404 175.53902831 35.07237892 173.70126373 35.4375 170.9375 C36.69614428 161.21161234 35.88625427 151.74879701 35 142 C4.97 142 -25.06 142 -56 142 Z M35 459 C36 461 36 461 36 461 Z " fill="#010101" transform="translate(793,160)"/>
<path d="M0 0 C1.35568336 0.00333092 1.35568336 0.00333092 2.73875427 0.00672913 C3.75973709 0.00680466 4.78071991 0.00688019 5.8326416 0.00695801 C6.94304306 0.01211929 8.05344452 0.01728058 9.19749451 0.02259827 C10.89336952 0.02472069 10.89336952 0.02472069 12.62350464 0.02688599 C16.25105891 0.03250433 19.8785525 0.04505994 23.50608826 0.05775452 C25.95856133 0.06276715 28.41103536 0.06733047 30.86351013 0.07142639 C36.89022371 0.08247971 42.91690165 0.09923568 48.94358826 0.12025452 C49.93358826 2.10025452 49.93358826 2.10025452 50.94358826 4.12025452 C50.28358826 4.12025452 49.62358826 4.12025452 48.94358826 4.12025452 C48.95611633 4.67543259 48.96864441 5.23061066 48.98155212 5.8026123 C49.73006952 39.24678553 50.08875166 72.66790624 49.94358826 106.12025452 C50.86844528 106.11803391 51.79330231 106.11581329 52.7461853 106.11352539 C61.44311413 106.09352539 70.14003528 106.07828187 78.83698177 106.06844234 C83.30864375 106.06321378 87.78028679 106.05611662 92.25193787 106.04481506 C96.56370798 106.03398523 100.87545984 106.02797748 105.18724251 106.02537727 C106.83595123 106.0235232 108.48465891 106.01990292 110.13335991 106.01452446 C112.43462697 106.00731274 114.73581765 106.00626363 117.03709412 106.00672913 C119.00566628 106.00339821 119.00566628 106.00339821 121.01400757 106 C123.94358826 106.12025452 123.94358826 106.12025452 124.94358826 107.12025452 C125.04089951 108.83526611 125.06730318 110.55432567 125.06663609 112.27209568 C125.06862713 113.3957401 125.07061818 114.51938453 125.07266957 115.67707878 C125.06975672 116.92705129 125.06684388 118.1770238 125.06384277 119.46487427 C125.06512441 121.43851169 125.06512441 121.43851169 125.06643194 123.45202059 C125.06867939 127.12107887 125.06465223 130.79010824 125.05965388 134.45916283 C125.05535312 138.40942075 125.05679553 142.35967692 125.05755615 146.30993652 C125.05808163 153.15965222 125.05493239 160.00935842 125.04931831 166.85907173 C125.04120648 176.76272322 125.03858842 186.66637009 125.03733032 196.57002454 C125.0351393 212.63633102 125.02847787 228.70263243 125.01902771 244.76893616 C125.00985488 260.3799385 125.00277342 275.99093947 124.9985199 291.60194397 C124.99825717 292.56349382 124.99799445 293.52504367 124.99772377 294.5157314 C124.99641877 299.3393317 124.99515505 304.16293201 124.99391186 308.98653233 C124.9835377 349.03110994 124.96591803 389.07568189 124.94358826 429.12025452 C120.21547614 429.26537861 115.48728899 429.40765034 110.75901794 429.54750061 C109.15710749 429.59525664 107.55521839 429.64373555 105.95335388 429.69300842 C93.52570409 430.07455907 81.10003819 430.39377729 68.67015076 429.90150452 C66.91058044 429.83382874 66.91058044 429.83382874 65.11546326 429.76478577 C63.94499451 429.71709045 62.77452576 429.66939514 61.56858826 429.62025452 C60.34397888 429.5725592 59.11936951 429.52486389 57.85765076 429.47572327 C54.88619237 429.35965067 51.91485417 429.24113701 48.94358826 429.12025452 C48.97388123 430.21337952 49.00417419 431.30650452 49.03538513 432.43275452 C49.98809368 467.34542334 50.68843539 502.22331178 48.94358826 537.12025452 C32.44358826 537.12025452 15.94358826 537.12025452 -1.05641174 537.12025452 C-1.38641174 537.78025452 -1.71641174 538.44025452 -2.05641174 539.12025452 C-2.99526417 536.30369723 -3.18008044 534.60965059 -3.17666626 531.69735718 C-3.17872826 530.34069946 -3.17872826 530.34069946 -3.18083191 528.95663452 C-3.175439 527.47201973 -3.175439 527.47201973 -3.16993713 525.95741272 C-3.17008316 524.91334259 -3.17022919 523.86927246 -3.17037964 522.79356384 C-3.16968192 519.33603349 -3.16189605 515.87855673 -3.15406799 512.42103577 C-3.15220331 510.02635731 -3.15077965 507.63167848 -3.14978027 505.23699951 C-3.14595903 498.92903086 -3.13613206 492.62108518 -3.12507629 486.31312561 C-3.11305698 478.74738286 -3.10845806 471.18163244 -3.10262299 463.61588287 C-3.09292013 452.11732411 -3.07376079 440.61881575 -3.05641174 429.12025452 C-27.47641174 429.45025452 -51.89641174 429.78025452 -77.05641174 430.12025452 C-78.05989876 427.10979348 -78.18170224 425.12285068 -78.18225288 421.97727394 C-78.18486063 420.90643204 -78.18746838 419.83559015 -78.19015515 418.73229849 C-78.18792443 417.5514925 -78.18569371 416.3706865 -78.18339539 415.15409851 C-78.18495538 413.90297346 -78.18651537 412.65184842 -78.18812263 411.36281049 C-78.19230975 407.88299274 -78.19022796 404.4032023 -78.18713641 400.92338443 C-78.18487981 397.17264032 -78.18836339 393.421901 -78.19111633 389.67115784 C-78.19557151 382.31781918 -78.1945983 374.96449071 -78.19170369 367.61115165 C-78.18944696 361.63068874 -78.18913832 355.65022869 -78.19022751 349.66976547 C-78.19038074 348.81911408 -78.19053397 347.96846268 -78.19069185 347.09203397 C-78.19101158 345.36391708 -78.19133579 343.63580019 -78.19166444 341.9076833 C-78.19451893 325.68528152 -78.19123359 309.46288538 -78.18586408 293.24048452 C-78.1814041 279.33630996 -78.18216536 265.43214376 -78.18678284 251.52796936 C-78.19214302 235.37982622 -78.19423578 219.23168804 -78.19117057 203.08354414 C-78.19085203 201.35866316 -78.19053766 199.63378219 -78.19022751 197.90890121 C-78.19007323 197.06026947 -78.18991896 196.21163773 -78.18976001 195.33728988 C-78.18889858 189.3726566 -78.19034983 183.40802649 -78.19270706 177.44339371 C-78.19552165 170.16123752 -78.19473227 162.8790921 -78.18942632 155.59693713 C-78.18681038 151.88501134 -78.18574815 148.17310346 -78.18907547 144.46117783 C-78.19263739 140.4261855 -78.18836454 136.39123779 -78.18339539 132.35624695 C-78.18562611 131.19774817 -78.18785683 130.03924939 -78.19015515 128.84564459 C-78.17205011 121.22996546 -77.73974233 113.70474742 -77.05641174 106.12025452 C-68.29393958 106.09758935 -59.53148293 106.07929869 -50.76898766 106.06844234 C-46.69990832 106.06323101 -42.63085005 106.05616518 -38.56178284 106.04481506 C-34.63253701 106.03392395 -30.70331142 106.0279645 -26.77405167 106.02537727 C-25.27740282 106.02353423 -23.78075504 106.01993526 -22.28411484 106.01452446 C-20.18263636 106.00723137 -18.08124075 106.00626705 -15.97975159 106.00672913 C-14.18771805 106.00339821 -14.18771805 106.00339821 -12.35948181 106 C-9.171889 106.11605035 -6.18555134 106.51947831 -3.05641174 107.12025452 C-3.05733354 106.57488069 -3.05825533 106.02950686 -3.05920506 105.46760654 C-3.08126174 92.21507986 -3.09776024 78.96255638 -3.10822392 65.7100153 C-3.11345341 59.30126323 -3.12055225 52.89252437 -3.1318512 46.48377991 C-3.14267773 40.3046601 -3.14868808 34.12555304 -3.15128899 27.94642448 C-3.15314366 25.58319841 -3.15676507 23.21997308 -3.1621418 20.8567524 C-3.16934913 17.55923555 -3.17040282 14.26177205 -3.16993713 10.96424866 C-3.17353241 9.97666565 -3.17712769 8.98908264 -3.18083191 7.97157288 C-3.17945724 7.07829788 -3.17808258 6.18502289 -3.17666626 5.26467896 C-3.17758805 4.4839203 -3.17850985 3.70316164 -3.17945957 2.89874363 C-2.99934442 0.29542389 -2.59633805 0.15182824 0 0 Z M-43.05641174 140.12025452 C-43.05641174 224.27025452 -43.05641174 308.42025452 -43.05641174 395.12025452 C0.83358826 395.12025452 44.72358826 395.12025452 89.94358826 395.12025452 C89.94358826 375.32025452 89.94358826 355.52025452 89.94358826 335.12025452 C89.61358826 334.79025452 89.28358826 334.46025452 88.94358826 334.12025452 C89.27358826 334.12025452 89.60358826 334.12025452 89.94358826 334.12025452 C89.94358826 333.2956221 89.94358826 332.47098969 89.94358826 331.62136841 C89.94358826 267.78766378 89.94358826 203.95395915 89.94358826 140.12025452 C46.05358826 140.12025452 2.16358826 140.12025452 -43.05641174 140.12025452 Z " fill="#010101" transform="translate(491.05641174316406,267.87974548339844)"/>
<path d="M0 0 C0.33 0 0.66 0 1 0 C1 13.53 1 27.06 1 41 C0.34 41 -0.32 41 -1 41 C-2.125 35.25 -2.125 35.25 -1 33 C-0.90388248 31.37731009 -0.87017648 29.75052694 -0.875 28.125 C-0.87242187 27.26132812 -0.86984375 26.39765625 -0.8671875 25.5078125 C-0.91288346 23.03493622 -0.91288346 23.03493622 -1.56640625 20.8515625 C-2.19999563 18.1459646 -1.15527035 16.44645486 0 14 C-0.66 13.67 -1.32 13.34 -2 13 C-1.814375 12.0925 -1.62875 11.185 -1.4375 10.25 C-0.81366385 7.1562534 -0.81366385 7.1562534 -1.5625 4.8125 C-1.706875 4.214375 -1.85125 3.61625 -2 3 C-1.34 2.01 -0.68 1.02 0 0 Z " fill="#1A1919" transform="translate(829,650)"/>
<path d="M0 0 C17.82 0 35.64 0 54 0 C53.67 1.32 53.34 2.64 53 4 C52.01 4 51.02 4 50 4 C50 3.34 50 2.68 50 2 C25.25 1.505 25.25 1.505 0 1 C0 0.67 0 0.34 0 0 Z " fill="#2B2C2C" transform="translate(702,724)"/>
<path d="M0 0 C0.33 0 0.66 0 1 0 C2.25676377 9.98678356 2.09367165 19.95631733 2 30 C1.34 30 0.68 30 0 30 C0.020625 28.7625 0.04125 27.525 0.0625 26.25 C0.07066821 23.92614521 0.01789664 22.06959805 -0.5625 19.8125 C-1 18 -1 18 -0.5 15.6875 C0.1714731 12.88167945 0.1714731 12.88167945 -0.5 9.5625 C-0.99492012 6.03619418 -0.75795054 3.45288577 0 0 Z " fill="#222221" transform="translate(828,483)"/>
<path d="M0 0 C0.33 0 0.66 0 1 0 C1 14.85 1 29.7 1 45 C0.67 45 0.34 45 0 45 C0 30.15 0 15.3 0 0 Z " fill="#262626" transform="translate(579,469)"/>
<path d="M0 0 C0.33 0 0.66 0 1 0 C1 8.91 1 17.82 1 27 C0.67 27 0.34 27 0 27 C0 18.09 0 9.18 0 0 Z " fill="#232423" transform="translate(579,613)"/>
<path d="M0 0 C0.66 0 1.32 0 2 0 C2.22162857 2.77035709 2.42779249 5.54038995 2.625 8.3125 C2.68945312 9.09818359 2.75390625 9.88386719 2.8203125 10.69335938 C2.871875 11.45068359 2.9234375 12.20800781 2.9765625 12.98828125 C3.02893066 13.68477783 3.08129883 14.38127441 3.13525391 15.09887695 C3 17 3 17 1 20 C-0.12272841 16.63181477 0.29672712 14.42845528 1 11 C0.67 10.01 0.34 9.02 0 8 C-0.12781786 5.32605036 -0.04391871 2.67904143 0 0 Z " fill="#262525" transform="translate(827,397)"/>
<path d="M0 0 C0.33 0 0.66 0 1 0 C1.027193 1.58323688 1.04648306 3.16661062 1.0625 4.75 C1.07410156 5.63171875 1.08570313 6.5134375 1.09765625 7.421875 C1.00826198 9.7818838 0.66912821 11.74498524 0 14 C-0.66 13.67 -1.32 13.34 -2 13 C-1.814375 12.0925 -1.62875 11.185 -1.4375 10.25 C-0.81366385 7.1562534 -0.81366385 7.1562534 -1.5625 4.8125 C-1.706875 4.214375 -1.85125 3.61625 -2 3 C-1.34 2.01 -0.68 1.02 0 0 Z " fill="#20211F" transform="translate(829,650)"/>
<path d="M0 0 C5.94 0 11.88 0 18 0 C18 0.33 18 0.66 18 1 C12.06 1 6.12 1 0 1 C0 0.67 0 0.34 0 0 Z " fill="#222122" transform="translate(780,303)"/>
<path d="M0 0 C0.33 0 0.66 0 1 0 C1 5.28 1 10.56 1 16 C0.67 16 0.34 16 0 16 C0 10.72 0 5.44 0 0 Z " fill="#252525" transform="translate(579,572)"/>
<path d="M0 0 C0.33 0 0.66 0 1 0 C1 4.95 1 9.9 1 15 C0.67 15 0.34 15 0 15 C0 10.05 0 5.1 0 0 Z " fill="#252525" transform="translate(579,548)"/>
<path d="M0 0 C0.33 0 0.66 0 1 0 C1 1.98 1 3.96 1 6 C0.67 6 0.34 6 0 6 C0 4.02 0 2.04 0 0 Z " fill="#262526" transform="translate(579,565)"/>
<path d="M0 0 C0.33 0 0.66 0 1 0 C1 1.98 1 3.96 1 6 C0.67 6 0.34 6 0 6 C0 4.02 0 2.04 0 0 Z " fill="#222222" transform="translate(579,428)"/>
<path d="M0 0 C1.98 0 3.96 0 6 0 C6 0.33 6 0.66 6 1 C4.02 1 2.04 1 0 1 C0 0.67 0 0.34 0 0 Z " fill="#222020" transform="translate(768,303)"/>
<path d="M0 0 C1.65 0 3.3 0 5 0 C5 0.33 5 0.66 5 1 C3.35 1 1.7 1 0 1 C0 0.67 0 0.34 0 0 Z " fill="#282929" transform="translate(824,726)"/>
<path d="M0 0 C0.33 0 0.66 0 1 0 C1 1.65 1 3.3 1 5 C0.67 5 0.34 5 0 5 C0 3.35 0 1.7 0 0 Z " fill="#252525" transform="translate(579,541)"/>
<path d="M0 0 C0.33 0 0.66 0 1 0 C1 1.65 1 3.3 1 5 C0.67 5 0.34 5 0 5 C0 3.35 0 1.7 0 0 Z " fill="#222222" transform="translate(579,435)"/>
<path d="M0 0 C1 4 1 4 1 4 Z " fill="#232424" transform="translate(579,608)"/>
<path d="M0 0 C4 1 4 1 4 1 Z " fill="#2A2A29" transform="translate(212,425)"/>
<path d="M0 0 C4 1 4 1 4 1 Z " fill="#252325" transform="translate(803,303)"/>
<path d="M0 0 C4 1 4 1 4 1 Z " fill="#232223" transform="translate(762,303)"/>
<path d="M0 0 C4 1 4 1 4 1 Z " fill="#222121" transform="translate(757,303)"/>
<path d="M0 0 C0.66 0.66 1.32 1.32 2 2 C1.01 1.67 0.02 1.34 -1 1 C-0.67 0.67 -0.34 0.34 0 0 Z " fill="#424343" transform="translate(799,160)"/>
<path d="" fill="#242324" transform="translate(0,0)"/>
<path d="" fill="#262625" transform="translate(0,0)"/>
<path d="" fill="#242424" transform="translate(0,0)"/>
<path d="" fill="#222122" transform="translate(0,0)"/>
<path d="M0 0 C3 1 3 1 3 1 Z " fill="#2F2E2C" transform="translate(197,425)"/>
<path d="M0 0 C0.33 0.66 0.66 1.32 1 2 C0.34 1.67 -0.32 1.34 -1 1 C-0.67 0.67 -0.34 0.34 0 0 Z " fill="#30312F" transform="translate(336,424)"/>
<path d="M0 0 C0.33 0.66 0.66 1.32 1 2 C0.34 1.67 -0.32 1.34 -1 1 C-0.67 0.67 -0.34 0.34 0 0 Z " fill="#2A2C2A" transform="translate(208,424)"/>
<path d="M0 0 C3 1 3 1 3 1 Z " fill="#242222" transform="translate(799,303)"/>
<path d="" fill="#292927" transform="translate(0,0)"/>
<path d="" fill="#323230" transform="translate(0,0)"/>
<path d="M0 0 C2 1 2 1 2 1 Z " fill="#333232" transform="translate(523,806)"/>
<path d="M0 0 C2 1 2 1 2 1 Z " fill="#343433" transform="translate(515,806)"/>
<path d="M0 0 C2 1 2 1 2 1 Z " fill="#373636" transform="translate(267,806)"/>
<path d="M0 0 C2 1 2 1 2 1 Z " fill="#353436" transform="translate(251,806)"/>
<path d="" fill="#2E2E2E" transform="translate(0,0)"/>
<path d="" fill="#2B2D2C" transform="translate(0,0)"/>
<path d="" fill="#282828" transform="translate(0,0)"/>
<path d="" fill="#282926" transform="translate(0,0)"/>
<path d="" fill="#282927" transform="translate(0,0)"/>
<path d="" fill="#272826" transform="translate(0,0)"/>
<path d="M0 0 C2 1 2 1 2 1 Z " fill="#2E302F" transform="translate(848,726)"/>
<path d="M0 0 C2 1 2 1 2 1 Z " fill="#2A2A2A" transform="translate(835,726)"/>
<path d="M0 0 C2 1 2 1 2 1 Z " fill="#262826" transform="translate(739,726)"/>
<path d="M0 0 C2 1 2 1 2 1 Z " fill="#272826" transform="translate(728,726)"/>
<path d="M0 0 C2 1 2 1 2 1 Z " fill="#2C2D2E" transform="translate(707,726)"/>
<path d="M0 0 C2 1 2 1 2 1 Z " fill="#292B29" transform="translate(217,723)"/>
<path d="M0 0 C2 1 2 1 2 1 Z " fill="#282928" transform="translate(216,701)"/>
<path d="M0 0 C2 1 2 1 2 1 Z " fill="#2A2927" transform="translate(217,699)"/>
<path d="M0 0 C2 1 2 1 2 1 Z " fill="#292A2A" transform="translate(751,688)"/>
<path d="" fill="#242525" transform="translate(0,0)"/>
<path d="" fill="#232223" transform="translate(0,0)"/>
<path d="" fill="#282928" transform="translate(0,0)"/>
<path d="M0 0 C2 1 2 1 2 1 Z " fill="#32312F" transform="translate(319,425)"/>
<path d="M0 0 C2 1 2 1 2 1 Z " fill="#292829" transform="translate(274,425)"/>
<path d="M0 0 C2 1 2 1 2 1 Z " fill="#2E2E2E" transform="translate(202,425)"/>
<path d="M0 0 C2 1 2 1 2 1 Z " fill="#2E312E" transform="translate(191,425)"/>
<path d="" fill="#222120" transform="translate(0,0)"/>
<path d="M0 0 C2 1 2 1 2 1 Z " fill="#282726" transform="translate(825,303)"/>
<path d="M0 0 C2 1 2 1 2 1 Z " fill="#262325" transform="translate(820,303)"/>
<path d="M0 0 C2 1 2 1 2 1 Z " fill="#232524" transform="translate(816,303)"/>
<path d="M0 0 C2 1 2 1 2 1 Z " fill="#242324" transform="translate(812,303)"/>
<path d="M0 0 C2 1 2 1 2 1 Z " fill="#242123" transform="translate(748,303)"/>
<path d="" fill="#2E312F" transform="translate(0,0)"/>
<path d="" fill="#3E3F3F" transform="translate(0,0)"/>
<path d="" fill="#757675" transform="translate(0,0)"/>
<path d="" fill="#3B3C3B" transform="translate(0,0)"/>
<path d="" fill="#363535" transform="translate(0,0)"/>
<path d="" fill="#313130" transform="translate(0,0)"/>
<path d="" fill="#31312E" transform="translate(0,0)"/>
<path d="" fill="#373737" transform="translate(0,0)"/>
<path d="" fill="#353534" transform="translate(0,0)"/>
<path d="" fill="#333534" transform="translate(0,0)"/>
<path d="" fill="#333433" transform="translate(0,0)"/>
<path d="" fill="#343332" transform="translate(0,0)"/>
<path d="" fill="#333433" transform="translate(0,0)"/>
<path d="" fill="#343434" transform="translate(0,0)"/>
<path d="" fill="#363334" transform="translate(0,0)"/>
<path d="" fill="#343535" transform="translate(0,0)"/>
<path d="" fill="#353636" transform="translate(0,0)"/>
<path d="" fill="#383736" transform="translate(0,0)"/>
<path d="" fill="#363537" transform="translate(0,0)"/>
<path d="" fill="#343434" transform="translate(0,0)"/>
<path d="" fill="#353536" transform="translate(0,0)"/>
<path d="" fill="#353534" transform="translate(0,0)"/>
<path d="" fill="#363838" transform="translate(0,0)"/>
<path d="" fill="#2E2F2F" transform="translate(0,0)"/>
<path d="" fill="#2D2D2E" transform="translate(0,0)"/>
<path d="" fill="#343433" transform="translate(0,0)"/>
<path d="" fill="#363637" transform="translate(0,0)"/>
<path d="" fill="#2E2C2D" transform="translate(0,0)"/>
<path d="" fill="#2D2C2C" transform="translate(0,0)"/>
<path d="" fill="#343531" transform="translate(0,0)"/>
<path d="" fill="#333232" transform="translate(0,0)"/>
<path d="" fill="#2D2C2B" transform="translate(0,0)"/>
<path d="" fill="#2B2D2A" transform="translate(0,0)"/>
<path d="" fill="#30312F" transform="translate(0,0)"/>
<path d="" fill="#292829" transform="translate(0,0)"/>
<path d="" fill="#2E2F2E" transform="translate(0,0)"/>
<path d="" fill="#2D2C2A" transform="translate(0,0)"/>
<path d="" fill="#2C2D2B" transform="translate(0,0)"/>
<path d="" fill="#2E2B2A" transform="translate(0,0)"/>
<path d="" fill="#2A2B29" transform="translate(0,0)"/>
<path d="" fill="#2B2E2C" transform="translate(0,0)"/>
<path d="" fill="#2C2D2C" transform="translate(0,0)"/>
<path d="" fill="#2C2C2D" transform="translate(0,0)"/>
<path d="" fill="#363637" transform="translate(0,0)"/>
<path d="" fill="#343434" transform="translate(0,0)"/>
<path d="" fill="#333233" transform="translate(0,0)"/>
<path d="" fill="#313232" transform="translate(0,0)"/>
<path d="" fill="#2C2D2D" transform="translate(0,0)"/>
<path d="" fill="#2F2E2D" transform="translate(0,0)"/>
<path d="" fill="#292929" transform="translate(0,0)"/>
<path d="" fill="#262526" transform="translate(0,0)"/>
<path d="" fill="#252824" transform="translate(0,0)"/>
<path d="" fill="#262526" transform="translate(0,0)"/>
<path d="" fill="#252527" transform="translate(0,0)"/>
<path d="" fill="#262625" transform="translate(0,0)"/>
<path d="" fill="#252526" transform="translate(0,0)"/>
<path d="" fill="#282728" transform="translate(0,0)"/>
<path d="" fill="#29282A" transform="translate(0,0)"/>
<path d="" fill="#292828" transform="translate(0,0)"/>
<path d="" fill="#292B29" transform="translate(0,0)"/>
<path d="" fill="#29292A" transform="translate(0,0)"/>
<path d="" fill="#312F30" transform="translate(0,0)"/>
<path d="" fill="#393B3B" transform="translate(0,0)"/>
<path d="" fill="#37393A" transform="translate(0,0)"/>
<path d="" fill="#272727" transform="translate(0,0)"/>
<path d="" fill="#2E2D2D" transform="translate(0,0)"/>
<path d="" fill="#252526" transform="translate(0,0)"/>
<path d="" fill="#353233" transform="translate(0,0)"/>
<path d="" fill="#2A2C2C" transform="translate(0,0)"/>
<path d="" fill="#2F312E" transform="translate(0,0)"/>
<path d="" fill="#2B2C2B" transform="translate(0,0)"/>
<path d="" fill="#2C2B2C" transform="translate(0,0)"/>
<path d="" fill="#2B2C2A" transform="translate(0,0)"/>
<path d="" fill="#2B2C2A" transform="translate(0,0)"/>
<path d="" fill="#2B2C2A" transform="translate(0,0)"/>
<path d="" fill="#262526" transform="translate(0,0)"/>
<path d="" fill="#2A2A2B" transform="translate(0,0)"/>
<path d="" fill="#2E2F31" transform="translate(0,0)"/>
<path d="" fill="#242423" transform="translate(0,0)"/>
<path d="" fill="#232423" transform="translate(0,0)"/>
<path d="" fill="#242425" transform="translate(0,0)"/>
<path d="" fill="#2F2F31" transform="translate(0,0)"/>
<path d="" fill="#252525" transform="translate(0,0)"/>
<path d="" fill="#282827" transform="translate(0,0)"/>
<path d="" fill="#2F2F30" transform="translate(0,0)"/>
<path d="" fill="#272628" transform="translate(0,0)"/>
<path d="" fill="#282828" transform="translate(0,0)"/>
<path d="" fill="#282927" transform="translate(0,0)"/>
<path d="" fill="#2F2F31" transform="translate(0,0)"/>
<path d="" fill="#2F3133" transform="translate(0,0)"/>
<path d="" fill="#2F2F31" transform="translate(0,0)"/>
<path d="" fill="#2F3132" transform="translate(0,0)"/>
<path d="" fill="#29292A" transform="translate(0,0)"/>
<path d="" fill="#2A2727" transform="translate(0,0)"/>
<path d="" fill="#292A28" transform="translate(0,0)"/>
<path d="" fill="#262424" transform="translate(0,0)"/>
<path d="" fill="#262627" transform="translate(0,0)"/>
<path d="" fill="#2C2C2B" transform="translate(0,0)"/>
<path d="" fill="#272A28" transform="translate(0,0)"/>
<path d="" fill="#292828" transform="translate(0,0)"/>
<path d="" fill="#252524" transform="translate(0,0)"/>
<path d="" fill="#232625" transform="translate(0,0)"/>
<path d="" fill="#252324" transform="translate(0,0)"/>
<path d="" fill="#2C2A29" transform="translate(0,0)"/>
<path d="" fill="#222322" transform="translate(0,0)"/>
<path d="" fill="#32312F" transform="translate(0,0)"/>
<path d="" fill="#313230" transform="translate(0,0)"/>
<path d="" fill="#32312F" transform="translate(0,0)"/>
<path d="" fill="#313533" transform="translate(0,0)"/>
<path d="" fill="#30302E" transform="translate(0,0)"/>
<path d="" fill="#2F2E2D" transform="translate(0,0)"/>
<path d="" fill="#2E302D" transform="translate(0,0)"/>
<path d="" fill="#2D2F2C" transform="translate(0,0)"/>
<path d="" fill="#2A2C29" transform="translate(0,0)"/>
<path d="" fill="#252627" transform="translate(0,0)"/>
<path d="" fill="#2C2B2C" transform="translate(0,0)"/>
<path d="" fill="#2C2D2D" transform="translate(0,0)"/>
<path d="" fill="#33342E" transform="translate(0,0)"/>
<path d="" fill="#373838" transform="translate(0,0)"/>
<path d="" fill="#30312F" transform="translate(0,0)"/>
<path d="" fill="#2E2E2D" transform="translate(0,0)"/>
<path d="" fill="#2D2C29" transform="translate(0,0)"/>
<path d="" fill="#373A38" transform="translate(0,0)"/>
<path d="" fill="#2A2C2B" transform="translate(0,0)"/>
<path d="" fill="#222121" transform="translate(0,0)"/>
<path d="" fill="#282726" transform="translate(0,0)"/>
<path d="" fill="#222121" transform="translate(0,0)"/>
<path d="" fill="#252424" transform="translate(0,0)"/>
<path d="" fill="#252523" transform="translate(0,0)"/>
<path d="" fill="#232221" transform="translate(0,0)"/>
<path d="" fill="#2B2A2B" transform="translate(0,0)"/>
<path d="" fill="#272827" transform="translate(0,0)"/>
<path d="" fill="#2A282A" transform="translate(0,0)"/>
<path d="" fill="#353533" transform="translate(0,0)"/>
<path d="" fill="#2C2B2B" transform="translate(0,0)"/>
<path d="" fill="#333130" transform="translate(0,0)"/>
<path d="" fill="#282925" transform="translate(0,0)"/>
<path d="" fill="#2F3132" transform="translate(0,0)"/>
<path d="" fill="#262526" transform="translate(0,0)"/>
<path d="" fill="#262826" transform="translate(0,0)"/>
<path d="" fill="#262725" transform="translate(0,0)"/>
<path d="" fill="#292A2A" transform="translate(0,0)"/>
<path d="" fill="#252523" transform="translate(0,0)"/>
<path d="" fill="#232324" transform="translate(0,0)"/>
<path d="" fill="#212321" transform="translate(0,0)"/>
<path d="" fill="#232021" transform="translate(0,0)"/>
<path d="" fill="#212121" transform="translate(0,0)"/>
<path d="" fill="#222121" transform="translate(0,0)"/>
<path d="" fill="#252222" transform="translate(0,0)"/>
<path d="" fill="#272427" transform="translate(0,0)"/>
<path d="" fill="#363738" transform="translate(0,0)"/>
<path d="" fill="#363735" transform="translate(0,0)"/>
<path d="" fill="#42413F" transform="translate(0,0)"/>
<path d="" fill="#282829" transform="translate(0,0)"/>
<path d="" fill="#3D3C3D" transform="translate(0,0)"/>
<path d="" fill="#2C2C2B" transform="translate(0,0)"/>
<path d="" fill="#2C2C2B" transform="translate(0,0)"/>
<path d="" fill="#2E302D" transform="translate(0,0)"/>
<path d="" fill="#2F2F2D" transform="translate(0,0)"/>
<path d="" fill="#414242" transform="translate(0,0)"/>
<path d="" fill="#3E3E40" transform="translate(0,0)"/>
</svg>
