<?xml version="1.0" encoding="UTF-8"?>
<svg version="1.1" xmlns="http://www.w3.org/2000/svg" width="1024" height="1024">
<path d="M0 0 C0.69771011 0.00359528 1.39542023 0.00719055 2.11427307 0.01089478 C3.2117688 0.01067574 3.2117688 0.01067574 4.33143616 0.01045227 C6.76094989 0.0111515 9.19038789 0.01894432 11.61988831 0.02676392 C13.29997719 0.02862806 14.98006662 0.03005198 16.66015625 0.03105164 C21.09071849 0.03487709 25.52124815 0.04470761 29.95179749 0.05575562 C34.46941182 0.06596914 38.98703139 0.07054913 43.50465393 0.07559204 C52.37511098 0.08632986 61.24554381 0.10340661 70.11598206 0.12442017 C71.59905633 3.09056871 71.197463 6.08118245 71.13771057 9.32803345 C71.12329926 10.44037857 71.12329926 10.44037857 71.1085968 11.57519531 C71.07555673 14.03180284 71.0352436 16.4882353 70.99488831 18.94473267 C70.97059208 20.64580667 70.94674827 22.34688718 70.92333984 24.04797363 C70.86044942 28.52954521 70.79139686 33.01100169 70.72108459 37.49246216 C70.63803058 42.86717509 70.56258803 48.24199953 70.48587799 53.61680603 C70.36842791 61.78611137 70.24127662 69.95521439 70.11598206 78.12442017 C45.69598206 78.45442017 21.27598206 78.78442017 -3.88401794 79.12442017 C-3.88401794 83.74442017 -3.88401794 88.36442017 -3.88401794 93.12442017 C-3.88401794 95.14658954 -3.89599161 97.16878993 -3.91917419 99.19082642 C-3.93270935 100.92139282 -3.93270935 100.92139282 -3.94651794 102.68692017 C-3.96392029 104.42135376 -3.96392029 104.42135376 -3.98167419 106.19082642 C-4.09039704 109.05933527 -4.09039704 109.05933527 -2.88401794 111.12442017 C-2.88401794 112.11442017 -2.88401794 113.10442017 -2.88401794 114.12442017 C-2.19509366 114.12349837 -1.50616938 114.12257658 -0.7963686 114.12162685 C16.01542477 114.09948193 32.82721348 114.08296503 49.63901806 114.07260799 C57.76928419 114.06746548 65.89954056 114.06046201 74.02980042 114.04898071 C81.12131692 114.03897112 88.21282634 114.03255188 95.30434972 114.03033167 C99.05452401 114.02903517 102.80467805 114.02601714 106.55484581 114.01869011 C110.09489994 114.01183057 113.63492574 114.0098231 117.17498589 114.01131248 C119.07258849 114.01091232 120.97018812 114.00556946 122.86778259 114 C130.6605691 114.00921744 138.35561882 114.41611838 146.11598206 115.12442017 C146.13877507 123.5915838 146.15695575 132.0587302 146.16779423 140.52591705 C146.17299789 144.458177 146.18004953 148.39041502 146.19142151 152.32266235 C146.20234021 156.12224033 146.20827782 159.9217973 146.2108593 163.72138977 C146.21269743 165.16614614 146.21628666 166.61090145 146.22171211 168.0556488 C146.22904202 170.08966497 146.22996801 172.12359591 146.22950745 174.15762329 C146.23172806 175.31234131 146.23394867 176.46705933 146.23623657 177.6567688 C146.10312353 181.49520781 145.59236802 185.31333246 145.11598206 189.12442017 C170.19598206 189.12442017 195.27598206 189.12442017 221.11598206 189.12442017 C221.11598206 201.66442017 221.11598206 214.20442017 221.11598206 227.12442017 C230.60336583 227.12442017 239.75842896 227.10794355 249.14723206 226.30410767 C253.41969922 226.00109581 255.15559814 226.14422821 259.11598206 228.12442017 C259.11598206 253.53442017 259.11598206 278.94442017 259.11598206 305.12442017 C253.17598206 305.45442017 247.23598206 305.78442017 241.11598206 306.12442017 C241.11598206 306.45442017 241.11598206 306.78442017 241.11598206 307.12442017 C239.46598206 307.12442017 237.81598206 307.12442017 236.11598206 307.12442017 C236.11598206 306.79442017 236.11598206 306.46442017 236.11598206 306.12442017 C230.50598206 306.12442017 224.89598206 306.12442017 219.11598206 306.12442017 C219.11598206 306.45442017 219.11598206 306.78442017 219.11598206 307.12442017 C216.44931539 307.12442017 213.78264872 307.12442017 211.11598206 307.12442017 C210.12598206 307.45442017 209.13598206 307.78442017 208.11598206 308.12442017 C205.42848206 307.18692017 205.42848206 307.18692017 203.11598206 306.12442017 C202.45598206 306.78442017 201.79598206 307.44442017 201.11598206 308.12442017 C198.55348206 307.74942017 198.55348206 307.74942017 196.11598206 307.12442017 C194.89037847 307.10388434 194.89037847 307.10388434 192.78785706 307.41348267 C191.82363831 307.52434204 190.85941956 307.63520142 189.86598206 307.74942017 C188.43512268 307.9234436 188.43512268 307.9234436 186.97535706 308.10098267 C183.85873143 308.12652878 181.90568481 307.45818316 179.11598206 306.12442017 C179.11598206 306.45442017 179.11598206 306.78442017 179.11598206 307.12442017 C177.13030497 307.09186808 175.14462789 307.059316 173.15895081 307.02676392 C170.91292744 307.041788 170.91292744 307.041788 168.11598206 308.12442017 C165.42848206 307.18692017 165.42848206 307.18692017 163.11598206 306.12442017 C163.11598206 306.45442017 163.11598206 306.78442017 163.11598206 307.12442017 C160.44931539 307.12442017 157.78264872 307.12442017 155.11598206 307.12442017 C154.12598206 307.45442017 153.13598206 307.78442017 152.11598206 308.12442017 C151.55910706 307.81504517 151.00223206 307.50567017 150.42848206 307.18692017 C146.92390729 305.57671014 143.95401458 305.93566447 140.11598206 306.12442017 C139.78598206 306.45442017 139.45598206 306.78442017 139.11598206 307.12442017 C136.78302066 307.16608019 134.44894345 307.16608019 132.11598206 307.12442017 C130.74704966 307.07171554 130.74704966 307.07171554 128.11598206 308.12442017 C125.42848206 307.18692017 125.42848206 307.18692017 123.11598206 306.12442017 C122.45598206 306.78442017 121.79598206 307.44442017 121.11598206 308.12442017 C118.67848206 307.74942017 118.67848206 307.74942017 116.11598206 307.12442017 C113.55905477 307.12442017 111.26465657 307.34669783 108.74098206 307.68692017 C105.256068 308.09990511 102.54788257 307.93192617 99.11598206 307.12442017 C98.12598206 307.45442017 97.13598206 307.78442017 96.11598206 308.12442017 C94.44931539 307.79108683 92.78264872 307.4577535 91.11598206 307.12442017 C90.12598206 307.45442017 89.13598206 307.78442017 88.11598206 308.12442017 C86.79598206 308.12442017 85.47598206 308.12442017 84.11598206 308.12442017 C83.78598206 307.79442017 83.45598206 307.46442017 83.11598206 307.12442017 C82.06410706 307.28942017 81.01223206 307.45442017 79.92848206 307.62442017 C76.2916681 308.10137937 73.66750714 307.90402323 70.11598206 307.12442017 C69.78598206 307.78442017 69.45598206 308.44442017 69.11598206 309.12442017 C68.45598206 308.46442017 67.79598206 307.80442017 67.11598206 307.12442017 C66.12598206 307.45442017 65.13598206 307.78442017 64.11598206 308.12442017 C62.26453756 308.24271454 60.40866068 308.29956878 58.55348206 308.31192017 C57.58281799 308.32609985 56.61215393 308.34027954 55.61207581 308.35488892 C53.11598206 308.12442017 53.11598206 308.12442017 51.11598206 306.12442017 C50.78598206 306.78442017 50.45598206 307.44442017 50.11598206 308.12442017 C49.41731018 308.1128186 48.71863831 308.10121704 47.99879456 308.08926392 C47.08871643 308.08024048 46.17863831 308.07121704 45.24098206 308.06192017 C44.33606018 308.0503186 43.43113831 308.03871704 42.49879456 308.02676392 C40.09912356 307.96192759 40.09912356 307.96192759 38.11598206 309.12442017 C38.11598206 308.46442017 38.11598206 307.80442017 38.11598206 307.12442017 C37.22910706 307.31004517 36.34223206 307.49567017 35.42848206 307.68692017 C32.22868244 308.10953521 30.21672082 307.79485017 27.11598206 307.12442017 C26.12598206 307.45442017 25.13598206 307.78442017 24.11598206 308.12442017 C21.42848206 307.18692017 21.42848206 307.18692017 19.11598206 306.12442017 C18.78598206 306.78442017 18.45598206 307.44442017 18.11598206 308.12442017 C15.9912563 308.17828645 13.86614553 308.21715087 11.74098206 308.24942017 C10.55762268 308.27262329 9.37426331 308.29582642 8.15504456 308.31973267 C5.11598206 308.12442017 5.11598206 308.12442017 3.11598206 306.12442017 C2.78598206 306.78442017 2.45598206 307.44442017 2.11598206 308.12442017 C-7.29404072 308.30893042 -7.29404072 308.30893042 -11.88401794 307.12442017 C-11.88401794 306.79442017 -11.88401794 306.46442017 -11.88401794 306.12442017 C-13.34194679 306.0704228 -14.80044506 306.0316284 -16.25901794 305.99942017 C-17.47718201 305.96461548 -17.47718201 305.96461548 -18.71995544 305.92910767 C-21.09744038 305.91071966 -21.09744038 305.91071966 -22.88401794 308.12442017 C-25.41526794 308.35488892 -25.41526794 308.35488892 -28.38401794 308.31192017 C-29.36370544 308.30547485 -30.34339294 308.29902954 -31.35276794 308.29238892 C-33.88401794 308.12442017 -33.88401794 308.12442017 -35.88401794 307.12442017 C-35.88401794 306.46442017 -35.88401794 305.80442017 -35.88401794 305.12442017 C-39.51401794 305.45442017 -43.14401794 305.78442017 -46.88401794 306.12442017 C-46.88401794 306.45442017 -46.88401794 306.78442017 -46.88401794 307.12442017 C-51.21735128 307.12442017 -55.55068461 307.12442017 -59.88401794 307.12442017 C-59.88401794 306.79442017 -59.88401794 306.46442017 -59.88401794 306.12442017 C-62.85401794 306.12442017 -65.82401794 306.12442017 -68.88401794 306.12442017 C-69.21401794 306.78442017 -69.54401794 307.44442017 -69.88401794 308.12442017 C-70.85339294 307.95942017 -71.82276794 307.79442017 -72.82151794 307.62442017 C-76.41440906 306.96676712 -76.41440906 306.96676712 -79.88401794 308.12442017 C-83.52687509 307.48156302 -83.52687509 307.48156302 -84.88401794 306.12442017 C-85.54401794 306.78442017 -86.20401794 307.44442017 -86.88401794 308.12442017 C-88.88948484 307.82573361 -90.88978999 307.49070693 -92.88401794 307.12442017 C-93.87401794 307.45442017 -94.86401794 307.78442017 -95.88401794 308.12442017 C-97.9290829 308.03851635 -99.97182756 307.88573031 -102.00901794 307.68692017 C-103.08409607 307.58508423 -104.15917419 307.48324829 -105.26683044 307.37832642 C-106.13050232 307.29453735 -106.99417419 307.21074829 -107.88401794 307.12442017 C-109.06830589 307.08525215 -109.06830589 307.08525215 -110.90354919 307.61270142 C-114.81181639 308.28371453 -118.613635 308.30856318 -122.57151794 308.31192017 C-123.34302185 308.32416626 -124.11452576 308.33641235 -124.90940857 308.34902954 C-126.90234502 308.35425121 -128.89485133 308.24705426 -130.88401794 308.12442017 C-131.54401794 307.46442017 -132.20401794 306.80442017 -132.88401794 306.12442017 C-133.21401794 306.78442017 -133.54401794 307.44442017 -133.88401794 308.12442017 C-135.86401794 307.79442017 -137.84401794 307.46442017 -139.88401794 307.12442017 C-139.88401794 306.79442017 -139.88401794 306.46442017 -139.88401794 306.12442017 C-142.85401794 306.12442017 -145.82401794 306.12442017 -148.88401794 306.12442017 C-149.21401794 306.78442017 -149.54401794 307.44442017 -149.88401794 308.12442017 C-152.19645586 308.15127428 -154.50898065 308.17074858 -156.82151794 308.18692017 C-158.10929138 308.19852173 -159.39706482 308.21012329 -160.72386169 308.22207642 C-163.88401794 308.12442017 -163.88401794 308.12442017 -164.88401794 307.12442017 C-167.21697934 307.08276014 -169.55105655 307.08276014 -171.88401794 307.12442017 C-172.21401794 307.12442017 -172.54401794 307.12442017 -172.88401794 307.12442017 C-173.66776794 307.33067017 -174.45151794 307.53692017 -175.25901794 307.74942017 C-177.88401794 308.12442017 -177.88401794 308.12442017 -180.88401794 306.12442017 C-181.21401794 306.78442017 -181.54401794 307.44442017 -181.88401794 308.12442017 C-186.6797011 308.21845317 -191.19643537 308.29631581 -195.88401794 307.12442017 C-197.10762474 307.04988457 -197.10762474 307.04988457 -198.88401794 308.12442017 C-199.85339294 307.95942017 -200.82276794 307.79442017 -201.82151794 307.62442017 C-204.91354229 306.87595121 -204.91354229 306.87595121 -207.88401794 308.12442017 C-209.55068461 307.79108683 -211.21735128 307.4577535 -212.88401794 307.12442017 C-213.87401794 307.45442017 -214.86401794 307.78442017 -215.88401794 308.12442017 C-216.21401794 307.46442017 -216.54401794 306.80442017 -216.88401794 306.12442017 C-217.93589294 306.49567017 -218.98776794 306.86692017 -220.07151794 307.24942017 C-224.07034008 308.16718262 -225.3753001 308.03826626 -228.88401794 306.12442017 C-229.54401794 306.78442017 -230.20401794 307.44442017 -230.88401794 308.12442017 C-233.44651794 307.74942017 -233.44651794 307.74942017 -235.88401794 307.12442017 C-236.21401794 307.12442017 -236.54401794 307.12442017 -236.88401794 307.12442017 C-238.88401794 307.12442017 -240.88401794 307.12442017 -242.88401794 307.12442017 C-242.88401794 306.79442017 -242.88401794 306.46442017 -242.88401794 306.12442017 C-243.69669128 306.09936401 -244.50936462 306.07430786 -245.34666443 306.04849243 C-249.00512546 305.93292898 -252.66330322 305.81002433 -256.32151794 305.68692017 C-258.24060974 305.62794556 -258.24060974 305.62794556 -260.19847107 305.56777954 C-261.41341248 305.52588501 -262.62835388 305.48399048 -263.88011169 305.44082642 C-265.00602722 305.4041687 -266.13194275 305.36751099 -267.29197693 305.32974243 C-269.88401794 305.12442017 -269.88401794 305.12442017 -270.88401794 304.12442017 C-270.95653978 301.3413946 -270.8802648 298.57161482 -270.82151794 295.78848267 C-270.75593221 293.01886004 -270.75593221 293.01886004 -271.88401794 290.12442017 C-271.22401794 290.12442017 -270.56401794 290.12442017 -269.88401794 290.12442017 C-270.04772888 288.85461304 -270.21143982 287.58480591 -270.38011169 286.27651978 C-270.95660922 281.06611835 -270.99428781 275.92768538 -270.94651794 270.69082642 C-270.94273132 269.73167831 -270.9389447 268.77253021 -270.93504333 267.78431702 C-270.92292608 264.75180342 -270.90427782 261.71938959 -270.88401794 258.68692017 C-270.85748849 254.66739178 -270.83749844 250.64790895 -270.82151794 246.62832642 C-270.8132196 245.70443619 -270.80492126 244.78054596 -270.79637146 243.82865906 C-270.79306824 242.97694626 -270.78976501 242.12523346 -270.78636169 241.24771118 C-270.78112488 240.49764297 -270.77588806 239.74757477 -270.77049255 238.97477722 C-270.76866323 237.02879522 -270.76866323 237.02879522 -271.88401794 235.12442017 C-271.60159912 232.78437847 -271.27151007 230.44937294 -270.88401794 228.12442017 C-267.06823832 226.92236403 -263.23765806 226.90247035 -259.27464294 226.80801392 C-258.54783325 226.78723282 -257.82102356 226.76645172 -257.07218933 226.74504089 C-254.75955803 226.67986504 -252.44681701 226.62080977 -250.13401794 226.56192017 C-248.5623922 226.5187045 -246.99077738 226.47508925 -245.41917419 226.43106079 C-241.57423274 226.32346739 -237.72920329 226.22415731 -233.88401794 226.12442017 C-233.55401794 216.55442017 -233.22401794 206.98442017 -232.88401794 197.12442017 C-233.54401794 197.12442017 -234.20401794 197.12442017 -234.88401794 197.12442017 C-234.88401794 196.13442017 -234.88401794 195.14442017 -234.88401794 194.12442017 C-234.22401794 194.12442017 -233.56401794 194.12442017 -232.88401794 194.12442017 C-232.55401794 192.47442017 -232.22401794 190.82442017 -231.88401794 189.12442017 C-219.67401794 189.12442017 -207.46401794 189.12442017 -194.88401794 189.12442017 C-195.37901794 185.65942017 -195.37901794 185.65942017 -195.88401794 182.12442017 C-195.9701521 180.04891198 -196.01454932 177.97124488 -196.01683044 175.89395142 C-196.01811951 174.76151001 -196.01940857 173.6290686 -196.02073669 172.46231079 C-196.01686951 171.29893188 -196.01300232 170.13555298 -196.00901794 168.93692017 C-196.01288513 167.7619397 -196.01675232 166.58695923 -196.02073669 165.37637329 C-196.01944763 164.24779907 -196.01815857 163.11922485 -196.01683044 161.95645142 C-196.01570251 160.93269409 -196.01457458 159.90893677 -196.01341248 158.85415649 C-195.89847333 156.42937429 -195.50982257 154.45174637 -194.88401794 152.12442017 C-194.11695526 152.12664078 -193.34989258 152.12886139 -192.55958557 152.13114929 C-185.29292594 152.15127529 -178.02628002 152.16645665 -170.75959969 152.17623234 C-167.02469305 152.18142722 -163.28980965 152.18846242 -159.55491638 152.19985962 C-155.9433609 152.21081014 -152.33182762 152.2167225 -148.72025681 152.21929741 C-147.34972154 152.22112991 -145.97918734 152.2247078 -144.60866165 152.23015022 C-136.96790476 152.25925584 -129.46793929 152.1030108 -121.88401794 151.12442017 C-120.72210165 147.63867128 -120.7236378 144.85330289 -120.67869568 141.17446899 C-120.66866296 140.46043002 -120.65863024 139.74639105 -120.6482935 139.01071453 C-120.61692891 136.70099309 -120.59214581 134.39125446 -120.56761169 132.08145142 C-120.54920636 130.65481001 -120.53036958 129.22817409 -120.51109314 127.80154419 C-120.44266985 122.51340128 -120.38260145 117.22515295 -120.32151794 111.93692017 C-120.17714294 100.11879517 -120.03276794 88.30067017 -119.88401794 76.12442017 C-82.26401794 76.12442017 -44.64401794 76.12442017 -5.88401794 76.12442017 C-5.92363284 51.48683607 -5.92363284 51.48683607 -5.97410583 26.84927368 C-5.97862244 22.0930481 -5.97862244 22.0930481 -5.97946167 19.86915588 C-5.9810011 18.31003026 -5.98452601 16.75090586 -5.98959351 15.19178772 C-5.99687193 12.83540771 -5.99792533 10.47910069 -5.99754333 8.12271118 C-6.0029405 7.07416757 -6.0029405 7.07416757 -6.00844669 6.00444126 C-5.996044 0.3219939 -5.68143315 0.01234917 0 0 Z M-119.88401794 305.12442017 C-119.88401794 305.45442017 -119.88401794 305.78442017 -119.88401794 306.12442017 C-117.57401794 306.12442017 -115.26401794 306.12442017 -112.88401794 306.12442017 C-112.88401794 305.79442017 -112.88401794 305.46442017 -112.88401794 305.12442017 C-115.19401794 305.12442017 -117.50401794 305.12442017 -119.88401794 305.12442017 Z M-7.88401794 305.12442017 C-7.88401794 305.45442017 -7.88401794 305.78442017 -7.88401794 306.12442017 C-6.23401794 306.12442017 -4.58401794 306.12442017 -2.88401794 306.12442017 C-2.88401794 305.79442017 -2.88401794 305.46442017 -2.88401794 305.12442017 C-4.53401794 305.12442017 -6.18401794 305.12442017 -7.88401794 305.12442017 Z M32.11598206 305.12442017 C32.11598206 305.45442017 32.11598206 305.78442017 32.11598206 306.12442017 C34.09598206 306.12442017 36.07598206 306.12442017 38.11598206 306.12442017 C38.11598206 305.79442017 38.11598206 305.46442017 38.11598206 305.12442017 C36.13598206 305.12442017 34.15598206 305.12442017 32.11598206 305.12442017 Z M62.11598206 305.12442017 C62.11598206 305.45442017 62.11598206 305.78442017 62.11598206 306.12442017 C63.76598206 306.12442017 65.41598206 306.12442017 67.11598206 306.12442017 C67.11598206 305.79442017 67.11598206 305.46442017 67.11598206 305.12442017 C65.46598206 305.12442017 63.81598206 305.12442017 62.11598206 305.12442017 Z M182.11598206 305.12442017 C182.11598206 305.45442017 182.11598206 305.78442017 182.11598206 306.12442017 C184.09598206 306.12442017 186.07598206 306.12442017 188.11598206 306.12442017 C188.11598206 305.79442017 188.11598206 305.46442017 188.11598206 305.12442017 C186.13598206 305.12442017 184.15598206 305.12442017 182.11598206 305.12442017 Z " fill="#000000" transform="translate(498.88401794433594,642.8755798339844)"/>
<path d="M0 0 C0.99 0 1.98 0 3 0 C3 0.99 3 1.98 3 3 C3.84503082 2.92894547 4.69006165 2.85789093 5.56069946 2.78468323 C14.15372466 2.10983116 22.65256932 1.86582159 31.2734375 1.90234375 C33.20807358 1.90446617 33.20807358 1.90446617 35.18179321 1.90663147 C38.5583705 1.91039205 41.93490259 1.92016445 45.3114624 1.93133545 C48.77794789 1.94169112 52.2444409 1.94615894 55.7109375 1.95117188 C62.47397653 1.96179476 69.23698608 1.97879013 76 2 C76.13247886 12.3382501 76.26297755 22.67652331 76.39115143 33.01482773 C76.45076696 37.81865384 76.51098974 42.62247052 76.57275391 47.42626953 C76.64416831 52.98728173 76.71329778 58.5483195 76.78125 64.109375 C76.79248901 65.01455368 76.80372803 65.91973236 76.81530762 66.8523407 C76.97127325 79.59274725 77.0511947 92.32896089 76.93762207 105.07025146 C76.93178101 106.10313293 76.92593994 107.1360144 76.91992188 108.20019531 C76.91150269 109.08749329 76.9030835 109.97479126 76.89440918 110.88897705 C76.86107456 113.05712653 76.86107456 113.05712653 78 115 C102.09 115.33 126.18 115.66 151 116 C152.07803654 119.23410962 152.12580264 121.56403112 152.12698364 124.96595764 C152.12980347 126.21248611 152.13262329 127.45901459 152.13552856 128.74331665 C152.13358422 130.12713638 152.13153604 131.51095596 152.12939453 132.89477539 C152.13074934 134.35008284 152.13252972 135.80538995 152.13470459 137.26069641 C152.13926904 141.21508092 152.13749352 145.16943938 152.1343255 149.12382436 C152.1317973 153.25755335 152.13414069 157.39128008 152.13571167 161.52500916 C152.13753181 168.4663025 152.13513091 175.40758522 152.13037109 182.34887695 C152.12492663 190.38152291 152.12669309 198.4141435 152.1321975 206.44678885 C152.13673049 213.336847 152.13737833 220.22689749 152.13475883 227.11695665 C152.13319736 231.23505503 152.13299879 235.35314147 152.13629532 239.47123909 C152.1391768 243.34125524 152.13719322 247.21123856 152.13140106 251.08125114 C152.13007505 252.50430115 152.13046491 253.92735391 152.13266373 255.35040283 C152.13538133 257.28727624 152.13137505 259.22415566 152.12698364 261.161026 C152.1264181 262.78952028 152.1264181 262.78952028 152.12584114 264.45091343 C152 267 152 267 151 269 C148.89590361 269.02701408 146.79170822 269.04640223 144.6875 269.0625 C143.51574219 269.07410156 142.34398437 269.08570313 141.13671875 269.09765625 C138 269 138 269 135 268 C134.67 268.66 134.34 269.32 134 270 C133.071875 269.835 132.14375 269.67 131.1875 269.5 C128.04378647 268.92251612 128.04378647 268.92251612 125 269 C123.98808594 268.98839844 122.97617187 268.97679687 121.93359375 268.96484375 C120.77988281 268.95582031 119.62617187 268.94679688 118.4375 268.9375 C116.70306641 268.92009766 116.70306641 268.92009766 114.93359375 268.90234375 C112.0650849 268.7936209 112.0650849 268.7936209 110 270 C109.01 269.67 108.02 269.34 107 269 C106.175 269.165 105.35 269.33 104.5 269.5 C102 270 102 270 99 269 C98.278125 269.144375 97.55625 269.28875 96.8125 269.4375 C89.42102854 270.91579429 83.46713345 269.49342669 76 268 C76 305.95 76 343.9 76 383 C50.92 383 25.84 383 0 383 C-0.08032734 354.42131862 -0.08032734 354.42131862 -0.10050774 340.32453346 C-0.11159882 332.69468325 -0.12568883 325.06487668 -0.15087891 317.43505859 C-0.17293873 310.75017928 -0.18456143 304.06535695 -0.18975449 297.38043976 C-0.19345639 294.82710272 -0.20068505 292.27376834 -0.21146011 289.72045135 C-0.22592939 286.15049098 -0.22797983 282.58072705 -0.22705078 279.01074219 C-0.23424133 277.94978836 -0.24143188 276.88883453 -0.24884033 275.79573059 C-0.246091 274.82260422 -0.24334167 273.84947784 -0.24050903 272.84686279 C-0.24235262 272.00250042 -0.24419621 271.15813805 -0.24609566 270.28818893 C0.02245893 267.79117762 0.7472903 266.15838179 2 264 C2.495 265.485 2.495 265.485 3 267 C26.76 267 50.52 267 75 267 C75 217.83 75 168.66 75 118 C50.58 118.33 26.16 118.66 1 119 C0 118 0 118 -0.12304783 116.08095455 C-0.12212604 115.2338268 -0.12120424 114.38669905 -0.12025452 113.51390076 C-0.12162918 112.54489838 -0.12300385 111.575896 -0.12442017 110.57752991 C-0.12082489 109.50579025 -0.11722961 108.4340506 -0.11352539 107.32983398 C-0.11367142 106.20802734 -0.11381744 105.0862207 -0.1139679 103.93041992 C-0.1132682 100.20229189 -0.10547315 96.47421311 -0.09765625 92.74609375 C-0.09579227 90.16919482 -0.09436827 87.59229553 -0.09336853 85.01539612 C-0.08993342 78.91324885 -0.0820426 72.81112206 -0.07201904 66.70898253 C-0.06085689 59.7635075 -0.0553472 52.81803165 -0.05032361 45.87254989 C-0.03985996 31.58169034 -0.02226115 17.2908458 0 3 C0.66 3 1.32 3 2 3 C2 2.34 2 1.68 2 1 C1.34 0.67 0.68 0.34 0 0 Z " fill="#000000" transform="translate(493,73)"/>
<path d="M0 0 C25.08 0 50.16 0 76 0 C76.632513 7.59015599 77.14670441 14.90505419 77.12939453 22.47851562 C77.13202301 23.93454193 77.13202301 23.93454193 77.13470459 25.41998291 C77.13905459 28.5820909 77.13621142 31.74414159 77.1328125 34.90625 C77.13348707 37.12154145 77.13445837 39.33683283 77.13571167 41.55212402 C77.13717896 46.17147534 77.13506371 50.79080721 77.13037109 55.41015625 C77.12464754 61.33281229 77.12797547 67.25542327 77.13394356 73.1780777 C77.13755256 77.74190614 77.13640948 82.30572385 77.13381577 86.86955261 C77.13314882 89.05445867 77.13396681 91.23936571 77.13629532 93.42427063 C77.13883027 96.46842042 77.13497047 99.51249635 77.12939453 102.55664062 C77.13141876 103.45848083 77.13344299 104.36032104 77.13552856 105.28948975 C77.13270874 106.11906189 77.12988892 106.94863403 77.12698364 107.80334473 C77.1264181 108.88058681 77.1264181 108.88058681 77.12584114 109.97959137 C77 112 77 112 76 116 C63.79 116 51.58 116 39 116 C39.495 121.445 39.495 121.445 40 127 C40.08183829 130.483823 40.12750693 133.94588931 40.11352539 137.4284668 C40.11367142 138.40543015 40.11381744 139.38239349 40.1139679 140.38896179 C40.11327858 143.57573776 40.10553275 146.76245317 40.09765625 149.94921875 C40.09578858 152.17552153 40.09436632 154.40182472 40.09336853 156.62812805 C40.08957085 162.45593421 40.07976435 168.28371501 40.06866455 174.11151123 C40.05839101 180.07108212 40.05385823 186.03065716 40.04882812 191.99023438 C40.03813935 203.66016733 40.02109635 215.33008154 40 227 C49.22270478 227.02313993 58.44539961 227.04092354 67.66812706 227.05181217 C71.95031126 227.05703738 76.23247564 227.06412848 80.51464844 227.07543945 C84.64487529 227.08628117 88.77508305 227.09227957 92.90532303 227.09487724 C94.4834282 227.09672917 96.06153229 227.10034535 97.63962936 227.10573006 C99.84489984 227.11295752 102.05009074 227.11399022 104.25537109 227.11352539 C105.51223724 227.115746 106.76910339 227.11796661 108.0640564 227.12025452 C110.93433417 227.20376392 110.93433417 227.20376392 113 226 C114.20593342 228.41186685 114.12318918 229.91233077 114.12025452 232.60635376 C114.12231651 234.06191933 114.12231651 234.06191933 114.12442017 235.54689026 C114.12082489 236.61503464 114.11722961 237.68317902 114.11352539 238.78369141 C114.11367142 239.90564407 114.11381744 241.02759674 114.1139679 242.18354797 C114.11326909 245.90623889 114.10547815 249.62888028 114.09765625 253.3515625 C114.09579196 255.92703219 114.09436811 258.50250224 114.09336853 261.07797241 C114.0899355 267.17300322 114.08204739 273.26801347 114.07201904 279.36303651 C114.06085056 286.30127972 114.0553456 293.23952376 114.05032361 300.17777371 C114.03986458 314.45185876 114.02226971 328.72592874 114 343 C108.25254311 343.63802487 102.59610958 344.12470291 96.80615234 344.11352539 C96.16095642 344.11367142 95.5157605 344.11381744 94.85101318 344.1139679 C92.76261784 344.11328284 90.67431684 344.10555808 88.5859375 344.09765625 C87.12049407 344.09578705 85.65505 344.09436552 84.18960571 344.09336853 C80.36580628 344.08958288 76.54204591 344.07978719 72.71826172 344.06866455 C68.80306527 344.05836462 64.8878624 344.05385267 60.97265625 344.04882812 C53.31508652 344.03816067 45.65754877 344.0211328 38 344 C36.97389573 338.09523891 36.86441313 332.36811408 36.88647461 326.38305664 C36.88632858 325.3384024 36.88618256 324.29374817 36.8860321 323.21743774 C36.88672599 319.78165576 36.89449384 316.34592871 36.90234375 312.91015625 C36.90420979 310.52119476 36.90563282 308.13223288 36.90663147 305.74327087 C36.910442 299.46824072 36.92025977 293.19323387 36.93133545 286.91821289 C36.94158107 280.50993159 36.94613584 274.10164651 36.95117188 267.69335938 C36.96188337 255.12889633 36.97874883 242.56444941 37 230 C36.40801567 230.01322202 35.81603134 230.02644403 35.20610809 230.04006672 C28.96719806 230.17876553 22.72820019 230.31284698 16.48913574 230.44441223 C14.16993772 230.49389996 11.85076335 230.54451095 9.53161621 230.59632874 C-3.15534047 230.879025 -15.81469767 231.14274115 -28.5 230.6875 C-29.47598145 230.65329956 -30.45196289 230.61909912 -31.45751953 230.5838623 C-37.73684993 230.26315007 -37.73684993 230.26315007 -40 228 C-39.80250055 226.07147207 -39.59218118 224.14289353 -39.29959106 222.22648621 C-38.82445664 218.69540546 -38.87722245 215.19200112 -38.90234375 211.63476562 C-38.90380402 210.83999817 -38.90526428 210.04523071 -38.9067688 209.22637939 C-38.91055133 207.51316193 -38.91664271 205.79994827 -38.92483521 204.08674622 C-38.93771993 201.35970274 -38.94414627 198.63270859 -38.94897461 195.90563965 C-38.96227495 189.1275783 -38.98636045 182.34956359 -39.01037598 175.5715332 C-39.03028053 169.84429676 -39.04585358 164.11707869 -39.05593872 158.38981628 C-39.06231962 155.73140115 -39.07482998 153.07306349 -39.08764648 150.41467285 C-39.11784022 140.23194159 -38.78288226 130.15496268 -38 120 C-38.66 119.67 -39.32 119.34 -40 119 C-39.375 116.5625 -39.375 116.5625 -38 114 C-33.55411349 112.89245584 -29.19607649 112.88348729 -24.6328125 112.90234375 C-23.61343094 112.90446617 -23.61343094 112.90446617 -22.57345581 112.90663147 C-20.42392388 112.91218482 -18.27449992 112.92472831 -16.125 112.9375 C-14.65885568 112.94252104 -13.19270971 112.94708289 -11.7265625 112.95117188 C-8.15100717 112.96213889 -4.57551414 112.97937081 -1 113 C-1.00222061 111.83505508 -1.00444122 110.67011017 -1.00672913 109.46986389 C-1.0271124 98.42333612 -1.04204468 87.37681222 -1.05181217 76.33026981 C-1.05700273 70.65287039 -1.06402978 64.9754863 -1.07543945 59.2980957 C-1.0864057 53.80619089 -1.09230556 48.31430071 -1.09487724 42.82238579 C-1.09670698 40.74032804 -1.10027921 38.65827098 -1.10573006 36.57621956 C-1.11312364 33.63160677 -1.1139834 30.6870524 -1.11352539 27.74243164 C-1.11712067 26.90588043 -1.12071594 26.06932922 -1.12442017 25.20742798 C-1.11043289 16.75065705 -0.49967501 8.49447517 0 0 Z " fill="#000000" transform="translate(304,264)"/>
<path d="M0 0 C337.92 0 675.84 0 1024 0 C1024 337.92 1024 675.84 1024 1024 C686.08 1024 348.16 1024 0 1024 C0 686.08 0 348.16 0 0 Z M1 1 C1 338.26 1 675.52 1 1023 C337.93 1023 674.86 1023 1022 1023 C1022 685.74 1022 348.48 1022 1 C685.07 1 348.14 1 1 1 Z " fill="#9A9A99" transform="translate(0,0)"/>
<path d="M0 0 C0.33 0 0.66 0 1 0 C1 25.41 1 50.82 1 77 C-4.94 77.33 -10.88 77.66 -17 78 C-17 78.33 -17 78.66 -17 79 C-18.65 79 -20.3 79 -22 79 C-22 78.67 -22 78.34 -22 78 C-27.61 78 -33.22 78 -39 78 C-39 78.33 -39 78.66 -39 79 C-41.66666667 79 -44.33333333 79 -47 79 C-48.485 79.495 -48.485 79.495 -50 80 C-52.6875 79.0625 -52.6875 79.0625 -55 78 C-55.66 78.66 -56.32 79.32 -57 80 C-59.5625 79.625 -59.5625 79.625 -62 79 C-63.22560359 78.97946417 -63.22560359 78.97946417 -65.328125 79.2890625 C-66.29234375 79.39992188 -67.2565625 79.51078125 -68.25 79.625 C-69.20390625 79.74101563 -70.1578125 79.85703125 -71.140625 79.9765625 C-74.25725062 80.00210861 -76.21029725 79.33376299 -79 78 C-79 78.33 -79 78.66 -79 79 C-80.98567708 78.96744792 -82.97135417 78.93489583 -84.95703125 78.90234375 C-87.20305461 78.91736783 -87.20305461 78.91736783 -90 80 C-92.6875 79.0625 -92.6875 79.0625 -95 78 C-95 78.33 -95 78.66 -95 79 C-97.66666667 79 -100.33333333 79 -103 79 C-104.485 79.495 -104.485 79.495 -106 80 C-106.8353125 79.5359375 -106.8353125 79.5359375 -107.6875 79.0625 C-111.19207477 77.45228997 -114.16196748 77.8112443 -118 78 C-118.33 78.33 -118.66 78.66 -119 79 C-121.3329614 79.04166002 -123.6670386 79.04166002 -126 79 C-127.36893239 78.94729537 -127.36893239 78.94729537 -130 80 C-132.6875 79.0625 -132.6875 79.0625 -135 78 C-135.66 78.66 -136.32 79.32 -137 80 C-139.4375 79.625 -139.4375 79.625 -142 79 C-144.55692729 79 -146.85132549 79.22227767 -149.375 79.5625 C-152.85991406 79.97548494 -155.56809948 79.807506 -159 79 C-160.485 79.495 -160.485 79.495 -162 80 C-163.66666667 79.66666667 -165.33333333 79.33333333 -167 79 C-168.485 79.495 -168.485 79.495 -170 80 C-171.32 80 -172.64 80 -174 80 C-174.33 79.67 -174.66 79.34 -175 79 C-176.051875 79.165 -177.10375 79.33 -178.1875 79.5 C-181.82431396 79.97695921 -184.44847492 79.77960307 -188 79 C-188.33 79.66 -188.66 80.32 -189 81 C-189.66 80.34 -190.32 79.68 -191 79 C-192.485 79.495 -192.485 79.495 -194 80 C-195.8514445 80.11829437 -197.70732138 80.17514861 -199.5625 80.1875 C-201.01849609 80.20876953 -201.01849609 80.20876953 -202.50390625 80.23046875 C-205 80 -205 80 -207 78 C-207.33 78.66 -207.66 79.32 -208 80 C-209.04800781 79.98259766 -209.04800781 79.98259766 -210.1171875 79.96484375 C-211.48230469 79.95130859 -211.48230469 79.95130859 -212.875 79.9375 C-214.23238281 79.92009766 -214.23238281 79.92009766 -215.6171875 79.90234375 C-218.0168585 79.83750743 -218.0168585 79.83750743 -220 81 C-220 80.34 -220 79.68 -220 79 C-220.886875 79.185625 -221.77375 79.37125 -222.6875 79.5625 C-225.88729962 79.98511504 -227.89926124 79.67043 -231 79 C-232.485 79.495 -232.485 79.495 -234 80 C-236.6875 79.0625 -236.6875 79.0625 -239 78 C-239.33 78.66 -239.66 79.32 -240 80 C-242.12472576 80.05386629 -244.24983652 80.09273071 -246.375 80.125 C-247.55835938 80.14820313 -248.74171875 80.17140625 -249.9609375 80.1953125 C-253 80 -253 80 -255 78 C-255.33 78.66 -255.66 79.32 -256 80 C-265.41002278 80.18451025 -265.41002278 80.18451025 -270 79 C-270 78.67 -270 78.34 -270 78 C-271.45792884 77.94600264 -272.91642712 77.90720823 -274.375 77.875 C-275.18710937 77.85179687 -275.99921875 77.82859375 -276.8359375 77.8046875 C-279.21342243 77.78629949 -279.21342243 77.78629949 -281 80 C-283.53125 80.23046875 -283.53125 80.23046875 -286.5 80.1875 C-287.4796875 80.18105469 -288.459375 80.17460938 -289.46875 80.16796875 C-292 80 -292 80 -294 79 C-294 78.34 -294 77.68 -294 77 C-297.63 77.33 -301.26 77.66 -305 78 C-305 78.33 -305 78.66 -305 79 C-309.33333333 79 -313.66666667 79 -318 79 C-318 78.67 -318 78.34 -318 78 C-320.97 78 -323.94 78 -327 78 C-327.33 78.66 -327.66 79.32 -328 80 C-328.969375 79.835 -329.93875 79.67 -330.9375 79.5 C-334.53039111 78.84234696 -334.53039111 78.84234696 -338 80 C-341.64285714 79.35714286 -341.64285714 79.35714286 -343 78 C-343.66 78.66 -344.32 79.32 -345 80 C-347.00546689 79.70131344 -349.00577205 79.36628677 -351 79 C-351.99 79.33 -352.98 79.66 -354 80 C-356.04506496 79.91409619 -358.08780962 79.76131015 -360.125 79.5625 C-361.20007813 79.46066406 -362.27515625 79.35882812 -363.3828125 79.25390625 C-364.67832031 79.12822266 -364.67832031 79.12822266 -366 79 C-367.18428795 78.96083199 -367.18428795 78.96083199 -369.01953125 79.48828125 C-372.92779845 80.15929436 -376.72961705 80.18414302 -380.6875 80.1875 C-381.45900391 80.19974609 -382.23050781 80.21199219 -383.02539062 80.22460938 C-385.01832707 80.22983104 -387.01083338 80.1226341 -389 80 C-389.66 79.34 -390.32 78.68 -391 78 C-391.33 78.66 -391.66 79.32 -392 80 C-394.97 79.505 -394.97 79.505 -398 79 C-398 78.67 -398 78.34 -398 78 C-400.97 78 -403.94 78 -407 78 C-407.33 78.66 -407.66 79.32 -408 80 C-410.31243792 80.02685412 -412.6249627 80.04632841 -414.9375 80.0625 C-416.22527344 80.07410156 -417.51304687 80.08570313 -418.83984375 80.09765625 C-422 80 -422 80 -423 79 C-425.3329614 78.95833998 -427.6670386 78.95833998 -430 79 C-430.33 79 -430.66 79 -431 79 C-432.175625 79.309375 -432.175625 79.309375 -433.375 79.625 C-436 80 -436 80 -439 78 C-439.33 78.66 -439.66 79.32 -440 80 C-444.79568316 80.094033 -449.31241743 80.17189564 -454 79 C-455.2236068 78.9254644 -455.2236068 78.9254644 -457 80 C-457.969375 79.835 -458.93875 79.67 -459.9375 79.5 C-463.02952435 78.75153105 -463.02952435 78.75153105 -466 80 C-467.66666667 79.66666667 -469.33333333 79.33333333 -471 79 C-471.99 79.33 -472.98 79.66 -474 80 C-474.33 79.34 -474.66 78.68 -475 78 C-476.5778125 78.556875 -476.5778125 78.556875 -478.1875 79.125 C-482.18632214 80.04276246 -483.49128216 79.91384609 -487 78 C-487.66 78.66 -488.32 79.32 -489 80 C-491.5625 79.625 -491.5625 79.625 -494 79 C-494.33 79 -494.66 79 -495 79 C-497 79 -499 79 -501 79 C-501 78.67 -501 78.34 -501 78 C-509.91 77.67 -518.82 77.34 -528 77 C-528 76.67 -528 76.34 -528 76 C-353.76 76 -179.52 76 0 76 C0 50.92 0 25.84 0 0 Z M-378 77 C-378 77.33 -378 77.66 -378 78 C-375.69 78 -373.38 78 -371 78 C-371 77.67 -371 77.34 -371 77 C-373.31 77 -375.62 77 -378 77 Z M-266 77 C-266 77.33 -266 77.66 -266 78 C-264.35 78 -262.7 78 -261 78 C-261 77.67 -261 77.34 -261 77 C-262.65 77 -264.3 77 -266 77 Z M-226 77 C-226 77.33 -226 77.66 -226 78 C-224.02 78 -222.04 78 -220 78 C-220 77.67 -220 77.34 -220 77 C-221.98 77 -223.96 77 -226 77 Z M-196 77 C-196 77.33 -196 77.66 -196 78 C-194.35 78 -192.7 78 -191 78 C-191 77.67 -191 77.34 -191 77 C-192.65 77 -194.3 77 -196 77 Z M-76 77 C-76 77.33 -76 77.66 -76 78 C-74.02 78 -72.04 78 -70 78 C-70 77.67 -70 77.34 -70 77 C-71.98 77 -73.96 77 -76 77 Z " fill="#1B1A19" transform="translate(757,871)"/>
<path d="M0 0 C1.31226563 -0.01417969 2.62453125 -0.02835938 3.9765625 -0.04296875 C7.375 0.1875 7.375 0.1875 10.375 2.1875 C5.75040756 3.36450048 1.29633538 3.30158412 -3.4375 3.25 C-4.61989258 3.24323242 -4.61989258 3.24323242 -5.82617188 3.23632812 C-7.75914761 3.22461312 -9.69208393 3.20667998 -11.625 3.1875 C-11.955 2.5275 -12.285 1.8675 -12.625 1.1875 C-8.38588719 0.16454807 -4.35390125 0.02146894 0 0 Z " fill="#1D1D1C" transform="translate(379.625,947.8125)"/>
<path d="M0 0 C2.10388569 -0.05402274 4.20816714 -0.09280256 6.3125 -0.125 C8.07013672 -0.15980469 8.07013672 -0.15980469 9.86328125 -0.1953125 C13 0 13 0 16 2 C11.34462607 2.83796731 7.62921525 3.0161692 3 2 C2.67 2.66 2.34 3.32 2 4 C1.34 2.68 0.68 1.36 0 0 Z " fill="#1E1E1D" transform="translate(566,948)"/>
<path d="M0 0 C4.29 0 8.58 0 13 0 C13 0.99 13 1.98 13 3 C8.38 3 3.76 3 -1 3 C-0.67 2.01 -0.34 1.02 0 0 Z " fill="#1D1D1C" transform="translate(336,948)"/>
<path d="M0 0 C-0.33 0.66 -0.66 1.32 -1 2 C-5.29 2 -9.58 2 -14 2 C-14.33 1.34 -14.66 0.68 -15 0 C-9.97560615 -1.67479795 -5.09914442 -1.23615622 0 0 Z " fill="#1E1D1D" transform="translate(566,949)"/>
<path d="M0 0 C4.62 0 9.24 0 14 0 C14 0.99 14 1.98 14 3 C12.04174127 3.02694851 10.08337774 3.04637218 8.125 3.0625 C7.03445313 3.07410156 5.94390625 3.08570313 4.8203125 3.09765625 C2 3 2 3 0 2 C0 1.34 0 0.68 0 0 Z " fill="#1E1D1D" transform="translate(463,948)"/>
<path d="M0 0 C3.96 0.33 7.92 0.66 12 1 C8.38863788 2.80568106 7.455469 3.24851563 3.75 3.125 C1.89375 3.063125 1.89375 3.063125 0 3 C0 2.01 0 1.02 0 0 Z " fill="#1F1F1E" transform="translate(600,948)"/>
<path d="M0 0 C2.97 0 5.94 0 9 0 C9 0.99 9 1.98 9 3 C5.66666667 3 2.33333333 3 -1 3 C-0.67 2.01 -0.34 1.02 0 0 Z " fill="#1F1E1E" transform="translate(284,948)"/>
<path d="M0 0 C2.31 0 4.62 0 7 0 C6.67 0.66 6.34 1.32 6 2 C4.68 1.67 3.36 1.34 2 1 C1.67 1.66 1.34 2.32 1 3 C0.67 2.01 0.34 1.02 0 0 Z " fill="#1D1D1C" transform="translate(351,949)"/>
<path d="M0 0 C2.31 0 4.62 0 7 0 C6.67 0.66 6.34 1.32 6 2 C4.35 2 2.7 2 1 2 C0.67 1.34 0.34 0.68 0 0 Z " fill="#1D1D1C" transform="translate(479,949)"/>
<path d="M0 0 C2.31 0 4.62 0 7 0 C6.67 0.66 6.34 1.32 6 2 C3.03 1.505 3.03 1.505 0 1 C0 0.67 0 0.34 0 0 Z " fill="#1E1D1C" transform="translate(431,949)"/>
<path d="M0 0 C2.31 0 4.62 0 7 0 C6.34 0.66 5.68 1.32 5 2 C2.375 1.625 2.375 1.625 0 1 C0 0.67 0 0.34 0 0 Z " fill="#1D1C1C" transform="translate(455,949)"/>
<path d="M0 0 C2.31 0 4.62 0 7 0 C7 0.33 7 0.66 7 1 C4.69 1 2.38 1 0 1 C0 0.67 0 0.34 0 0 Z " fill="#20201E" transform="translate(639,949)"/>
<path d="M0 0 C2.31 0 4.62 0 7 0 C7 0.33 7 0.66 7 1 C4.69 1 2.38 1 0 1 C0 0.67 0 0.34 0 0 Z " fill="#1C1B1B" transform="translate(303,495)"/>
<path d="M0 0 C2.31 0 4.62 0 7 0 C7 0.33 7 0.66 7 1 C4.69 1 2.38 1 0 1 C0 0.67 0 0.34 0 0 Z " fill="#202121" transform="translate(266,495)"/>
<path d="M0 0 C1.98 0 3.96 0 6 0 C6 0.33 6 0.66 6 1 C4.02 1 2.04 1 0 1 C0 0.67 0 0.34 0 0 Z " fill="#1A1A1B" transform="translate(296,495)"/>
<path d="M0 0 C0.33 0 0.66 0 1 0 C1 1.65 1 3.3 1 5 C0.67 5 0.34 5 0 5 C0 3.35 0 1.7 0 0 Z " fill="#1D1D1E" transform="translate(759,920)"/>
<path d="M0 0 C0.33 0 0.66 0 1 0 C1 1.65 1 3.3 1 5 C0.67 5 0.34 5 0 5 C0 3.35 0 1.7 0 0 Z " fill="#1A1A1A" transform="translate(491,381)"/>
<path d="M0 0 C1 4 1 4 1 4 Z " fill="#1C1E1E" transform="translate(759,912)"/>
<path d="M0 0 C1 4 1 4 1 4 Z " fill="#1D1F1E" transform="translate(759,872)"/>
<path d="M0 0 C0.99 0.495 0.99 0.495 2 1 C1.34 1.66 0.68 2.32 0 3 C0 2.01 0 1.02 0 0 Z " fill="#181919" transform="translate(344,381)"/>
<path d="M0 0 C1 4 1 4 1 4 Z " fill="#1D1D1E" transform="translate(491,360)"/>
<path d="M0 0 C3 1 3 1 3 1 Z " fill="#222221" transform="translate(727,949)"/>
<path d="M0 0 C3 1 3 1 3 1 Z " fill="#232222" transform="translate(249,949)"/>
<path d="M0 0 C3 1 3 1 3 1 Z " fill="#252524" transform="translate(241,949)"/>
<path d="" fill="#29292A" transform="translate(0,0)"/>
<path d="" fill="#202121" transform="translate(0,0)"/>
<path d="" fill="#212322" transform="translate(0,0)"/>
<path d="" fill="#1D1E1D" transform="translate(0,0)"/>
<path d="M0 0 C3 1 3 1 3 1 Z " fill="#1D1C1E" transform="translate(292,495)"/>
<path d="M0 0 C3 1 3 1 3 1 Z " fill="#1D1D1D" transform="translate(288,495)"/>
<path d="M0 0 C3 1 3 1 3 1 Z " fill="#1D1E1D" transform="translate(284,495)"/>
<path d="" fill="#222221" transform="translate(0,0)"/>
<path d="" fill="#1B1C1C" transform="translate(0,0)"/>
<path d="M0 0 C3 1 3 1 3 1 Z " fill="#1F1F20" transform="translate(287,376)"/>
<path d="M0 0 C0.99 0.495 0.99 0.495 2 1 C1.01 1.495 1.01 1.495 0 2 C0 1.34 0 0.68 0 0 Z " fill="#201F1E" transform="translate(645,336)"/>
<path d="" fill="#1A1819" transform="translate(0,0)"/>
<path d="" fill="#1A1A19" transform="translate(0,0)"/>
<path d="" fill="#1A1B19" transform="translate(0,0)"/>
<path d="" fill="#323230" transform="translate(0,0)"/>
<path d="M0 0 C2 1 2 1 2 1 Z " fill="#262826" transform="translate(751,949)"/>
<path d="" fill="#2E2E2E" transform="translate(0,0)"/>
<path d="" fill="#211F1F" transform="translate(0,0)"/>
<path d="" fill="#242324" transform="translate(0,0)"/>
<path d="" fill="#1D1D1F" transform="translate(0,0)"/>
<path d="" fill="#1D1D1E" transform="translate(0,0)"/>
<path d="" fill="#1F1F1F" transform="translate(0,0)"/>
<path d="" fill="#1C1C1C" transform="translate(0,0)"/>
<path d="" fill="#181818" transform="translate(0,0)"/>
<path d="" fill="#171816" transform="translate(0,0)"/>
<path d="" fill="#191918" transform="translate(0,0)"/>
<path d="M0 0 C2 1 2 1 2 1 Z " fill="#1D1D1C" transform="translate(338,495)"/>
<path d="M0 0 C2 1 2 1 2 1 Z " fill="#1B1B1B" transform="translate(320,495)"/>
<path d="M0 0 C2 1 2 1 2 1 Z " fill="#1B1A1B" transform="translate(316,495)"/>
<path d="M0 0 C2 1 2 1 2 1 Z " fill="#1B1A1B" transform="translate(311,495)"/>
<path d="M0 0 C2 1 2 1 2 1 Z " fill="#1E1F1E" transform="translate(279,495)"/>
<path d="M0 0 C2 1 2 1 2 1 Z " fill="#1F1E1E" transform="translate(276,495)"/>
<path d="M0 0 C2 1 2 1 2 1 Z " fill="#232423" transform="translate(407,490)"/>
<path d="" fill="#202020" transform="translate(0,0)"/>
<path d="" fill="#1D1E1E" transform="translate(0,0)"/>
<path d="" fill="#202022" transform="translate(0,0)"/>
<path d="" fill="#222321" transform="translate(0,0)"/>
<path d="" fill="#212322" transform="translate(0,0)"/>
<path d="" fill="#212323" transform="translate(0,0)"/>
<path d="" fill="#222323" transform="translate(0,0)"/>
<path d="" fill="#212221" transform="translate(0,0)"/>
<path d="" fill="#222121" transform="translate(0,0)"/>
<path d="" fill="#1A1919" transform="translate(0,0)"/>
<path d="" fill="#191A19" transform="translate(0,0)"/>
<path d="" fill="#1A1919" transform="translate(0,0)"/>
<path d="" fill="#1B1A1B" transform="translate(0,0)"/>
<path d="" fill="#1E1C1D" transform="translate(0,0)"/>
<path d="" fill="#1D1C1C" transform="translate(0,0)"/>
<path d="" fill="#1D1E1B" transform="translate(0,0)"/>
<path d="" fill="#303130" transform="translate(0,0)"/>
<path d="" fill="#232122" transform="translate(0,0)"/>
<path d="" fill="#1E1B1E" transform="translate(0,0)"/>
<path d="" fill="#2F2D2E" transform="translate(0,0)"/>
<path d="" fill="#292729" transform="translate(0,0)"/>
<path d="" fill="#272627" transform="translate(0,0)"/>
<path d="" fill="#262526" transform="translate(0,0)"/>
<path d="" fill="#262625" transform="translate(0,0)"/>
<path d="" fill="#252424" transform="translate(0,0)"/>
<path d="" fill="#232424" transform="translate(0,0)"/>
<path d="" fill="#212223" transform="translate(0,0)"/>
<path d="" fill="#232323" transform="translate(0,0)"/>
<path d="" fill="#212222" transform="translate(0,0)"/>
<path d="" fill="#232120" transform="translate(0,0)"/>
<path d="" fill="#232320" transform="translate(0,0)"/>
<path d="" fill="#20211F" transform="translate(0,0)"/>
<path d="" fill="#1D1E1F" transform="translate(0,0)"/>
<path d="" fill="#1F1D20" transform="translate(0,0)"/>
<path d="" fill="#1C1C1B" transform="translate(0,0)"/>
<path d="" fill="#211F1E" transform="translate(0,0)"/>
<path d="" fill="#242422" transform="translate(0,0)"/>
<path d="" fill="#262626" transform="translate(0,0)"/>
<path d="" fill="#272827" transform="translate(0,0)"/>
<path d="" fill="#292A28" transform="translate(0,0)"/>
<path d="" fill="#2C2C2B" transform="translate(0,0)"/>
<path d="" fill="#2B2A2A" transform="translate(0,0)"/>
<path d="" fill="#2A2929" transform="translate(0,0)"/>
<path d="" fill="#212322" transform="translate(0,0)"/>
<path d="" fill="#252525" transform="translate(0,0)"/>
<path d="" fill="#242424" transform="translate(0,0)"/>
<path d="" fill="#1E1D1D" transform="translate(0,0)"/>
<path d="" fill="#5C5C5A" transform="translate(0,0)"/>
<path d="" fill="#212322" transform="translate(0,0)"/>
<path d="" fill="#1C1C1F" transform="translate(0,0)"/>
<path d="" fill="#222422" transform="translate(0,0)"/>
<path d="" fill="#252224" transform="translate(0,0)"/>
<path d="" fill="#1F2020" transform="translate(0,0)"/>
<path d="" fill="#252624" transform="translate(0,0)"/>
<path d="" fill="#262425" transform="translate(0,0)"/>
<path d="" fill="#202220" transform="translate(0,0)"/>
<path d="" fill="#202020" transform="translate(0,0)"/>
<path d="" fill="#1F2020" transform="translate(0,0)"/>
<path d="" fill="#1D2022" transform="translate(0,0)"/>
<path d="" fill="#202023" transform="translate(0,0)"/>
<path d="" fill="#1A1A1A" transform="translate(0,0)"/>
<path d="" fill="#1D1D1D" transform="translate(0,0)"/>
<path d="" fill="#1E1E1E" transform="translate(0,0)"/>
<path d="" fill="#1B191C" transform="translate(0,0)"/>
<path d="" fill="#1E1E20" transform="translate(0,0)"/>
<path d="" fill="#1A1819" transform="translate(0,0)"/>
<path d="" fill="#1F1E1F" transform="translate(0,0)"/>
<path d="" fill="#242122" transform="translate(0,0)"/>
<path d="" fill="#211F1E" transform="translate(0,0)"/>
<path d="" fill="#1E1C1E" transform="translate(0,0)"/>
<path d="" fill="#212120" transform="translate(0,0)"/>
<path d="" fill="#201F20" transform="translate(0,0)"/>
<path d="" fill="#191817" transform="translate(0,0)"/>
<path d="" fill="#191A18" transform="translate(0,0)"/>
<path d="" fill="#191A19" transform="translate(0,0)"/>
<path d="" fill="#1B1B1B" transform="translate(0,0)"/>
<path d="" fill="#1C1B19" transform="translate(0,0)"/>
<path d="" fill="#1E1F20" transform="translate(0,0)"/>
<path d="" fill="#212020" transform="translate(0,0)"/>
<path d="" fill="#222222" transform="translate(0,0)"/>
<path d="" fill="#232322" transform="translate(0,0)"/>
<path d="" fill="#232323" transform="translate(0,0)"/>
<path d="" fill="#181715" transform="translate(0,0)"/>
<path d="" fill="#181A19" transform="translate(0,0)"/>
<path d="" fill="#191A18" transform="translate(0,0)"/>
<path d="" fill="#1A1B1B" transform="translate(0,0)"/>
<path d="" fill="#1A1C1B" transform="translate(0,0)"/>
<path d="" fill="#1C1C1B" transform="translate(0,0)"/>
<path d="" fill="#1D1E1B" transform="translate(0,0)"/>
<path d="" fill="#2B2C2A" transform="translate(0,0)"/>
<path d="" fill="#201F1E" transform="translate(0,0)"/>
<path d="" fill="#242221" transform="translate(0,0)"/>
<path d="" fill="#232424" transform="translate(0,0)"/>
<path d="" fill="#232423" transform="translate(0,0)"/>
<path d="" fill="#222223" transform="translate(0,0)"/>
<path d="" fill="#232322" transform="translate(0,0)"/>
<path d="" fill="#252421" transform="translate(0,0)"/>
<path d="" fill="#232324" transform="translate(0,0)"/>
<path d="" fill="#323131" transform="translate(0,0)"/>
<path d="" fill="#212020" transform="translate(0,0)"/>
<path d="" fill="#222222" transform="translate(0,0)"/>
<path d="" fill="#222122" transform="translate(0,0)"/>
<path d="" fill="#1F1E1F" transform="translate(0,0)"/>
<path d="" fill="#1C1B1D" transform="translate(0,0)"/>
<path d="" fill="#242324" transform="translate(0,0)"/>
<path d="" fill="#252525" transform="translate(0,0)"/>
<path d="" fill="#201D1B" transform="translate(0,0)"/>
<path d="" fill="#232323" transform="translate(0,0)"/>
<path d="" fill="#232425" transform="translate(0,0)"/>
<path d="" fill="#222122" transform="translate(0,0)"/>
<path d="" fill="#232324" transform="translate(0,0)"/>
<path d="" fill="#212524" transform="translate(0,0)"/>
<path d="" fill="#222424" transform="translate(0,0)"/>
<path d="" fill="#222323" transform="translate(0,0)"/>
<path d="" fill="#1A1819" transform="translate(0,0)"/>
<path d="" fill="#20221F" transform="translate(0,0)"/>
<path d="" fill="#20201F" transform="translate(0,0)"/>
<path d="" fill="#1D1D1D" transform="translate(0,0)"/>
<path d="" fill="#1E1B1D" transform="translate(0,0)"/>
<path d="" fill="#1C1C1C" transform="translate(0,0)"/>
<path d="" fill="#1C1C1D" transform="translate(0,0)"/>
<path d="" fill="#1C1C1B" transform="translate(0,0)"/>
<path d="" fill="#202321" transform="translate(0,0)"/>
<path d="" fill="#1C1C1A" transform="translate(0,0)"/>
<path d="" fill="#222222" transform="translate(0,0)"/>
<path d="" fill="#1B1B1C" transform="translate(0,0)"/>
<path d="" fill="#202120" transform="translate(0,0)"/>
<path d="" fill="#1A1919" transform="translate(0,0)"/>
<path d="" fill="#1B1C1B" transform="translate(0,0)"/>
<path d="" fill="#202122" transform="translate(0,0)"/>
<path d="" fill="#1C1A1B" transform="translate(0,0)"/>
<path d="" fill="#1A1B1B" transform="translate(0,0)"/>
<path d="" fill="#201E1C" transform="translate(0,0)"/>
<path d="" fill="#1F1F1D" transform="translate(0,0)"/>
<path d="" fill="#1E1C1D" transform="translate(0,0)"/>
<path d="" fill="#1D1E1D" transform="translate(0,0)"/>
<path d="" fill="#1C1A1B" transform="translate(0,0)"/>
<path d="" fill="#222321" transform="translate(0,0)"/>
<path d="" fill="#242223" transform="translate(0,0)"/>
<path d="" fill="#323333" transform="translate(0,0)"/>
<path d="" fill="#1C1E1B" transform="translate(0,0)"/>
<path d="" fill="#1D1D1D" transform="translate(0,0)"/>
<path d="" fill="#1E1F1D" transform="translate(0,0)"/>
<path d="" fill="#515151" transform="translate(0,0)"/>
<path d="" fill="#20201F" transform="translate(0,0)"/>
<path d="" fill="#232121" transform="translate(0,0)"/>
<path d="" fill="#1F1E1D" transform="translate(0,0)"/>
<path d="" fill="#1D1B1B" transform="translate(0,0)"/>
<path d="" fill="#1B1A1A" transform="translate(0,0)"/>
<path d="" fill="#1B1B1B" transform="translate(0,0)"/>
<path d="" fill="#1B1B1C" transform="translate(0,0)"/>
<path d="" fill="#1C1C1C" transform="translate(0,0)"/>
<path d="" fill="#1D1A1B" transform="translate(0,0)"/>
<path d="" fill="#1E1C1B" transform="translate(0,0)"/>
<path d="" fill="#1A1B1B" transform="translate(0,0)"/>
<path d="" fill="#20201F" transform="translate(0,0)"/>
<path d="" fill="#1B1D1B" transform="translate(0,0)"/>
<path d="" fill="#1B191A" transform="translate(0,0)"/>
<path d="" fill="#222223" transform="translate(0,0)"/>
<path d="" fill="#222221" transform="translate(0,0)"/>
<path d="" fill="#171716" transform="translate(0,0)"/>
<path d="" fill="#262424" transform="translate(0,0)"/>
<path d="" fill="#1B1C1D" transform="translate(0,0)"/>
<path d="" fill="#252324" transform="translate(0,0)"/>
<path d="" fill="#212120" transform="translate(0,0)"/>
<path d="" fill="#1C1C1B" transform="translate(0,0)"/>
<path d="" fill="#1C1B1A" transform="translate(0,0)"/>
<path d="" fill="#19181A" transform="translate(0,0)"/>
<path d="" fill="#181C19" transform="translate(0,0)"/>
<path d="" fill="#191819" transform="translate(0,0)"/>
<path d="" fill="#1B1818" transform="translate(0,0)"/>
<path d="" fill="#383838" transform="translate(0,0)"/>
<path d="" fill="#1B1C1B" transform="translate(0,0)"/>
<path d="" fill="#1E1F1D" transform="translate(0,0)"/>
<path d="" fill="#202020" transform="translate(0,0)"/>
<path d="" fill="#242722" transform="translate(0,0)"/>
<path d="" fill="#262624" transform="translate(0,0)"/>
<path d="" fill="#282927" transform="translate(0,0)"/>
<path d="" fill="#2D2D2B" transform="translate(0,0)"/>
<path d="" fill="#30332F" transform="translate(0,0)"/>
<path d="" fill="#2F3131" transform="translate(0,0)"/>
<path d="" fill="#323433" transform="translate(0,0)"/>
<path d="" fill="#343433" transform="translate(0,0)"/>
</svg>
